<svg xmlns="http://www.w3.org/2000/svg" xmlns:xlink="http://www.w3.org/1999/xlink" width="331.518" height="349.567" viewBox="0 0 331.518 349.567">
  <defs>
    <clipPath id="clip-path">
      <path id="Trazado_6511" data-name="Trazado 6511" d="M252.073,299.547s-27.82-7.49-40.928-9.9-25.413-4.012-29.693,1.07-3.21,44.674-5.083,54.571-4.012,28.891-4.547,31.833-2.943,5.618-1.337,6.688,11.235,1.873,14.712,0,6.153-2.943,6.153-6.153.535-31.833,2.943-40.66,4.279-23.807,4.279-23.807,17.388,4.012,25.414,6.42,19.527,10.967,30.5,11.234,9.63-16.317,7.49-21.132S256.085,300.349,252.073,299.547Z" transform="translate(-169.94 -287.372)" fill="#c6ff00" stroke="#263238" stroke-linecap="round" stroke-linejoin="round" stroke-width="1"/>
    </clipPath>
    <clipPath id="clip-path-2">
      <path id="Trazado_6517" data-name="Trazado 6517" d="M293.2,244.809s-2.559.569-9.953-.853-7.11,1.706-16.779-2.275-31.282-20.191-34.695-22.751l-3.413-2.56s.451-5.393.451-8.356-.165-5.764-.165-5.764.824-6.751.165-7.9-1.811.329-1.811,1.646a34.443,34.443,0,0,1-1.811,7.081s-1.153-6.916-1.483-8.233-1.152-1.812-1.976-1.483.165,3.952.165,5.434-.165,5.763-.165,5.763-2.963-7.246-3.787-8.727-1.811-.329-1.646.988,2.634,8.563,2.634,8.563-1.482,7.739-1.482,8.233-3.129-.494-4.611-1.811-1.976,0-.987,1.646,3.622,3.294,6.587,4.611,6.257,2.635,6.257,2.635,17.125,18.443,23.383,24.207,13.173,9.385,16.8,11.362,11.527,6.092,11.527,6.092-3.952,2.964-3.952,7.74.988,9.057-1.317,12.185-10.045,9.386-10.045,9.386-10.538-10.7-17.126-14.655-13.5-5.434-18.607,2.305-5.434,41-5.929,51.87-2.635,17.949-3.787,19.1a6.516,6.516,0,0,0-1.976,3.787c0,.987-.165,3.293-.165,3.293s1.482,8.4,5.928,11.692,6.916,7.575,8.4,4.776,5.269-7.574,5.6-11.692a100.464,100.464,0,0,1,1.318-11.2c.493-1.976.329-17.29,3.128-25.03s4.281-12.35,4.281-12.35,2.635,15.314,14,18.443,21.9-2.964,27.994-12.021,14-26.018,19.266-32.769,13.339-17.949,13.339-17.949l11.692,15.643a48.427,48.427,0,0,1-3.129,5.764c-1.976,3.128-8.563,9.221-8.563,9.221s2.963,2.3,5.269,2.634,13.338-4.939,18.772-9.55,6.422-6.587,4.281-9.716-10.7-14.491-15.808-21.737-5.434-13.009-10.538-14.82-11.362-.329-13.338-.329a41.314,41.314,0,0,1-5.929-.824Z" transform="translate(-211.333 -193.26)" stroke="#263238" stroke-linecap="round" stroke-linejoin="round" stroke-width="1"/>
    </clipPath>
    <clipPath id="clip-path-3">
      <path id="Trazado_6524" data-name="Trazado 6524" d="M329.256,261.531c-5.1-7.246-5.434-13.009-10.538-14.82s-11.362-.329-13.338-.329a41.314,41.314,0,0,1-5.929-.824l-6.255-.75s-2.559.569-9.953-.853-7.11,1.706-16.779-2.275-31.282-20.191-34.695-22.751l-3.413-2.56s.451-5.393.451-8.356-.165-5.764-.165-5.764.824-6.751.165-7.9-1.811.329-1.811,1.646a34.443,34.443,0,0,1-1.811,7.081s-1.153-6.916-1.483-8.233-1.152-1.812-1.976-1.483.165,3.952.165,5.434-.165,5.763-.165,5.763-2.963-7.246-3.787-8.727-1.811-.329-1.646.988,2.634,8.563,2.634,8.563-1.482,7.739-1.482,8.233-3.129-.494-4.611-1.811-1.976,0-.988,1.646,3.623,3.294,6.588,4.611,6.257,2.635,6.257,2.635,17.125,18.443,23.383,24.207,13.173,9.385,16.8,11.362,11.527,6.092,11.527,6.092-3.952,2.964-3.952,7.74c0,.207,0,.412.008.618L307.4,281.985c4.592-6.12,9.345-12.714,9.345-12.714l11.691,15.643a48.324,48.324,0,0,1-3.128,5.764c-1.976,3.128-8.563,9.221-8.563,9.221s2.963,2.305,5.269,2.635,13.339-4.94,18.772-9.55,6.422-6.588,4.281-9.716S334.361,268.777,329.256,261.531Z" transform="translate(-211.333 -193.26)" fill="#fff" stroke="#263238" stroke-linecap="round" stroke-linejoin="round" stroke-width="1"/>
    </clipPath>
    <clipPath id="clip-path-4">
      <path id="Trazado_6535" data-name="Trazado 6535" d="M306.154,209.675s-7.109,1.991-9.1,3.7-4.835,7.11-8.248,7.678-3.413,2.56-3.413,3.982a4.371,4.371,0,0,0,.569,2.274s-.285,6.541-.285,9.954.853,4.266,2.56,4.266h3.981s-.853,11.944-1.706,14.789,4.266-.285,5.687-1.707l7.963-7.962s-1.706-8.248.853-13.935-1.991-7.678-2.559-13.936A9.9,9.9,0,0,1,306.154,209.675Z" transform="translate(-285.394 -209.675)" fill="#fff" stroke="#263238" stroke-linecap="round" stroke-linejoin="round" stroke-width="1"/>
    </clipPath>
  </defs>
  <g id="Grupo_3115" data-name="Grupo 3115" transform="translate(-39.218 -158.405)">
    <g id="Grupo_2286" data-name="Grupo 2286" transform="translate(39.702 159)">
      <g id="Grupo_2285" data-name="Grupo 2285">
        <g id="Grupo_2284" data-name="Grupo 2284">
          <path id="Trazado_6458" data-name="Trazado 6458" d="M144.536,185.727s-8.877,20.275-7.544,21.511,11.609,21.169,13.283,21.235,1.089-5.187,1.089-5.187L161.3,213.9Z" transform="translate(-73.897 -87.745)"/>
          <path id="Trazado_6459" data-name="Trazado 6459" d="M185.129,173.129s19.288,10.857,18.965,12.646,3.46,23.894,2.162,24.954-3.991-3.488-3.991-3.488l-13.579-1.519Z" transform="translate(-75.114 -87.427)"/>
          <path id="Trazado_6460" data-name="Trazado 6460" d="M387.816,321.971c-10.371-29.58-42.791,15.137-59.28,25.554s-13.6-45.836-39.626-27.428-27.294,70.037-51.806,68.543c-10.486-.638-16.3-34.211-23.533-54.07l-34.7-139.412-18.59,8.162,45.566,137.488c2.232,11.773,15.244,43.146,14.569,49.764-.9,8.8-22.008,7.731-42.9,1.02-35.127-11.283-51.054-71.777-78.956-79.328-13.285-3.6-20.892,4.6-26.29,14.247q1.825,4.078,3.978,7.889c26.857,47.415,71,70.507,136.527,72.972s111.633,6.909,167.572-43.816q2.639-2.392,5.086-4.928C389.081,347.14,391.785,333.3,387.816,321.971Z" transform="translate(-72.269 -87.983)" fill="#f6f7f9"/>
          <path id="Trazado_6461" data-name="Trazado 6461" d="M188.175,201.078s-5.8-61.394-10.568-78.45S147.236,81.59,138,85.67s-13.154,36.388-10.845,53.151,28.356,72.63,36.533,77.979S187.492,223.743,188.175,201.078Z" transform="translate(-73.636 -85.211)" fill="#fff" stroke="#000" stroke-width="1"/>
          <path id="Trazado_6462" data-name="Trazado 6462" d="M189.025,204.045s-.039-.407-.111-1.155c-6.144,20.193-19.777,16.886-28.695,11.978a19.9,19.9,0,0,0,4.319,4.9C172.717,225.117,188.342,226.71,189.025,204.045Z" transform="translate(-74.486 -88.178)"/>
          <path id="Trazado_6463" data-name="Trazado 6463" d="M138,85.67c-8.61,3.806-12.6,32.142-11.227,49.546a30.369,30.369,0,0,0,10.95,5.842c15.694,4.578,32.347-4.141,39.453-19.8C171.488,104.316,146.99,81.7,138,85.67Z" transform="translate(-73.636 -85.211)"/>
          <g id="Grupo_2283" data-name="Grupo 2283" transform="translate(61.819 6.597)">
            <path id="Trazado_6464" data-name="Trazado 6464" d="M158.3,100.168a96.115,96.115,0,0,1,16.6,22.674" transform="translate(-136.256 -92.184)" fill="none" stroke="#000" stroke-linecap="round" stroke-linejoin="round" stroke-width="1"/>
            <path id="Trazado_6465" data-name="Trazado 6465" d="M149.489,91.978s1.679,1.331,4.256,3.73" transform="translate(-136.034 -91.978)" fill="none" stroke="#000" stroke-linecap="round" stroke-linejoin="round" stroke-width="1"/>
            <line id="Línea_50" data-name="Línea 50" x2="0.38" y2="2.873" transform="translate(49.633 105.77)" fill="none" stroke="#000" stroke-linecap="round" stroke-linejoin="round" stroke-width="1"/>
            <line id="Línea_51" data-name="Línea 51" x2="0.861" y2="6.498" transform="translate(48.47 96.988)" fill="none" stroke="#000" stroke-linecap="round" stroke-linejoin="round" stroke-width="1"/>
            <line id="Línea_52" data-name="Línea 52" x2="5.92" y2="44.698" transform="translate(41.788 46.545)" fill="none" stroke="#000" stroke-linecap="round" stroke-linejoin="round" stroke-width="1"/>
            <line id="Línea_53" data-name="Línea 53" x2="0.532" y2="4.015" transform="translate(40.517 36.95)" fill="none" stroke="#000" stroke-linecap="round" stroke-linejoin="round" stroke-width="1"/>
            <line id="Línea_54" data-name="Línea 54" x2="11.002" y2="24.832" transform="translate(0 64.661)" fill="none" stroke="#000" stroke-linecap="round" stroke-linejoin="round" stroke-width="1"/>
            <line id="Línea_55" data-name="Línea 55" x2="2.244" y2="5.047" transform="translate(12.143 92.529)" fill="none" stroke="#000" stroke-linecap="round" stroke-linejoin="round" stroke-width="1"/>
          </g>
          <ellipse id="Elipse_124" data-name="Elipse 124" cx="14.633" cy="13.82" rx="14.633" ry="13.82" transform="translate(70.037 85.527) rotate(-73.738)"/>
          <path id="Trazado_6466" data-name="Trazado 6466" d="M170.629,166.175a8.844,8.844,0,1,1-5.858-11.448A9.1,9.1,0,0,1,170.629,166.175Z" transform="translate(-74.311 -86.955)" fill="#fedc00"/>
          <path id="Trazado_6467" data-name="Trazado 6467" d="M171.866,201.243l10.547,27.143a1.144,1.144,0,0,0,1.548.706h0a1.346,1.346,0,0,0,.706-1.688l-9.011-27.815a1.92,1.92,0,0,0-2.727-1.063h0A2.273,2.273,0,0,0,171.866,201.243Z" transform="translate(-74.777 -88.062)"/>
        </g>
      </g>
    </g>
    <g id="Grupo_2288" data-name="Grupo 2288" transform="translate(299.437 381.135)">
      <path id="Trazado_6468" data-name="Trazado 6468" d="M409.521,348.5A35.394,35.394,0,0,1,382.1,382.974c-.039.014-.064.014-.1.026-.929.207-1.857.387-2.811.528a36.2,36.2,0,0,1-5.056.362,35.392,35.392,0,0,1-1.3-70.761c.323-.025.658-.025.993-.025a2.537,2.537,0,0,1,.31-.013,3.432,3.432,0,0,1,.361.013,34.831,34.831,0,0,1,13.866,2.979A35.394,35.394,0,0,1,409.521,348.5Z" transform="translate(-338.722 -313.091)" fill="#fedc00"/>
      <path id="Trazado_6469" data-name="Trazado 6469" d="M388.528,316.083c-40.876-2.128-41.069,43.248-41.069,43.248s-6.243-14.807,3.947-31.214c5.688-9.171,15.607-13.221,23.256-15.014A34.831,34.831,0,0,1,388.528,316.083Z" transform="translate(-338.895 -313.091)" fill="#fff" opacity="0.4"/>
      <path id="Trazado_6470" data-name="Trazado 6470" d="M409.521,348.5a35.4,35.4,0,1,1-36.7-35.367c.426-.025.865-.038,1.3-.038A35.4,35.4,0,0,1,409.521,348.5Z" transform="translate(-338.722 -313.091)" fill="none" stroke="#263238" stroke-linecap="round" stroke-linejoin="round" stroke-width="1"/>
      <path id="Trazado_6471" data-name="Trazado 6471" d="M409.691,348.5A35.4,35.4,0,0,1,382.166,383c-.426.025-.864.039-1.3.039A35.4,35.4,0,0,1,373,313.129c.426-.025.865-.038,1.3-.038A35.4,35.4,0,0,1,409.691,348.5Z" transform="translate(-338.892 -313.091)" fill="none" stroke="#263238" stroke-linecap="round" stroke-linejoin="round" stroke-width="1"/>
      <g id="Grupo_2287" data-name="Grupo 2287" transform="translate(24.794 8.278)">
        <path id="Trazado_6472" data-name="Trazado 6472" d="M386.965,370.863l.916,3.738-6.118,1.5-.916-3.738c-5.483-.024-9.88-3.558-11.281-9.268l-.416-1.7,6.749-2.449.433,1.767c.851,3.467,3.134,5.141,5.99,4.44a4.394,4.394,0,0,0,3.505-5.688c-.818-3.33-4.644-5.419-9.066-7.576-5.234-2.535-10.634-5.752-12.118-11.8-1.45-5.913.37-10.828,5.034-13.268l-.917-3.739,6.117-1.5.917,3.738c5.313-.078,9.269,3.42,10.753,9.468l.3,1.223L380.1,338.46l-.333-1.359c-.9-3.67-2.8-5.224-5.31-4.606s-3.56,2.53-2.825,5.521c.816,3.329,4.695,5.333,9.064,7.576,5.184,2.621,10.635,5.752,12.119,11.8C394.23,363.17,391.9,368.355,386.965,370.863Z" transform="translate(-364.158 -321.583)" fill="none" stroke="#263238" stroke-miterlimit="10" stroke-width="1"/>
        <path id="Trazado_6473" data-name="Trazado 6473" d="M386.965,370.863l.916,3.738-6.118,1.5-.916-3.738c-5.483-.024-9.88-3.558-11.281-9.268l-.416-1.7,6.749-2.449.433,1.767c.851,3.467,3.134,5.141,5.99,4.44a4.394,4.394,0,0,0,3.505-5.688c-.818-3.33-4.644-5.419-9.066-7.576-5.234-2.535-10.634-5.752-12.118-11.8-1.45-5.913.37-10.828,5.034-13.268l-.917-3.739,6.117-1.5.917,3.738c5.313-.078,9.269,3.42,10.753,9.468l.3,1.223L380.1,338.46l-.333-1.359c-.9-3.67-2.8-5.224-5.31-4.606s-3.56,2.53-2.825,5.521c.816,3.329,4.695,5.333,9.064,7.576,5.184,2.621,10.635,5.752,12.119,11.8C394.23,363.17,391.9,368.355,386.965,370.863Z" transform="translate(-364.158 -321.583)" opacity="0.3"/>
      </g>
      <line id="Línea_56" data-name="Línea 56" y1="0.343" x2="7.478" transform="translate(17.316 65.49)" fill="none" stroke="#263238" stroke-linecap="round" stroke-linejoin="round" stroke-width="1"/>
      <line id="Línea_57" data-name="Línea 57" y1="0.553" x2="6.526" transform="translate(13.718 62.797)" fill="none" stroke="#263238" stroke-linecap="round" stroke-linejoin="round" stroke-width="1"/>
      <line id="Línea_58" data-name="Línea 58" y1="0.553" x2="6.526" transform="translate(10.79 60.172)" fill="none" stroke="#263238" stroke-linecap="round" stroke-linejoin="round" stroke-width="1"/>
      <line id="Línea_59" data-name="Línea 59" x2="5.588" transform="translate(9.898 10.855)" fill="none" stroke="#263238" stroke-linecap="round" stroke-linejoin="round" stroke-width="1"/>
      <line id="Línea_60" data-name="Línea 60" y1="0.253" x2="5.563" transform="translate(12.658 8.026)" fill="none" stroke="#263238" stroke-linecap="round" stroke-linejoin="round" stroke-width="1"/>
      <line id="Línea_61" data-name="Línea 61" y1="0.553" x2="5.871" transform="translate(16.141 5.148)" fill="none" stroke="#263238" stroke-linecap="round" stroke-linejoin="round" stroke-width="1"/>
      <path id="Trazado_6474" data-name="Trazado 6474" d="M382.1,382.974c-.039.014-.064.014-.1.026a35.392,35.392,0,1,1-9.171-69.871c.323-.025.658-.025.993-.025-8.629,2.722-23.1,9.674-26.97,24.171C341.353,357.861,353.709,381.246,382.1,382.974Z" transform="translate(-338.722 -313.091)" opacity="0.3"/>
    </g>
    <g id="Grupo_2290" data-name="Grupo 2290" transform="translate(288.629 214.336)">
      <path id="Trazado_6476" data-name="Trazado 6476" d="M366.533,175.743a21.408,21.408,0,0,1-25.642,7.443c-.039-.013-.091-.038-.129-.052a21.98,21.98,0,0,1-2-.967,20.431,20.431,0,0,1-2.064-1.29,21.4,21.4,0,0,1,23.578-35.7c.168.09.322.193.477.3.219.129.439.284.658.439q.5.348.968.735A21.4,21.4,0,0,1,366.533,175.743Z" transform="translate(-327.635 -141.978)" fill="#fedc00"/>
      <path id="Trazado_6477" data-name="Trazado 6477" d="M334.332,176.093s-3.506-10.3,1.15-17.886c5.842-9.512,14.805-13.844,27-11.5,0,0-6.613-4.463-17.675-1.3S327.809,163.8,334.332,176.093Z" transform="translate(-327.735 -142.036)" fill="#fff" opacity="0.4"/>
      <path id="Trazado_6478" data-name="Trazado 6478" d="M366.531,175.749a21.411,21.411,0,1,1-5.779-30.28c.218.135.44.282.656.436A21.414,21.414,0,0,1,366.531,175.749Z" transform="translate(-327.635 -141.978)" fill="none" stroke="#000" stroke-linecap="round" stroke-linejoin="round" stroke-width="1"/>
      <path id="Trazado_6479" data-name="Trazado 6479" d="M366.623,175.8a21.41,21.41,0,0,1-25.641,7.434c-.219-.136-.441-.283-.657-.436a21.411,21.411,0,0,1,20.519-37.278c.218.135.44.282.656.436A21.414,21.414,0,0,1,366.623,175.8Z" transform="translate(-327.727 -142.027)" fill="none" stroke="#000" stroke-linecap="round" stroke-linejoin="round" stroke-width="1"/>
      <g id="Grupo_2289" data-name="Grupo 2289" transform="translate(13.242 6.659)">
        <path id="Trazado_6480" data-name="Trazado 6480" d="M347.682,178.764l-.852,2.167-3.546-1.395.853-2.167a6.942,6.942,0,0,1-2.338-8.516l.388-.985,4.189,1.146-.4,1.025c-.791,2.01-.247,3.633,1.408,4.284a2.658,2.658,0,0,0,3.718-1.586c.758-1.93-.4-4.3-1.834-6.906-1.7-3.08-3.244-6.554-1.866-10.059,1.349-3.427,3.964-5.22,7.119-4.8l.852-2.167,3.545,1.394-.853,2.167c2.652,1.816,3.385,4.925,2.007,8.431l-.28.709-4.188-1.147.309-.788c.837-2.127.444-3.556-1.014-4.128s-2.642.007-3.323,1.741c-.759,1.929.457,4.272,1.833,6.906,1.644,3.1,3.244,6.554,1.866,10.06A6.906,6.906,0,0,1,347.682,178.764Z" transform="translate(-341.22 -148.809)" fill="none" stroke="#000" stroke-miterlimit="10" stroke-width="1"/>
        <path id="Trazado_6481" data-name="Trazado 6481" d="M347.682,178.764l-.852,2.167-3.546-1.395.853-2.167a6.942,6.942,0,0,1-2.338-8.516l.388-.985,4.189,1.146-.4,1.025c-.791,2.01-.247,3.633,1.408,4.284a2.658,2.658,0,0,0,3.718-1.586c.758-1.93-.4-4.3-1.834-6.906-1.7-3.08-3.244-6.554-1.866-10.059,1.349-3.427,3.964-5.22,7.119-4.8l.852-2.167,3.545,1.394-.853,2.167c2.652,1.816,3.385,4.925,2.007,8.431l-.28.709-4.188-1.147.309-.788c.837-2.127.444-3.556-1.014-4.128s-2.642.007-3.323,1.741c-.759,1.929.457,4.272,1.833,6.906,1.644,3.1,3.244,6.554,1.866,10.06A6.906,6.906,0,0,1,347.682,178.764Z" transform="translate(-341.22 -148.809)" stroke="#000" stroke-width="1" opacity="0.3"/>
      </g>
      <path id="Trazado_6482" data-name="Trazado 6482" d="M360.278,145.174c-5.882-1.045-13.26-1.626-17.259.942-7.339,4.707-11.905,10.641-11.841,20.263s9.055,16.368,9.055,16.368l.529.387a21.406,21.406,0,1,1,19.515-37.959Z" transform="translate(-327.635 -141.978)" opacity="0.3"/>
    </g>
    <path id="Trazado_6492" data-name="Trazado 6492" d="M204.688,195.486c46.225,10.18,136.069,37.452,159.009,39.035,56.08,3.868,59.482-94.8-13.833-116.856-57.126-17.188-114.163,26.786-159.923,43.4" transform="translate(-35.534 73.07)" fill="none" stroke="#263238" stroke-linecap="round" stroke-linejoin="round" stroke-width="0.5" stroke-dasharray="3 3"/>
    <g id="Grupo_2294" data-name="Grupo 2294" transform="translate(57.246 270.532)">
      <path id="Trazado_6494" data-name="Trazado 6494" d="M285.692,404.505s-26.728,6.7-98.57-15.282c-31.986-9.79-64.885-26.792-82.55-56.4-27.774-46.545-14.056-110.173,32.056-133.2" transform="translate(-90.267 -199.627)" fill="none" stroke="#263238" stroke-linecap="round" stroke-linejoin="round" stroke-width="0.5" stroke-dasharray="5 3"/>
      <g id="Grupo_2293" data-name="Grupo 2293" transform="translate(172.608 170.306)">
        <path id="Trazado_6495" data-name="Trazado 6495" d="M274.307,399.731l-6.967,30.9,82.686-16.053Z" transform="translate(-267.34 -374.978)" stroke="#fff" stroke-linecap="round" stroke-linejoin="round" stroke-width="1"/>
        <path id="Trazado_6496" data-name="Trazado 6496" d="M274.4,408.87l-7.065,22,29.867-6.386Z" transform="translate(-267.34 -375.209)" stroke="#fff" stroke-linecap="round" stroke-linejoin="round" stroke-width="1"/>
        <path id="Trazado_6497" data-name="Trazado 6497" d="M272.929,374.338l1.519,24.753,75.719,14.851Z" transform="translate(-267.481 -374.338)" stroke="#fff" stroke-linecap="round" stroke-linejoin="round" stroke-width="1"/>
        <path id="Trazado_6498" data-name="Trazado 6498" d="M350.195,414.813l-76.151,27.03.53-32.972Z" transform="translate(-267.509 -375.209)" stroke="#fff" stroke-linecap="round" stroke-linejoin="round" stroke-width="1"/>
      </g>
    </g>
    <g id="Grupo_2312" data-name="Grupo 2312" transform="translate(121.721 262.82)">
      <g id="Grupo_2295" data-name="Grupo 2295" transform="translate(122.49 0)">
        <path id="Trazado_6499" data-name="Trazado 6499" d="M297.254,215.194s-4.266-8.531-2.275-13.365,9.67-12.513,13.651-9.385,2.56,10.238,5.972,12.229,14.5,7.109,15.357,16.779-6.541,17.063-4.55,20.475,16.779,2.559,22.752,12.228,3.981,23.32-.285,28.723-30.144,13.65-30.144,19.907,7.962,13.082-3.982,19.338-29.86,3.128-31.567-11.659,16.21-28.723,15.072-38.677-11.375-17.347-14.219-26.732,12.513-12.229,14.788-15.641S297.254,215.194,297.254,215.194Z" transform="translate(-282.067 -191.716)" stroke="#000" stroke-linecap="round" stroke-linejoin="round" stroke-width="1"/>
        <path id="Trazado_6500" data-name="Trazado 6500" d="M347.249,273.769c-.718,2.224-1.723,3.58-2.117,3.711" transform="translate(-283.657 -193.784)" fill="none" stroke="#fff" stroke-linecap="round" stroke-linejoin="round" stroke-width="1"/>
        <path id="Trazado_6501" data-name="Trazado 6501" d="M311.938,225.1s1.233,6.471,6.164,9.245-3.7,9.245,1.541,16.025,21.879,0,25.885,9.245a19.58,19.58,0,0,1,1.671,7.329" transform="translate(-282.82 -192.557)" fill="none" stroke="#fff" stroke-linecap="round" stroke-linejoin="round" stroke-width="1"/>
        <path id="Trazado_6502" data-name="Trazado 6502" d="M325.1,232.25a12.628,12.628,0,0,0,2.889,1.348" transform="translate(-283.152 -192.738)" fill="none" stroke="#fff" stroke-linecap="round" stroke-linejoin="round" stroke-width="1"/>
        <path id="Trazado_6503" data-name="Trazado 6503" d="M313.519,204.865s.308,15.1,4.93,20.955a26.474,26.474,0,0,0,3.125,3.341" transform="translate(-282.86 -192.047)" fill="none" stroke="#fff" stroke-linecap="round" stroke-linejoin="round" stroke-width="1"/>
      </g>
      <path id="Trazado_6504" data-name="Trazado 6504" d="M229.246,208.131s1.6-6.5,1.6-8.394-.473-2.366-.946-1.3a36.663,36.663,0,0,0-1.183,3.9Z" transform="translate(-158.233 -191.871)" fill="#fff" stroke="#263238" stroke-linecap="round" stroke-linejoin="round" stroke-width="1"/>
      <g id="Grupo_2296" data-name="Grupo 2296" transform="translate(0 182.461)">
        <path id="Trazado_6505" data-name="Trazado 6505" d="M170.41,385.316s-5.35,8.828-9.9,13.642-5.885,9.9-1.07,11.235,12.038-.535,15.783-4.28,6.955-9.363,10.7-11.5,6.153-2.408,6.153-8.293S189.4,378.9,189.4,378.9,178.7,385.048,170.41,385.316Z" transform="translate(-156.41 -378.896)" stroke="#000" stroke-linecap="round" stroke-linejoin="round" stroke-width="1"/>
        <path id="Trazado_6506" data-name="Trazado 6506" d="M183.518,394.381c-5.083,4.279-9.363,12.3-17.655,13.375-4.87.629-7.791-.588-9.383-1.7-.327,2.068.532,3.7,2.963,4.374,4.815,1.337,12.038-.535,15.783-4.28s6.955-9.363,10.7-11.5c3.279-1.874,5.532-2.312,6.043-6.342A78.779,78.779,0,0,0,183.518,394.381Z" transform="translate(-156.41 -379.133)" fill="#fff" stroke="#000" stroke-linecap="round" stroke-linejoin="round" stroke-width="1"/>
      </g>
      <g id="Grupo_2298" data-name="Grupo 2298" transform="translate(13.189 93.245)">
        <path id="Trazado_6507" data-name="Trazado 6507" d="M252.073,299.547s-27.82-7.49-40.928-9.9-25.413-4.012-29.693,1.07-3.21,44.674-5.083,54.571-4.012,28.891-4.547,31.833-2.943,5.618-1.337,6.688,11.235,1.873,14.712,0,6.153-2.943,6.153-6.153.535-31.833,2.943-40.66,4.279-23.807,4.279-23.807,17.388,4.012,25.414,6.42,19.527,10.967,30.5,11.234,9.63-16.317,7.49-21.132S256.085,300.349,252.073,299.547Z" transform="translate(-169.94 -287.372)" fill="#fedc00"/>
        <g id="Grupo_2297" data-name="Grupo 2297" clip-path="url(#clip-path)">
          <path id="Trazado_6508" data-name="Trazado 6508" d="M263.007,312.9a41.4,41.4,0,0,0-4.575-7.032c-2.03-2.03-4.931-4.757-6.555-6.272-.554-.148-1.807-.483-3.548-.942l-11.008.917S193.615,289.2,192.5,294.015s1.482,10,1.482,10-9.26-9.63-8.148-5.926,8.148,11.852,8.148,11.852-7.407-8.519-7.407-3.334,2.222,30-1.852,49.632c-2.675,12.887-7.9,22.582-9.713,28.665,3.524.337,8.129.216,10.311-.959,3.478-1.873,6.153-2.943,6.153-6.153s.535-31.833,2.943-40.66,4.279-23.807,4.279-23.807,17.388,4.012,25.414,6.42,19.527,10.967,30.5,11.234C263.843,331.205,264.353,319.484,263.007,312.9Z" transform="translate(-170.068 -287.507)" opacity="0.39"/>
          <path id="Trazado_6509" data-name="Trazado 6509" d="M199.152,313.359s1.173-11.958-6.2-19.311" transform="translate(-170.52 -287.54)" fill="none" stroke="#000" stroke-linecap="round" stroke-linejoin="round" stroke-width="1"/>
          <path id="Trazado_6510" data-name="Trazado 6510" d="M198.371,295.282s2.8,2.723,1.86,10.415" transform="translate(-170.657 -287.571)" fill="none" stroke="#000" stroke-linecap="round" stroke-linejoin="round" stroke-width="1"/>
        </g>
        <path id="Trazado_6512" data-name="Trazado 6512" d="M252.073,299.547s-27.82-7.49-40.928-9.9-25.413-4.012-29.693,1.07-3.21,44.674-5.083,54.571-4.012,28.891-4.547,31.833-2.943,5.618-1.337,6.688,11.235,1.873,14.712,0,6.153-2.943,6.153-6.153.535-31.833,2.943-40.66,4.279-23.807,4.279-23.807,17.388,4.012,25.414,6.42,19.527,10.967,30.5,11.234,9.63-16.317,7.49-21.132S256.085,300.349,252.073,299.547Z" transform="translate(-169.94 -287.372)" fill="none" stroke="#000" stroke-linecap="round" stroke-linejoin="round" stroke-width="1"/>
      </g>
      <g id="Grupo_2300" data-name="Grupo 2300" transform="translate(53.539 1.505)">
        <path id="Trazado_6513" data-name="Trazado 6513" d="M293.2,244.809s-2.559.569-9.953-.853-7.11,1.706-16.779-2.275-31.282-20.191-34.695-22.751l-3.413-2.56s.451-5.393.451-8.356-.165-5.764-.165-5.764.824-6.751.165-7.9-1.811.329-1.811,1.646a34.443,34.443,0,0,1-1.811,7.081s-1.153-6.916-1.483-8.233-1.152-1.812-1.976-1.483.165,3.952.165,5.434-.165,5.763-.165,5.763-2.963-7.246-3.787-8.727-1.811-.329-1.646.988,2.634,8.563,2.634,8.563-1.482,7.739-1.482,8.233-3.129-.494-4.611-1.811-1.976,0-.987,1.646,3.622,3.294,6.587,4.611,6.257,2.635,6.257,2.635,17.125,18.443,23.383,24.207,13.173,9.385,16.8,11.362,11.527,6.092,11.527,6.092-3.952,2.964-3.952,7.74.988,9.057-1.317,12.185-10.045,9.386-10.045,9.386-10.538-10.7-17.126-14.655-13.5-5.434-18.607,2.305-5.434,41-5.929,51.87-2.635,17.949-3.787,19.1a6.516,6.516,0,0,0-1.976,3.787c0,.987-.165,3.293-.165,3.293s1.482,8.4,5.928,11.692,6.916,7.575,8.4,4.776,5.269-7.574,5.6-11.692a100.464,100.464,0,0,1,1.318-11.2c.493-1.976.329-17.29,3.128-25.03s4.281-12.35,4.281-12.35,2.635,15.314,14,18.443,21.9-2.964,27.994-12.021,14-26.018,19.266-32.769,13.339-17.949,13.339-17.949l11.692,15.643a48.427,48.427,0,0,1-3.129,5.764c-1.976,3.128-8.563,9.221-8.563,9.221s2.963,2.3,5.269,2.634,13.338-4.939,18.772-9.55,6.422-6.587,4.281-9.716-10.7-14.491-15.808-21.737-5.434-13.009-10.538-14.82-11.362-.329-13.338-.329a41.314,41.314,0,0,1-5.929-.824Z" transform="translate(-211.333 -193.26)" fill="#fedc00"/>
        <g id="Grupo_2299" data-name="Grupo 2299" clip-path="url(#clip-path-2)">
          <path id="Trazado_6514" data-name="Trazado 6514" d="M273.648,318.183s-8.519-18.519-22.964-28.89-14.445-7.779-13.7-5.556,1.482,5.186,1.482,5.186-5.555-5.927-5.555-1.852,5.185,16.3,1.482,31.483-7.779,29.632-6.668,36.3,2.593,12.223-1.482,7.778-6.3,0-5.926,1.852c.149.745,3.9,5.148,8.513,10.239,1.735-2.836,4.537-6.829,4.818-10.346a100.464,100.464,0,0,1,1.318-11.2c.493-1.976.329-17.29,3.128-25.03s4.281-12.35,4.281-12.35,2.635,15.314,14,18.443,21.9-2.964,27.994-12.021c2.62-3.9,5.577-9.255,8.514-14.634L279.2,313.739Z" transform="translate(-211.559 -195.49)" opacity="0.39"/>
          <path id="Trazado_6515" data-name="Trazado 6515" d="M243.1,287.68s5.716,9.718.572,26.008" transform="translate(-212.134 -195.64)" fill="none" stroke="#000" stroke-linecap="round" stroke-linejoin="round" stroke-width="1"/>
          <path id="Trazado_6516" data-name="Trazado 6516" d="M246.451,286.505s1.86,6.7,0,11.9" transform="translate(-212.219 -195.611)" fill="none" stroke="#000" stroke-linecap="round" stroke-linejoin="round" stroke-width="1"/>
        </g>
        <path id="Trazado_6518" data-name="Trazado 6518" d="M293.2,244.809s-2.559.569-9.953-.853-7.11,1.706-16.779-2.275-31.282-20.191-34.695-22.751l-3.413-2.56s.451-5.393.451-8.356-.165-5.764-.165-5.764.824-6.751.165-7.9-1.811.329-1.811,1.646a34.443,34.443,0,0,1-1.811,7.081s-1.153-6.916-1.483-8.233-1.152-1.812-1.976-1.483.165,3.952.165,5.434-.165,5.763-.165,5.763-2.963-7.246-3.787-8.727-1.811-.329-1.646.988,2.634,8.563,2.634,8.563-1.482,7.739-1.482,8.233-3.129-.494-4.611-1.811-1.976,0-.987,1.646,3.622,3.294,6.587,4.611,6.257,2.635,6.257,2.635,17.125,18.443,23.383,24.207,13.173,9.385,16.8,11.362,11.527,6.092,11.527,6.092-3.952,2.964-3.952,7.74.988,9.057-1.317,12.185-10.045,9.386-10.045,9.386-10.538-10.7-17.126-14.655-13.5-5.434-18.607,2.305-5.434,41-5.929,51.87-2.635,17.949-3.787,19.1a6.516,6.516,0,0,0-1.976,3.787c0,.987-.165,3.293-.165,3.293s1.482,8.4,5.928,11.692,6.916,7.575,8.4,4.776,5.269-7.574,5.6-11.692a100.464,100.464,0,0,1,1.318-11.2c.493-1.976.329-17.29,3.128-25.03s4.281-12.35,4.281-12.35,2.635,15.314,14,18.443,21.9-2.964,27.994-12.021,14-26.018,19.266-32.769,13.339-17.949,13.339-17.949l11.692,15.643a48.427,48.427,0,0,1-3.129,5.764c-1.976,3.128-8.563,9.221-8.563,9.221s2.963,2.3,5.269,2.634,13.338-4.939,18.772-9.55,6.422-6.587,4.281-9.716-10.7-14.491-15.808-21.737-5.434-13.009-10.538-14.82-11.362-.329-13.338-.329a41.314,41.314,0,0,1-5.929-.824Z" transform="translate(-211.333 -193.26)" fill="none" stroke="#000" stroke-linecap="round" stroke-linejoin="round" stroke-width="1"/>
      </g>
      <g id="Grupo_2303" data-name="Grupo 2303" transform="translate(53.539 1.505)">
        <path id="Trazado_6519" data-name="Trazado 6519" d="M329.256,261.531c-5.1-7.246-5.434-13.009-10.538-14.82s-11.362-.329-13.338-.329a41.314,41.314,0,0,1-5.929-.824l-6.255-.75s-2.559.569-9.953-.853-7.11,1.706-16.779-2.275-31.282-20.191-34.695-22.751l-3.413-2.56s.451-5.393.451-8.356-.165-5.764-.165-5.764.824-6.751.165-7.9-1.811.329-1.811,1.646a34.443,34.443,0,0,1-1.811,7.081s-1.153-6.916-1.483-8.233-1.152-1.812-1.976-1.483.165,3.952.165,5.434-.165,5.763-.165,5.763-2.963-7.246-3.787-8.727-1.811-.329-1.646.988,2.634,8.563,2.634,8.563-1.482,7.739-1.482,8.233-3.129-.494-4.611-1.811-1.976,0-.988,1.646,3.623,3.294,6.588,4.611,6.257,2.635,6.257,2.635,17.125,18.443,23.383,24.207,13.173,9.385,16.8,11.362,11.527,6.092,11.527,6.092-3.952,2.964-3.952,7.74c0,.207,0,.412.008.618L307.4,281.985c4.592-6.12,9.345-12.714,9.345-12.714l11.691,15.643a48.324,48.324,0,0,1-3.128,5.764c-1.976,3.128-8.563,9.221-8.563,9.221s2.963,2.305,5.269,2.635,13.339-4.94,18.772-9.55,6.422-6.588,4.281-9.716S334.361,268.777,329.256,261.531Z" transform="translate(-211.333 -193.26)" fill="#fff" stroke="rgba(0,0,0,0)" stroke-width="1"/>
        <g id="Grupo_2302" data-name="Grupo 2302" clip-path="url(#clip-path-3)">
          <path id="Trazado_6520" data-name="Trazado 6520" d="M331.569,262.89c-5.1-7.246-5.434-13.009-10.538-14.82s-11.362-.329-13.338-.329a31.413,31.413,0,0,1-4.634-.574c.009.044.012.083.021.127,0,0,3.244,2.433,11.083,5.136s18.653,22.167,22.707,26.492,5.407,6.758,4.325,8.11-3.243,2.7-7.3,7.028c-2.654,2.831-6.1,6.125-7.576,9.5a59.044,59.044,0,0,0,16.775-9.221c5.434-4.611,6.422-6.588,4.281-9.716S336.674,270.136,331.569,262.89Z" transform="translate(-213.646 -194.619)" fill="#fedc00" stroke="rgba(0,0,0,0)" stroke-width="1" opacity="0.5"/>
          <g id="Grupo_2301" data-name="Grupo 2301" transform="translate(25.863 33.963)" opacity="0.5">
            <path id="Trazado_6521" data-name="Trazado 6521" d="M263.861,242.758a37.116,37.116,0,0,1-11.894-6.217c-6.488-4.865-15.949-11.623-13.786-6.758s17.031,17.031,22.978,20,9.731,1.351,17.3.811,5.947-4.325,1.081-4.325S267.645,244.38,263.861,242.758Z" transform="translate(-237.865 -228.101)" fill="#fedc00" stroke="rgba(0,0,0,0)" stroke-width="1"/>
            <path id="Trazado_6522" data-name="Trazado 6522" d="M263.861,242.758a37.116,37.116,0,0,1-11.894-6.217c-6.488-4.865-15.949-11.623-13.786-6.758s17.031,17.031,22.978,20,9.731,1.351,17.3.811,5.947-4.325,1.081-4.325S267.645,244.38,263.861,242.758Z" transform="translate(-237.865 -228.101)" fill="#fedc00" stroke="rgba(0,0,0,0)" stroke-width="1" opacity="0.5"/>
          </g>
        </g>
        <path id="Trazado_6525" data-name="Trazado 6525" d="M329.256,261.531c-5.1-7.246-5.434-13.009-10.538-14.82s-11.362-.329-13.338-.329a41.314,41.314,0,0,1-5.929-.824l-6.255-.75s-2.559.569-9.953-.853c-4.526-.87-6.175-.037-9.294-.189a23.372,23.372,0,0,1-7.485-2.086c-9.669-3.981-31.282-20.191-34.695-22.751l-3.413-2.56s.451-5.393.451-8.356-.165-5.764-.165-5.764.824-6.751.165-7.9-1.811.329-1.811,1.646a34.443,34.443,0,0,1-1.811,7.081s-1.153-6.916-1.483-8.233-1.152-1.812-1.976-1.483.165,3.952.165,5.434-.165,5.763-.165,5.763-2.963-7.246-3.787-8.727-1.811-.329-1.646.988,2.634,8.563,2.634,8.563-1.482,7.739-1.482,8.233-3.129-.494-4.611-1.811-1.976,0-.988,1.646,3.623,3.294,6.588,4.611,6.257,2.635,6.257,2.635,17.125,18.443,23.383,24.207a70.9,70.9,0,0,0,12.617,9.047c1.476.856,3,1.672,4.179,2.315,3.623,1.976,11.527,6.092,11.527,6.092s-3.952,2.964-3.952,7.74c0,.207,0,.412.008.618L307.4,281.985c4.592-6.12,9.345-12.714,9.345-12.714l11.691,15.643a48.324,48.324,0,0,1-3.128,5.764c-1.976,3.128-8.563,9.221-8.563,9.221s2.963,2.305,5.269,2.635,13.339-4.94,18.772-9.55,6.422-6.588,4.281-9.716S334.361,268.777,329.256,261.531Z" transform="translate(-211.333 -193.26)" fill="none" stroke="#000" stroke-linecap="round" stroke-linejoin="round" stroke-width="1"/>
      </g>
      <g id="Grupo_2305" data-name="Grupo 2305" transform="translate(99.666 49.067)">
        <g id="Grupo_2304" data-name="Grupo 2304">
          <path id="Trazado_6526" data-name="Trazado 6526" d="M330.449,262.761c-5.1-7.246-5.434-13.009-10.538-14.82s-11.362-.329-13.338-.329a41.314,41.314,0,0,1-5.929-.824l-6.255-.75s-2.559.569-9.953-.853-7.11,1.706-16.779-2.275c-.589-.243-1.222-.531-1.893-.859-2.609,1.978-5.471,5.381-7.11,11.18,2.964,1.873,5.6,3.272,7.409,4.261,3.623,1.976,11.527,6.092,11.527,6.092s-3.952,2.964-3.952,7.74.988,9.057-1.317,12.185c-1.767,2.4-6.713,6.623-8.934,8.472,3.932,3.594,15.608,15.27,20.513,31.188.5-.635.979-1.282,1.429-1.951,6.092-9.057,14-26.018,19.266-32.769S317.935,270.5,317.935,270.5l4.353,5.826c3.082-3.677,7-7.009,11.811-8.479C332.791,266.047,331.539,264.308,330.449,262.761Z" transform="translate(-258.654 -242.052)" fill="#fff" stroke="#000" stroke-linecap="round" stroke-linejoin="round" stroke-width="1"/>
          <path id="Trazado_6527" data-name="Trazado 6527" d="M307.785,273.161a24.573,24.573,0,0,0-2.066,1.536,15.815,15.815,0,0,1-12.154,3.964c-11.482-.741-17.409-9.631-17.779-6.668s0,11.112,6.667,13.7,15.186-.741,12.593,2.223-15.112,9.751-12.149,13.825,10.947,3.026,20.83-14.507c1.45-2.571,8.42-9.61,8.469-12.9C312.247,270.9,309.756,271.879,307.785,273.161Z" transform="translate(-259.083 -242.792)" opacity="0.14"/>
          <path id="Trazado_6528" data-name="Trazado 6528" d="M306.806,251.124c1.6.733,3.619,1.56,6.1,2.415,3.96,1.366,8.674,7.006,12.9,12.812a22.7,22.7,0,0,1,4.385-2.536c-4.979-7.157-5.353-12.839-10.414-14.634-3.847-1.365-8.347-.86-11.178-.528C307.99,249.491,307.375,250.34,306.806,251.124Z" transform="translate(-259.868 -242.209)" opacity="0.14"/>
        </g>
        <path id="Trazado_6529" data-name="Trazado 6529" d="M332.857,264.495a18.678,18.678,0,0,0-11.532,8.993l2.543,3.4c3.082-3.677,7-7.009,11.811-8.479C334.69,267.054,333.735,265.729,332.857,264.495Z" transform="translate(-260.234 -242.618)" stroke="#000" stroke-linecap="round" stroke-linejoin="round" stroke-width="1"/>
        <path id="Trazado_6530" data-name="Trazado 6530" d="M301.362,246.89l-6.255-.75a17.689,17.689,0,0,1-4.8-.07c-.851,3.706-2.277,9.992-3.029,13.749-1.116,5.58,4.835,4.092,10.787,0,3.827-2.631,7.037-8.181,9.139-12.108A42.393,42.393,0,0,1,301.362,246.89Z" transform="translate(-259.372 -242.153)" stroke="#000" stroke-linecap="round" stroke-linejoin="round" stroke-width="1"/>
        <path id="Trazado_6531" data-name="Trazado 6531" d="M261.53,254.971c1.262-3.115,3.8-8.061,8.108-11.294-.613-.221-1.266-.472-1.981-.766-.589-.243-1.222-.531-1.893-.859-2.609,1.978-5.471,5.381-7.11,11.18C259.658,253.866,260.62,254.443,261.53,254.971Z" transform="translate(-258.654 -242.052)" stroke="#000" stroke-linecap="round" stroke-linejoin="round" stroke-width="1"/>
      </g>
      <g id="Grupo_2309" data-name="Grupo 2309" transform="translate(125.732 17.507)">
        <g id="Grupo_2307" data-name="Grupo 2307">
          <path id="Trazado_6532" data-name="Trazado 6532" d="M306.154,209.675s-7.109,1.991-9.1,3.7-4.835,7.11-8.248,7.678-3.413,2.56-3.413,3.982a4.371,4.371,0,0,0,.569,2.274s-.285,6.541-.285,9.954.853,4.266,2.56,4.266h3.981s-.853,11.944-1.706,14.789,4.266-.285,5.687-1.707l7.963-7.962s-1.706-8.248.853-13.935-1.991-7.678-2.559-13.936A9.9,9.9,0,0,1,306.154,209.675Z" transform="translate(-285.394 -209.675)" fill="#fff"/>
          <g id="Grupo_2306" data-name="Grupo 2306" clip-path="url(#clip-path-4)">
            <path id="Trazado_6533" data-name="Trazado 6533" d="M304.185,246.852s-1.706-8.248.853-13.935-1.991-7.678-2.559-13.936c-.034-.374-.049-.735-.051-1.085a12.485,12.485,0,0,0-2.526,7.735c.371,5.207-1.116,11.159-4.464,12.647-2.383,1.059-7.589,1.741-9.186,2.449a2.043,2.043,0,0,0,2.007,1.005h3.981s-.115,1.614-.3,3.793c2.371,2.031,5,4.485,7.091,6.483Z" transform="translate(-285.416 -209.882)" fill="#fedc00" opacity="0.5"/>
          </g>
          <path id="Trazado_6536" data-name="Trazado 6536" d="M306.154,209.675s-7.109,1.991-9.1,3.7-4.835,7.11-8.248,7.678-3.413,2.56-3.413,3.982a4.371,4.371,0,0,0,.569,2.274s-.285,6.541-.285,9.954.853,4.266,2.56,4.266h3.981s-.853,11.944-1.706,14.789,4.266-.285,5.687-1.707l7.963-7.962s-1.706-8.248.853-13.935-1.991-7.678-2.559-13.936A9.9,9.9,0,0,1,306.154,209.675Z" transform="translate(-285.394 -209.675)" fill="none" stroke="#000" stroke-linecap="round" stroke-linejoin="round" stroke-width="1"/>
        </g>
        <g id="Grupo_2308" data-name="Grupo 2308" transform="translate(2.616 6.993)">
          <path id="Trazado_6537" data-name="Trazado 6537" d="M296,221.723c-.59.955-1.412,1.517-1.836,1.255s-.29-1.249.3-2.2,1.412-1.517,1.836-1.256S296.586,220.768,296,221.723Z" transform="translate(-288.225 -216.915)"/>
          <path id="Trazado_6538" data-name="Trazado 6538" d="M296.42,217.117s3.614-1.581,2.936,2.936" transform="translate(-288.288 -216.849)" fill="none" stroke="#000" stroke-linecap="round" stroke-linejoin="round" stroke-width="1"/>
          <path id="Trazado_6539" data-name="Trazado 6539" d="M292.821,229.223c-3.388,1.13-4.743,0-4.743,0" transform="translate(-288.078 -217.161)" fill="none" stroke="#263238" stroke-linecap="round" stroke-linejoin="round" stroke-width="1"/>
          <path id="Trazado_6540" data-name="Trazado 6540" d="M289.338,229.622v2.829s1.414,1.3,2.829-3.064A6.685,6.685,0,0,1,289.338,229.622Z" transform="translate(-288.11 -217.165)" fill="none" stroke="#000" stroke-linecap="round" stroke-linejoin="round" stroke-width="1"/>
        </g>
        <path id="Trazado_6541" data-name="Trazado 6541" d="M304.313,230.662s8.248-2.275,7.11,1.422-7.963,6.256-8.816,3.412" transform="translate(-285.828 -210.187)" fill="#fff" stroke="#000" stroke-linecap="round" stroke-linejoin="round" stroke-width="1"/>
      </g>
      <path id="Trazado_6542" data-name="Trazado 6542" d="M262.37,294.211s12.079,15.069,13.508,27.931" transform="translate(-159.081 -194.3)" fill="none" stroke="#263238" stroke-linecap="round" stroke-linejoin="round" stroke-width="1"/>
      <path id="Trazado_6543" data-name="Trazado 6543" d="M278.08,263.93s2.481-4.778,2.481-8.209" transform="translate(-159.477 -193.329)" fill="none" stroke="#263238" stroke-linecap="round" stroke-linejoin="round" stroke-width="1"/>
      <line id="Línea_62" data-name="Línea 62" x1="6.139" y1="7.408" transform="translate(152.808 70.109)" fill="#fff" stroke="#263238" stroke-linecap="round" stroke-linejoin="round" stroke-width="1"/>
      <path id="Trazado_6544" data-name="Trazado 6544" d="M331.462,287.229a10.652,10.652,0,0,1,9.034-1.9" transform="translate(-160.823 -194.069)" fill="none" stroke="#263238" stroke-linecap="round" stroke-linejoin="round" stroke-width="1"/>
      <g id="Grupo_2310" data-name="Grupo 2310" transform="translate(142.704 94.874)">
        <path id="Trazado_6545" data-name="Trazado 6545" d="M321.759,296.549a34.44,34.44,0,0,0-4.289-6.036c-2.065-2.065-7.624-1.747-8.259-.318s3.177,1.112,5.559,3.495,2.065,4.447,2.065,4.447a15.267,15.267,0,0,1-6.67.953c-3.018-.477-6.989-1.27-7.306-.159s.793,2.382,3.335,3.018,5.559.477,6.513.636,3.336,2.7,5.241,2.7,4.288-.477,4.924,0,2.382,2.7,4.289,2.7,3.653-1.907,3.811-4.13-1.111-4.288-3.811-5.4S321.759,296.549,321.759,296.549Z" transform="translate(-302.805 -289.044)" fill="#fff" stroke="#000" stroke-linecap="round" stroke-linejoin="round" stroke-width="1"/>
        <path id="Trazado_6546" data-name="Trazado 6546" d="M326.559,296.766s-6.33-5.423-7.887-5.573-6.127,2.715-5.072,3.869,2.662-.553,4.068-.353,5.175,3.464,5.878,3.565" transform="translate(-303.073 -289.098)" fill="#fff" stroke="#000" stroke-linecap="round" stroke-linejoin="round" stroke-width="1"/>
        <path id="Trazado_6547" data-name="Trazado 6547" d="M326.956,299.344l-1.906-3.177s-2.066,3.495-4.448,3.018,2.7-5.718,3.812-6.036,2.541-.952,3.811,1.43a28.466,28.466,0,0,1,2.066,6.036" transform="translate(-303.238 -289.139)" fill="#fff" stroke="#000" stroke-linecap="round" stroke-linejoin="round" stroke-width="1"/>
        <path id="Trazado_6548" data-name="Trazado 6548" d="M331.339,302.293s-.794-5.083-1.747-5.718-3.971.477-5.241,1.906-.477,1.748,1.111,1.748a3.48,3.48,0,0,0,2.383-.794l1.111,2.382" transform="translate(-303.332 -289.229)" fill="#fff" stroke="#000" stroke-linecap="round" stroke-linejoin="round" stroke-width="1"/>
      </g>
      <g id="Grupo_2311" data-name="Grupo 2311" transform="translate(30.012 152.578)">
        <path id="Trazado_6549" data-name="Trazado 6549" d="M227.938,376.983a56.8,56.8,0,0,0-7.3-12.522c-4.55-5.688-12.229-7.963-17.064-11.091s-11.944-7.394-15.072-3.7-.285,8.816,4.835,14.5,14.219,10.238,15.072,11.375,8.927,10.645,12.055,10.928S226.8,382.671,227.938,376.983Z" transform="translate(-187.198 -348.24)" stroke="#000" stroke-linecap="round" stroke-linejoin="round" stroke-width="1"/>
        <path id="Trazado_6550" data-name="Trazado 6550" d="M225.589,383.086c-1.625-5.775-7.543-10.673-11.6-13.761-4.826-3.673-10.789-11.48-19.617-18.168-3.846-2.914-5.771-1.569-5.867-1.456-3.128,3.7-.285,8.816,4.835,14.5s14.219,10.238,15.072,11.375,8.927,10.644,12.055,10.928C222.289,386.674,224.138,385.344,225.589,383.086Z" transform="translate(-187.198 -348.269)" fill="#fff" stroke="#000" stroke-linecap="round" stroke-linejoin="round" stroke-width="1"/>
        <path id="Trazado_6551" data-name="Trazado 6551" d="M211.593,371.3c-5.6-4.67-18.059-18.681-20.86-19.927-2.339-1.039-3.266,1.494-3.509,2.363.227,3.067,2.645,6.661,6.116,10.517,5.119,5.688,14.219,10.238,15.072,11.375s8.927,10.644,12.055,10.928a1.572,1.572,0,0,0,1.869-.934C223.892,383.282,217.2,375.965,211.593,371.3Z" transform="translate(-187.199 -348.312)" fill="#fff" stroke="#000" stroke-linecap="round" stroke-linejoin="round" stroke-width="1"/>
      </g>
    </g>
    <g id="Grupo_2292" data-name="Grupo 2292" transform="translate(39.735 363.352)">
      <path id="Trazado_6484" data-name="Trazado 6484" d="M88.758,323.3A21.407,21.407,0,0,1,88.138,350c-.023.033-.063.074-.088.107a21.716,21.716,0,0,1-1.525,1.615,20.24,20.24,0,0,1-1.851,1.58,21.4,21.4,0,0,1-26.951-33.23c.136-.133.282-.25.426-.367.189-.17.4-.332.616-.5q.484-.374.992-.7A21.4,21.4,0,0,1,88.758,323.3Z" transform="translate(-50.303 -314.848)" fill="#fedc00"/>
      <path id="Trazado_6485" data-name="Trazado 6485" d="M79.391,354.291s-10.882.242-16.711-6.48c-7.313-8.434-8.746-18.285-2.846-29.209,0,0-6.245,4.963-6.554,16.465S65.7,356.811,79.391,354.291Z" transform="translate(-50.378 -314.943)" fill="#fff" opacity="0.4"/>
      <path id="Trazado_6486" data-name="Trazado 6486" d="M88.763,323.307A21.41,21.41,0,0,1,88.135,350a21.2,21.2,0,0,1-3.462,3.308,21.408,21.408,0,0,1-26.525-33.6c.2-.168.4-.334.613-.5A21.416,21.416,0,0,1,88.763,323.307Z" transform="translate(-50.303 -314.848)" fill="none" stroke="#263238" stroke-linecap="round" stroke-linejoin="round" stroke-width="1"/>
      <path id="Trazado_6487" data-name="Trazado 6487" d="M88.837,323.307A21.41,21.41,0,0,1,88.208,350c-.195.169-.4.335-.613.5a21.411,21.411,0,0,1-29.374-30.787c.2-.168.4-.334.613-.5A21.416,21.416,0,0,1,88.837,323.307Z" transform="translate(-50.377 -314.848)" fill="none" stroke="#263238" stroke-linecap="round" stroke-linejoin="round" stroke-width="1"/>
      <g id="Grupo_2291" data-name="Grupo 2291" transform="translate(9.144 8.309)">
        <path id="Trazado_6488" data-name="Trazado 6488" d="M85.935,342.681l1.81,1.464-2.4,2.961-1.81-1.464a6.942,6.942,0,0,1-8.824-.334l-.823-.667,2.354-3.649.856.692c1.679,1.359,3.39,1.329,4.509-.054a2.657,2.657,0,0,0-.394-4.022c-1.612-1.3-4.22-.91-7.138-.331-3.449.7-7.226,1.123-10.154-1.248-2.862-2.317-3.785-5.35-2.432-8.231l-1.809-1.465,2.4-2.961,1.81,1.465c2.53-1.983,5.715-1.746,8.643.624l.592.48-2.354,3.649-.658-.532c-1.777-1.438-3.258-1.492-4.243-.275s-.788,2.521.661,3.693c1.611,1.3,4.212.85,7.137.331,3.456-.635,7.227-1.122,10.155,1.248A6.9,6.9,0,0,1,85.935,342.681Z" transform="translate(-59.683 -323.372)" fill="none" stroke="#263238" stroke-miterlimit="10" stroke-width="1"/>
        <path id="Trazado_6489" data-name="Trazado 6489" d="M85.935,342.681l1.81,1.464-2.4,2.961-1.81-1.464a6.942,6.942,0,0,1-8.824-.334l-.823-.667,2.354-3.649.856.692c1.679,1.359,3.39,1.329,4.509-.054a2.657,2.657,0,0,0-.394-4.022c-1.612-1.3-4.22-.91-7.138-.331-3.449.7-7.226,1.123-10.154-1.248-2.862-2.317-3.785-5.35-2.432-8.231l-1.809-1.465,2.4-2.961,1.81,1.465c2.53-1.983,5.715-1.746,8.643.624l.592.48-2.354,3.649-.658-.532c-1.777-1.438-3.258-1.492-4.243-.275s-.788,2.521.661,3.693c1.611,1.3,4.212.85,7.137.331,3.456-.635,7.227-1.122,10.155,1.248A6.9,6.9,0,0,1,85.935,342.681Z" transform="translate(-59.683 -323.372)" opacity="0.3"/>
      </g>
      <path id="Trazado_6490" data-name="Trazado 6490" d="M57.724,320.205c-2.766,5.294-5.541,12.156-4.3,16.741,2.28,8.416,6.564,14.556,15.76,17.39s18.334-3.709,18.334-3.709l.528-.388a21.406,21.406,0,1,1-30.327-30.034Z" transform="translate(-50.303 -314.983)" opacity="0.3"/>
    </g>
  </g>
</svg>
