<svg xmlns="http://www.w3.org/2000/svg" xmlns:xlink="http://www.w3.org/1999/xlink" width="333.327" height="349.567" viewBox="0 0 333.327 349.567">
  <defs>
    <clipPath id="clip-path">
      <path id="Trazado_6511" data-name="Trazado 6511" d="M252.073,299.547s-27.82-7.49-40.928-9.9-25.413-4.012-29.693,1.07-3.21,44.674-5.083,54.571-4.012,28.891-4.547,31.833-2.943,5.618-1.337,6.688,11.235,1.873,14.712,0,6.153-2.943,6.153-6.153.535-31.833,2.943-40.66,4.279-23.807,4.279-23.807,17.388,4.012,25.414,6.42,19.527,10.967,30.5,11.234,9.63-16.317,7.49-21.132S256.085,300.349,252.073,299.547Z" transform="translate(-169.94 -287.372)" fill="#c6ff00" stroke="#263238" stroke-linecap="round" stroke-linejoin="round" stroke-width="1"/>
    </clipPath>
    <clipPath id="clip-path-2">
      <path id="Trazado_6517" data-name="Trazado 6517" d="M293.2,244.809s-2.559.569-9.953-.853-7.11,1.706-16.779-2.275-31.282-20.191-34.695-22.751l-3.413-2.56s.451-5.393.451-8.356-.165-5.764-.165-5.764.824-6.751.165-7.9-1.811.329-1.811,1.646a34.443,34.443,0,0,1-1.811,7.081s-1.153-6.916-1.483-8.233-1.152-1.812-1.976-1.483.165,3.952.165,5.434-.165,5.763-.165,5.763-2.963-7.246-3.787-8.727-1.811-.329-1.646.988,2.634,8.563,2.634,8.563-1.482,7.739-1.482,8.233-3.129-.494-4.611-1.811-1.976,0-.987,1.646,3.622,3.294,6.587,4.611,6.257,2.635,6.257,2.635,17.125,18.443,23.383,24.207,13.173,9.385,16.8,11.362,11.527,6.092,11.527,6.092-3.952,2.964-3.952,7.74.988,9.057-1.317,12.185-10.045,9.386-10.045,9.386-10.538-10.7-17.126-14.655-13.5-5.434-18.607,2.305-5.434,41-5.929,51.87-2.635,17.949-3.787,19.1a6.516,6.516,0,0,0-1.976,3.787c0,.987-.165,3.293-.165,3.293s1.482,8.4,5.928,11.692,6.916,7.575,8.4,4.776,5.269-7.574,5.6-11.692a100.464,100.464,0,0,1,1.318-11.2c.493-1.976.329-17.29,3.128-25.03s4.281-12.35,4.281-12.35,2.635,15.314,14,18.443,21.9-2.964,27.994-12.021,14-26.018,19.266-32.769,13.339-17.949,13.339-17.949l11.692,15.643a48.427,48.427,0,0,1-3.129,5.764c-1.976,3.128-8.563,9.221-8.563,9.221s2.963,2.3,5.269,2.634,13.338-4.939,18.772-9.55,6.422-6.587,4.281-9.716-10.7-14.491-15.808-21.737-5.434-13.009-10.538-14.82-11.362-.329-13.338-.329a41.314,41.314,0,0,1-5.929-.824Z" transform="translate(-211.333 -193.26)" stroke="#263238" stroke-linecap="round" stroke-linejoin="round" stroke-width="1"/>
    </clipPath>
    <clipPath id="clip-path-3">
      <path id="Trazado_6524" data-name="Trazado 6524" d="M329.256,261.531c-5.1-7.246-5.434-13.009-10.538-14.82s-11.362-.329-13.338-.329a41.314,41.314,0,0,1-5.929-.824l-6.255-.75s-2.559.569-9.953-.853-7.11,1.706-16.779-2.275-31.282-20.191-34.695-22.751l-3.413-2.56s.451-5.393.451-8.356-.165-5.764-.165-5.764.824-6.751.165-7.9-1.811.329-1.811,1.646a34.443,34.443,0,0,1-1.811,7.081s-1.153-6.916-1.483-8.233-1.152-1.812-1.976-1.483.165,3.952.165,5.434-.165,5.763-.165,5.763-2.963-7.246-3.787-8.727-1.811-.329-1.646.988,2.634,8.563,2.634,8.563-1.482,7.739-1.482,8.233-3.129-.494-4.611-1.811-1.976,0-.988,1.646,3.623,3.294,6.588,4.611,6.257,2.635,6.257,2.635,17.125,18.443,23.383,24.207,13.173,9.385,16.8,11.362,11.527,6.092,11.527,6.092-3.952,2.964-3.952,7.74c0,.207,0,.412.008.618L307.4,281.985c4.592-6.12,9.345-12.714,9.345-12.714l11.691,15.643a48.324,48.324,0,0,1-3.128,5.764c-1.976,3.128-8.563,9.221-8.563,9.221s2.963,2.305,5.269,2.635,13.339-4.94,18.772-9.55,6.422-6.588,4.281-9.716S334.361,268.777,329.256,261.531Z" transform="translate(-211.333 -193.26)" fill="#fff" stroke="#263238" stroke-linecap="round" stroke-linejoin="round" stroke-width="1"/>
    </clipPath>
    <clipPath id="clip-path-4">
      <path id="Trazado_6535" data-name="Trazado 6535" d="M306.154,209.675s-7.109,1.991-9.1,3.7-4.835,7.11-8.248,7.678-3.413,2.56-3.413,3.982a4.371,4.371,0,0,0,.569,2.274s-.285,6.541-.285,9.954.853,4.266,2.56,4.266h3.981s-.853,11.944-1.706,14.789,4.266-.285,5.687-1.707l7.963-7.962s-1.706-8.248.853-13.935-1.991-7.678-2.559-13.936A9.9,9.9,0,0,1,306.154,209.675Z" transform="translate(-285.394 -209.675)" fill="#fff" stroke="#263238" stroke-linecap="round" stroke-linejoin="round" stroke-width="1"/>
    </clipPath>
  </defs>
  <g id="Grupo_3245" data-name="Grupo 3245" transform="translate(-32.304 -191.405)">
    <g id="Grupo_3115" data-name="Grupo 3115" transform="translate(-4.477 33)">
      <g id="Grupo_2286" data-name="Grupo 2286" transform="translate(39.702 159)">
        <g id="Grupo_2285" data-name="Grupo 2285">
          <g id="Grupo_2284" data-name="Grupo 2284">
            <path id="Trazado_6458" data-name="Trazado 6458" d="M144.536,185.727s-8.877,20.275-7.544,21.511,11.609,21.169,13.283,21.235,1.089-5.187,1.089-5.187L161.3,213.9Z" transform="translate(-73.897 -87.745)"/>
            <path id="Trazado_6459" data-name="Trazado 6459" d="M185.129,173.129s19.288,10.857,18.965,12.646,3.46,23.894,2.162,24.954-3.991-3.488-3.991-3.488l-13.579-1.519Z" transform="translate(-75.114 -87.427)"/>
            <path id="Trazado_6460" data-name="Trazado 6460" d="M387.816,321.971c-10.371-29.58-42.791,15.137-59.28,25.554s-13.6-45.836-39.626-27.428-27.294,70.037-51.806,68.543c-10.486-.638-16.3-34.211-23.533-54.07l-34.7-139.412-18.59,8.162,45.566,137.488c2.232,11.773,15.244,43.146,14.569,49.764-.9,8.8-22.008,7.731-42.9,1.02-35.127-11.283-51.054-71.777-78.956-79.328-13.285-3.6-20.892,4.6-26.29,14.247q1.825,4.078,3.978,7.889c26.857,47.415,71,70.507,136.527,72.972s111.633,6.909,167.572-43.816q2.639-2.392,5.086-4.928C389.081,347.14,391.785,333.3,387.816,321.971Z" transform="translate(-72.269 -87.983)" fill="#f6f7f9"/>
            <path id="Trazado_6461" data-name="Trazado 6461" d="M188.175,201.078s-5.8-61.394-10.568-78.45S147.236,81.59,138,85.67s-13.154,36.388-10.845,53.151,28.356,72.63,36.533,77.979S187.492,223.743,188.175,201.078Z" transform="translate(-73.636 -85.211)" fill="#fff" stroke="#000" stroke-width="1"/>
            <path id="Trazado_6462" data-name="Trazado 6462" d="M189.025,204.045s-.039-.407-.111-1.155c-6.144,20.193-19.777,16.886-28.695,11.978a19.9,19.9,0,0,0,4.319,4.9C172.717,225.117,188.342,226.71,189.025,204.045Z" transform="translate(-74.486 -88.178)"/>
            <path id="Trazado_6463" data-name="Trazado 6463" d="M138,85.67c-8.61,3.806-12.6,32.142-11.227,49.546a30.369,30.369,0,0,0,10.95,5.842c15.694,4.578,32.347-4.141,39.453-19.8C171.488,104.316,146.99,81.7,138,85.67Z" transform="translate(-73.636 -85.211)"/>
            <g id="Grupo_2283" data-name="Grupo 2283" transform="translate(61.819 6.597)">
              <path id="Trazado_6464" data-name="Trazado 6464" d="M158.3,100.168a96.115,96.115,0,0,1,16.6,22.674" transform="translate(-136.256 -92.184)" fill="none" stroke="#000" stroke-linecap="round" stroke-linejoin="round" stroke-width="1"/>
              <path id="Trazado_6465" data-name="Trazado 6465" d="M149.489,91.978s1.679,1.331,4.256,3.73" transform="translate(-136.034 -91.978)" fill="none" stroke="#000" stroke-linecap="round" stroke-linejoin="round" stroke-width="1"/>
              <line id="Línea_50" data-name="Línea 50" x2="0.38" y2="2.873" transform="translate(49.633 105.77)" fill="none" stroke="#000" stroke-linecap="round" stroke-linejoin="round" stroke-width="1"/>
              <line id="Línea_51" data-name="Línea 51" x2="0.861" y2="6.498" transform="translate(48.47 96.988)" fill="none" stroke="#000" stroke-linecap="round" stroke-linejoin="round" stroke-width="1"/>
              <line id="Línea_52" data-name="Línea 52" x2="5.92" y2="44.698" transform="translate(41.788 46.545)" fill="none" stroke="#000" stroke-linecap="round" stroke-linejoin="round" stroke-width="1"/>
              <line id="Línea_53" data-name="Línea 53" x2="0.532" y2="4.015" transform="translate(40.517 36.95)" fill="none" stroke="#000" stroke-linecap="round" stroke-linejoin="round" stroke-width="1"/>
              <line id="Línea_54" data-name="Línea 54" x2="11.002" y2="24.832" transform="translate(0 64.661)" fill="none" stroke="#000" stroke-linecap="round" stroke-linejoin="round" stroke-width="1"/>
              <line id="Línea_55" data-name="Línea 55" x2="2.244" y2="5.047" transform="translate(12.143 92.529)" fill="none" stroke="#000" stroke-linecap="round" stroke-linejoin="round" stroke-width="1"/>
            </g>
            <ellipse id="Elipse_124" data-name="Elipse 124" cx="14.633" cy="13.82" rx="14.633" ry="13.82" transform="translate(70.037 85.527) rotate(-73.738)"/>
            <path id="Trazado_6466" data-name="Trazado 6466" d="M170.629,166.175a8.844,8.844,0,1,1-5.858-11.448A9.1,9.1,0,0,1,170.629,166.175Z" transform="translate(-74.311 -86.955)" fill="#fedc00"/>
            <path id="Trazado_6467" data-name="Trazado 6467" d="M171.866,201.243l10.547,27.143a1.144,1.144,0,0,0,1.548.706h0a1.346,1.346,0,0,0,.706-1.688l-9.011-27.815a1.92,1.92,0,0,0-2.727-1.063h0A2.273,2.273,0,0,0,171.866,201.243Z" transform="translate(-74.777 -88.062)"/>
          </g>
        </g>
      </g>
      <path id="Trazado_6492" data-name="Trazado 6492" d="M204.688,195.486c46.225,10.18,136.069,37.452,159.009,39.035,56.08,3.868,59.482-94.8-13.833-116.856-57.126-17.188-114.163,26.786-159.923,43.4" transform="translate(-35.534 73.07)" fill="none" stroke="#263238" stroke-linecap="round" stroke-linejoin="round" stroke-width="0.5" stroke-dasharray="3 3"/>
      <g id="Grupo_2294" data-name="Grupo 2294" transform="translate(57.246 270.532)">
        <path id="Trazado_6494" data-name="Trazado 6494" d="M285.692,404.505s-26.728,6.7-98.57-15.282c-31.986-9.79-64.885-26.792-82.55-56.4-27.774-46.545-14.056-110.173,32.056-133.2" transform="translate(-90.267 -199.627)" fill="none" stroke="#263238" stroke-linecap="round" stroke-linejoin="round" stroke-width="0.5" stroke-dasharray="5 3"/>
        <g id="Grupo_2293" data-name="Grupo 2293" transform="translate(172.608 170.306)">
          <path id="Trazado_6495" data-name="Trazado 6495" d="M274.307,399.731l-6.967,30.9,82.686-16.053Z" transform="translate(-267.34 -374.978)" stroke="#fff" stroke-linecap="round" stroke-linejoin="round" stroke-width="1"/>
          <path id="Trazado_6496" data-name="Trazado 6496" d="M274.4,408.87l-7.065,22,29.867-6.386Z" transform="translate(-267.34 -375.209)" stroke="#fff" stroke-linecap="round" stroke-linejoin="round" stroke-width="1"/>
          <path id="Trazado_6497" data-name="Trazado 6497" d="M272.929,374.338l1.519,24.753,75.719,14.851Z" transform="translate(-267.481 -374.338)" stroke="#fff" stroke-linecap="round" stroke-linejoin="round" stroke-width="1"/>
          <path id="Trazado_6498" data-name="Trazado 6498" d="M350.195,414.813l-76.151,27.03.53-32.972Z" transform="translate(-267.509 -375.209)" stroke="#fff" stroke-linecap="round" stroke-linejoin="round" stroke-width="1"/>
        </g>
      </g>
      <g id="Grupo_2312" data-name="Grupo 2312" transform="translate(121.721 262.82)">
        <g id="Grupo_2295" data-name="Grupo 2295" transform="translate(122.49 0)">
          <path id="Trazado_6499" data-name="Trazado 6499" d="M297.254,215.194s-4.266-8.531-2.275-13.365,9.67-12.513,13.651-9.385,2.56,10.238,5.972,12.229,14.5,7.109,15.357,16.779-6.541,17.063-4.55,20.475,16.779,2.559,22.752,12.228,3.981,23.32-.285,28.723-30.144,13.65-30.144,19.907,7.962,13.082-3.982,19.338-29.86,3.128-31.567-11.659,16.21-28.723,15.072-38.677-11.375-17.347-14.219-26.732,12.513-12.229,14.788-15.641S297.254,215.194,297.254,215.194Z" transform="translate(-282.067 -191.716)" stroke="#000" stroke-linecap="round" stroke-linejoin="round" stroke-width="1"/>
          <path id="Trazado_6500" data-name="Trazado 6500" d="M347.249,273.769c-.718,2.224-1.723,3.58-2.117,3.711" transform="translate(-283.657 -193.784)" fill="none" stroke="#fff" stroke-linecap="round" stroke-linejoin="round" stroke-width="1"/>
          <path id="Trazado_6501" data-name="Trazado 6501" d="M311.938,225.1s1.233,6.471,6.164,9.245-3.7,9.245,1.541,16.025,21.879,0,25.885,9.245a19.58,19.58,0,0,1,1.671,7.329" transform="translate(-282.82 -192.557)" fill="none" stroke="#fff" stroke-linecap="round" stroke-linejoin="round" stroke-width="1"/>
          <path id="Trazado_6502" data-name="Trazado 6502" d="M325.1,232.25a12.628,12.628,0,0,0,2.889,1.348" transform="translate(-283.152 -192.738)" fill="none" stroke="#fff" stroke-linecap="round" stroke-linejoin="round" stroke-width="1"/>
          <path id="Trazado_6503" data-name="Trazado 6503" d="M313.519,204.865s.308,15.1,4.93,20.955a26.474,26.474,0,0,0,3.125,3.341" transform="translate(-282.86 -192.047)" fill="none" stroke="#fff" stroke-linecap="round" stroke-linejoin="round" stroke-width="1"/>
        </g>
        <path id="Trazado_6504" data-name="Trazado 6504" d="M229.246,208.131s1.6-6.5,1.6-8.394-.473-2.366-.946-1.3a36.663,36.663,0,0,0-1.183,3.9Z" transform="translate(-158.233 -191.871)" fill="#fff" stroke="#263238" stroke-linecap="round" stroke-linejoin="round" stroke-width="1"/>
        <g id="Grupo_2296" data-name="Grupo 2296" transform="translate(0 182.461)">
          <path id="Trazado_6505" data-name="Trazado 6505" d="M170.41,385.316s-5.35,8.828-9.9,13.642-5.885,9.9-1.07,11.235,12.038-.535,15.783-4.28,6.955-9.363,10.7-11.5,6.153-2.408,6.153-8.293S189.4,378.9,189.4,378.9,178.7,385.048,170.41,385.316Z" transform="translate(-156.41 -378.896)" stroke="#000" stroke-linecap="round" stroke-linejoin="round" stroke-width="1"/>
          <path id="Trazado_6506" data-name="Trazado 6506" d="M183.518,394.381c-5.083,4.279-9.363,12.3-17.655,13.375-4.87.629-7.791-.588-9.383-1.7-.327,2.068.532,3.7,2.963,4.374,4.815,1.337,12.038-.535,15.783-4.28s6.955-9.363,10.7-11.5c3.279-1.874,5.532-2.312,6.043-6.342A78.779,78.779,0,0,0,183.518,394.381Z" transform="translate(-156.41 -379.133)" fill="#fff" stroke="#000" stroke-linecap="round" stroke-linejoin="round" stroke-width="1"/>
        </g>
        <g id="Grupo_2298" data-name="Grupo 2298" transform="translate(13.189 93.245)">
          <path id="Trazado_6507" data-name="Trazado 6507" d="M252.073,299.547s-27.82-7.49-40.928-9.9-25.413-4.012-29.693,1.07-3.21,44.674-5.083,54.571-4.012,28.891-4.547,31.833-2.943,5.618-1.337,6.688,11.235,1.873,14.712,0,6.153-2.943,6.153-6.153.535-31.833,2.943-40.66,4.279-23.807,4.279-23.807,17.388,4.012,25.414,6.42,19.527,10.967,30.5,11.234,9.63-16.317,7.49-21.132S256.085,300.349,252.073,299.547Z" transform="translate(-169.94 -287.372)" fill="#fedc00"/>
          <g id="Grupo_2297" data-name="Grupo 2297" clip-path="url(#clip-path)">
            <path id="Trazado_6508" data-name="Trazado 6508" d="M263.007,312.9a41.4,41.4,0,0,0-4.575-7.032c-2.03-2.03-4.931-4.757-6.555-6.272-.554-.148-1.807-.483-3.548-.942l-11.008.917S193.615,289.2,192.5,294.015s1.482,10,1.482,10-9.26-9.63-8.148-5.926,8.148,11.852,8.148,11.852-7.407-8.519-7.407-3.334,2.222,30-1.852,49.632c-2.675,12.887-7.9,22.582-9.713,28.665,3.524.337,8.129.216,10.311-.959,3.478-1.873,6.153-2.943,6.153-6.153s.535-31.833,2.943-40.66,4.279-23.807,4.279-23.807,17.388,4.012,25.414,6.42,19.527,10.967,30.5,11.234C263.843,331.205,264.353,319.484,263.007,312.9Z" transform="translate(-170.068 -287.507)" opacity="0.39"/>
            <path id="Trazado_6509" data-name="Trazado 6509" d="M199.152,313.359s1.173-11.958-6.2-19.311" transform="translate(-170.52 -287.54)" fill="none" stroke="#000" stroke-linecap="round" stroke-linejoin="round" stroke-width="1"/>
            <path id="Trazado_6510" data-name="Trazado 6510" d="M198.371,295.282s2.8,2.723,1.86,10.415" transform="translate(-170.657 -287.571)" fill="none" stroke="#000" stroke-linecap="round" stroke-linejoin="round" stroke-width="1"/>
          </g>
          <path id="Trazado_6512" data-name="Trazado 6512" d="M252.073,299.547s-27.82-7.49-40.928-9.9-25.413-4.012-29.693,1.07-3.21,44.674-5.083,54.571-4.012,28.891-4.547,31.833-2.943,5.618-1.337,6.688,11.235,1.873,14.712,0,6.153-2.943,6.153-6.153.535-31.833,2.943-40.66,4.279-23.807,4.279-23.807,17.388,4.012,25.414,6.42,19.527,10.967,30.5,11.234,9.63-16.317,7.49-21.132S256.085,300.349,252.073,299.547Z" transform="translate(-169.94 -287.372)" fill="none" stroke="#000" stroke-linecap="round" stroke-linejoin="round" stroke-width="1"/>
        </g>
        <g id="Grupo_2300" data-name="Grupo 2300" transform="translate(53.539 1.505)">
          <path id="Trazado_6513" data-name="Trazado 6513" d="M293.2,244.809s-2.559.569-9.953-.853-7.11,1.706-16.779-2.275-31.282-20.191-34.695-22.751l-3.413-2.56s.451-5.393.451-8.356-.165-5.764-.165-5.764.824-6.751.165-7.9-1.811.329-1.811,1.646a34.443,34.443,0,0,1-1.811,7.081s-1.153-6.916-1.483-8.233-1.152-1.812-1.976-1.483.165,3.952.165,5.434-.165,5.763-.165,5.763-2.963-7.246-3.787-8.727-1.811-.329-1.646.988,2.634,8.563,2.634,8.563-1.482,7.739-1.482,8.233-3.129-.494-4.611-1.811-1.976,0-.987,1.646,3.622,3.294,6.587,4.611,6.257,2.635,6.257,2.635,17.125,18.443,23.383,24.207,13.173,9.385,16.8,11.362,11.527,6.092,11.527,6.092-3.952,2.964-3.952,7.74.988,9.057-1.317,12.185-10.045,9.386-10.045,9.386-10.538-10.7-17.126-14.655-13.5-5.434-18.607,2.305-5.434,41-5.929,51.87-2.635,17.949-3.787,19.1a6.516,6.516,0,0,0-1.976,3.787c0,.987-.165,3.293-.165,3.293s1.482,8.4,5.928,11.692,6.916,7.575,8.4,4.776,5.269-7.574,5.6-11.692a100.464,100.464,0,0,1,1.318-11.2c.493-1.976.329-17.29,3.128-25.03s4.281-12.35,4.281-12.35,2.635,15.314,14,18.443,21.9-2.964,27.994-12.021,14-26.018,19.266-32.769,13.339-17.949,13.339-17.949l11.692,15.643a48.427,48.427,0,0,1-3.129,5.764c-1.976,3.128-8.563,9.221-8.563,9.221s2.963,2.3,5.269,2.634,13.338-4.939,18.772-9.55,6.422-6.587,4.281-9.716-10.7-14.491-15.808-21.737-5.434-13.009-10.538-14.82-11.362-.329-13.338-.329a41.314,41.314,0,0,1-5.929-.824Z" transform="translate(-211.333 -193.26)" fill="#fedc00"/>
          <g id="Grupo_2299" data-name="Grupo 2299" clip-path="url(#clip-path-2)">
            <path id="Trazado_6514" data-name="Trazado 6514" d="M273.648,318.183s-8.519-18.519-22.964-28.89-14.445-7.779-13.7-5.556,1.482,5.186,1.482,5.186-5.555-5.927-5.555-1.852,5.185,16.3,1.482,31.483-7.779,29.632-6.668,36.3,2.593,12.223-1.482,7.778-6.3,0-5.926,1.852c.149.745,3.9,5.148,8.513,10.239,1.735-2.836,4.537-6.829,4.818-10.346a100.464,100.464,0,0,1,1.318-11.2c.493-1.976.329-17.29,3.128-25.03s4.281-12.35,4.281-12.35,2.635,15.314,14,18.443,21.9-2.964,27.994-12.021c2.62-3.9,5.577-9.255,8.514-14.634L279.2,313.739Z" transform="translate(-211.559 -195.49)" opacity="0.39"/>
            <path id="Trazado_6515" data-name="Trazado 6515" d="M243.1,287.68s5.716,9.718.572,26.008" transform="translate(-212.134 -195.64)" fill="none" stroke="#000" stroke-linecap="round" stroke-linejoin="round" stroke-width="1"/>
            <path id="Trazado_6516" data-name="Trazado 6516" d="M246.451,286.505s1.86,6.7,0,11.9" transform="translate(-212.219 -195.611)" fill="none" stroke="#000" stroke-linecap="round" stroke-linejoin="round" stroke-width="1"/>
          </g>
          <path id="Trazado_6518" data-name="Trazado 6518" d="M293.2,244.809s-2.559.569-9.953-.853-7.11,1.706-16.779-2.275-31.282-20.191-34.695-22.751l-3.413-2.56s.451-5.393.451-8.356-.165-5.764-.165-5.764.824-6.751.165-7.9-1.811.329-1.811,1.646a34.443,34.443,0,0,1-1.811,7.081s-1.153-6.916-1.483-8.233-1.152-1.812-1.976-1.483.165,3.952.165,5.434-.165,5.763-.165,5.763-2.963-7.246-3.787-8.727-1.811-.329-1.646.988,2.634,8.563,2.634,8.563-1.482,7.739-1.482,8.233-3.129-.494-4.611-1.811-1.976,0-.987,1.646,3.622,3.294,6.587,4.611,6.257,2.635,6.257,2.635,17.125,18.443,23.383,24.207,13.173,9.385,16.8,11.362,11.527,6.092,11.527,6.092-3.952,2.964-3.952,7.74.988,9.057-1.317,12.185-10.045,9.386-10.045,9.386-10.538-10.7-17.126-14.655-13.5-5.434-18.607,2.305-5.434,41-5.929,51.87-2.635,17.949-3.787,19.1a6.516,6.516,0,0,0-1.976,3.787c0,.987-.165,3.293-.165,3.293s1.482,8.4,5.928,11.692,6.916,7.575,8.4,4.776,5.269-7.574,5.6-11.692a100.464,100.464,0,0,1,1.318-11.2c.493-1.976.329-17.29,3.128-25.03s4.281-12.35,4.281-12.35,2.635,15.314,14,18.443,21.9-2.964,27.994-12.021,14-26.018,19.266-32.769,13.339-17.949,13.339-17.949l11.692,15.643a48.427,48.427,0,0,1-3.129,5.764c-1.976,3.128-8.563,9.221-8.563,9.221s2.963,2.3,5.269,2.634,13.338-4.939,18.772-9.55,6.422-6.587,4.281-9.716-10.7-14.491-15.808-21.737-5.434-13.009-10.538-14.82-11.362-.329-13.338-.329a41.314,41.314,0,0,1-5.929-.824Z" transform="translate(-211.333 -193.26)" fill="none" stroke="#000" stroke-linecap="round" stroke-linejoin="round" stroke-width="1"/>
        </g>
        <g id="Grupo_2303" data-name="Grupo 2303" transform="translate(53.539 1.505)">
          <path id="Trazado_6519" data-name="Trazado 6519" d="M329.256,261.531c-5.1-7.246-5.434-13.009-10.538-14.82s-11.362-.329-13.338-.329a41.314,41.314,0,0,1-5.929-.824l-6.255-.75s-2.559.569-9.953-.853-7.11,1.706-16.779-2.275-31.282-20.191-34.695-22.751l-3.413-2.56s.451-5.393.451-8.356-.165-5.764-.165-5.764.824-6.751.165-7.9-1.811.329-1.811,1.646a34.443,34.443,0,0,1-1.811,7.081s-1.153-6.916-1.483-8.233-1.152-1.812-1.976-1.483.165,3.952.165,5.434-.165,5.763-.165,5.763-2.963-7.246-3.787-8.727-1.811-.329-1.646.988,2.634,8.563,2.634,8.563-1.482,7.739-1.482,8.233-3.129-.494-4.611-1.811-1.976,0-.988,1.646,3.623,3.294,6.588,4.611,6.257,2.635,6.257,2.635,17.125,18.443,23.383,24.207,13.173,9.385,16.8,11.362,11.527,6.092,11.527,6.092-3.952,2.964-3.952,7.74c0,.207,0,.412.008.618L307.4,281.985c4.592-6.12,9.345-12.714,9.345-12.714l11.691,15.643a48.324,48.324,0,0,1-3.128,5.764c-1.976,3.128-8.563,9.221-8.563,9.221s2.963,2.305,5.269,2.635,13.339-4.94,18.772-9.55,6.422-6.588,4.281-9.716S334.361,268.777,329.256,261.531Z" transform="translate(-211.333 -193.26)" fill="#fff" stroke="rgba(0,0,0,0)" stroke-width="1"/>
          <g id="Grupo_2302" data-name="Grupo 2302" clip-path="url(#clip-path-3)">
            <path id="Trazado_6520" data-name="Trazado 6520" d="M331.569,262.89c-5.1-7.246-5.434-13.009-10.538-14.82s-11.362-.329-13.338-.329a31.413,31.413,0,0,1-4.634-.574c.009.044.012.083.021.127,0,0,3.244,2.433,11.083,5.136s18.653,22.167,22.707,26.492,5.407,6.758,4.325,8.11-3.243,2.7-7.3,7.028c-2.654,2.831-6.1,6.125-7.576,9.5a59.044,59.044,0,0,0,16.775-9.221c5.434-4.611,6.422-6.588,4.281-9.716S336.674,270.136,331.569,262.89Z" transform="translate(-213.646 -194.619)" fill="#fedc00" stroke="rgba(0,0,0,0)" stroke-width="1" opacity="0.5"/>
            <g id="Grupo_2301" data-name="Grupo 2301" transform="translate(25.863 33.963)" opacity="0.5">
              <path id="Trazado_6521" data-name="Trazado 6521" d="M263.861,242.758a37.116,37.116,0,0,1-11.894-6.217c-6.488-4.865-15.949-11.623-13.786-6.758s17.031,17.031,22.978,20,9.731,1.351,17.3.811,5.947-4.325,1.081-4.325S267.645,244.38,263.861,242.758Z" transform="translate(-237.865 -228.101)" fill="#fedc00" stroke="rgba(0,0,0,0)" stroke-width="1"/>
              <path id="Trazado_6522" data-name="Trazado 6522" d="M263.861,242.758a37.116,37.116,0,0,1-11.894-6.217c-6.488-4.865-15.949-11.623-13.786-6.758s17.031,17.031,22.978,20,9.731,1.351,17.3.811,5.947-4.325,1.081-4.325S267.645,244.38,263.861,242.758Z" transform="translate(-237.865 -228.101)" fill="#fedc00" stroke="rgba(0,0,0,0)" stroke-width="1" opacity="0.5"/>
            </g>
          </g>
          <path id="Trazado_6525" data-name="Trazado 6525" d="M329.256,261.531c-5.1-7.246-5.434-13.009-10.538-14.82s-11.362-.329-13.338-.329a41.314,41.314,0,0,1-5.929-.824l-6.255-.75s-2.559.569-9.953-.853c-4.526-.87-6.175-.037-9.294-.189a23.372,23.372,0,0,1-7.485-2.086c-9.669-3.981-31.282-20.191-34.695-22.751l-3.413-2.56s.451-5.393.451-8.356-.165-5.764-.165-5.764.824-6.751.165-7.9-1.811.329-1.811,1.646a34.443,34.443,0,0,1-1.811,7.081s-1.153-6.916-1.483-8.233-1.152-1.812-1.976-1.483.165,3.952.165,5.434-.165,5.763-.165,5.763-2.963-7.246-3.787-8.727-1.811-.329-1.646.988,2.634,8.563,2.634,8.563-1.482,7.739-1.482,8.233-3.129-.494-4.611-1.811-1.976,0-.988,1.646,3.623,3.294,6.588,4.611,6.257,2.635,6.257,2.635,17.125,18.443,23.383,24.207a70.9,70.9,0,0,0,12.617,9.047c1.476.856,3,1.672,4.179,2.315,3.623,1.976,11.527,6.092,11.527,6.092s-3.952,2.964-3.952,7.74c0,.207,0,.412.008.618L307.4,281.985c4.592-6.12,9.345-12.714,9.345-12.714l11.691,15.643a48.324,48.324,0,0,1-3.128,5.764c-1.976,3.128-8.563,9.221-8.563,9.221s2.963,2.305,5.269,2.635,13.339-4.94,18.772-9.55,6.422-6.588,4.281-9.716S334.361,268.777,329.256,261.531Z" transform="translate(-211.333 -193.26)" fill="none" stroke="#000" stroke-linecap="round" stroke-linejoin="round" stroke-width="1"/>
        </g>
        <g id="Grupo_2305" data-name="Grupo 2305" transform="translate(99.666 49.067)">
          <g id="Grupo_2304" data-name="Grupo 2304">
            <path id="Trazado_6526" data-name="Trazado 6526" d="M330.449,262.761c-5.1-7.246-5.434-13.009-10.538-14.82s-11.362-.329-13.338-.329a41.314,41.314,0,0,1-5.929-.824l-6.255-.75s-2.559.569-9.953-.853-7.11,1.706-16.779-2.275c-.589-.243-1.222-.531-1.893-.859-2.609,1.978-5.471,5.381-7.11,11.18,2.964,1.873,5.6,3.272,7.409,4.261,3.623,1.976,11.527,6.092,11.527,6.092s-3.952,2.964-3.952,7.74.988,9.057-1.317,12.185c-1.767,2.4-6.713,6.623-8.934,8.472,3.932,3.594,15.608,15.27,20.513,31.188.5-.635.979-1.282,1.429-1.951,6.092-9.057,14-26.018,19.266-32.769S317.935,270.5,317.935,270.5l4.353,5.826c3.082-3.677,7-7.009,11.811-8.479C332.791,266.047,331.539,264.308,330.449,262.761Z" transform="translate(-258.654 -242.052)" fill="#fff" stroke="#000" stroke-linecap="round" stroke-linejoin="round" stroke-width="1"/>
            <path id="Trazado_6527" data-name="Trazado 6527" d="M307.785,273.161a24.573,24.573,0,0,0-2.066,1.536,15.815,15.815,0,0,1-12.154,3.964c-11.482-.741-17.409-9.631-17.779-6.668s0,11.112,6.667,13.7,15.186-.741,12.593,2.223-15.112,9.751-12.149,13.825,10.947,3.026,20.83-14.507c1.45-2.571,8.42-9.61,8.469-12.9C312.247,270.9,309.756,271.879,307.785,273.161Z" transform="translate(-259.083 -242.792)" opacity="0.14"/>
            <path id="Trazado_6528" data-name="Trazado 6528" d="M306.806,251.124c1.6.733,3.619,1.56,6.1,2.415,3.96,1.366,8.674,7.006,12.9,12.812a22.7,22.7,0,0,1,4.385-2.536c-4.979-7.157-5.353-12.839-10.414-14.634-3.847-1.365-8.347-.86-11.178-.528C307.99,249.491,307.375,250.34,306.806,251.124Z" transform="translate(-259.868 -242.209)" opacity="0.14"/>
          </g>
          <path id="Trazado_6529" data-name="Trazado 6529" d="M332.857,264.495a18.678,18.678,0,0,0-11.532,8.993l2.543,3.4c3.082-3.677,7-7.009,11.811-8.479C334.69,267.054,333.735,265.729,332.857,264.495Z" transform="translate(-260.234 -242.618)" stroke="#000" stroke-linecap="round" stroke-linejoin="round" stroke-width="1"/>
          <path id="Trazado_6530" data-name="Trazado 6530" d="M301.362,246.89l-6.255-.75a17.689,17.689,0,0,1-4.8-.07c-.851,3.706-2.277,9.992-3.029,13.749-1.116,5.58,4.835,4.092,10.787,0,3.827-2.631,7.037-8.181,9.139-12.108A42.393,42.393,0,0,1,301.362,246.89Z" transform="translate(-259.372 -242.153)" stroke="#000" stroke-linecap="round" stroke-linejoin="round" stroke-width="1"/>
          <path id="Trazado_6531" data-name="Trazado 6531" d="M261.53,254.971c1.262-3.115,3.8-8.061,8.108-11.294-.613-.221-1.266-.472-1.981-.766-.589-.243-1.222-.531-1.893-.859-2.609,1.978-5.471,5.381-7.11,11.18C259.658,253.866,260.62,254.443,261.53,254.971Z" transform="translate(-258.654 -242.052)" stroke="#000" stroke-linecap="round" stroke-linejoin="round" stroke-width="1"/>
        </g>
        <g id="Grupo_2309" data-name="Grupo 2309" transform="translate(125.732 17.507)">
          <g id="Grupo_2307" data-name="Grupo 2307">
            <path id="Trazado_6532" data-name="Trazado 6532" d="M306.154,209.675s-7.109,1.991-9.1,3.7-4.835,7.11-8.248,7.678-3.413,2.56-3.413,3.982a4.371,4.371,0,0,0,.569,2.274s-.285,6.541-.285,9.954.853,4.266,2.56,4.266h3.981s-.853,11.944-1.706,14.789,4.266-.285,5.687-1.707l7.963-7.962s-1.706-8.248.853-13.935-1.991-7.678-2.559-13.936A9.9,9.9,0,0,1,306.154,209.675Z" transform="translate(-285.394 -209.675)" fill="#fff"/>
            <g id="Grupo_2306" data-name="Grupo 2306" clip-path="url(#clip-path-4)">
              <path id="Trazado_6533" data-name="Trazado 6533" d="M304.185,246.852s-1.706-8.248.853-13.935-1.991-7.678-2.559-13.936c-.034-.374-.049-.735-.051-1.085a12.485,12.485,0,0,0-2.526,7.735c.371,5.207-1.116,11.159-4.464,12.647-2.383,1.059-7.589,1.741-9.186,2.449a2.043,2.043,0,0,0,2.007,1.005h3.981s-.115,1.614-.3,3.793c2.371,2.031,5,4.485,7.091,6.483Z" transform="translate(-285.416 -209.882)" fill="#fedc00" opacity="0.5"/>
            </g>
            <path id="Trazado_6536" data-name="Trazado 6536" d="M306.154,209.675s-7.109,1.991-9.1,3.7-4.835,7.11-8.248,7.678-3.413,2.56-3.413,3.982a4.371,4.371,0,0,0,.569,2.274s-.285,6.541-.285,9.954.853,4.266,2.56,4.266h3.981s-.853,11.944-1.706,14.789,4.266-.285,5.687-1.707l7.963-7.962s-1.706-8.248.853-13.935-1.991-7.678-2.559-13.936A9.9,9.9,0,0,1,306.154,209.675Z" transform="translate(-285.394 -209.675)" fill="none" stroke="#000" stroke-linecap="round" stroke-linejoin="round" stroke-width="1"/>
          </g>
          <g id="Grupo_2308" data-name="Grupo 2308" transform="translate(2.616 6.993)">
            <path id="Trazado_6537" data-name="Trazado 6537" d="M296,221.723c-.59.955-1.412,1.517-1.836,1.255s-.29-1.249.3-2.2,1.412-1.517,1.836-1.256S296.586,220.768,296,221.723Z" transform="translate(-288.225 -216.915)"/>
            <path id="Trazado_6538" data-name="Trazado 6538" d="M296.42,217.117s3.614-1.581,2.936,2.936" transform="translate(-288.288 -216.849)" fill="none" stroke="#000" stroke-linecap="round" stroke-linejoin="round" stroke-width="1"/>
            <path id="Trazado_6539" data-name="Trazado 6539" d="M292.821,229.223c-3.388,1.13-4.743,0-4.743,0" transform="translate(-288.078 -217.161)" fill="none" stroke="#263238" stroke-linecap="round" stroke-linejoin="round" stroke-width="1"/>
            <path id="Trazado_6540" data-name="Trazado 6540" d="M289.338,229.622v2.829s1.414,1.3,2.829-3.064A6.685,6.685,0,0,1,289.338,229.622Z" transform="translate(-288.11 -217.165)" fill="none" stroke="#000" stroke-linecap="round" stroke-linejoin="round" stroke-width="1"/>
          </g>
          <path id="Trazado_6541" data-name="Trazado 6541" d="M304.313,230.662s8.248-2.275,7.11,1.422-7.963,6.256-8.816,3.412" transform="translate(-285.828 -210.187)" fill="#fff" stroke="#000" stroke-linecap="round" stroke-linejoin="round" stroke-width="1"/>
        </g>
        <path id="Trazado_6542" data-name="Trazado 6542" d="M262.37,294.211s12.079,15.069,13.508,27.931" transform="translate(-159.081 -194.3)" fill="none" stroke="#263238" stroke-linecap="round" stroke-linejoin="round" stroke-width="1"/>
        <path id="Trazado_6543" data-name="Trazado 6543" d="M278.08,263.93s2.481-4.778,2.481-8.209" transform="translate(-159.477 -193.329)" fill="none" stroke="#263238" stroke-linecap="round" stroke-linejoin="round" stroke-width="1"/>
        <line id="Línea_62" data-name="Línea 62" x1="6.139" y1="7.408" transform="translate(152.808 70.109)" fill="#fff" stroke="#263238" stroke-linecap="round" stroke-linejoin="round" stroke-width="1"/>
        <path id="Trazado_6544" data-name="Trazado 6544" d="M331.462,287.229a10.652,10.652,0,0,1,9.034-1.9" transform="translate(-160.823 -194.069)" fill="none" stroke="#263238" stroke-linecap="round" stroke-linejoin="round" stroke-width="1"/>
        <g id="Grupo_2310" data-name="Grupo 2310" transform="translate(142.704 94.874)">
          <path id="Trazado_6545" data-name="Trazado 6545" d="M321.759,296.549a34.44,34.44,0,0,0-4.289-6.036c-2.065-2.065-7.624-1.747-8.259-.318s3.177,1.112,5.559,3.495,2.065,4.447,2.065,4.447a15.267,15.267,0,0,1-6.67.953c-3.018-.477-6.989-1.27-7.306-.159s.793,2.382,3.335,3.018,5.559.477,6.513.636,3.336,2.7,5.241,2.7,4.288-.477,4.924,0,2.382,2.7,4.289,2.7,3.653-1.907,3.811-4.13-1.111-4.288-3.811-5.4S321.759,296.549,321.759,296.549Z" transform="translate(-302.805 -289.044)" fill="#fff" stroke="#000" stroke-linecap="round" stroke-linejoin="round" stroke-width="1"/>
          <path id="Trazado_6546" data-name="Trazado 6546" d="M326.559,296.766s-6.33-5.423-7.887-5.573-6.127,2.715-5.072,3.869,2.662-.553,4.068-.353,5.175,3.464,5.878,3.565" transform="translate(-303.073 -289.098)" fill="#fff" stroke="#000" stroke-linecap="round" stroke-linejoin="round" stroke-width="1"/>
          <path id="Trazado_6547" data-name="Trazado 6547" d="M326.956,299.344l-1.906-3.177s-2.066,3.495-4.448,3.018,2.7-5.718,3.812-6.036,2.541-.952,3.811,1.43a28.466,28.466,0,0,1,2.066,6.036" transform="translate(-303.238 -289.139)" fill="#fff" stroke="#000" stroke-linecap="round" stroke-linejoin="round" stroke-width="1"/>
          <path id="Trazado_6548" data-name="Trazado 6548" d="M331.339,302.293s-.794-5.083-1.747-5.718-3.971.477-5.241,1.906-.477,1.748,1.111,1.748a3.48,3.48,0,0,0,2.383-.794l1.111,2.382" transform="translate(-303.332 -289.229)" fill="#fff" stroke="#000" stroke-linecap="round" stroke-linejoin="round" stroke-width="1"/>
        </g>
        <g id="Grupo_2311" data-name="Grupo 2311" transform="translate(30.012 152.578)">
          <path id="Trazado_6549" data-name="Trazado 6549" d="M227.938,376.983a56.8,56.8,0,0,0-7.3-12.522c-4.55-5.688-12.229-7.963-17.064-11.091s-11.944-7.394-15.072-3.7-.285,8.816,4.835,14.5,14.219,10.238,15.072,11.375,8.927,10.645,12.055,10.928S226.8,382.671,227.938,376.983Z" transform="translate(-187.198 -348.24)" stroke="#000" stroke-linecap="round" stroke-linejoin="round" stroke-width="1"/>
          <path id="Trazado_6550" data-name="Trazado 6550" d="M225.589,383.086c-1.625-5.775-7.543-10.673-11.6-13.761-4.826-3.673-10.789-11.48-19.617-18.168-3.846-2.914-5.771-1.569-5.867-1.456-3.128,3.7-.285,8.816,4.835,14.5s14.219,10.238,15.072,11.375,8.927,10.644,12.055,10.928C222.289,386.674,224.138,385.344,225.589,383.086Z" transform="translate(-187.198 -348.269)" fill="#fff" stroke="#000" stroke-linecap="round" stroke-linejoin="round" stroke-width="1"/>
          <path id="Trazado_6551" data-name="Trazado 6551" d="M211.593,371.3c-5.6-4.67-18.059-18.681-20.86-19.927-2.339-1.039-3.266,1.494-3.509,2.363.227,3.067,2.645,6.661,6.116,10.517,5.119,5.688,14.219,10.238,15.072,11.375s8.927,10.644,12.055,10.928a1.572,1.572,0,0,0,1.869-.934C223.892,383.282,217.2,375.965,211.593,371.3Z" transform="translate(-187.199 -348.312)" fill="#fff" stroke="#000" stroke-linecap="round" stroke-linejoin="round" stroke-width="1"/>
        </g>
      </g>
    </g>
    <g id="_001-simbolo-del-dolar" data-name="001-simbolo-del-dolar" transform="matrix(0.974, 0.225, -0.225, 0.974, 311.283, 411.819)">
      <g id="Grupo_3148" data-name="Grupo 3148" transform="translate(0 0)">
        <g id="Grupo_3132" data-name="Grupo 3132" transform="translate(23.619 69.205)">
          <path id="Trazado_7982" data-name="Trazado 7982" d="M23.993,47.593l9.772-5.679-.018,6.306L23.975,53.9Z" transform="translate(-23.975 -41.914)" fill="#ecae00" stroke="#000" stroke-width="1"/>
        </g>
        <g id="Grupo_3133" data-name="Grupo 3133" transform="translate(5.598 41.488)">
          <path id="Trazado_7983" data-name="Trazado 7983" d="M13.321,31.206l9.772-5.679q6.4,10.088,13.182,15.252L26.5,46.458Q19.713,41.29,13.321,31.206Z" transform="translate(-13.321 -25.528)" fill="#ffec8c" stroke="#000" stroke-width="1"/>
        </g>
        <g id="Grupo_3134" data-name="Grupo 3134" transform="translate(23.663 59.814)">
          <path id="Trazado_7984" data-name="Trazado 7984" d="M24,42.041l9.772-5.678c2.435,1.117,4.37,1.419,5.8.889L29.806,42.93C28.371,43.46,26.437,43.158,24,42.041Z" transform="translate(-24.001 -36.362)" fill="#ffec8c" stroke="#000" stroke-width="1"/>
        </g>
        <g id="Grupo_3135" data-name="Grupo 3135" transform="translate(29.468 60.459)">
          <path id="Trazado_7985" data-name="Trazado 7985" d="M37.726,36.744l-9.771,5.679a3.306,3.306,0,0,1-.522.243L37.2,36.987A3.3,3.3,0,0,0,37.726,36.744Z" transform="translate(-27.433 -36.744)" fill="#73bd1e" stroke="#000" stroke-width="1"/>
        </g>
        <g id="Grupo_3136" data-name="Grupo 3136" transform="translate(23.663 44.031)">
          <path id="Trazado_7986" data-name="Trazado 7986" d="M24.046,32.71l9.771-5.679-.045,15.783L24,48.492Z" transform="translate(-24.001 -27.031)" fill="#ecae00" stroke="#000" stroke-width="1"/>
        </g>
        <g id="Grupo_3137" data-name="Grupo 3137" transform="translate(23.738 33.334)">
          <path id="Trazado_7987" data-name="Trazado 7987" d="M24.046,26.386l4.747-3.213,5.024-2.466.221.128-9.771,5.679Z" transform="translate(-24.046 -20.707)" fill="#ecc600" stroke="#000" stroke-width="1"/>
        </g>
        <g id="Grupo_3138" data-name="Grupo 3138" transform="translate(11.55 13.144)">
          <path id="Trazado_7988" data-name="Trazado 7988" d="M18.476,14.449l9.771-5.679C27.162,9.4,26.616,10.6,26.611,12.4a10.659,10.659,0,0,0,1.506,5.522,34.038,34.038,0,0,0,5.8,6.645L24.15,30.243a34.044,34.044,0,0,1-5.8-6.645,10.661,10.661,0,0,1-1.506-5.522c.005-1.8.551-3,1.637-3.627Z" transform="translate(-16.84 -8.771)" fill="#ffec8c" stroke="#000" stroke-width="1"/>
        </g>
        <path id="Unión_5" data-name="Unión 5" d="M409.472-408.869a25.319,25.319,0,0,0-4.1-14.081q-4.1-6.421-12.875-13.853l9.771-5.679q8.779,7.437,12.876,13.853a25.329,25.329,0,0,1,4.1,14.082q-.02,7.048-4.023,9.382l-9.771,5.678Q409.453-401.814,409.472-408.869Z" transform="translate(-368.539 475.944)" fill="#ffec8c" stroke="#000" stroke-width="1"/>
        <g id="Grupo_3141" data-name="Grupo 3141" transform="translate(23.738 16.856)">
          <path id="Trazado_7991" data-name="Trazado 7991" d="M24.092,16.644l9.772-5.679-.047,16.478-9.772,5.679Z" transform="translate(-24.046 -10.965)" fill="#ecae00" stroke="#000" stroke-width="1"/>
        </g>
        <g id="Grupo_3142" data-name="Grupo 3142" transform="translate(6.3 1.923)">
          <path id="Trazado_7992" data-name="Trazado 7992" d="M13.736,8.9l9.771-5.679q.285-.166.59-.308Q28.715.744,36.137,4.6l-9.771,5.679Q18.951,6.435,14.327,8.6q-.305.142-.59.308Z" transform="translate(-13.736 -2.137)" fill="#ffec8c" stroke="#000" stroke-width="1"/>
        </g>
        <g id="Grupo_3143" data-name="Grupo 3143" transform="translate(18.941)">
          <path id="Trazado_7993" data-name="Trazado 7993" d="M21.21,6.679,30.981,1l4.883,2.819L26.093,9.5Z" transform="translate(-21.21 -1)" fill="#ffec8c" stroke="#000" stroke-width="1"/>
        </g>
        <g id="Grupo_3144" data-name="Grupo 3144" transform="translate(23.812 2.819)">
          <path id="Trazado_7994" data-name="Trazado 7994" d="M24.1,8.345l9.771-5.679-.013,4.475-9.771,5.679Z" transform="translate(-24.089 -2.667)" fill="#ecae00" stroke="#000" stroke-width="1"/>
        </g>
        <g id="Grupo_3145" data-name="Grupo 3145" transform="translate(23.812 7.295)">
          <path id="Trazado_7995" data-name="Trazado 7995" d="M24.089,10.991l9.771-5.679A63.617,63.617,0,0,1,49.717,21.055l-9.772,5.679A63.616,63.616,0,0,0,24.089,10.991Z" transform="translate(-24.089 -5.313)" fill="#ffec8c" stroke="#000" stroke-width="1"/>
        </g>
        <g id="Grupo_3146" data-name="Grupo 3146" transform="translate(34.673 23.037)">
          <path id="Trazado_7996" data-name="Trazado 7996" d="M35.505,20.3l9.772-5.679-4.995,5.2L30.51,25.5Z" transform="translate(-30.51 -14.62)" fill="#ecae00" stroke="#000" stroke-width="1"/>
        </g>
        <g id="Grupo_3147" data-name="Grupo 3147" transform="translate(0 5.679)">
          <path id="Trazado_7997" data-name="Trazado 7997" d="M46.847,51.671a25.328,25.328,0,0,1,4.1,14.082q-.022,7.68-4.771,9.76c-3.166,1.4-7.346.734-12.526-1.951l-.018,6.306-4.883-2.819.018-6.408Q18.3,63.377,10.012,50.254l5.6-4.409q6.4,10.088,13.182,15.252l.048-17.02q-8.624-7.348-12.611-13.513A24.686,24.686,0,0,1,12.249,16.8q.022-7.578,4.653-9.743,4.616-2.174,12.039,1.687l.012-4.391,4.883,2.819-.013,4.475A63.616,63.616,0,0,1,49.679,27.395l-4.995,5.2A50.676,50.676,0,0,0,33.8,21.213L33.75,37.691l.221.128q8.779,7.437,12.876,13.853ZM39.48,65.06c1.42-.521,2.148-1.8,2.154-3.851a11.071,11.071,0,0,0-1.668-5.836,36.343,36.343,0,0,0-6.246-6.985l-.045,15.783c2.435,1.117,4.37,1.419,5.805.889M28.871,33.3l.043-15.173c-2.3-1.091-4.09-1.342-5.392-.786-1.3.573-1.956,1.825-1.961,3.792a10.661,10.661,0,0,0,1.506,5.522,34.044,34.044,0,0,0,5.8,6.645" transform="translate(-10.012 -4.357)" fill="#ffda1a" stroke="#000" stroke-width="1"/>
        </g>
      </g>
    </g>
    <g id="_007-simbolo-del-yen" data-name="007-simbolo-del-yen" transform="matrix(0.985, 0.174, -0.174, 0.985, 45.36, 368.812)">
      <g id="Grupo_3243" data-name="Grupo 3243" transform="translate(0 0)">
        <g id="Grupo_3228" data-name="Grupo 3228" transform="translate(4.161 38.066)">
          <path id="Trazado_8070" data-name="Trazado 8070" d="M11.368,31.152l6.11-3.551,12.094,6.982-6.11,3.551Z" transform="translate(-11.368 -27.601)" fill="#ffec8c" stroke="#000" stroke-width="1"/>
        </g>
        <g id="Grupo_3229" data-name="Grupo 3229" transform="translate(24.162 56.073)">
          <path id="Trazado_8071" data-name="Trazado 8071" d="M25.371,43.736l6.11-3.551-.026,9.063L25.346,52.8Z" transform="translate(-25.346 -40.185)" fill="#ecae00" stroke="#000" stroke-width="1"/>
        </g>
        <g id="Grupo_3230" data-name="Grupo 3230" transform="translate(4.192 27.243)">
          <path id="Trazado_8072" data-name="Trazado 8072" d="M11.39,23.589l6.11-3.551,8.533,4.926-6.11,3.551Z" transform="translate(-11.39 -20.038)" fill="#ffec8c" stroke="#000" stroke-width="1"/>
        </g>
        <g id="Grupo_3231" data-name="Grupo 3231" transform="translate(24.271 45.733)">
          <path id="Trazado_8073" data-name="Trazado 8073" d="M25.433,36.51l6.11-3.551L31.531,36.9l-6.11,3.551Z" transform="translate(-25.422 -32.959)" fill="#ecae00" stroke="#000" stroke-width="1"/>
        </g>
        <g id="Grupo_3232" data-name="Grupo 3232" transform="translate(24.282 45.394)">
          <path id="Trazado_8074" data-name="Trazado 8074" d="M25.429,36.174l6.3-3.451-.186.339-6.11,3.614Z" transform="translate(-25.429 -32.723)" fill="#ecae00" stroke="#000" stroke-width="1"/>
        </g>
        <g id="Grupo_3233" data-name="Grupo 3233" transform="translate(20.163 35.148)">
          <path id="Trazado_8075" data-name="Trazado 8075" d="M22.551,29.113,23,28.681l5.658-3.119.452.261L23,29.374Z" transform="translate(-22.551 -25.562)" fill="#ffec8c" stroke="#000" stroke-width="1"/>
        </g>
        <g id="Grupo_3234" data-name="Grupo 3234" transform="translate(24.271 49.676)">
          <path id="Trazado_8076" data-name="Trazado 8076" d="M25.422,39.266l6.11-3.551,11.955,6.9-6.11,3.551Z" transform="translate(-25.422 -35.715)" fill="#ffec8c" stroke="#000" stroke-width="1"/>
        </g>
        <g id="Grupo_3235" data-name="Grupo 3235" transform="translate(36.208 56.579)">
          <path id="Trazado_8077" data-name="Trazado 8077" d="M33.782,44.089l6.11-3.551-.018,6.434-6.11,3.551Z" transform="translate(-33.764 -40.539)" fill="#ecae00" stroke="#000" stroke-width="1"/>
        </g>
        <g id="Grupo_3236" data-name="Grupo 3236" transform="translate(8.21 4.74)">
          <path id="Trazado_8078" data-name="Trazado 8078" d="M14.2,7.863l6.11-3.551L32.261,34.72l-6.11,3.551Z" transform="translate(-14.198 -4.312)" fill="#ffec8c" stroke="#000" stroke-width="1"/>
        </g>
        <g id="Grupo_3237" data-name="Grupo 3237">
          <path id="Trazado_8079" data-name="Trazado 8079" d="M8.46,4.551,14.57,1l8.21,4.74-6.11,3.551Z" transform="translate(-8.46 -1)" fill="#ffec8c" stroke="#000" stroke-width="1"/>
        </g>
        <g id="Grupo_3238" data-name="Grupo 3238" transform="translate(27.927 40.947)">
          <path id="Trazado_8080" data-name="Trazado 8080" d="M27.977,33.165l6.11-3.551,8.33,4.809-6.11,3.551Z" transform="translate(-27.977 -29.615)" fill="#ffec8c" stroke="#000" stroke-width="1"/>
        </g>
        <g id="Grupo_3239" data-name="Grupo 3239" transform="translate(36.239 45.756)">
          <path id="Trazado_8081" data-name="Trazado 8081" d="M33.8,36.526l6.11-3.551-.018,6.434-6.11,3.551Z" transform="translate(-33.785 -32.975)" fill="#ecae00" stroke="#000" stroke-width="1"/>
        </g>
        <g id="Grupo_3240" data-name="Grupo 3240" transform="translate(0 3.551)">
          <path id="Trazado_8082" data-name="Trazado 8082" d="M49.686,27.283l-13.3,17.145,8.33,4.809L44.7,55.672l-11.771-6.8-.186.339-.011,3.943,11.955,6.9-.018,6.434-12.02-6.94-.026,9.063-7.952-4.591.026-9.063L12.6,47.981l.018-6.434,12.094,6.982.011-3.943-.257-.594L12.634,37.159l.018-6.434,8.533,4.926L8.46,3.481l8.21,4.74L28.624,38.629l.452.261L41.614,22.623Z" transform="translate(-8.46 -3.481)" fill="#ffda1a" stroke="#000" stroke-width="1"/>
        </g>
        <g id="Grupo_3241" data-name="Grupo 3241" transform="translate(27.927 23.802)">
          <path id="Trazado_8083" data-name="Trazado 8083" d="M41.275,21.184l6.11-3.551-13.3,17.145-6.11,3.551Z" transform="translate(-27.977 -17.633)" fill="#ecae00" stroke="#000" stroke-width="1"/>
        </g>
        <g id="Grupo_3242" data-name="Grupo 3242" transform="translate(33.154 19.141)">
          <path id="Trazado_8084" data-name="Trazado 8084" d="M31.629,17.927l6.11-3.551,8.072,4.66L39.7,22.587Z" transform="translate(-31.629 -14.376)" fill="#ffec8c" stroke="#000" stroke-width="1"/>
        </g>
      </g>
    </g>
    <g id="_002-simbolo-del-euro" data-name="002-simbolo-del-euro" transform="translate(268.408 245.673) rotate(-14)">
      <g id="Grupo_3164" data-name="Grupo 3164" transform="translate(0 1)">
        <g id="Grupo_3149" data-name="Grupo 3149" transform="translate(0.018 16.2)">
          <path id="Trazado_7998" data-name="Trazado 7998" d="M5.823,18.478l6.929-4.027,5.6,3.232-6.93,4.027Z" transform="translate(-5.823 -14.451)" fill="#ffec8c" stroke="#000" stroke-width="1"/>
        </g>
        <g id="Grupo_3150" data-name="Grupo 3150" transform="translate(0.052 4.106)">
          <path id="Trazado_7999" data-name="Trazado 7999" d="M5.85,8.878l6.93-4.027L19.256,8.59l-6.93,4.027Z" transform="translate(-5.85 -4.851)" fill="#ffec8c" stroke="#000" stroke-width="1"/>
        </g>
        <g id="Grupo_3151" data-name="Grupo 3151" transform="translate(13.471 18.06)">
          <path id="Trazado_8000" data-name="Trazado 8000" d="M16.572,19.953l6.93-4.027c-.043.553-.067,1.406-.07,2.584a30.642,30.642,0,0,0,.179,3.427l-6.93,4.027a30.616,30.616,0,0,1-.179-3.427C16.505,21.36,16.529,20.506,16.572,19.953Z" transform="translate(-16.502 -15.926)" fill="#ecae00" stroke="#000" stroke-width="1"/>
        </g>
        <g id="Grupo_3152" data-name="Grupo 3152" transform="translate(39.255 53.397)">
          <path id="Trazado_8001" data-name="Trazado 8001" d="M43.9,45l-6.93,4.027A10.348,10.348,0,0,0,38.422,48l6.929-4.027A10.348,10.348,0,0,1,43.9,45Z" transform="translate(-36.969 -43.976)" fill="#ff5766" stroke="#000" stroke-width="1"/>
        </g>
        <g id="Grupo_3153" data-name="Grupo 3153" transform="translate(15.317 31.211)">
          <path id="Trazado_8002" data-name="Trazado 8002" d="M45.716,39.938l-6.93,4.027a10.679,10.679,0,0,1-4.923,1.59A11.3,11.3,0,0,1,28.105,43.7q-6.8-3.923-10.138-13.307L24.9,26.365q3.337,9.369,10.138,13.307a11.3,11.3,0,0,0,5.758,1.856,10.679,10.679,0,0,0,4.923-1.59Z" transform="translate(-17.967 -26.365)" fill="#ffec8c" stroke="#000" stroke-width="1"/>
        </g>
        <g id="Grupo_3154" data-name="Grupo 3154" transform="translate(29.64 33.313)">
          <path id="Trazado_8003" data-name="Trazado 8003" d="M29.354,32.061l6.93-4.027L36.266,34.2l-6.93,4.027Z" transform="translate(-29.337 -28.034)" fill="#ecae00" stroke="#000" stroke-width="1"/>
        </g>
        <g id="Grupo_3155" data-name="Grupo 3155" transform="translate(13.65 24.071)">
          <path id="Trazado_8004" data-name="Trazado 8004" d="M16.644,24.725l6.93-4.027L39.581,29.94l-6.93,4.027Z" transform="translate(-16.644 -20.698)" fill="#ffec8c" stroke="#000" stroke-width="1"/>
        </g>
        <g id="Grupo_3156" data-name="Grupo 3156" transform="translate(36.3 44.686)">
          <path id="Trazado_8005" data-name="Trazado 8005" d="M34.623,41.089l6.93-4.027,4.408,8.71L39.032,49.8Z" transform="translate(-34.623 -37.062)" fill="#ecae00" stroke="#000" stroke-width="1"/>
        </g>
        <g id="Grupo_3157" data-name="Grupo 3157" transform="translate(14.866 9.608)">
          <path id="Trazado_8006" data-name="Trazado 8006" d="M20.191,13.245l6.93-4.027a6.526,6.526,0,0,0-2.581,3.051L17.61,16.3A6.526,6.526,0,0,1,20.191,13.245Z" transform="translate(-17.61 -9.218)" fill="#ecae00" stroke="#000" stroke-width="1"/>
        </g>
        <g id="Grupo_3158" data-name="Grupo 3158" transform="translate(29.674 21.219)">
          <path id="Trazado_8007" data-name="Trazado 8007" d="M29.381,22.461l6.93-4.027-.018,6.155-6.93,4.027Z" transform="translate(-29.364 -18.434)" fill="#ecae00" stroke="#000" stroke-width="1"/>
        </g>
        <g id="Grupo_3159" data-name="Grupo 3159" transform="translate(14.866 12.659)">
          <path id="Trazado_8008" data-name="Trazado 8008" d="M17.61,15.667l6.93-4.027L39.364,20.2l-6.93,4.027Z" transform="translate(-17.61 -11.64)" fill="#ffec8c" stroke="#000" stroke-width="1"/>
        </g>
        <path id="Unión_6" data-name="Unión 6" d="M14.016,6.7l-.039.023Q7.322,2.884,2.068,4.511A10.026,10.026,0,0,0,0,5.416L6.929,1.389A10.026,10.026,0,0,1,9,.484q5.2-1.609,11.766,2.133l.04-.023C27.4,6.405,32,11.545,35.831,19.25L28.9,23.277C25.094,15.628,20.541,10.506,14.016,6.7Z" transform="translate(12.522 0)" fill="#ffec8c" stroke="#000" stroke-width="1"/>
        <g id="Grupo_3161" data-name="Grupo 3161" transform="translate(36.99 19.25)">
          <path id="Trazado_8010" data-name="Trazado 8010" d="M39.6,20.9l6.93-4.027L42.1,20.766l-6.93,4.027Z" transform="translate(-35.171 -16.871)" fill="#ecae00" stroke="#000" stroke-width="1"/>
        </g>
        <g id="Grupo_3162" data-name="Grupo 3162" transform="translate(0 3.282)">
          <path id="Trazado_8011" data-name="Trazado 8011" d="M31.563,6.9q9.9,5.717,15.67,17.3L42.8,28.086a43.867,43.867,0,0,0-5.186-7.727,24.217,24.217,0,0,0-6.075-4.868,9.763,9.763,0,0,0-6.514-1.581A5.86,5.86,0,0,0,20.676,17.6L35.5,26.16l-.018,6.155L19.35,23c-.043.553-.067,1.406-.07,2.585a30.616,30.616,0,0,0,.179,3.427l16.007,9.242-.018,6.167L21.126,36.152q3.337,9.369,10.138,13.307a11.3,11.3,0,0,0,5.758,1.855,10.814,10.814,0,0,0,5.087-1.687l4.408,8.71q-5.814,4.88-15.277-.584A36.292,36.292,0,0,1,19.754,46.86,47.314,47.314,0,0,1,12.6,31.229l-6.79-3.92.018-6.167,5.6,3.232c-.112-1.209-.182-2.393-.179-3.535s.027-1.971.08-2.47L5.844,15.2l.018-6.155,6.476,3.739q2.078-6.459,7.317-8.106Q24.909,3.054,31.563,6.9Z" transform="translate(-5.809 -4.196)" fill="#ffda1a" stroke="#000" stroke-width="1"/>
        </g>
      </g>
    </g>
  </g>
</svg>
