<svg xmlns="http://www.w3.org/2000/svg" width="336.104" height="344.029" viewBox="0 0 336.104 344.029">
  <g id="Grupo_3247" data-name="Grupo 3247" transform="translate(-37.341 -198.566)">
    <g id="Grupo_3114" data-name="Grupo 3114" transform="translate(-3.35 9)">
      <g id="Device" transform="translate(41.398 218.287)">
        <path id="Trazado_6608" data-name="Trazado 6608" d="M227.449,314.857s-6.239,31.689-44.528,38.833c0,0-10,7.975-13.328,12.7s-21.08,12.746-39.11,37.775S85.55,349.7,85.55,349.7l59.41-77.164Z" transform="translate(-54.694 -110.752)" fill="rgba(0,0,0,0.7)" opacity="0.2"/>
        <g id="Grupo_2353" data-name="Grupo 2353" transform="translate(0 49.224)">
          <path id="Trazado_6609" data-name="Trazado 6609" d="M295.344,142.065s20.647-10.092,25.189-8.349,8.879,12.182-8.465,22.183-12.182,28.63-12.182,28.63h12.389s7.433,3.028,10.324,6.917,4.955,17.177,6.607,21.683.826,9.007-3.716,10.473c0,0-2.89,12.6-2.065,18.182s.413,9.185-4.956,9.861a9.363,9.363,0,0,1-10.323-9.861l-4.13,14.962,2.891,5.751a37.432,37.432,0,0,1,11.149,6.756c5.782,4.956,11.563,6.308,9.911,11.826s-4.955,11.474-22.3,4.573-31.8-34.006-31.8-34.006l-10.418-94.518Z" transform="translate(-88.557 -133.513)" fill="#f6f7f9"/>
          <path id="Trazado_6610" data-name="Trazado 6610" d="M317.076,196.567c-9.362,12.762.993,27.452.993,27.452s-6.476,3.613-6.661,12.828c-.074,3.826.891,9.185,2.039,14.137a9.291,9.291,0,0,1-5.3-9l-4.137,14.962,2.892,5.748a35.265,35.265,0,0,1,8.515,4.681c-2.568,5.9-3.349,13.181-3.12,20.695a54.972,54.972,0,0,1-6.631-2.214c-17.347-6.9-31.793-34.01-31.793-34.01l-10.422-94.521,31.89-15.058s11.283-5.513,19-7.691a62.769,62.769,0,0,0,1.833,18.863,43.773,43.773,0,0,1-4.107,2.665c-17.347,9.994-12.187,28.629-12.187,28.629h12.393s7.065,2.878,10.09,6.631A20.15,20.15,0,0,0,317.076,196.567Z" transform="translate(-88.557 -133.716)" fill="#e2e4e6" opacity="0.4"/>
          <path id="Trazado_6611" data-name="Trazado 6611" d="M221.931,280.711s-22.461,44.041-62.947,54.028c0,0-1.546,8.714-8.4,12.453-3.657,1.994-18.421,24.124-31.389,44.32L47.44,347.493c4.423-4.371,9.458-9.406,14.609-14.66C77.026,317.561,93,300.406,97.9,291.979c4.371-7.529,9.9-20.6,14.719-32.883,6.168-15.706,11.187-30.138,11.187-30.138l23.934-26.605,37.63-41.832,1.626,5.35Z" transform="translate(-47.44 -138.654)" fill="#f6f7f9"/>
          <path id="Trazado_6612" data-name="Trazado 6612" d="M203.187,160.52l36.562,120.191s-22.461,44.041-62.947,54.028c0,0-1.546,8.714-8.4,12.453-3.282,1.789-15.514,19.8-27.356,38.079,4.387-15.058,17.1-39.065,17.1-39.065-8.155-9.656-5.778-19.835-2.517-16.935,3.158,2.818,11.466,11.04,11.989,11.555-3.606-4.247-4.438-10.892-4.438-10.892s10.1,6.719,10.921-4.077-6.057-37.078-6.057-37.078l-18.009-69.166Z" transform="translate(-65.258 -138.654)" fill="#e2e4e6"/>
          <g id="Grupo_2351" data-name="Grupo 2351" transform="translate(174.896)">
            <path id="Trazado_6613" data-name="Trazado 6613" d="M263.453,157.126l31.891-15.061s20.647-10.092,25.189-8.349,8.879,12.182-8.465,22.183-12.182,28.63-12.182,28.63h12.389s7.433,3.028,10.324,6.917,4.955,17.177,6.607,21.683.826,9.007-3.716,10.473c0,0-2.89,12.6-2.065,18.182s.413,9.185-4.956,9.861a9.363,9.363,0,0,1-10.323-9.861l-4.13,14.962,2.891,5.751a37.432,37.432,0,0,1,11.149,6.756c5.782,4.956,11.563,6.308,9.911,11.826s-4.955,11.474-22.3,4.573-31.8-34.006-31.8-34.006" transform="translate(-263.453 -133.513)" fill="none" stroke="#000" stroke-linecap="round" stroke-linejoin="round" stroke-width="1"/>
            <path id="Trazado_6614" data-name="Trazado 6614" d="M336.117,236.727c-6.195,1.673-13.421.433-16.1-10.509s2.686-22.633,6.194-23.745" transform="translate(-274.081 -146.639)" fill="none" stroke="#000" stroke-linecap="round" stroke-linejoin="round" stroke-width="1"/>
            <path id="Trazado_6615" data-name="Trazado 6615" d="M318.651,263.106s-.413-14.094,4.749-17.573" transform="translate(-273.958 -154.836)" fill="none" stroke="#263238" stroke-linecap="round" stroke-linejoin="round" stroke-width="1"/>
          </g>
          <path id="Trazado_6616" data-name="Trazado 6616" d="M119.843,340.11s-15.132-1.884-18.51-8.655c-2.8-5.6-17.935,15.353-35.849,24.552,14.977-15.271,30.955-32.427,35.849-40.854,4.371-7.529,9.9-20.6,14.719-32.883v.015c-.243,10.186-5.674,25.781-4.121,33.9a6.529,6.529,0,0,0-4.659,7.89C108.435,330.513,119.843,340.11,119.843,340.11Z" transform="translate(-50.875 -161.828)" fill="#e2e4e6" opacity="0.4"/>
          <g id="Grupo_2352" data-name="Grupo 2352" transform="translate(0 21.868)">
            <path id="Trazado_6617" data-name="Trazado 6617" d="M238.8,308.966S216.34,353.008,175.851,363c0,0-1.543,8.711-8.394,12.45-3.656,1.995-18.42,24.123-31.392,44.323" transform="translate(-64.309 -188.778)" fill="none" stroke="#000" stroke-linecap="round" stroke-linejoin="round" stroke-width="1"/>
            <path id="Trazado_6618" data-name="Trazado 6618" d="M47.44,347.5C64.73,330.4,91.316,303.3,97.9,291.977c9.963-17.145,25.911-63.023,25.911-63.023l61.564-68.433" transform="translate(-47.44 -160.522)" fill="none" stroke="#000" stroke-linecap="round" stroke-linejoin="round" stroke-width="1"/>
            <path id="Trazado_6619" data-name="Trazado 6619" d="M174.393,225.067s9.454,8.471,12.112,16.174" transform="translate(-71.605 -172.808)" fill="none" stroke="#263238" stroke-linecap="round" stroke-linejoin="round" stroke-width="1"/>
          </g>
        </g>
        <rect id="Rectángulo_2161" data-name="Rectángulo 2161" width="112.649" height="227.506" rx="6.728" transform="translate(107.211)"/>
        <path id="Trazado_6620" data-name="Trazado 6620" d="M259.468,80.036l-2.15,3.95a2.692,2.692,0,0,1-2.364,1.4H219.315a2.692,2.692,0,0,1-2.364-1.4l-2.15-3.95a2.692,2.692,0,0,0-2.364-1.4H187.558a2.692,2.692,0,0,0-2.691,2.692V294.309A2.691,2.691,0,0,0,187.558,297h99.151a2.691,2.691,0,0,0,2.692-2.691V81.323a2.692,2.692,0,0,0-2.692-2.692H261.832A2.692,2.692,0,0,0,259.468,80.036Z" transform="translate(-73.599 -73.843)" fill="#fedc00" stroke="#000" stroke-linecap="round" stroke-linejoin="round" stroke-width="1"/>
        <g id="Grupo_2355" data-name="Grupo 2355" transform="translate(154.36 5.202)">
          <g id="Grupo_2354" data-name="Grupo 2354">
            <circle id="Elipse_134" data-name="Elipse 134" cx="1.453" cy="1.453" r="1.453" fill="none" stroke="#fff" stroke-miterlimit="10" stroke-width="1"/>
            <path id="Trazado_6621" data-name="Trazado 6621" d="M260.331,80.724a.9.9,0,1,1-.9-.9A.9.9,0,0,1,260.331,80.724Z" transform="translate(-241.98 -79.271)" fill="none" stroke="#fff" stroke-miterlimit="10" stroke-width="1"/>
          </g>
          <path id="Trazado_6622" data-name="Trazado 6622" d="M253.565,80.239h-8.8a.564.564,0,0,0-.564.564h0a.564.564,0,0,0,.564.564h8.8a.564.564,0,0,0,.564-.564h0A.564.564,0,0,0,253.565,80.239Z" transform="translate(-239.252 -79.35)" fill="#fff"/>
        </g>
        <g id="Grupo_2357" data-name="Grupo 2357" transform="translate(50.456 40.757)">
          <path id="Trazado_6623" data-name="Trazado 6623" d="M172.046,260.848c1.214,18.664-7.433,39.448-7.433,39.448l-46.7-13.152-8.147-2.3c8.08-11.253,11.952-33.4,9.84-51.326-.162-1.355-.265-2.627-.331-3.835-.773-14.786,5.328-19.114,10.524-25.649,5.63-7.072,18.282-33.8,18.282-40.118s15.823-21.8,12.305-39.374c0,0,4.784-2.966,9.6-.53,2.179,1.1,4.365,3.311,6.116,7.4,4.122,9.634-1.663,36.842-6.587,43.518l-9.479,39.249a84.048,84.048,0,0,1,6.336,15.522A133.448,133.448,0,0,1,172.046,260.848Z" transform="translate(-109.759 -123.055)" fill="#f6f7f9"/>
          <path id="Trazado_6624" data-name="Trazado 6624" d="M119.27,254.755c2.642,7.242,5.453,12.107,5.21,22.292s-5.674,25.781-4.121,33.9a7.172,7.172,0,0,0-2.451,1.266l-8.147-2.3c8.08-11.253,11.952-33.4,9.84-51.326C119.439,257.235,119.336,255.962,119.27,254.755Z" transform="translate(-109.759 -148.124)" fill="#f6f7f9" opacity="0.4"/>
          <path id="Trazado_6625" data-name="Trazado 6625" d="M180.029,175.164l-9.479,39.249a84.048,84.048,0,0,1,6.336,15.522c-.007-.007-.007-.015-.015-.022-6.41-10.348-11.834-13.417-11.834-13.417,4.276-5.13,7.573-42.613,7.573-42.613s13.4-15.749,12.114-32.228a52.739,52.739,0,0,0-4.225-17.412c2.179,1.1,4.365,3.311,6.116,7.4C190.737,141.28,184.952,168.488,180.029,175.164Z" transform="translate(-120.28 -123.281)" fill="#f6f7f9" opacity="0.4"/>
          <g id="Grupo_2356" data-name="Grupo 2356" transform="translate(0 0.001)">
            <path id="Trazado_6626" data-name="Trazado 6626" d="M109.758,284.846c8.086-11.249,11.952-33.4,9.843-51.324s4.57-22.415,10.2-29.488,18.28-33.788,18.28-40.116,15.819-21.8,12.3-39.372c0,0,10.1-6.257,15.715,6.876,4.118,9.633-1.665,36.836-6.586,43.516l-9.48,39.249s10.117,17.446,12.016,46.661c1.213,18.663-7.433,39.448-7.433,39.448" transform="translate(-109.758 -123.057)" fill="#f6f7f9" stroke="#000" stroke-linecap="round" stroke-linejoin="round" stroke-width="1"/>
            <path id="Trazado_6627" data-name="Trazado 6627" d="M148.324,360.409s10.63,6.547,16.831,16.893" transform="translate(-117.099 -168.236)" fill="#f6f7f9" stroke="#000" stroke-linecap="round" stroke-linejoin="round" stroke-width="1"/>
            <path id="Trazado_6628" data-name="Trazado 6628" d="M175.2,367.614s-9.157,1.3-17.433-8.6c-5.3-6.344-21.409-9.21-25.116-25.793" transform="translate(-114.116 -163.062)" fill="#f6f7f9" stroke="#000" stroke-linecap="round" stroke-linejoin="round" stroke-width="1"/>
          </g>
        </g>
      </g>
      <g id="Grupo_2344" data-name="Grupo 2344" transform="translate(67.01 260.388)">
        <rect id="Rectángulo_2159" data-name="Rectángulo 2159" width="46.124" height="29.495" rx="3.51" transform="translate(8.554 0) rotate(16.858)" fill="none" stroke="#263238" stroke-miterlimit="10" stroke-width="1"/>
        <line id="Línea_70" data-name="Línea 70" x2="44.141" y2="13.376" transform="translate(6.561 6.575)" fill="none" stroke="#263238" stroke-miterlimit="10" stroke-width="1"/>
        <line id="Línea_71" data-name="Línea 71" x2="44.141" y2="13.376" transform="translate(5.218 11.008)" fill="none" stroke="#263238" stroke-miterlimit="10" stroke-width="1"/>
        <path id="Trazado_6601" data-name="Trazado 6601" d="M122.531,164.312a2.868,2.868,0,0,0,.249,2.25,2.874,2.874,0,1,1,1.207-3.984A2.862,2.862,0,0,0,122.531,164.312Z" transform="translate(-86.598 -131.645)" fill="none" stroke="#263238" stroke-miterlimit="10" stroke-width="1"/>
        <path id="Trazado_6602" data-name="Trazado 6602" d="M128.92,166.244a2.871,2.871,0,1,1-1.915-3.58A2.871,2.871,0,0,1,128.92,166.244Z" transform="translate(-87.491 -131.915)" fill="none" stroke="#263238" stroke-miterlimit="10" stroke-width="1"/>
      </g>
      <g id="Grupo_2346" data-name="Grupo 2346" transform="translate(295.961 300.734)">
        <rect id="Rectángulo_2160" data-name="Rectángulo 2160" width="51.546" height="26.812" transform="translate(0 21.46) rotate(-24.602)" fill="none" stroke="#263238" stroke-miterlimit="10" stroke-width="1"/>
        <path id="Trazado_6603" data-name="Trazado 6603" d="M400.74,120.993,393.647,105.5A2.748,2.748,0,0,1,390,104.15l-37.88,17.344a2.749,2.749,0,0,1-1.355,3.643l7.093,15.489a2.748,2.748,0,0,1,3.643,1.355l37.88-17.345A2.748,2.748,0,0,1,400.74,120.993Z" transform="translate(-346.74 -100.147)" fill="none" stroke="#263238" stroke-miterlimit="10" stroke-width="1"/>
        <circle id="Elipse_132" data-name="Elipse 132" cx="7.047" cy="7.047" r="7.047" transform="matrix(0.793, -0.609, 0.609, 0.793, 19.134, 21.624)" fill="none" stroke="#263238" stroke-miterlimit="10" stroke-width="1"/>
        <g id="Grupo_2345" data-name="Grupo 2345" transform="translate(25.642 18.085)">
          <path id="Trazado_6604" data-name="Trazado 6604" d="M382.748,129.8l.527,1.151-.5.229-.522-1.141a4.127,4.127,0,0,1-2.81.185l.029-.7a3.751,3.751,0,0,0,2.487-.121l-1.206-2.632c-1.225.234-2.5.407-3.107-.914-.44-.961-.13-2.108,1.347-2.929l-.527-1.151.5-.229.522,1.141a4.317,4.317,0,0,1,2.316-.309l.02.7a4.089,4.089,0,0,0-2.047.235l1.214,2.652c1.254-.247,2.593-.472,3.206.869C384.644,127.8,384.3,128.98,382.748,129.8Zm-2.315-3.734-1.146-2.5c-.989.563-1.207,1.3-.919,1.934C378.716,126.257,379.515,126.23,380.433,126.065Zm3.054,1.144c-.362-.79-1.216-.726-2.173-.542l1.146,2.5C383.523,128.584,383.78,127.849,383.487,127.209Z" transform="translate(-377.463 -121.542)" fill="#263238"/>
        </g>
      </g>
      <rect id="Rectángulo_2162" data-name="Rectángulo 2162" width="81" height="20" rx="8" transform="translate(163 407)"/>
      <g id="Rectángulo_2163" data-name="Rectángulo 2163" transform="translate(165 279)" fill="#fff" stroke="#000" stroke-width="1">
        <rect width="81" height="20" rx="8" stroke="none"/>
        <rect x="0.5" y="0.5" width="80" height="19" rx="7.5" fill="none"/>
      </g>
      <g id="Rectángulo_2164" data-name="Rectángulo 2164" transform="translate(165 305)" fill="#fff" stroke="#000" stroke-width="1">
        <rect width="81" height="20" rx="8" stroke="none"/>
        <rect x="0.5" y="0.5" width="80" height="19" rx="7.5" fill="none"/>
      </g>
      <g id="Rectángulo_2165" data-name="Rectángulo 2165" transform="translate(216 293)" fill="#fff" stroke="#000" stroke-width="1">
        <rect width="21" height="20" rx="7" stroke="none"/>
        <rect x="0.5" y="0.5" width="20" height="19" rx="6.5" fill="none"/>
      </g>
      <g id="Hand" transform="translate(214.154 314.631)">
        <g id="Grupo_2360" data-name="Grupo 2360">
          <path id="Trazado_6629" data-name="Trazado 6629" d="M332.68,389.3c-23.439-11.211-9.241-20.2-41.49-34.116S258.612,329.38,262.5,302.024s.8-56.434,10.187-58.9-7.342-40.19,3.592-53.528l53.8,104.639Z" transform="translate(-260.809 -184.307)" fill="rgba(0,0,0,0.7)" opacity="0.2"/>
          <g id="Grupo_2359" data-name="Grupo 2359" transform="translate(11.84)">
            <path id="Trazado_6630" data-name="Trazado 6630" d="M422.8,386.971c-1.1-3.15-2.223-6.587-3.084-9.7a46.667,46.667,0,0,0-4.055-11.047c-.324-.6-.678-1.236-1.067-1.913a67.521,67.521,0,0,1-6.955-15.838c-1.178-4.43-.023-15.338,1.1-25.892.8-7.595,1.546-14.763,1.332-18.826l-.066-1.442c-.551-10.628-1.7-32.751-4.084-38.874-2.3-5.9-4.46-6.778-8.39-8.353-.4-.176-.824-.338-1.274-.53-1.471-.618-3.981-1.913-6.874-3.407-6.52-3.379-14.63-7.581-18.752-8.14a36.5,36.5,0,0,0-11.555.538c-5.078-3.9-13.719-8.92-16.287-9.016-2.112-.1-6.7,1.214-8.927,1.907-.515.162-.912.287-1.112.353a32.975,32.975,0,0,0-4.416-2.9c-.11-.052-.213-.1-.3-.133-2.856-1.177-7.176-1.222-9.531-1.155-.713.029-1.265.074-1.523.1-4.439-6.837-8.817-13.645-10.716-16.633-3.967-6.285-16.251-32.14-16.375-32.412a.231.231,0,0,0-.162-.133.386.386,0,0,0-.111-.036c-.956-.28-7.992-2.069-10.819,4.754-3.091,7.418,1.325,23.72,5.63,29.637,2.075,2.856,7.727,14.477,13.476,26.51-1.48,1.369-13.263,12.261-18.989,14.292-4.688,1.657-3.591,25.685-2.708,44.983.331,7.124.611,13.255.53,16.935-.162,7.124,12.8,16.942,25.362,26.429,11.356,8.6,23.095,17.48,24.471,23.934a12.354,12.354,0,0,0,2.76,4.945c2.163,2.753,4.945,6,6.131,12.159.346,1.84,3.311,4.254,5.637,8.2h85.13C425.52,394.419,424.181,390.923,422.8,386.971ZM304.865,258.964c4.121,8.633,6.668,13.8,7.271,14.344s.581,3.312.559,5.969a49.4,49.4,0,0,0,.243,6.992c-1,.883-7.337,6.653-8.618,11.319l-5.387-6.344-1.362-19.886C298.388,270.511,303.93,264.66,304.865,258.964Z" transform="translate(-275.432 -183.065)" fill="#f6f7f9"/>
            <path id="Trazado_6631" data-name="Trazado 6631" d="M411.878,326.522c2,18.663,2.028,28.782,4.27,34.184,3.785,9.119,9.364,10.965,9.364,10.965a56.409,56.409,0,0,1-4.392-11.1c-1.177-4.426-.021-15.334,1.1-25.889.8-7.593,1.552-14.766,1.339-18.83l-.073-1.441c-.551-10.628-1.7-32.748-4.084-38.871-2.3-5.9-4.458-6.778-8.385-8.356-.408-.174-.83-.336-1.277-.528-1.474-.614-3.979-1.911-6.874-3.407-6.522-3.375-14.634-7.58-18.751-8.137a36.5,36.5,0,0,0-11.555.534c-5.08-3.9-13.718-8.917-16.292-9.017-2.108-.1-7.81,1.563-10.033,2.26,9.695,7.93,23.709,17.79,23.709,17.79,11.068,2.2,9.65,7.008,14.124,9.693,4.052,2.433,7.927-4.681,11.308-5.306,4.464-.827,9.543,3.909,9.317,9.622C404.068,296.512,410.162,310.5,411.878,326.522Z" transform="translate(-288.91 -195.162)" fill="#c4c5c7" opacity="0.4"/>
            <path id="Trazado_6632" data-name="Trazado 6632" d="M352.583,268.233s-8.773-7.272-12.973-9.737-4.853-10.8-1.55-12.837a.867.867,0,0,1,.407-.126c-.1-.051-.209-.1-.3-.138-2.856-1.179-7.171-1.221-9.528-1.151,4.892,9.046,8.735,15.987,9.784,17.5C341.954,266.858,352.583,268.233,352.583,268.233Z" transform="translate(-285.56 -194.706)" fill="#e2e4e6"/>
            <path id="Trazado_6633" data-name="Trazado 6633" d="M329.152,369.911c.368-1.936-2.818-7.6-4.217-9.9-3.187-5.247-40.133-37.9-34.775-46.609,5.336-8.735,10.237-2.259,13.622-1.7,2.436.4,9.1-3.57,9.067-3.9-.758-6.712,5.439-11.076,5.439-11.076s-.574-26.716-1.995-26.26-18.48-40.126-18.48-40.126-18.016-23.963-17-35.142,8.824-11.415,8.824-11.415l-.015-.3c-.956-.28-7.992-2.069-10.819,4.754-3.091,7.418,1.325,23.72,5.63,29.637,2.075,2.856,7.727,14.477,13.476,26.51-1.48,1.369-13.263,12.261-18.989,14.292-4.688,1.657-3.591,25.685-2.708,44.983.331,7.124.611,13.255.53,16.935-.162,7.124,12.8,16.942,25.362,26.429,11.356,8.6,23.095,17.48,24.471,23.934a12.354,12.354,0,0,0,2.76,4.945A32.061,32.061,0,0,1,329.152,369.911ZM304.865,258.964c4.121,8.633,6.668,13.8,7.271,14.344s.581,3.312.559,5.969a49.4,49.4,0,0,0,.243,6.992c-1,.883-7.337,6.653-8.618,11.319l-5.387-6.344-1.362-19.886C298.388,270.511,303.93,264.66,304.865,258.964Z" transform="translate(-275.432 -183.065)" fill="#e2e4e6" opacity="0.4"/>
            <g id="Grupo_2358" data-name="Grupo 2358" transform="translate(0.295 0.278)">
              <path id="Trazado_6634" data-name="Trazado 6634" d="M338.012,256.552a18.408,18.408,0,0,1-9.1-6.377c-3.7-4.955-18.23-27.523-22.258-33.893s-16.393-32.431-16.393-32.431-7.611-2.547-10.573,4.563,1.095,23.167,5.6,29.355,25.957,53.853,27.66,55.393-.851,14.246,2.558,17.32" transform="translate(-276.344 -183.408)" fill="none" stroke="#000" stroke-linecap="round" stroke-linejoin="round" stroke-width="1"/>
              <path id="Trazado_6635" data-name="Trazado 6635" d="M318.387,303.986s-7.855,6.842-8.777,11.834l-5.829-6.859L302.4,288.85s7.032-7.042,7.418-13.314" transform="translate(-280.861 -200.944)" fill="none" stroke="#000" stroke-linecap="round" stroke-linejoin="round" stroke-width="1"/>
              <path id="Trazado_6636" data-name="Trazado 6636" d="M298.334,258.882s-13.042,12.305-19.244,14.5-1.682,48.3-1.99,61.655,46.924,36.606,49.822,50.279c1.151,5.434,5.908,6.545,8.82,16.965" transform="translate(-275.796 -197.774)" fill="none" stroke="#000" stroke-linecap="round" stroke-linejoin="round" stroke-width="1"/>
              <path id="Trazado_6637" data-name="Trazado 6637" d="M326.563,244.7s7.1-.638,11.1,1.023,20.25,15.618,24.158,18.286,9.814,3.673,10.934,6.545" transform="translate(-285.46 -195.052)" fill="none" stroke="#000" stroke-linecap="round" stroke-linejoin="round" stroke-width="1"/>
              <path id="Trazado_6638" data-name="Trazado 6638" d="M346.174,249.267s7.31-2.414,10.068-2.292,13.262,6.319,17.958,10.445a39.994,39.994,0,0,0,12.237,7.434" transform="translate(-289.193 -195.507)" fill="none" stroke="#000" stroke-linecap="round" stroke-linejoin="round" stroke-width="1"/>
              <path id="Trazado_6639" data-name="Trazado 6639" d="M378.676,257.957a35.69,35.69,0,0,1,11.583-.558c5.926.8,20.809,9.554,25.549,11.529s7.015,2.339,9.5,8.722,3.638,30.639,4.139,40.223-4.491,37.043-2.434,44.771,5.789,13.681,8.049,17.816" transform="translate(-295.379 -197.444)" fill="none" stroke="#000" stroke-linecap="round" stroke-linejoin="round" stroke-width="1"/>
              <path id="Trazado_6640" data-name="Trazado 6640" d="M301.76,290.727s-1.18-4.724-2.74-5.328" transform="translate(-280.217 -202.821)" fill="none" stroke="#000" stroke-linecap="round" stroke-linejoin="round" stroke-width="1"/>
              <path id="Trazado_6641" data-name="Trazado 6641" d="M304.1,316.819a60.318,60.318,0,0,0,2.211,8.14c1.158,2.875-.649,7.031-.649,7.031" transform="translate(-281.185 -208.802)" fill="none" stroke="#000" stroke-linecap="round" stroke-linejoin="round" stroke-width="1"/>
              <path id="Trazado_6642" data-name="Trazado 6642" d="M311.3,325.29c-.193,4.6,4.387,9.972,5.5,9.212" transform="translate(-282.554 -210.415)" fill="none" stroke="#000" stroke-linecap="round" stroke-linejoin="round" stroke-width="1"/>
              <path id="Trazado_6643" data-name="Trazado 6643" d="M340.074,288.85s4.91-7.948,9.625-8.337,10.151,6.3,13.062,5.673,6.563-4.906,11.452-5.689,7.18,1.569,11.063,1.763,4.271-4.987,8.93-5.7,6.211,1.654,9.317,2.219,3.886-1.848,6.405-3.247" transform="translate(-288.031 -200.944)" fill="none" stroke="#000" stroke-linecap="round" stroke-linejoin="round" stroke-width="1"/>
            </g>
          </g>
        </g>
      </g>
      <g id="ico_24_actions_autorenew" data-name="ico / 24 / actions / autorenew" transform="translate(220 296)">
        <path id="Icon_color" data-name="Icon color" d="M4.1,12a.282.282,0,0,1-.2-.081L1.909,9.993a.27.27,0,0,1,0-.387L3.9,7.68a.289.289,0,0,1,.4,0l.112.109a.265.265,0,0,1,.085.2V9.273A3.332,3.332,0,0,0,7.88,6a3.113,3.113,0,0,0-.394-1.511.271.271,0,0,1,.051-.322l.417-.4a.289.289,0,0,1,.2-.079l.039,0a.293.293,0,0,1,.209.131,4.258,4.258,0,0,1,0,4.363,4.547,4.547,0,0,1-3.9,2.184v1.249a.263.263,0,0,1-.085.2l-.112.109A.284.284,0,0,1,4.1,12ZM.849,8.321l-.039,0A.291.291,0,0,1,.6,8.182a4.257,4.257,0,0,1,0-4.363A4.548,4.548,0,0,1,4.5,1.636V.386a.263.263,0,0,1,.085-.2L4.7.081a.289.289,0,0,1,.4,0L7.091,2.007a.272.272,0,0,1,0,.387L5.1,4.32a.289.289,0,0,1-.4,0L4.585,4.21a.263.263,0,0,1-.085-.2V2.727A3.332,3.332,0,0,0,1.12,6a3.171,3.171,0,0,0,.389,1.522.265.265,0,0,1-.051.322l-.411.4A.289.289,0,0,1,.849,8.321Z" transform="translate(2 1)"/>
      </g>
    </g>
    <g id="Grupo_3124" data-name="Grupo 3124" transform="translate(51 70)">
      <rect id="Rectángulo_2379" data-name="Rectángulo 2379" width="27" height="25" rx="6" transform="translate(137 183)" fill="#fd0"/>
      <path id="Trazado_7978" data-name="Trazado 7978" d="M202.489,524.126H189.943a9.687,9.687,0,0,0-9.687,9.687v12.546a9.687,9.687,0,0,0,9.687,9.687h12.546a9.687,9.687,0,0,0,9.687-9.687V533.813A9.687,9.687,0,0,0,202.489,524.126Zm.9,7.455,2.889-.256c1.5,0,.981.533-.089,1.59l-1.861,2.866-.578-1.748a.345.345,0,0,0-.2-.2l-2.206-.724ZM185.4,533.434a2.109,2.109,0,0,1,2.109-2.109h7.557v2.108a2.109,2.109,0,0,1-2.109,2.109H185.4Zm9.666,13.3a2.109,2.109,0,0,1-2.109,2.109H185.4v-2.108a2.109,2.109,0,0,1,2.109-2.109h7.557Zm11.263,2.109h-4.749l-6.646-6.652h-7.43a2.1,2.1,0,0,1-2.1-2.1v-.009a2.1,2.1,0,0,1,2.1-2.1h7.31l5.456-4.071,2.5.811.806,2.223-2,3.084,5.948,5.948A1.683,1.683,0,0,1,206.333,548.846Z" transform="translate(-45.256 -344.931)" fill="#fd0"/>
      <g id="Grupo_3123" data-name="Grupo 3123" transform="translate(139.11 183.097)">
        <path id="Rectángulo_2317" data-name="Rectángulo 2317" d="M4.217,0H9.666a0,0,0,0,1,0,0V0A4.217,4.217,0,0,1,5.449,4.217H0a0,0,0,0,1,0,0v0A4.217,4.217,0,0,1,4.217,0Z" transform="translate(0 3.297)"/>
        <path id="Rectángulo_2318" data-name="Rectángulo 2318" d="M4.217,0H9.666a0,0,0,0,1,0,0V0A4.217,4.217,0,0,1,5.449,4.217H0a0,0,0,0,1,0,0v0A4.217,4.217,0,0,1,4.217,0Z" transform="translate(0 16.601)"/>
        <path id="Rectángulo_2319" data-name="Rectángulo 2319" d="M2.109,0H9.666a0,0,0,0,1,0,0V4.217a0,0,0,0,1,0,0H2.107A2.107,2.107,0,0,1,0,2.109v0A2.109,2.109,0,0,1,2.109,0Z" transform="translate(0 9.949)"/>
        <path id="Trazado_7977" data-name="Trazado 7977" d="M256.542,585.468l-6.646-6.652V574.6l5.379-4.068,2.454.808.778,2.125-1.975,3.182,5.92,5.955a1.681,1.681,0,0,1-1.192,2.866Z" transform="translate(-240.362 -564.65)"/>
        <path id="Trazado_7979" data-name="Trazado 7979" d="M273.742,548.44l-4.326-1.422a.316.316,0,0,1-.013-.6l4.87-1.849,5.047-1.916a.316.316,0,0,1,.407.407l-1.916,5.047-1.849,4.87a.316.316,0,0,1-.595-.014l-1.423-4.326A.316.316,0,0,0,273.742,548.44Z" transform="translate(-255.595 -542.636)"/>
      </g>
    </g>
    <g id="_001-simbolo-del-dolar" data-name="001-simbolo-del-dolar" transform="matrix(0.974, 0.225, -0.225, 0.974, 299.283, 195.819)">
      <g id="Grupo_3148" data-name="Grupo 3148" transform="translate(0 0)">
        <g id="Grupo_3132" data-name="Grupo 3132" transform="translate(23.619 69.205)">
          <path id="Trazado_7982" data-name="Trazado 7982" d="M23.993,47.593l9.772-5.679-.018,6.306L23.975,53.9Z" transform="translate(-23.975 -41.914)" fill="#ecae00" stroke="#000" stroke-width="1"/>
        </g>
        <g id="Grupo_3133" data-name="Grupo 3133" transform="translate(5.598 41.488)">
          <path id="Trazado_7983" data-name="Trazado 7983" d="M13.321,31.206l9.772-5.679q6.4,10.088,13.182,15.252L26.5,46.458Q19.713,41.29,13.321,31.206Z" transform="translate(-13.321 -25.528)" fill="#ffec8c" stroke="#000" stroke-width="1"/>
        </g>
        <g id="Grupo_3134" data-name="Grupo 3134" transform="translate(23.663 59.814)">
          <path id="Trazado_7984" data-name="Trazado 7984" d="M24,42.041l9.772-5.678c2.435,1.117,4.37,1.419,5.8.889L29.806,42.93C28.371,43.46,26.437,43.158,24,42.041Z" transform="translate(-24.001 -36.362)" fill="#ffec8c" stroke="#000" stroke-width="1"/>
        </g>
        <g id="Grupo_3135" data-name="Grupo 3135" transform="translate(29.468 60.459)">
          <path id="Trazado_7985" data-name="Trazado 7985" d="M37.726,36.744l-9.771,5.679a3.306,3.306,0,0,1-.522.243L37.2,36.987A3.3,3.3,0,0,0,37.726,36.744Z" transform="translate(-27.433 -36.744)" fill="#73bd1e" stroke="#000" stroke-width="1"/>
        </g>
        <g id="Grupo_3136" data-name="Grupo 3136" transform="translate(23.663 44.031)">
          <path id="Trazado_7986" data-name="Trazado 7986" d="M24.046,32.71l9.771-5.679-.045,15.783L24,48.492Z" transform="translate(-24.001 -27.031)" fill="#ecae00" stroke="#000" stroke-width="1"/>
        </g>
        <g id="Grupo_3137" data-name="Grupo 3137" transform="translate(23.738 33.334)">
          <path id="Trazado_7987" data-name="Trazado 7987" d="M24.046,26.386l4.747-3.213,5.024-2.466.221.128-9.771,5.679Z" transform="translate(-24.046 -20.707)" fill="#ecc600" stroke="#000" stroke-width="1"/>
        </g>
        <g id="Grupo_3138" data-name="Grupo 3138" transform="translate(11.55 13.144)">
          <path id="Trazado_7988" data-name="Trazado 7988" d="M18.476,14.449l9.771-5.679C27.162,9.4,26.616,10.6,26.611,12.4a10.659,10.659,0,0,0,1.506,5.522,34.038,34.038,0,0,0,5.8,6.645L24.15,30.243a34.044,34.044,0,0,1-5.8-6.645,10.661,10.661,0,0,1-1.506-5.522c.005-1.8.551-3,1.637-3.627Z" transform="translate(-16.84 -8.771)" fill="#ffec8c" stroke="#000" stroke-width="1"/>
        </g>
        <path id="Unión_5" data-name="Unión 5" d="M409.472-408.869a25.319,25.319,0,0,0-4.1-14.081q-4.1-6.421-12.875-13.853l9.771-5.679q8.779,7.437,12.876,13.853a25.329,25.329,0,0,1,4.1,14.082q-.02,7.048-4.023,9.382l-9.771,5.678Q409.453-401.814,409.472-408.869Z" transform="translate(-368.539 475.944)" fill="#ffec8c" stroke="#000" stroke-width="1"/>
        <g id="Grupo_3141" data-name="Grupo 3141" transform="translate(23.738 16.856)">
          <path id="Trazado_7991" data-name="Trazado 7991" d="M24.092,16.644l9.772-5.679-.047,16.478-9.772,5.679Z" transform="translate(-24.046 -10.965)" fill="#ecae00" stroke="#000" stroke-width="1"/>
        </g>
        <g id="Grupo_3142" data-name="Grupo 3142" transform="translate(6.3 1.923)">
          <path id="Trazado_7992" data-name="Trazado 7992" d="M13.736,8.9l9.771-5.679q.285-.166.59-.308Q28.715.744,36.137,4.6l-9.771,5.679Q18.951,6.435,14.327,8.6q-.305.142-.59.308Z" transform="translate(-13.736 -2.137)" fill="#ffec8c" stroke="#000" stroke-width="1"/>
        </g>
        <g id="Grupo_3143" data-name="Grupo 3143" transform="translate(18.941)">
          <path id="Trazado_7993" data-name="Trazado 7993" d="M21.21,6.679,30.981,1l4.883,2.819L26.093,9.5Z" transform="translate(-21.21 -1)" fill="#ffec8c" stroke="#000" stroke-width="1"/>
        </g>
        <g id="Grupo_3144" data-name="Grupo 3144" transform="translate(23.812 2.819)">
          <path id="Trazado_7994" data-name="Trazado 7994" d="M24.1,8.345l9.771-5.679-.013,4.475-9.771,5.679Z" transform="translate(-24.089 -2.667)" fill="#ecae00" stroke="#000" stroke-width="1"/>
        </g>
        <g id="Grupo_3145" data-name="Grupo 3145" transform="translate(23.812 7.295)">
          <path id="Trazado_7995" data-name="Trazado 7995" d="M24.089,10.991l9.771-5.679A63.617,63.617,0,0,1,49.717,21.055l-9.772,5.679A63.616,63.616,0,0,0,24.089,10.991Z" transform="translate(-24.089 -5.313)" fill="#ffec8c" stroke="#000" stroke-width="1"/>
        </g>
        <g id="Grupo_3146" data-name="Grupo 3146" transform="translate(34.673 23.037)">
          <path id="Trazado_7996" data-name="Trazado 7996" d="M35.505,20.3l9.772-5.679-4.995,5.2L30.51,25.5Z" transform="translate(-30.51 -14.62)" fill="#ecae00" stroke="#000" stroke-width="1"/>
        </g>
        <g id="Grupo_3147" data-name="Grupo 3147" transform="translate(0 5.679)">
          <path id="Trazado_7997" data-name="Trazado 7997" d="M46.847,51.671a25.328,25.328,0,0,1,4.1,14.082q-.022,7.68-4.771,9.76c-3.166,1.4-7.346.734-12.526-1.951l-.018,6.306-4.883-2.819.018-6.408Q18.3,63.377,10.012,50.254l5.6-4.409q6.4,10.088,13.182,15.252l.048-17.02q-8.624-7.348-12.611-13.513A24.686,24.686,0,0,1,12.249,16.8q.022-7.578,4.653-9.743,4.616-2.174,12.039,1.687l.012-4.391,4.883,2.819-.013,4.475A63.616,63.616,0,0,1,49.679,27.395l-4.995,5.2A50.676,50.676,0,0,0,33.8,21.213L33.75,37.691l.221.128q8.779,7.437,12.876,13.853ZM39.48,65.06c1.42-.521,2.148-1.8,2.154-3.851a11.071,11.071,0,0,0-1.668-5.836,36.343,36.343,0,0,0-6.246-6.985l-.045,15.783c2.435,1.117,4.37,1.419,5.805.889M28.871,33.3l.043-15.173c-2.3-1.091-4.09-1.342-5.392-.786-1.3.573-1.956,1.825-1.961,3.792a10.661,10.661,0,0,0,1.506,5.522,34.044,34.044,0,0,0,5.8,6.645" transform="translate(-10.012 -4.357)" fill="#ffda1a" stroke="#000" stroke-width="1"/>
        </g>
      </g>
    </g>
    <g id="_007-simbolo-del-yen" data-name="007-simbolo-del-yen" transform="matrix(0.985, 0.174, -0.174, 0.985, 255.36, 466.812)">
      <g id="Grupo_3243" data-name="Grupo 3243" transform="translate(0 0)">
        <g id="Grupo_3228" data-name="Grupo 3228" transform="translate(4.161 38.066)">
          <path id="Trazado_8070" data-name="Trazado 8070" d="M11.368,31.152l6.11-3.551,12.094,6.982-6.11,3.551Z" transform="translate(-11.368 -27.601)" fill="#ffec8c" stroke="#000" stroke-width="1"/>
        </g>
        <g id="Grupo_3229" data-name="Grupo 3229" transform="translate(24.162 56.073)">
          <path id="Trazado_8071" data-name="Trazado 8071" d="M25.371,43.736l6.11-3.551-.026,9.063L25.346,52.8Z" transform="translate(-25.346 -40.185)" fill="#ecae00" stroke="#000" stroke-width="1"/>
        </g>
        <g id="Grupo_3230" data-name="Grupo 3230" transform="translate(4.192 27.243)">
          <path id="Trazado_8072" data-name="Trazado 8072" d="M11.39,23.589l6.11-3.551,8.533,4.926-6.11,3.551Z" transform="translate(-11.39 -20.038)" fill="#ffec8c" stroke="#000" stroke-width="1"/>
        </g>
        <g id="Grupo_3231" data-name="Grupo 3231" transform="translate(24.271 45.733)">
          <path id="Trazado_8073" data-name="Trazado 8073" d="M25.433,36.51l6.11-3.551L31.531,36.9l-6.11,3.551Z" transform="translate(-25.422 -32.959)" fill="#ecae00" stroke="#000" stroke-width="1"/>
        </g>
        <g id="Grupo_3232" data-name="Grupo 3232" transform="translate(24.282 45.394)">
          <path id="Trazado_8074" data-name="Trazado 8074" d="M25.429,36.174l6.3-3.451-.186.339-6.11,3.614Z" transform="translate(-25.429 -32.723)" fill="#ecae00" stroke="#000" stroke-width="1"/>
        </g>
        <g id="Grupo_3233" data-name="Grupo 3233" transform="translate(20.163 35.148)">
          <path id="Trazado_8075" data-name="Trazado 8075" d="M22.551,29.113,23,28.681l5.658-3.119.452.261L23,29.374Z" transform="translate(-22.551 -25.562)" fill="#ffec8c" stroke="#000" stroke-width="1"/>
        </g>
        <g id="Grupo_3234" data-name="Grupo 3234" transform="translate(24.271 49.676)">
          <path id="Trazado_8076" data-name="Trazado 8076" d="M25.422,39.266l6.11-3.551,11.955,6.9-6.11,3.551Z" transform="translate(-25.422 -35.715)" fill="#ffec8c" stroke="#000" stroke-width="1"/>
        </g>
        <g id="Grupo_3235" data-name="Grupo 3235" transform="translate(36.208 56.579)">
          <path id="Trazado_8077" data-name="Trazado 8077" d="M33.782,44.089l6.11-3.551-.018,6.434-6.11,3.551Z" transform="translate(-33.764 -40.539)" fill="#ecae00" stroke="#000" stroke-width="1"/>
        </g>
        <g id="Grupo_3236" data-name="Grupo 3236" transform="translate(8.21 4.74)">
          <path id="Trazado_8078" data-name="Trazado 8078" d="M14.2,7.863l6.11-3.551L32.261,34.72l-6.11,3.551Z" transform="translate(-14.198 -4.312)" fill="#ffec8c" stroke="#000" stroke-width="1"/>
        </g>
        <g id="Grupo_3237" data-name="Grupo 3237">
          <path id="Trazado_8079" data-name="Trazado 8079" d="M8.46,4.551,14.57,1l8.21,4.74-6.11,3.551Z" transform="translate(-8.46 -1)" fill="#ffec8c" stroke="#000" stroke-width="1"/>
        </g>
        <g id="Grupo_3238" data-name="Grupo 3238" transform="translate(27.927 40.947)">
          <path id="Trazado_8080" data-name="Trazado 8080" d="M27.977,33.165l6.11-3.551,8.33,4.809-6.11,3.551Z" transform="translate(-27.977 -29.615)" fill="#ffec8c" stroke="#000" stroke-width="1"/>
        </g>
        <g id="Grupo_3239" data-name="Grupo 3239" transform="translate(36.239 45.756)">
          <path id="Trazado_8081" data-name="Trazado 8081" d="M33.8,36.526l6.11-3.551-.018,6.434-6.11,3.551Z" transform="translate(-33.785 -32.975)" fill="#ecae00" stroke="#000" stroke-width="1"/>
        </g>
        <g id="Grupo_3240" data-name="Grupo 3240" transform="translate(0 3.551)">
          <path id="Trazado_8082" data-name="Trazado 8082" d="M49.686,27.283l-13.3,17.145,8.33,4.809L44.7,55.672l-11.771-6.8-.186.339-.011,3.943,11.955,6.9-.018,6.434-12.02-6.94-.026,9.063-7.952-4.591.026-9.063L12.6,47.981l.018-6.434,12.094,6.982.011-3.943-.257-.594L12.634,37.159l.018-6.434,8.533,4.926L8.46,3.481l8.21,4.74L28.624,38.629l.452.261L41.614,22.623Z" transform="translate(-8.46 -3.481)" fill="#ffda1a" stroke="#000" stroke-width="1"/>
        </g>
        <g id="Grupo_3241" data-name="Grupo 3241" transform="translate(27.927 23.802)">
          <path id="Trazado_8083" data-name="Trazado 8083" d="M41.275,21.184l6.11-3.551-13.3,17.145-6.11,3.551Z" transform="translate(-27.977 -17.633)" fill="#ecae00" stroke="#000" stroke-width="1"/>
        </g>
        <g id="Grupo_3242" data-name="Grupo 3242" transform="translate(33.154 19.141)">
          <path id="Trazado_8084" data-name="Trazado 8084" d="M31.629,17.927l6.11-3.551,8.072,4.66L39.7,22.587Z" transform="translate(-31.629 -14.376)" fill="#ffec8c" stroke="#000" stroke-width="1"/>
        </g>
      </g>
    </g>
    <g id="_002-simbolo-del-euro" data-name="002-simbolo-del-euro" transform="translate(62.408 350.673) rotate(-14)">
      <g id="Grupo_3164" data-name="Grupo 3164" transform="translate(0 1)">
        <g id="Grupo_3149" data-name="Grupo 3149" transform="translate(0.018 16.2)">
          <path id="Trazado_7998" data-name="Trazado 7998" d="M5.823,18.478l6.929-4.027,5.6,3.232-6.93,4.027Z" transform="translate(-5.823 -14.451)" fill="#ffec8c" stroke="#000" stroke-width="1"/>
        </g>
        <g id="Grupo_3150" data-name="Grupo 3150" transform="translate(0.052 4.106)">
          <path id="Trazado_7999" data-name="Trazado 7999" d="M5.85,8.878l6.93-4.027L19.256,8.59l-6.93,4.027Z" transform="translate(-5.85 -4.851)" fill="#ffec8c" stroke="#000" stroke-width="1"/>
        </g>
        <g id="Grupo_3151" data-name="Grupo 3151" transform="translate(13.471 18.06)">
          <path id="Trazado_8000" data-name="Trazado 8000" d="M16.572,19.953l6.93-4.027c-.043.553-.067,1.406-.07,2.584a30.642,30.642,0,0,0,.179,3.427l-6.93,4.027a30.616,30.616,0,0,1-.179-3.427C16.505,21.36,16.529,20.506,16.572,19.953Z" transform="translate(-16.502 -15.926)" fill="#ecae00" stroke="#000" stroke-width="1"/>
        </g>
        <g id="Grupo_3152" data-name="Grupo 3152" transform="translate(39.255 53.397)">
          <path id="Trazado_8001" data-name="Trazado 8001" d="M43.9,45l-6.93,4.027A10.348,10.348,0,0,0,38.422,48l6.929-4.027A10.348,10.348,0,0,1,43.9,45Z" transform="translate(-36.969 -43.976)" fill="#ff5766" stroke="#000" stroke-width="1"/>
        </g>
        <g id="Grupo_3153" data-name="Grupo 3153" transform="translate(15.317 31.211)">
          <path id="Trazado_8002" data-name="Trazado 8002" d="M45.716,39.938l-6.93,4.027a10.679,10.679,0,0,1-4.923,1.59A11.3,11.3,0,0,1,28.105,43.7q-6.8-3.923-10.138-13.307L24.9,26.365q3.337,9.369,10.138,13.307a11.3,11.3,0,0,0,5.758,1.856,10.679,10.679,0,0,0,4.923-1.59Z" transform="translate(-17.967 -26.365)" fill="#ffec8c" stroke="#000" stroke-width="1"/>
        </g>
        <g id="Grupo_3154" data-name="Grupo 3154" transform="translate(29.64 33.313)">
          <path id="Trazado_8003" data-name="Trazado 8003" d="M29.354,32.061l6.93-4.027L36.266,34.2l-6.93,4.027Z" transform="translate(-29.337 -28.034)" fill="#ecae00" stroke="#000" stroke-width="1"/>
        </g>
        <g id="Grupo_3155" data-name="Grupo 3155" transform="translate(13.65 24.071)">
          <path id="Trazado_8004" data-name="Trazado 8004" d="M16.644,24.725l6.93-4.027L39.581,29.94l-6.93,4.027Z" transform="translate(-16.644 -20.698)" fill="#ffec8c" stroke="#000" stroke-width="1"/>
        </g>
        <g id="Grupo_3156" data-name="Grupo 3156" transform="translate(36.3 44.686)">
          <path id="Trazado_8005" data-name="Trazado 8005" d="M34.623,41.089l6.93-4.027,4.408,8.71L39.032,49.8Z" transform="translate(-34.623 -37.062)" fill="#ecae00" stroke="#000" stroke-width="1"/>
        </g>
        <g id="Grupo_3157" data-name="Grupo 3157" transform="translate(14.866 9.608)">
          <path id="Trazado_8006" data-name="Trazado 8006" d="M20.191,13.245l6.93-4.027a6.526,6.526,0,0,0-2.581,3.051L17.61,16.3A6.526,6.526,0,0,1,20.191,13.245Z" transform="translate(-17.61 -9.218)" fill="#ecae00" stroke="#000" stroke-width="1"/>
        </g>
        <g id="Grupo_3158" data-name="Grupo 3158" transform="translate(29.674 21.219)">
          <path id="Trazado_8007" data-name="Trazado 8007" d="M29.381,22.461l6.93-4.027-.018,6.155-6.93,4.027Z" transform="translate(-29.364 -18.434)" fill="#ecae00" stroke="#000" stroke-width="1"/>
        </g>
        <g id="Grupo_3159" data-name="Grupo 3159" transform="translate(14.866 12.659)">
          <path id="Trazado_8008" data-name="Trazado 8008" d="M17.61,15.667l6.93-4.027L39.364,20.2l-6.93,4.027Z" transform="translate(-17.61 -11.64)" fill="#ffec8c" stroke="#000" stroke-width="1"/>
        </g>
        <path id="Unión_6" data-name="Unión 6" d="M14.016,6.7l-.039.023Q7.322,2.884,2.068,4.511A10.026,10.026,0,0,0,0,5.416L6.929,1.389A10.026,10.026,0,0,1,9,.484q5.2-1.609,11.766,2.133l.04-.023C27.4,6.405,32,11.545,35.831,19.25L28.9,23.277C25.094,15.628,20.541,10.506,14.016,6.7Z" transform="translate(12.522 0)" fill="#ffec8c" stroke="#000" stroke-width="1"/>
        <g id="Grupo_3161" data-name="Grupo 3161" transform="translate(36.99 19.25)">
          <path id="Trazado_8010" data-name="Trazado 8010" d="M39.6,20.9l6.93-4.027L42.1,20.766l-6.93,4.027Z" transform="translate(-35.171 -16.871)" fill="#ecae00" stroke="#000" stroke-width="1"/>
        </g>
        <g id="Grupo_3162" data-name="Grupo 3162" transform="translate(0 3.282)">
          <path id="Trazado_8011" data-name="Trazado 8011" d="M31.563,6.9q9.9,5.717,15.67,17.3L42.8,28.086a43.867,43.867,0,0,0-5.186-7.727,24.217,24.217,0,0,0-6.075-4.868,9.763,9.763,0,0,0-6.514-1.581A5.86,5.86,0,0,0,20.676,17.6L35.5,26.16l-.018,6.155L19.35,23c-.043.553-.067,1.406-.07,2.585a30.616,30.616,0,0,0,.179,3.427l16.007,9.242-.018,6.167L21.126,36.152q3.337,9.369,10.138,13.307a11.3,11.3,0,0,0,5.758,1.855,10.814,10.814,0,0,0,5.087-1.687l4.408,8.71q-5.814,4.88-15.277-.584A36.292,36.292,0,0,1,19.754,46.86,47.314,47.314,0,0,1,12.6,31.229l-6.79-3.92.018-6.167,5.6,3.232c-.112-1.209-.182-2.393-.179-3.535s.027-1.971.08-2.47L5.844,15.2l.018-6.155,6.476,3.739q2.078-6.459,7.317-8.106Q24.909,3.054,31.563,6.9Z" transform="translate(-5.809 -4.196)" fill="#ffda1a" stroke="#000" stroke-width="1"/>
        </g>
      </g>
    </g>
  </g>
</svg>
