<svg xmlns="http://www.w3.org/2000/svg" xmlns:xlink="http://www.w3.org/1999/xlink" width="571.4" height="355.181" viewBox="0 0 571.4 355.181">
  <defs>
    <clipPath id="clip-path">
      <rect id="Rectángulo_2382" data-name="Rectángulo 2382" width="571.4" height="355.181" fill="none"/>
    </clipPath>
  </defs>
  <g id="Grupo_3122" data-name="Grupo 3122" transform="translate(-28 -176.709)">
    <g id="Grupo_3117" data-name="Grupo 3117" transform="translate(28 176.709)">
      <g id="Grupo_3116" data-name="Grupo 3116" clip-path="url(#clip-path)">
        <path id="Trazado_7980" data-name="Trazado 7980" d="M569.632,118.762c-2.925-12.189-19.39-19.472-19.39-19.472l-17.061-8.728-52.939,39.174C438.46,146.621,371.2,174.99,364.364,179.546c-9.751,6.5-74.76,70.341-88.413,83.6s-23.965,29.7-27.91,32.86-2.717,1.312-12.015,15.495c-1.8,2.742-3.132,4.876-4.148,6.569H180.533c.487-4.1.377-7.621-.7-9.869-4.645-9.69-32.81-38.944-52.857-40.244-7.19-.467-17.7-1.668-28.593-2.856l-66.4-36.965-20.31,13.416S1,251.882,1,267.174c0,12.48,4.711,19.8,14.216,25.141s19.4,9.872,19.4,9.872l100.8,50.549,24.633,11.882a49.568,49.568,0,0,0,47.079-2.166l38.968-23.432L548.179,157.768a140.651,140.651,0,0,0,12.738-9.751c8.838-7.313,11.641-17.066,8.715-29.255" transform="translate(-0.168 -15.213)" fill="#fedc00"/>
        <path id="Trazado_7981" data-name="Trazado 7981" d="M570.273,118.371c-2.987-12.446-19.175-19.735-19.82-20.018l-17.52-8.963-53.268,39.419c-41.649,16.833-109.063,45.271-115.93,49.849-8.626,5.75-59.644,55.523-81.43,76.777-3,2.93-5.435,5.3-7.1,6.921-8.257,8.022-15.3,17.2-20.436,23.9-3.307,4.312-5.921,7.717-7.412,8.911-.443.354-.82.644-1.154.9-2.718,2.094-2.718,2.094-10.765,14.368l-.274.419c-1.493,2.276-2.811,4.357-3.923,6.193H181.291c.409-4.166.115-7.325-.878-9.4-4.455-9.29-33-39.382-53.554-40.715-6.219-.4-14.978-1.365-24.252-2.381l-4.137-.453-66.25-36.884-.442-.245-20.732,13.7-.12.1C10.481,241.19,0,251.511,0,266.979c0,12.2,4.515,20.176,14.64,25.866,9.426,5.3,19.357,9.857,19.43,9.889l100.812,50.555,24.633,11.881a50.251,50.251,0,0,0,47.869-2.2l38.966-23.432,302.1-181.261a140.412,140.412,0,0,0,12.827-9.816c8.977-7.427,12-17.551,8.993-30.089M256.087,287.263c5.109-6.659,12.105-15.778,20.275-23.714,1.667-1.62,4.1-3.993,7.1-6.925,21.753-21.222,72.694-70.919,81.191-76.583,6.788-4.525,74.151-32.928,115.729-49.73l.1-.04,52.61-38.93,16.644,8.512a43.475,43.475,0,0,1,3.97,2.114L253.951,290.037c.67-.864,1.375-1.783,2.136-2.774M12.034,242l19.82-13.092,65.956,36.72.147.082,4.47.49c9.293,1.019,18.069,1.982,24.326,2.388,19.981,1.3,47.808,30.7,52.161,39.774.927,1.934,1.137,5.1.623,9.411l-.111.93h28.83l-14.514,9.107s5.538,20-4.446,30.261c-5.269,5.416-12.588,5.513-19.207,4.483a48.068,48.068,0,0,1-14-4.543c-20.4-10.161-124.575-61.941-138.27-69.436-11.2-6.132-14.735-13.531-16.07-18.965-.05-.856-.084-1.728-.084-2.635,0-14.208,9.578-24.176,10.369-24.974" transform="translate(0 -15.016)"/>
        <path id="Trazado_7982" data-name="Trazado 7982" d="M18.676,223.629,360.611,18.355A50.374,50.374,0,0,1,408.483,16.2L548.072,83.756a20.056,20.056,0,0,1,1.6,35.241L209.777,323.382a49.568,49.568,0,0,1-47.079,2.166L23.153,258.237c-17.933-9.36-17.347-26.882-4.477-34.608" transform="translate(-1.565 -1.876)" fill="#ffbe2e"/>
        <path id="Trazado_7983" data-name="Trazado 7983" d="M18.557,227.953,360.491,22.679a50.374,50.374,0,0,1,47.872-2.154L547.953,88.08a20.056,20.056,0,0,1,1.6,35.242L209.658,327.706a49.568,49.568,0,0,1-47.079,2.166L23.034,262.561C5.1,253.2,5.687,235.679,18.557,227.953" transform="translate(-1.545 -6.603)" fill="#f6f7f9"/>
        <path id="Trazado_7984" data-name="Trazado 7984" d="M184.079,331.151a50.371,50.371,0,0,1-21.91-5.026L22.623,258.813c-8.865-4.627-14.069-11.689-14.3-19.386-.2-6.661,3.448-12.9,9.755-16.684L360.014,17.47a51.048,51.048,0,0,1,48.662-2.19l139.59,67.555a20.889,20.889,0,0,1,1.665,36.7L210.037,323.923a50.326,50.326,0,0,1-25.958,7.228M18.508,223.457l.428.713c-5.783,3.472-9.128,9.157-8.948,15.208.211,7.078,5.088,13.62,13.381,17.948l139.521,67.3a48.586,48.586,0,0,0,46.288-2.131L549.074,118.113a19.225,19.225,0,0,0-1.532-33.78L407.951,16.778A49.394,49.394,0,0,0,360.87,18.9L18.936,224.17Z" transform="translate(-1.397 -1.704)" fill="#16110d"/>
        <path id="Trazado_7986" data-name="Trazado 7986" d="M220.128,314.473a9.727,9.727,0,0,1-4.177-.944l-174.807-83a3.364,3.364,0,0,1-.29-5.921L355.439,35.479a8.783,8.783,0,0,1,8.4-.372l174.354,84.859a3.614,3.614,0,0,1,.269,6.353L225.111,313.1a9.729,9.729,0,0,1-4.983,1.375M41.679,229.4l174.807,83a8.465,8.465,0,0,0,7.986-.377L537.823,125.247a2.367,2.367,0,0,0-.176-4.16L363.293,36.229a7.539,7.539,0,0,0-7.21.319L41.5,225.679a2.116,2.116,0,0,0,.182,3.724" transform="translate(-6.589 -5.747)"/>
        <path id="Trazado_7987" data-name="Trazado 7987" d="M540.163,122.549a3.569,3.569,0,0,0-1.971-2.583L363.838,35.107a8.783,8.783,0,0,0-8.4.372L40.853,224.61a3.367,3.367,0,0,0-.8,5.1.957.957,0,0,0,.725.323,1.018,1.018,0,0,0,.571-.176c.361-.247.988-.651,1.109-.724L356.082,40.585a7.541,7.541,0,0,1,7.21-.319l174.354,84.859a2.311,2.311,0,0,1,.7.547l.455.5.462-.493a3.622,3.622,0,0,0,.9-3.128" transform="translate(-6.589 -5.747)"/>
        <path id="Trazado_7985" data-name="Trazado 7985" d="M41.538,230.094l174.807,83a9.11,9.11,0,0,0,8.572-.4L538.269,125.91a2.99,2.99,0,0,0-.223-5.257L363.693,35.8a8.192,8.192,0,0,0-7.806.344L41.3,225.272a2.739,2.739,0,0,0,.236,4.822" transform="translate(-6.715 -5.874)" fill="#fedc00"/>
        <path id="Trazado_7988" data-name="Trazado 7988" d="M278.3,386.279l-5.934,3.5c-1.715,1.021-3.13-.02-3.16-2.325a7.494,7.494,0,0,1,3.051-6.019l5.934-3.5c1.715-1.021,3.129.02,3.159,2.324a7.494,7.494,0,0,1-3.05,6.019" transform="translate(-45.221 -63.42)" fill="#fedc00"/>
        <path id="Trazado_7989" data-name="Trazado 7989" d="M272.259,381.506a7.5,7.5,0,0,0-3.052,6.019,4,4,0,0,0,.311,1.4,2.347,2.347,0,0,0,.737-.3l5.934-3.5a7.5,7.5,0,0,0,3.052-6.02,4.167,4.167,0,0,0-.247-1.413,2.74,2.74,0,0,0-.8.318Z" transform="translate(-45.221 -63.444)" fill="#fec"/>
        <path id="Trazado_7990" data-name="Trazado 7990" d="M269.137,389.351l-.144-.376a4.453,4.453,0,0,1-.339-1.553A7.893,7.893,0,0,1,271.931,381h0l5.933-3.5a3.191,3.191,0,0,1,.933-.371l.391-.091.143.379a4.623,4.623,0,0,1,.277,1.569,7.9,7.9,0,0,1-3.277,6.422l-5.935,3.5a2.767,2.767,0,0,1-.869.354Zm3.265-7.558a7,7,0,0,0-2.826,5.616,2.951,2.951,0,0,0,.135.823c.067-.032.136-.07.216-.117l5.936-3.5A7,7,0,0,0,278.687,379a4.007,4.007,0,0,0-.092-.836,1.948,1.948,0,0,0-.259.133Z" transform="translate(-45.128 -63.335)" fill="#16110d"/>
        <path id="Trazado_7991" data-name="Trazado 7991" d="M282.752,388.854h0c-1.716,1.021-3.129-.02-3.159-2.325a7.494,7.494,0,0,1,3.051-6.018c1.715-1.02,3.129.021,3.159,2.325a7.492,7.492,0,0,1-3.051,6.018" transform="translate(-46.966 -63.852)" fill="#fec"/>
        <path id="Trazado_7992" data-name="Trazado 7992" d="M281.408,389.686a2.123,2.123,0,0,1-1.083-.27,3.314,3.314,0,0,1-1.4-2.992,7.991,7.991,0,0,1,3.32-6.5,2.535,2.535,0,0,1,2.6-.2,3.313,3.313,0,0,1,1.4,2.992,7.98,7.98,0,0,1-3.321,6.5h0a3.075,3.075,0,0,1-1.517.471m2.367-9.128a1.988,1.988,0,0,0-.958.315,7,7,0,0,0-2.782,5.535,2.287,2.287,0,0,0,.832,2.041,1.525,1.525,0,0,0,1.491-.185h0a7,7,0,0,0,2.779-5.536,2.319,2.319,0,0,0-.832-2.041,1.052,1.052,0,0,0-.532-.13" transform="translate(-46.854 -63.74)" fill="#16110d"/>
        <path id="Trazado_7993" data-name="Trazado 7993" d="M279.135,386.175a7.494,7.494,0,0,1,3.052-6.019,2.022,2.022,0,0,1,1.934-.225l0-.01-2.185-1.564a2.219,2.219,0,0,0-.248-.166l-.2-.118-.157-.1a1.748,1.748,0,0,0-1.873.251,7.5,7.5,0,0,0-3.051,6.02,2.978,2.978,0,0,0,.9,2.363l-.108-.094.13.115.2.138L280,388.5a3.018,3.018,0,0,1-.864-2.323" transform="translate(-46.432 -63.463)" fill="#fedc00"/>
        <path id="Trazado_7994" data-name="Trazado 7994" d="M279.568,388.839l-2.462-1.728c-.008-.006-.2-.137-.223-.157l-.072-.065a3.558,3.558,0,0,1-1.059-2.745,7.981,7.981,0,0,1,3.322-6.5,2.336,2.336,0,0,1,2.423-.26l.37.224a2.813,2.813,0,0,1,.324.221l2.494,1.782-.368.952-.54-.24a1.549,1.549,0,0,0-1.419.2,7,7,0,0,0-2.781,5.536,2.513,2.513,0,0,0,.668,1.909Zm-2-2.756.161.113.793.557a5.619,5.619,0,0,1-.05-.683,7.99,7.99,0,0,1,3.32-6.5,3.417,3.417,0,0,1,.557-.27l-.842-.6a1.6,1.6,0,0,0-.2-.136l-.363-.22c-.222-.121-.522-.21-1.3.255a7,7,0,0,0-2.782,5.535,2.634,2.634,0,0,0,.616,1.866l.1.085Z" transform="translate(-46.321 -63.352)" fill="#16110d"/>
        <path id="Trazado_7995" data-name="Trazado 7995" d="M293.5,376.018A7.49,7.49,0,0,1,296.548,370l17.762-10.567a1.948,1.948,0,0,1,2.143-.118l-2.985-2.008-.287-.192a1.945,1.945,0,0,0-2.333-.022l-17.762,10.566a7.493,7.493,0,0,0-3.051,6.019,2.669,2.669,0,0,0,.742,2.236l.155.126.019.013c.031.023.062.042.094.063l3.4,2.306a2.946,2.946,0,0,1-.945-2.405" transform="translate(-48.72 -59.921)" fill="#fedc00"/>
        <path id="Trazado_7996" data-name="Trazado 7996" d="M294.019,378.769l-3.7-2.537a3.221,3.221,0,0,1-.946-2.659,8,8,0,0,1,3.32-6.5l17.762-10.566a2.481,2.481,0,0,1,2.949.055l3.246,2.181,0,0h0l-.617.919h0a1.459,1.459,0,0,0-1.552.134L296.72,370.362a7,7,0,0,0-2.781,5.537,2.465,2.465,0,0,0,.721,1.966Zm17.908-21.607a1.831,1.831,0,0,0-.908.295l-17.761,10.566a7,7,0,0,0-2.781,5.535c.012.994.167,1.518.535,1.813l.159.128,1.721,1.167a5.559,5.559,0,0,1-.058-.754,7.992,7.992,0,0,1,3.32-6.5l17.762-10.567a3.64,3.64,0,0,1,.521-.257l-1.674-1.126a1.34,1.34,0,0,0-.835-.3" transform="translate(-48.608 -59.809)" fill="#16110d"/>
        <path id="Trazado_7997" data-name="Trazado 7997" d="M315.117,368.245,297.355,378.81c-1.715,1.021-3.129-.02-3.16-2.324a7.493,7.493,0,0,1,3.051-6.019L315.008,359.9c1.716-1.02,3.13.021,3.16,2.325a7.493,7.493,0,0,1-3.051,6.019" transform="translate(-49.419 -60.39)" fill="#f6f7f9"/>
        <path id="Trazado_7998" data-name="Trazado 7998" d="M296.012,379.643a2.129,2.129,0,0,1-1.082-.27,3.313,3.313,0,0,1-1.4-2.992,7.992,7.992,0,0,1,3.32-6.5l17.762-10.567a2.541,2.541,0,0,1,2.6-.2,3.317,3.317,0,0,1,1.4,2.993,7.983,7.983,0,0,1-3.321,6.5l-17.761,10.566a3.059,3.059,0,0,1-1.516.47m20.128-19.694a2,2,0,0,0-.959.315l-17.762,10.566a7,7,0,0,0-2.781,5.536,2.32,2.32,0,0,0,.832,2.041,1.525,1.525,0,0,0,1.491-.185l17.763-10.567a7,7,0,0,0,2.78-5.536,2.284,2.284,0,0,0-.831-2.04,1.042,1.042,0,0,0-.532-.131" transform="translate(-49.307 -60.278)" fill="#16110d"/>
        <path id="Trazado_7999" data-name="Trazado 7999" d="M328.163,355.207a7.49,7.49,0,0,1,3.051-6.019l17.762-10.567a1.949,1.949,0,0,1,2.143-.118l-2.985-2.007-.287-.193a1.945,1.945,0,0,0-2.333-.022l-17.762,10.566a7.494,7.494,0,0,0-3.05,6.019,2.664,2.664,0,0,0,.742,2.236l.155.126.018.013c.031.023.062.042.093.063l3.4,2.306a2.946,2.946,0,0,1-.945-2.405" transform="translate(-54.543 -56.426)" fill="#fedc00"/>
        <path id="Trazado_8000" data-name="Trazado 8000" d="M328.685,357.959l-3.7-2.537a3.22,3.22,0,0,1-.946-2.658,8,8,0,0,1,3.32-6.5L345.119,335.7a2.481,2.481,0,0,1,2.949.055l3.247,2.181,0,0h0l-.617.92h0a1.457,1.457,0,0,0-1.552.133l-17.761,10.566a7,7,0,0,0-2.781,5.537,2.462,2.462,0,0,0,.721,1.966Zm17.908-21.607a1.831,1.831,0,0,0-.908.295l-17.761,10.566a7,7,0,0,0-2.781,5.536c.012.993.167,1.518.535,1.812l.159.128,1.721,1.168a5.869,5.869,0,0,1-.058-.755,7.992,7.992,0,0,1,3.32-6.5l17.762-10.567a3.632,3.632,0,0,1,.521-.257l-1.674-1.126a1.338,1.338,0,0,0-.835-.3" transform="translate(-54.431 -56.314)" fill="#16110d"/>
        <path id="Trazado_8001" data-name="Trazado 8001" d="M349.783,347.435,332.021,358c-1.715,1.021-3.129-.02-3.16-2.324a7.493,7.493,0,0,1,3.051-6.019l17.762-10.566c1.716-1.02,3.13.021,3.16,2.325a7.493,7.493,0,0,1-3.051,6.019" transform="translate(-55.242 -56.895)" fill="#f6f7f9"/>
        <path id="Trazado_8002" data-name="Trazado 8002" d="M330.678,358.834a2.138,2.138,0,0,1-1.082-.27,3.314,3.314,0,0,1-1.4-2.993,7.992,7.992,0,0,1,3.32-6.5L349.28,338.5a2.539,2.539,0,0,1,2.6-.2,3.315,3.315,0,0,1,1.4,2.992,7.983,7.983,0,0,1-3.321,6.5l-17.761,10.566a3.066,3.066,0,0,1-1.516.471m20.128-19.695a2,2,0,0,0-.959.315l-17.762,10.566a7,7,0,0,0-2.781,5.536,2.317,2.317,0,0,0,.831,2.041,1.525,1.525,0,0,0,1.491-.185l17.764-10.567a7,7,0,0,0,2.78-5.536,2.287,2.287,0,0,0-.832-2.04,1.059,1.059,0,0,0-.532-.131" transform="translate(-55.13 -56.783)" fill="#16110d"/>
        <path id="Trazado_8003" data-name="Trazado 8003" d="M108.7,323.355l1.049-.652a4.219,4.219,0,0,1,3.967-.157l35.355,17.092a1.127,1.127,0,0,1,0,1.867l-.985.658a4.236,4.236,0,0,1-3.916.146l-35.377-16.8a1.221,1.221,0,0,1-.092-2.157" transform="translate(-18.158 -56.11)" fill="#fedc00"/>
        <path id="Trazado_8004" data-name="Trazado 8004" d="M145.681,340.84a5.019,5.019,0,0,1-2.159-.487l-35.377-16.8a2.054,2.054,0,0,1-.168-3.621l1.042-.646a5.054,5.054,0,0,1,4.77-.2l35.442,17.142a1.822,1.822,0,0,1,.88,1.381,2.289,2.289,0,0,1-.768,1.8l-.1.08-.986.658a5.19,5.19,0,0,1-2.576.691m-34.092-20.591a3.382,3.382,0,0,0-1.711.465l-1.048.651a.389.389,0,0,0,.03.687l35.376,16.8a3.418,3.418,0,0,0,3.148-.117l.871-.584a.657.657,0,0,0,.2-.394c0-.033-.052-.075-.089-.1l-35.3-17.066a3.38,3.38,0,0,0-1.474-.339" transform="translate(-17.969 -53.516)" fill="#16110d"/>
        <path id="Trazado_8005" data-name="Trazado 8005" d="M104.862,319.158c0,1.166-1.543,2.113-3.448,2.113s-3.448-.947-3.448-2.113,1.543-2.114,3.448-2.114,3.448.947,3.448,2.114" transform="translate(-16.456 -55.257)" fill="#fedc00"/>
        <path id="Trazado_8006" data-name="Trazado 8006" d="M101.121,319.4c-2.4,0-4.28-1.295-4.28-2.946s1.88-2.945,4.28-2.945,4.281,1.294,4.281,2.945-1.88,2.946-4.281,2.946m0-4.228c-1.474,0-2.616.689-2.616,1.281s1.142,1.282,2.616,1.282,2.617-.689,2.617-1.282-1.143-1.281-2.617-1.281" transform="translate(-16.267 -52.662)" fill="#16110d"/>
        <path id="Trazado_8007" data-name="Trazado 8007" d="M190.465,316.255l47.825-28.734,34.188,16.6-47.341,28.8Z" transform="translate(-31.994 -48.298)" fill="#fff"/>
        <path id="Trazado_8008" data-name="Trazado 8008" d="M214.236,347.007l27.292-16.76,21.551,10.875L235.922,357.3Z" transform="translate(-35.987 -55.475)" fill="#fff"/>
        <path id="Trazado_8009" data-name="Trazado 8009" d="M277.487,276.323l-56.664,34.029a5.791,5.791,0,0,1-5.515.245l-62.715-30.474-4.361,2.9,65.577,31.541-.011.007a9.031,9.031,0,0,0,8.607-.379l59.465-35.769Z" transform="translate(-24.9 -46.417)"/>
        <path id="Trazado_8010" data-name="Trazado 8010" d="M182.708,233.663,216.523,251l15.743-9.423,22.609,11.3,10.99-15.557-48.027-25.248Z" transform="translate(-30.691 -35.623)" fill="#fff"/>
        <path id="Trazado_8011" data-name="Trazado 8011" d="M247.99,160.422l43.7,20.514,28.37-16.595L361.5,185.557l20.89-13.427L396.234,179l23.649-14.53-45.67-21.516L349.2,158.3l-45.057-22.588L262.1,142.271l-22.753,14.118Z" transform="translate(-40.205 -22.796)" fill="#fff"/>
        <path id="Trazado_8012" data-name="Trazado 8012" d="M419.591,182.773l-1.023-2.079-65-31.548L411.32,114.37a1.808,1.808,0,0,0-.1-3.2L373.072,92.542l-4.36,2.9,34.6,16.607a1.323,1.323,0,0,1,.108,2.328l-56.454,33.915,1.884.632,3.845-.06-3.367,1.038-1.935,1.246,64.331,30.93a1.563,1.563,0,0,1,.128,2.749l-57.828,34.764,4.406,2.147,59.762-36,1.062-2.58.247-.391Z" transform="translate(-58.283 -15.545)"/>
        <path id="Trazado_8013" data-name="Trazado 8013" d="M246.619,254.558s-1.4-.125-1.655-1.255a5.175,5.175,0,0,1-.112-1.882s.8-.825,1.542-.377c.993.6,1.687.949,1.687.949Z" transform="translate(-41.124 -42.148)" fill="#ffbe2e"/>
        <path id="Trazado_8014" data-name="Trazado 8014" d="M246.729,254.822l-.2-.017c-.067-.006-1.636-.16-1.932-1.5a5.515,5.515,0,0,1-.115-2.006l.018-.092.066-.068c.039-.041.985-1,1.926-.426.969.587,1.659.933,1.665.937l.295.147Zm-1.646-3.311a5.308,5.308,0,0,0,.122,1.661,1.435,1.435,0,0,0,1.186.98l1.194-2.1c-.3-.157-.8-.433-1.417-.809-.412-.249-.9.108-1.086.264" transform="translate(-41.061 -42.084)"/>
        <path id="Trazado_8015" data-name="Trazado 8015" d="M353.005,248.088,327.431,232.4l-61.59,35.011L290.722,283.3Z" transform="translate(-44.656 -39.038)" fill="#fec"/>
        <path id="Trazado_8016" data-name="Trazado 8016" d="M290.59,283.593l-.158-.1-25.316-16.174.449-.256,61.749-35.1L353.189,248.2l-.151.087Zm-24.267-16.244,24.286,15.516L352.269,248,327.3,232.686Z" transform="translate(-44.534 -38.965)"/>
        <path id="Trazado_8017" data-name="Trazado 8017" d="M284.311,209.319v46.22l25.184,14.94V224.224Z" transform="translate(-47.758 -35.161)" fill="#fedc00"/>
        <path id="Trazado_8020" data-name="Trazado 8020" d="M358.1,259.236l-14.064-8.273,8.138-7.1,5.59,1.009s3.946,3.94,4.189,4.415-3.852,9.948-3.852,9.948" transform="translate(-57.791 -40.964)"/>
        <path id="Trazado_8021" data-name="Trazado 8021" d="M358.236,259.389l-.248.141-14.593-8.584,8.577-7.482,5.832,1.053.069.069c.666.663,3.995,4,4.247,4.493.077.151.31.607-3.844,10.214Zm-13.778-8.542,13.387,7.874a92.722,92.722,0,0,0,3.7-9.4c-.286-.411-2.243-2.434-4.037-4.226l-5.347-.965Z" transform="translate(-57.683 -40.897)"/>
        <path id="Trazado_8022" data-name="Trazado 8022" d="M356.261,192.15l-46.77,26.91-25.2-14.882,46.514-26.7Z" transform="translate(-47.754 -29.813)" fill="#fff"/>
        <path id="Trazado_8023" data-name="Trazado 8023" d="M356.513,191.9l-25.77-14.849-46.2,26.519-.122.07-.483.277V250.3l25.808,15.309V219.167l46.613-26.819ZM284.56,249.941V204.664l24.56,14.5v45.346Zm25.032-31.405L285.035,204l45.708-26.234,24.833,14.31Z" transform="translate(-47.695 -29.74)"/>
        <path id="Trazado_8024" data-name="Trazado 8024" d="M293.083,296.317,280.9,287.89l8.547-6.564,7.837,1.543Z" transform="translate(-47.185 -47.257)"/>
        <path id="Trazado_8025" data-name="Trazado 8025" d="M293.237,296.46l-.278.158-12.7-8.782,9-6.909,8.316,1.636Zm-11.916-8.65,11.484,7.942,3.967-12.711-7.357-1.449Z" transform="translate(-47.078 -47.19)"/>
        <path id="Trazado_8026" data-name="Trazado 8026" d="M285.071,285.729l-.414-.248a2.209,2.209,0,0,0-.45-.165c-2.228-.529-5.091,2.459-6.1,6.684-.929,3.91-.047,7.489,1.5,8.423v0l5.367,3.081,4.4-14.874Z" transform="translate(-46.653 -47.917)" fill="#fedc00"/>
        <path id="Trazado_8027" data-name="Trazado 8027" d="M285.35,303.069a.691.691,0,0,1-1.008.4l-5.106-2.945c-1.683-1.21-2.352-5.023-1.488-8.662,1.031-4.336,3.992-7.5,6.471-6.915a2.564,2.564,0,0,1,.514.188l.452.27,4.494,3.03Zm-5.592-2.946,4.97,2.853,4.223-14.276-4.514-3.014a1.918,1.918,0,0,0-.363-.128c-2.1-.509-4.782,2.513-5.719,6.452-.9,3.8-.029,7.246,1.354,8.084Z" transform="translate(-46.592 -47.854)"/>
        <path id="Trazado_8028" data-name="Trazado 8028" d="M291.762,297.4c-1,4.225-3.623,7.221-5.852,6.692s-3.218-4.385-2.214-8.609,3.623-7.22,5.851-6.692,3.219,4.385,2.215,8.609" transform="translate(-47.589 -48.5)" fill="#fedc00"/>
        <path id="Trazado_8029" data-name="Trazado 8029" d="M286.376,304.4a2.59,2.59,0,0,1-.6-.07c-2.431-.578-3.505-4.525-2.445-8.985s3.8-7.5,6.227-6.923,3.506,4.525,2.447,8.985c-.973,4.094-3.361,6.993-5.626,6.993m2.593-15.421c-1.931,0-4.155,2.815-5.034,6.511-.946,3.981-.039,7.753,1.983,8.233s4.529-2.477,5.476-6.461.039-7.752-1.984-8.232a1.869,1.869,0,0,0-.441-.052" transform="translate(-47.525 -48.437)"/>
        <path id="Trazado_8030" data-name="Trazado 8030" d="M290.306,297.675c-.538,2.266-1.944,3.871-3.138,3.588s-1.726-2.351-1.187-4.615,1.944-3.871,3.137-3.588,1.726,2.35,1.188,4.615" transform="translate(-48.004 -49.223)"/>
        <path id="Trazado_8031" data-name="Trazado 8031" d="M287.385,301.544a1.522,1.522,0,0,1-.351-.041,2.213,2.213,0,0,1-1.473-1.791,6.831,6.831,0,0,1,.053-3.2c.587-2.47,2.131-4.146,3.514-3.819a2.211,2.211,0,0,1,1.473,1.791,6.845,6.845,0,0,1-.053,3.2c-.539,2.262-1.879,3.86-3.163,3.86m1.386-8.269c-.966,0-2.094,1.464-2.548,3.38a6.226,6.226,0,0,0-.058,2.9c.192.742.561,1.231,1.014,1.338.987.245,2.271-1.3,2.761-3.356a6.222,6.222,0,0,0,.058-2.9c-.192-.743-.561-1.231-1.014-1.339a.908.908,0,0,0-.212-.025" transform="translate(-47.941 -49.16)"/>
        <path id="Trazado_8112" data-name="Trazado 8112" d="M285.35,303.069a.691.691,0,0,1-1.008.4l-5.106-2.945c-1.683-1.21-2.352-5.023-1.488-8.662,1.031-4.336,3.992-7.5,6.471-6.915a2.564,2.564,0,0,1,.514.188l.452.27,4.494,3.03Zm-5.592-2.946,4.97,2.853,4.223-14.276-4.514-3.014a1.918,1.918,0,0,0-.363-.128c-2.1-.509-4.782,2.513-5.719,6.452-.9,3.8-.029,7.246,1.354,8.084Z" transform="translate(7.408 -77.854)"/>
        <path id="Trazado_8032" data-name="Trazado 8032" d="M289.352,293.061a1.323,1.323,0,0,0-.745.069c1.017.5,1.446,2.406.946,4.506-.428,1.8-1.407,3.173-2.391,3.519a1.252,1.252,0,0,0,.241.108c1.194.284,2.6-1.321,3.138-3.587s.007-4.331-1.188-4.615" transform="translate(-48.237 -49.224)" fill="#ffbe2e"/>
        <path id="Trazado_8033" data-name="Trazado 8033" d="M292.47,274.463,279.434,266.6l-4.683,2.572,11,6.693,5.129,4.785,1.586,2.746Z" transform="translate(-46.153 -44.784)" fill="#ffbe2e"/>
        <path id="Trazado_8034" data-name="Trazado 8034" d="M292.656,284.489l-2.145-3.712-5.1-4.754L274,269.088l5.313-2.918,13.341,8.045Zm-17.408-15.374,10.543,6.412,5.238,4.9,1,1.738v-7.595L279.3,266.89Z" transform="translate(-46.027 -44.711)"/>
        <path id="Trazado_8035" data-name="Trazado 8035" d="M295.451,235.994c-3.255-2.228-21.628-14.161-24.37-13.933a13.829,13.829,0,0,0-5.353,1.861l-13.909,7.956a5.641,5.641,0,0,0-2.554,3.037c-.513,1.935-4.352,17.338-4.352,17.338l-3.1,19.806s-1.555,3.9,1.845,5.951,23.159,13.335,23.159,13.335a6.811,6.811,0,0,0,5.385-.519c2.61-1.541,2.61-1.547,2.61-1.547s.253-11.794,6.4-14.479,5.419,6.764,5.419,6.764l10.888-6.432.671-19.987V240.755s.523-2.533-2.732-4.761m-24.9,31.308-24.272-14.416,4.163-16.892,23.248,13.32Zm17.873-8.6-15.952,8.6,3.278-18.827,12.673-7Z" transform="translate(-40.559 -37.301)" fill="#fec"/>
        <path id="Trazado_8036" data-name="Trazado 8036" d="M268.913,291.931a7.079,7.079,0,0,1-2.269-.356c-.245-.134-19.847-11.326-23.213-13.361-3.585-2.167-1.991-6.293-1.974-6.334l3.086-19.739c.044-.181,3.851-15.454,4.36-17.369a5.9,5.9,0,0,1,2.707-3.232l13.9-7.952a13.991,13.991,0,0,1,5.483-1.9c.029,0,.059,0,.091,0,3.235,0,21.9,12.226,24.481,13.99,3.387,2.319,2.885,4.97,2.861,5.082l.007,14.327-.677,20.169-11.55,6.824.045-.6c0-.05.356-5-1.743-6.492a3.21,3.21,0,0,0-3.239.037c-5.891,2.574-6.209,14.084-6.212,14.2,0,.177,0,.177-2.763,1.809a6.6,6.6,0,0,1-3.382.9m-2.007-.92a6.59,6.59,0,0,0,5.072-.517c1.619-.956,2.231-1.32,2.462-1.458.058-1.562.669-12,6.58-14.585,1.567-.685,2.862-.676,3.851.027,1.939,1.378,2.061,5.027,2.03,6.463l10.244-6.053.666-19.816v-14.38c.025-.158.43-2.431-2.6-4.5-4.943-3.383-21.43-13.882-24.1-13.882a.654.654,0,0,0-.072,0,13.6,13.6,0,0,0-5.214,1.815l-13.919,7.962a5.365,5.365,0,0,0-2.408,2.847c-.507,1.91-4.312,17.178-4.351,17.333l-3.1,19.778c-.077.217-1.429,3.746,1.7,5.637,3.358,2.03,22.955,13.218,23.152,13.331Zm5.083-23.193,3.413-19.607,13.268-7.328v17.939Zm3.977-19.206-3.142,18.047,15.222-8.21V241.942Zm-5.251,19.125-24.86-14.765,4.317-17.517,23.8,13.633-.038.215Zm-24.144-15.065,23.683,14.068,3.025-17.328-22.7-13.005Z" transform="translate(-40.498 -37.238)"/>
        <path id="Trazado_8037" data-name="Trazado 8037" d="M247.291,255.8l4.163-16.892L274.7,252.227l-3.14,17.988Z" transform="translate(-41.54 -40.132)" fill="#fedc00"/>
        <path id="Trazado_8038" data-name="Trazado 8038" d="M271.72,270.618l-24.86-14.764,4.317-17.517,23.8,13.633-.038.215Zm-24.144-15.065L271.26,269.62l3.025-17.328-22.7-13Z" transform="translate(-41.467 -40.036)"/>
        <path id="Trazado_8039" data-name="Trazado 8039" d="M294.723,245.247v17.474l-15.951,8.559,3.278-18.826Z" transform="translate(-46.828 -41.196)" fill="#fedc00"/>
        <path id="Trazado_8040" data-name="Trazado 8040" d="M278.27,271.749l3.413-19.6.128-.072L294.95,244.6v18.2Zm3.977-19.206-3.142,18.05,15.221-8.168V245.674Z" transform="translate(-46.744 -41.088)"/>
        <path id="Trazado_8041" data-name="Trazado 8041" d="M278.822,252.055l-3.14,17.988s-2.955,15.571-3.6,18.912c-.352,1.836.968,4.378,2.077,5.395a6.343,6.343,0,0,0,3.527-.844c2.609-1.541,2.609-1.547,2.609-1.547s.285-11.316,5.54-14.169c5.892-3.2,5.925,6.516,5.925,6.516l10.888-6.433.671-20.048V243.436s.438-2.9-3.263-5.059c0,0-12.443,7.4-16.328,9.2-5.5,2.549-4.906,4.476-4.906,4.476m14.733,9.325-15.774,8.6,3.189-18.826,12.585-7Z" transform="translate(-45.695 -40.042)"/>
        <path id="Trazado_8042" data-name="Trazado 8042" d="M274.411,294.6c-.107,0-.217,0-.327-.007l-.114-.005-.084-.077c-1.134-1.04-2.56-3.663-2.172-5.684.643-3.341,3.6-18.911,3.6-18.911l3.128-17.923c-.081-.459-.057-2.38,5.092-4.767,3.827-1.775,16.177-9.114,16.3-9.188l.158-.094.158.092c3.839,2.239,3.434,5.248,3.415,5.375l0,14.344-.676,20.23-11.5,6.8,0-.544c0-.052-.047-5.212-2.3-6.545a3.146,3.146,0,0,0-3.168.3c-5.034,2.735-5.373,13.792-5.375,13.9,0,.175,0,.175-2.764,1.807a6.525,6.525,0,0,1-3.371.894m-.185-.626a5.93,5.93,0,0,0,3.238-.8c1.621-.956,2.231-1.32,2.462-1.458.062-1.526.65-11.523,5.7-14.264,1.478-.8,2.752-.9,3.784-.289,2.109,1.25,2.509,5.109,2.583,6.543l10.288-6.078.665-19.877V243.362c.019-.153.339-2.694-2.95-4.7-1.469.871-12.582,7.446-16.2,9.122-5.087,2.359-4.741,4.094-4.738,4.111l.016.062-.009.073-3.14,17.988s-2.956,15.576-3.6,18.918c-.319,1.662.888,4.034,1.9,5.028m3.075-23.478,3.321-19.607,13.18-7.332v17.941Zm3.887-19.208-3.057,18.044,15.047-8.205V244.613Z" transform="translate(-45.631 -39.969)"/>
        <path id="Trazado_8045" data-name="Trazado 8045" d="M296.767,272.114a1.188,1.188,0,0,0-.719,1.153v2.105s.145.721.719.336a.93.93,0,0,0,.446-.942l.012-2.271s-.253-.494-.458-.382" transform="translate(-49.73 -45.707)"/>
        <path id="Trazado_8046" data-name="Trazado 8046" d="M296.394,276.069a.635.635,0,0,1-.239-.046.939.939,0,0,1-.478-.654l-.006-2.167a1.494,1.494,0,0,1,.9-1.438.445.445,0,0,1,.329-.022,1.094,1.094,0,0,1,.534.547l.034.144-.012,2.27h0a1.211,1.211,0,0,1-.584,1.2.863.863,0,0,1-.483.166m.354-3.7a.887.887,0,0,0-.452.831v2.105c.013.026.068.126.1.138s.056-.006.136-.061a.614.614,0,0,0,.316-.613l0-2.259a1.079,1.079,0,0,0-.1-.141" transform="matrix(0.407, 0.914, -0.914, 0.407, 376.495, -154.085)" fill="#fedc00"/>
        <path id="Trazado_8047" data-name="Trazado 8047" d="M243.44,270.609l25.321,14.682,1.407-7.4-25.5-15.143Z" transform="translate(-40.893 -44.136)" fill="#fedc00"/>
        <path id="Trazado_8048" data-name="Trazado 8048" d="M268.916,285.681l-25.886-15.01,1.336-8.531,26.08,15.49Zm-25.2-15.336L268.467,284.7l1.284-6.756-24.911-14.8Z" transform="translate(-40.824 -44.034)"/>
        <path id="Trazado_8049" data-name="Trazado 8049" d="M246.734,270.045l15.154,9.184,7.949-1.509-21.63-12.848Z" transform="translate(-41.446 -44.493)"/>
        <path id="Trazado_8050" data-name="Trazado 8050" d="M261.754,279.462l-.1-.062-15.357-9.306,1.649-5.793,22.687,13.475Zm-14.728-9.656,14.847,9,7.021-1.333-20.573-12.22Z" transform="translate(-41.372 -44.397)"/>
        <path id="Trazado_8051" data-name="Trazado 8051" d="M243.884,268.25l6.662,4.039s-.914-6.643-3.712-8.305l-2.088-1.239Z" transform="translate(-40.968 -44.136)" fill="#fff"/>
        <path id="Trazado_8052" data-name="Trazado 8052" d="M250.875,272.793l-7.4-4.486.966-6.167,2.484,1.474c2.895,1.72,3.823,8.254,3.861,8.532Zm-6.719-4.8,5.9,3.578c-.313-1.7-1.32-6.152-3.451-7.417l-1.691-1Z" transform="translate(-40.899 -44.034)"/>
        <path id="Trazado_8053" data-name="Trazado 8053" d="M273.632,280.61l-2.686-1.595a8.334,8.334,0,0,0-3.476.274,12.8,12.8,0,0,0-3.405,1.86l8.538,4.876Z" transform="translate(-44.358 -46.858)" fill="#fff"/>
        <path id="Trazado_8054" data-name="Trazado 8054" d="M272.713,286.449l-9.332-5.329.383-.285a12.822,12.822,0,0,1,3.529-1.915c2.624-.542,3.538-.3,3.632-.267l2.941,1.736Zm-8.185-5.392,7.734,4.417.907-4.772-2.494-1.482c0,.011-.166-.027-.539-.027a13.711,13.711,0,0,0-2.718.336,10.485,10.485,0,0,0-2.89,1.527" transform="translate(-44.243 -46.794)"/>
        <path id="Trazado_8055" data-name="Trazado 8055" d="M264.149,299.332c-2.448-1.4-1.1-5.511-1.1-5.511l.577-1.615-17.155-10.191-.341,2.172s-1.553,3.9,1.846,5.951c2.243,1.356,11.6,6.724,17.714,10.221Z" transform="translate(-41.286 -47.373)" fill="#fedc00"/>
        <path id="Trazado_8056" data-name="Trazado 8056" d="M265.475,300.529c-5.634-3.224-15.429-8.84-17.72-10.226-3.585-2.167-1.991-6.293-1.975-6.334l.4-2.561,17.771,10.558-.664,1.857c-.011.031-1.237,3.878.96,5.136l.018.01L265.8,300Zm-18.827-18.113-.27,1.717c-.077.215-1.429,3.745,1.7,5.636,1.911,1.156,9.075,5.273,14.663,8.475-.938-1.848-.095-4.482-.05-4.623l.494-1.38Z" transform="translate(-41.224 -47.271)"/>
        <path id="Trazado_8057" data-name="Trazado 8057" d="M249.758,290.595c-2.448-1.4-1.1-5.511-1.1-5.511l.523-1.46-2.709-1.609-.341,2.172s-1.554,3.9,1.846,5.951c.619.374,1.781,1.055,3.265,1.916l-1.484-1.459" transform="translate(-41.286 -47.373)"/>
        <path id="Trazado_8058" data-name="Trazado 8058" d="M253.168,293.466l-2.143-1.244c-1.486-.863-2.651-1.543-3.27-1.919-3.585-2.167-1.991-6.292-1.975-6.333l.4-2.561,3.326,1.977-.611,1.7c-.009.03-1.236,3.877.963,5.135l.607.948Zm-6.521-11.05-.27,1.717c-.077.215-1.429,3.745,1.7,5.636.206.125.47.283.788.47-1.71-1.781-.618-5.2-.567-5.355l.44-1.226Z" transform="translate(-41.224 -47.271)"/>
        <path id="Trazado_8059" data-name="Trazado 8059" d="M350.517,251.447l-.42-.227a2.286,2.286,0,0,0-.455-.147c-2.24-.451-4.7,1.533-5.589,5.61-.825,3.772.095,7.182,1.637,8.039v0l5.607,2.818,3.965-14.373Z" transform="translate(-57.742 -42.266)" fill="#fedc00"/>
        <path id="Trazado_8061" data-name="Trazado 8061" d="M357.939,262c-.892,4.25-3.432,7.313-5.673,6.843s-3.334-4.3-2.442-8.547,3.432-7.313,5.673-6.843,3.334,4.3,2.442,8.546" transform="translate(-58.711 -42.567)" fill="#fedc00"/>
        <path id="Trazado_8062" data-name="Trazado 8062" d="M352.667,269.139a2.582,2.582,0,0,1-.53-.054c-2.445-.513-3.624-4.431-2.682-8.917s3.589-7.6,6.043-7.085c1.2.252,2.137,1.345,2.632,3.076a13.647,13.647,0,0,1-2.345,11.168,4.254,4.254,0,0,1-3.117,1.811m2.293-15.486c-1.964,0-4.1,2.836-4.895,6.644-.841,4.006.166,7.751,2.2,8.177.969.2,2.044-.347,3.038-1.544a13.029,13.029,0,0,0,2.225-10.6c-.428-1.5-1.195-2.434-2.16-2.636a1.986,1.986,0,0,0-.409-.042" transform="translate(-58.647 -42.503)"/>
        <path id="Trazado_8063" data-name="Trazado 8063" d="M356.466,262.329c-.478,2.279-1.84,3.921-3.041,3.669s-1.788-2.3-1.31-4.583,1.84-3.92,3.042-3.668,1.786,2.3,1.309,4.582" transform="translate(-59.12 -43.292)"/>
        <path id="Trazado_8064" data-name="Trazado 8064" d="M353.609,266.273a1.459,1.459,0,0,1-.311-.032c-1.391-.292-2.073-2.467-1.551-4.952s2.017-4.2,3.411-3.91,2.071,2.467,1.55,4.951c-.483,2.3-1.8,3.943-3.1,3.943m1.234-8.3c-.973,0-2.077,1.5-2.484,3.447-.435,2.07.054,4,1.067,4.213s2.236-1.357,2.672-3.428-.055-4-1.067-4.213a.955.955,0,0,0-.187-.019" transform="translate(-59.057 -43.229)"/>
        <path id="Trazado_8065" data-name="Trazado 8065" d="M355.406,257.748a1.324,1.324,0,0,0-.744.088c1.03.469,1.508,2.367,1.066,4.48-.382,1.815-1.324,3.209-2.3,3.58a1.189,1.189,0,0,0,.245.1c1.2.252,2.563-1.39,3.041-3.669s-.108-4.33-1.309-4.582" transform="translate(-59.369 -43.293)" fill="#ffbe2e"/>
        <path id="Trazado_8066" data-name="Trazado 8066" d="M314.36,221.678l-.156.09v46.785l28.632-16.046.138-.078.018-.157c.444-3.741,1.642-8.554,4.829-10.244a2.514,2.514,0,0,1,2.348-.241c1.076.536,1.867,2.212,2.289,4.847l.071.441,8.906-5.136.162-47.08-.311-.179Z" transform="translate(-52.78 -32.702)"/>
        <path id="Trazado_8067" data-name="Trazado 8067" d="M339.555,263.787l-43.844,24.788-.167,4.8,43.757-24.76a35.075,35.075,0,0,1,.255-4.824" transform="translate(-49.645 -44.311)" fill="#fec"/>
        <path id="Trazado_8068" data-name="Trazado 8068" d="M295.462,293.622l-.3-.209.18-5.139.151-.087L339.875,263.1l-.074.612a35.16,35.16,0,0,0-.252,4.777l.006.189-.164.092Zm.49-4.978-.141,4.064,43.11-24.394a36.692,36.692,0,0,1,.192-4.072Z" transform="translate(-49.581 -44.195)"/>
        <path id="Trazado_8069" data-name="Trazado 8069" d="M360.533,255.994a27.958,27.958,0,0,1,.337,4.485l7.867-4.451.175-4.77Z" transform="translate(-60.562 -42.206)" fill="#fec"/>
        <path id="Trazado_8070" data-name="Trazado 8070" d="M360.8,260.728l-.312-.184,0-.182a27.8,27.8,0,0,0-.333-4.429l-.036-.215,9.055-5.119-.2,5.5Zm.008-4.68a28.359,28.359,0,0,1,.306,3.785l7.25-4.1.148-4.038Z" transform="translate(-60.493 -42.096)"/>
        <path id="Trazado_8071" data-name="Trazado 8071" d="M266.716,231.018l15.162,9.251,8.9-5.225L275.207,226.1Z" transform="translate(-44.803 -37.979)" fill="#fedc00"/>
        <path id="Trazado_8072" data-name="Trazado 8072" d="M281.751,240.561l-15.768-9.622,9.1-5.276,16.194,9.305ZM267.2,230.952l14.555,8.881,8.276-4.858-14.949-8.592Z" transform="translate(-44.68 -37.907)"/>
        <path id="Trazado_8073" data-name="Trazado 8073" d="M275.207,228.151l13.8,7.932,1.77-1.039-15.572-8.949-8.491,4.923,1.727,1.055Z" transform="translate(-44.803 -37.979)"/>
        <path id="Trazado_8074" data-name="Trazado 8074" d="M288.888,236.371l-13.8-7.933-6.768,3.925-2.334-1.425,9.1-5.276,16.194,9.306Zm-13.8-8.653,13.8,7.932,1.151-.675-14.951-8.592-7.882,4.57,1.122.684Z" transform="translate(-44.68 -37.907)"/>
        <path id="Trazado_8076" data-name="Trazado 8076" d="M314.2,262.332V237.656l.16-.089L361.6,211.235v25.317l-.163.089Zm.624-24.309v23.259l46.146-25.1V212.3Z" transform="translate(-52.78 -35.483)"/>
        <path id="Trazado_8077" data-name="Trazado 8077" d="M282.852,273.623a2.579,2.579,0,0,0,2.774,1.658c2.206-.167,2.386-.824,2.386-.824a2.885,2.885,0,0,0-1.585-2.412,23.969,23.969,0,0,0-3.575-1.246l-.455.726,1.053.487Z" transform="translate(-47.437 -45.489)" fill="#fedc00"/>
        <path id="Trazado_8078" data-name="Trazado 8078" d="M285.254,275.532a2.9,2.9,0,0,1-2.792-1.889l-.032-.1.535-1.439-1.112-.513.764-1.221.22.057a24,24,0,0,1,3.631,1.265,3.177,3.177,0,0,1,1.765,2.687v.046l-.013.045c-.056.2-.413.881-2.663,1.052-.1.008-.206.012-.3.012m-2.161-1.982a2.271,2.271,0,0,0,2.417,1.348c1.551-.117,1.99-.474,2.093-.589a2.531,2.531,0,0,0-1.4-2.053,23.2,23.2,0,0,0-3.3-1.166l-.145.23.993.46Z" transform="translate(-47.346 -45.416)"/>
        <path id="Trazado_8080" data-name="Trazado 8080" d="M316.711,277.79v-.542a7.76,7.76,0,0,1,3.734-6.809l6.912-3.75,0,4.891Zm10.023-10.053-6,3.254a7.142,7.142,0,0,0-3.379,5.7l9.38-5.469Z" transform="translate(-53.201 -44.798)"/>
        <path id="Trazado_8086" data-name="Trazado 8086" d="M167.224,281.867c0,5.391-7.072,9.759-15.8,9.759s-15.8-4.368-15.8-9.759,7.072-9.759,15.8-9.759,15.8,4.369,15.8,9.759" transform="translate(-22.783 -45.709)" fill="#fec"/>
        <path id="Trazado_8087" data-name="Trazado 8087" d="M164.609,280.342h0l-.888-3.69H161.6a19.325,19.325,0,0,0-18.836,0h-2.04l-.971,3.643h.015a4.278,4.278,0,0,0-.176,1.161c0,4.006,5.637,7.254,12.59,7.254s12.591-3.248,12.591-7.254a4.3,4.3,0,0,0-.164-1.114" transform="translate(-23.449 -46.06)"/>
        <path id="Trazado_8088" data-name="Trazado 8088" d="M139.591,281.951l.922,2.725,3.746,2.908,4.021,1.206.555-4.742-3.051-.693-4.133-2.618-1.022-2.306.095-1.284Z" transform="translate(-23.449 -46.555)" fill="#fedc00"/>
        <path id="Trazado_8089" data-name="Trazado 8089" d="M152.1,289.042c-7.172,0-13.007-3.44-13.007-7.67a4.265,4.265,0,0,1,.069-.745h-.017l.124-.523,1.054-3.951h2.237a19.8,19.8,0,0,1,19.08,0h2.327l.965,4.008h0a4.634,4.634,0,0,1,.176,1.212c0,4.229-5.835,7.67-13.007,7.67m-11.888-9.247h.008l-.134.529a3.861,3.861,0,0,0-.161,1.048c0,3.771,5.462,6.838,12.175,6.838s12.175-3.067,12.175-6.838a3.846,3.846,0,0,0-.151-1.007l0-.01-.81-3.371h-1.918l-.1-.067a18.918,18.918,0,0,0-18.383,0l-.1.067h-1.845Z" transform="translate(-23.364 -45.976)"/>
        <path id="Trazado_8090" data-name="Trazado 8090" d="M164.025,276.819c0,3.689-5.19,6.679-11.593,6.679s-11.593-2.99-11.593-6.679,5.19-6.679,11.593-6.679,11.593,2.99,11.593,6.679" transform="translate(-23.658 -45.378)" fill="#fedc00"/>
        <path id="Trazado_8091" data-name="Trazado 8091" d="M163.869,279.1c0,3.689-5.19,6.679-11.593,6.679s-11.592-2.99-11.592-6.679,5.189-6.679,11.592-6.679,11.593,2.99,11.593,6.679" transform="translate(-23.632 -45.761)" fill="#fec"/>
        <path id="Trazado_8092" data-name="Trazado 8092" d="M152.347,269.639c-6.622,0-12.009,3.184-12.009,7.1s5.387,7.1,12.009,7.1,12.009-3.183,12.009-7.1-5.387-7.1-12.009-7.1m0,13.36c-6.163,0-11.177-2.81-11.177-6.263s5.015-6.264,11.177-6.264,11.177,2.81,11.177,6.264S158.51,283,152.347,283" transform="translate(-23.574 -45.294)"/>
        <path id="Trazado_8093" data-name="Trazado 8093" d="M153.534,273.936c-3.257,0-5.9,1.4-5.9,3.131s2.64,3.13,5.9,3.13,5.9-1.4,5.9-3.13-2.64-3.131-5.9-3.131" transform="translate(-24.8 -46.016)"/>
        <path id="Trazado_8094" data-name="Trazado 8094" d="M148.17,173.407c-10.148,4.676-19.245,18.835-20.107,31.92-.344,5.237.691,9.471,2.743,12.357L145.421,245.4l7.008,3.422c.631-1.429,10.855-50.109,11.325-51.574h0c1.1-3.421,8.576-5.571,8.631-8.9.206-12.19-14.32-19.5-24.215-14.936m-1.284,31.232c-4,2-7.057-.453-6.807-5.425.247-4.907,3.634-10.362,7.532-12.223,3.861-1.844,6.841.5,6.689,5.278-.154,4.839-3.458,10.394-7.414,12.37" transform="translate(-21.501 -28.899)" fill="#f6f7f9"/>
        <path id="Trazado_8096" data-name="Trazado 8096" d="M151.83,249.571l-7.312-3.636L129.786,218c-2.233-3.175-3.23-7.644-2.881-12.927.869-13.2,10.14-27.883,20.666-32.733,5.328-2.454,12.291-1.74,17.745,1.818a16.32,16.32,0,0,1,7.841,14.011c-.039,2.252-2.39,3.861-4.663,5.416-1.768,1.209-3.6,2.46-4.014,3.766-.192.626-2.1,9.517-4.123,18.93-4.721,21.994-6.886,31.94-7.239,32.74Zm-5.9-5.093,5.681,2.773c1-4.124,4.342-19.671,6.855-31.378,2.532-11.8,3.974-18.5,4.171-19.114.62-1.936,2.727-3.378,4.763-4.771,1.869-1.279,3.8-2.6,3.822-3.855a14.424,14.424,0,0,0-6.965-12.361c-4.911-3.2-11.146-3.865-15.881-1.682-9.952,4.585-18.72,18.539-19.549,31.106-.319,4.865.567,8.923,2.567,11.736l.067.108Zm-1.895-38.369a4.666,4.666,0,0,1-2.593-.754c-1.752-1.145-2.671-3.472-2.525-6.382.267-5.28,3.816-11.01,8.081-13.047a5.513,5.513,0,0,1,5.529.031c1.7,1.112,2.63,3.355,2.541,6.151-.169,5.261-3.658,11.06-7.947,13.2h0a6.944,6.944,0,0,1-3.084.8m5.886-18.972a4.906,4.906,0,0,0-2.092.532c-3.62,1.729-6.754,6.843-6.983,11.4-.111,2.208.49,3.91,1.652,4.67a3.747,3.747,0,0,0,3.759-.156c3.648-1.823,6.735-7,6.881-11.537.067-2.107-.541-3.737-1.668-4.474a2.79,2.79,0,0,0-1.548-.435" transform="translate(-21.306 -28.706)"/>
        <path id="Trazado_8097" data-name="Trazado 8097" d="M168.727,176.528c-3.465-2.258-7.985-2.3-12.734-.111-10.525,4.851-19.8,19.535-20.666,32.734-.348,5.284.649,9.752,2.881,12.926l14.64,27.762a.913.913,0,0,0,1.661-.1l16.7-43.866a45.4,45.4,0,0,0,1.692-4.445,36.594,36.594,0,0,0,1.83-10.51c.112-6.679-2.02-11.79-6.006-14.39" transform="translate(-22.721 -29.364)"/>
        <path id="Trazado_8098" data-name="Trazado 8098" d="M397.087,95.519c0,5.39-7.072,9.759-15.8,9.759s-15.8-4.369-15.8-9.759,7.072-9.759,15.8-9.759,15.8,4.369,15.8,9.759" transform="translate(-61.396 -14.406)" fill="#fec"/>
        <path id="Trazado_8099" data-name="Trazado 8099" d="M393.968,93.692h0L393.081,90H390.96a19.319,19.319,0,0,0-18.836,0h-2.04l-.971,3.642h.015a4.278,4.278,0,0,0-.176,1.162c0,4.006,5.637,7.254,12.59,7.254s12.591-3.248,12.591-7.254a4.306,4.306,0,0,0-.164-1.114" transform="translate(-61.976 -14.707)"/>
        <path id="Trazado_8100" data-name="Trazado 8100" d="M368.951,95.3l.922,2.725,3.746,2.908,4.021,1.206.555-4.742-3.051-.693-4.133-2.617-1.022-2.306.095-1.284Z" transform="translate(-61.976 -15.202)" fill="#fedc00"/>
        <path id="Trazado_8101" data-name="Trazado 8101" d="M381.457,102.393c-7.172,0-13.007-3.44-13.007-7.67a4.266,4.266,0,0,1,.069-.745H368.5l.124-.523L369.68,89.5h2.237a19.8,19.8,0,0,1,19.08,0h2.327l.965,4.008h0a4.634,4.634,0,0,1,.176,1.212c0,4.229-5.835,7.67-13.007,7.67m-11.888-9.247h.008l-.134.529a3.862,3.862,0,0,0-.161,1.048c0,3.771,5.462,6.838,12.175,6.838s12.175-3.067,12.175-6.838a3.848,3.848,0,0,0-.151-1.007l0-.01-.81-3.371h-1.918l-.1-.067a18.918,18.918,0,0,0-18.383,0l-.1.067h-1.845Z" transform="translate(-61.892 -14.623)"/>
        <path id="Trazado_8102" data-name="Trazado 8102" d="M393.384,90.17c0,3.689-5.19,6.679-11.593,6.679S370.2,93.86,370.2,90.17s5.19-6.679,11.593-6.679,11.593,2.99,11.593,6.679" transform="translate(-62.186 -14.025)" fill="#fedc00"/>
        <path id="Trazado_8103" data-name="Trazado 8103" d="M393.229,92.447c0,3.689-5.19,6.679-11.593,6.679s-11.592-2.99-11.592-6.679,5.189-6.679,11.592-6.679,11.593,2.99,11.593,6.679" transform="translate(-62.16 -14.407)" fill="#fec"/>
        <path id="Trazado_8104" data-name="Trazado 8104" d="M381.706,82.989c-6.622,0-12.009,3.184-12.009,7.1s5.387,7.1,12.009,7.1,12.009-3.183,12.009-7.1-5.387-7.1-12.009-7.1m0,13.36c-6.163,0-11.177-2.81-11.177-6.263s5.015-6.264,11.177-6.264,11.177,2.81,11.177,6.264-5.015,6.263-11.177,6.263" transform="translate(-62.102 -13.94)"/>
        <path id="Trazado_8105" data-name="Trazado 8105" d="M382.893,87.286c-3.257,0-5.9,1.4-5.9,3.131s2.64,3.131,5.9,3.131,5.9-1.4,5.9-3.131-2.64-3.131-5.9-3.131" transform="translate(-63.328 -14.662)"/>
        <path id="Trazado_8106" data-name="Trazado 8106" d="M375.3,2.166C366.557,6.2,358.719,18.4,357.976,29.673c-.3,4.514.595,8.162,2.364,10.65l12.594,23.884,6.04,2.95c.544-1.231,9.355-43.184,9.76-44.446.944-2.949,7.39-4.8,7.438-7.673.176-10.5-12.342-16.8-20.869-12.871M374.2,29.081c-3.444,1.719-6.083-.39-5.867-4.675.213-4.229,3.132-8.93,6.491-10.534,3.326-1.588,5.895.433,5.764,4.549-.133,4.17-2.98,8.958-6.389,10.66" transform="translate(-60.123 -0.166)" fill="#fff"/>
        <path id="Trazado_8108" data-name="Trazado 8108" d="M378.461,67.748l-6.3-3.078L359.462,40.594c-1.925-2.736-2.784-6.586-2.485-11.141.751-11.375,8.74-24.029,17.81-28.208,4.59-2.113,10.592-1.5,15.293,1.568a14.061,14.061,0,0,1,6.756,12.073c-.033,1.941-2.058,3.327-4.019,4.668-1.524,1.043-3.1,2.12-3.46,3.246-.166.538-1.811,8.2-3.551,16.31-4.069,18.955-5.936,27.528-6.239,28.217Zm-5.084-4.335,4.9,2.39c.866-3.554,3.742-16.954,5.907-27.044,2.182-10.163,3.425-15.939,3.594-16.469.534-1.668,2.349-2.91,4.1-4.111,1.61-1.1,3.276-2.241,3.294-3.321a12.432,12.432,0,0,0-6-10.652c-4.232-2.761-9.607-3.33-13.688-1.449L375.134,2l.349.755c-8.576,3.95-16.132,15.976-16.847,26.806-.275,4.193.488,7.69,2.212,10.112l.058.094Zm-1.633-33.064a4.028,4.028,0,0,1-2.235-.649c-1.509-.987-2.3-2.992-2.177-5.5.23-4.549,3.289-9.488,6.964-11.242a4.751,4.751,0,0,1,4.764.026c1.469.958,2.266,2.89,2.19,5.3-.145,4.534-3.152,9.532-6.848,11.377l-.373-.744.373.744a5.985,5.985,0,0,1-2.658.689M376.815,14a4.237,4.237,0,0,0-1.8.458c-3.12,1.491-5.82,5.9-6.018,9.825-.1,1.9.423,3.37,1.424,4.024a3.22,3.22,0,0,0,3.238-.135c3.144-1.57,5.805-6.03,5.929-9.942.058-1.815-.466-3.221-1.436-3.855A2.4,2.4,0,0,0,376.815,14" transform="translate(-59.955 0)"/>
        <path id="Trazado_8109" data-name="Trazado 8109" d="M393.018,4.856c-2.985-1.948-6.882-1.981-10.973-.1-9.072,4.179-17.06,16.833-17.811,28.209-.3,4.554.56,8.4,2.485,11.14l12.587,23.869a.815.815,0,0,0,1.483-.091l14.368-37.743a38.869,38.869,0,0,0,1.458-3.83,31.531,31.531,0,0,0,1.578-9.057c.1-5.757-1.741-10.161-5.176-12.4" transform="translate(-61.174 -0.566)"/>
        <path id="Trazado_8110" data-name="Trazado 8110" d="M430.8,203.12l-6.681-4.181c-1-.567-1.37-1.687-.5-2.479l.765-.7a1.686,1.686,0,0,1,1.859-.29l6.762,3.2a1.722,1.722,0,0,1,.122,3.015Z" transform="translate(-71.077 -32.808)"/>
        <path id="Trazado_8111" data-name="Trazado 8111" d="M348.976,162.431a.759.759,0,0,0,.816-.1l4.81-3.966c.944-.661,2.271-2.05,1.331-2.754l-.829-.62a1.688,1.688,0,0,0-1.879-.11l-6.42,3.842a1.5,1.5,0,0,0,.184,2.739Z" transform="translate(-58.121 -25.978)"/>
      </g>
    </g>
    <g id="Grupo_3120" data-name="Grupo 3120" transform="matrix(0.608, -0.337, 0.036, 0.916, 245.732, 320.88)">
      <path id="Rectángulo_2317" data-name="Rectángulo 2317" d="M3.97,0H9.1a0,0,0,0,1,0,0V0A3.97,3.97,0,0,1,5.13,3.97H0a0,0,0,0,1,0,0v0A3.97,3.97,0,0,1,3.97,0Z" transform="translate(94.273 90.005)" fill="#fedc00"/>
      <path id="Rectángulo_2318" data-name="Rectángulo 2318" d="M3.97,0H9.1a0,0,0,0,1,0,0V0A3.97,3.97,0,0,1,5.13,3.97H0a0,0,0,0,1,0,0v0A3.97,3.97,0,0,1,3.97,0Z" transform="translate(94.273 102.53)" fill="#fedc00"/>
      <path id="Unión_3" data-name="Unión 3" d="M-1359.745-294.117-1366-300.38h-6.991a1.981,1.981,0,0,1-.772-.156,1.981,1.981,0,0,1-.631-.426,1.981,1.981,0,0,1-.425-.631,1.968,1.968,0,0,1-.157-.772,1.979,1.979,0,0,1,.157-.773,1.987,1.987,0,0,1,.426-.631,1.981,1.981,0,0,1,.631-.426,1.989,1.989,0,0,1,.773-.156H-1366l5.064-3.829,2.311.76.733,2-1.859,3,5.573,5.607a1.564,1.564,0,0,1,.442.843,1.6,1.6,0,0,1-.1.88,1.6,1.6,0,0,1-.553.694,1.564,1.564,0,0,1-.909.281Z" transform="translate(1469.25 400.617)" fill="#fedc00" stroke="rgba(0,0,0,0)" stroke-miterlimit="10" stroke-width="1"/>
      <path id="Trazado_7979" data-name="Trazado 7979" d="M273.476,548.1l-4.073-1.339a.3.3,0,0,1-.012-.56l4.585-1.741,4.752-1.8a.3.3,0,0,1,.383.383l-1.8,4.752-1.741,4.585a.3.3,0,0,1-.56-.013l-1.339-4.073A.3.3,0,0,0,273.476,548.1Z" transform="translate(-162.118 -455.735)" fill="#fedc00"/>
    </g>
    <g id="Grupo_3121" data-name="Grupo 3121" transform="matrix(0.608, -0.337, 0.036, 0.916, 282.448, 151.114)">
      <path id="Rectángulo_2317-2" data-name="Rectángulo 2317" d="M3.025,0H6.933a0,0,0,0,1,0,0V0A3.025,3.025,0,0,1,3.908,3.025H0a0,0,0,0,1,0,0v0A3.025,3.025,0,0,1,3.025,0Z" transform="translate(94.273 89.266)" fill="#fedc00"/>
      <path id="Rectángulo_2318-2" data-name="Rectángulo 2318" d="M3.025,0H6.933a0,0,0,0,1,0,0V0A3.025,3.025,0,0,1,3.908,3.025H0a0,0,0,0,1,0,0v0A3.025,3.025,0,0,1,3.025,0Z" transform="translate(94.273 98.808)" fill="#fedc00"/>
      <path id="Unión_3-2" data-name="Unión 3" d="M11.606,10.714,6.84,5.943H1.513a1.508,1.508,0,0,1-.589-.119,1.511,1.511,0,0,1-.8-.8A1.514,1.514,0,0,1,.444,3.361a1.528,1.528,0,0,1,.482-.324,1.508,1.508,0,0,1,.589-.119H6.84L10.7,0l1.76.58L13.017,2.1,11.6,4.386l4.246,4.272a1.194,1.194,0,0,1,.337.642,1.229,1.229,0,0,1-.5,1.2,1.188,1.188,0,0,1-.692.214Z" transform="translate(94.272 91.12)" fill="#fedc00" stroke="rgba(0,0,0,0)" stroke-miterlimit="10" stroke-width="1"/>
      <path id="Trazado_7979-2" data-name="Trazado 7979" d="M272.458,546.8l-3.1-1.02a.226.226,0,0,1-.009-.427l3.493-1.326,3.62-1.375a.226.226,0,0,1,.292.292l-1.375,3.62-1.326,3.493a.226.226,0,0,1-.427-.01l-1.02-3.1A.227.227,0,0,0,272.458,546.8Z" transform="translate(-165.168 -455.735)" fill="#fedc00"/>
    </g>
    <g id="Iconly_Bold_Home" data-name="Iconly/Bold/Home" transform="matrix(0.562, -0.312, -0.045, 0.913, 155.467, 342.883)">
      <g id="Home" transform="translate(2.5 2)">
        <path id="Home-2" data-name="Home" d="M5.625,15.915V13.323a1.2,1.2,0,0,1,1.207-1.2H9.268a1.211,1.211,0,0,1,.853.351,1.194,1.194,0,0,1,.353.847v2.592a1.028,1.028,0,0,0,.3.735,1.044,1.044,0,0,0,.738.305h1.662a2.933,2.933,0,0,0,2.071-.847,2.891,2.891,0,0,0,.859-2.054V6.669a2.1,2.1,0,0,0-.759-1.613L9.693.573a2.626,2.626,0,0,0-3.347.06L.82,5.057A2.1,2.1,0,0,0,0,6.669v7.377a2.919,2.919,0,0,0,2.93,2.909H4.554A1.044,1.044,0,0,0,5.6,15.923Z" fill="#fedc00"/>
      </g>
    </g>
  </g>
</svg>
