<svg id="Capa_1" enable-background="new 0 0 512 512" height="512" viewBox="0 0 512 512" width="512" xmlns="http://www.w3.org/2000/svg"><g><path d="m156.009 427.225v84.775l99.991-42.387v-84.775z" fill="#3ba9ff"/><path d="m256 384.838v84.775l99.991 42.387v-84.775z" fill="#0081ff"/><g><g><path d="m304.908 266.126 142.275 57.858 48.491-55.439-190.766-133.74v-85.896c0-27.012-21.897-48.909-48.908-48.909-27.012 0-48.909 21.897-48.909 48.909v85.896l-27.817 19.502v123.131l27.817-11.312v139.445l48.909 64.042 48.909-64.042v-.173-139.272z" fill="#d0e8ff"/></g><g><path d="m304.908 266.125 142.275 57.858 48.491-55.439-190.766-133.74v-85.895c0-27.012-21.897-48.909-48.908-48.909v469.613l48.908-64.042v-.173z" fill="#9dcfff"/></g><path d="m16.326 268.545 48.491 55.439 142.274-57.859v-131.32z" fill="#3ba9ff"/><path d="m495.674 268.545-48.491 55.439-142.274-57.859v-131.32z" fill="#0081ff"/></g></g></svg>