<svg id="Capa_1" enable-background="new 0 0 512 512" height="512" viewBox="0 0 512 512" width="512" xmlns="http://www.w3.org/2000/svg"><g><path d="m370.733 69.857h-26.807v30h26.807c11.926 0 21.629 9.703 21.629 21.629s-9.703 21.629-21.629 21.629h-15.289v30h15.289c28.469 0 51.629-23.161 51.629-51.629s-23.16-51.629-51.629-51.629z" fill="#474f55"/><g><g><path d="m104.638 442.143c-57.698 0-104.638-46.94-104.638-104.638s46.94-104.637 104.638-104.637 104.637 46.94 104.637 104.637-46.94 104.638-104.637 104.638zm0-179.275c-41.156 0-74.638 33.482-74.638 74.637s33.482 74.637 74.638 74.637 74.637-33.482 74.637-74.637-33.482-74.637-74.637-74.637z" fill="#474f55"/></g><g><path d="m407.362 442.143c-57.697 0-104.637-46.94-104.637-104.637s46.939-104.637 104.637-104.637 104.638 46.939 104.638 104.636-46.94 104.638-104.638 104.638zm0-179.275c-41.155 0-74.637 33.482-74.637 74.637s33.481 74.637 74.637 74.637 74.638-33.481 74.638-74.637-33.482-74.637-74.638-74.637z" fill="#32393f"/></g></g><path d="m358.927 200.691v-57.575h-30v45.959h-145.854v-56.096h-30v67.712l-61.982 130.374 27.094 12.881 59.366-124.871h156.898l59.366 124.871 27.094-12.881z" fill="#3ba9ff"/><g><path d="m358.927 200.691v-57.575h-30v45.959h-72.927v30h78.449l59.366 124.871 27.094-12.881z" fill="#0081ff"/></g><g><path d="m118.428 117.979h114.46v30h-114.46z" fill="#474f55"/></g></g></svg>