<svg id="Capa_1" enable-background="new 0 0 509.275 509.275" height="512" viewBox="0 0 509.275 509.275" width="512" xmlns="http://www.w3.org/2000/svg"><g><path d="m89.637 79.275h30v-35c0-24.413-19.861-44.275-44.274-44.275h-45.726v30h45.725c7.871 0 14.275 6.404 14.275 14.275z" fill="#e1ebf0"/><path d="m479.637 349.275v115h-30v-85h-165v-30z" fill="#b4d2d7"/><path d="m284.637 349.275v30h-95v85h-30v-85h-12.01c-31.97 0-57.99-26.02-57.99-57.99v-17.01h30v17.01c0 15.43 12.56 27.99 27.99 27.99z" fill="#e1ebf0"/><path d="m479.637 131.745v182.74l-95-1.32-14.997-13-15.003 12.583-55-.763-15-100.817 15-111.923 55 9.929 15 9.013 15-3.596z" fill="#ff9f22"/><path d="m269.637 93.825 15 123.659-15 94.291-180-2.71v-247.74l90 16.251 15 9.49 15-4.073z" fill="#ffda44"/><circle cx="429.637" cy="459.275" fill="#e1ebf0" r="35"/><path d="m429.637 509.275c-27.57 0-50-22.43-50-50s22.43-50 50-50 50 22.43 50 50-22.429 50-50 50zm0-70c-11.028 0-20 8.972-20 20s8.972 20 20 20 20-8.972 20-20-8.972-20-20-20z" fill="#04303e"/><circle cx="139.637" cy="459.275" fill="#fff5f5" r="35"/><path d="m139.637 509.275c-27.57 0-50-22.43-50-50s22.43-50 50-50 50 22.43 50 50-22.429 50-50 50zm0-70c-11.028 0-20 8.972-20 20s8.972 20 20 20 20-8.972 20-20-8.972-20-20-20z" fill="#07485e"/><path d="m299.637 99.245v212.74l-15-.21v-215.24z" fill="#fd5"/><path d="m284.637 96.535v215.24l-15-.21v-217.74z" fill="#fff68e"/><path d="m354.637 312.749 30 .416v-198.577l-30-5.417z" fill="#fd5"/><path d="m179.637 310.318 30 .417v-227.744l-30-5.417z" fill="#fff68e"/></g></svg>