<svg id="Grupo_3116" data-name="Grupo 3116" xmlns="http://www.w3.org/2000/svg" width="151.284" height="151.284" viewBox="0 0 151.284 151.284">
  <path id="Trazado_7538" data-name="Trazado 7538" d="M20.681,20.867c28.669-28.669,38.935-26.963,65.9,0s27.426,38.472,0,65.9-39.439,26.459-65.9,0S-7.988,49.536,20.681,20.867Z" transform="translate(75.641 0) rotate(45)" fill="#ffda1a"/>
  <g id="Grupo_3112" data-name="Grupo 3112" transform="translate(-750.8 -200.303)">
    <g id="Grupo_3111" data-name="Grupo 3111" transform="translate(801 251.634)">
      <path id="Rectángulo_2320" data-name="Rectángulo 2320" d="M9.5,0H21.77a0,0,0,0,1,0,0V0a9.5,9.5,0,0,1-9.5,9.5H0a0,0,0,0,1,0,0v0A9.5,9.5,0,0,1,9.5,0Z" transform="translate(0 7.425)"/>
      <path id="Rectángulo_2321" data-name="Rectángulo 2321" d="M9.5,0H21.77a0,0,0,0,1,0,0V0a9.5,9.5,0,0,1-9.5,9.5H0a0,0,0,0,1,0,0v0A9.5,9.5,0,0,1,9.5,0Z" transform="translate(0 37.391)"/>
      <path id="Rectángulo_2322" data-name="Rectángulo 2322" d="M4.751,0H21.77a0,0,0,0,1,0,0V9.5a0,0,0,0,1,0,0H4.746A4.746,4.746,0,0,1,0,4.751v0A4.751,4.751,0,0,1,4.751,0Z" transform="translate(0 22.408)"/>
      <path id="Trazado_7980" data-name="Trazado 7980" d="M264.864,604.173,249.9,589.19v-9.5l12.116-9.162,5.527,1.82,1.753,4.786-4.448,7.167,13.333,13.414a3.786,3.786,0,0,1-2.685,6.455Z" transform="translate(-228.422 -557.284)"/>
      <path id="Trazado_7981" data-name="Trazado 7981" d="M279.432,555.709l-9.744-3.2a.711.711,0,0,1-.03-1.341L280.626,547l11.368-4.317a.711.711,0,0,1,.917.917l-4.316,11.367-4.165,10.969a.711.711,0,0,1-1.34-.03l-3.2-9.744A.711.711,0,0,0,279.432,555.709Z" transform="translate(-238.559 -542.636)"/>
    </g>
  </g>
</svg>
