<svg xmlns="http://www.w3.org/2000/svg" width="255.393" height="47.909" viewBox="0 0 255.393 47.909">
  <g id="Grupo_3113" data-name="Grupo 3113" transform="translate(-19 3636)">
    <g id="Grupo_3109" data-name="Grupo 3109" transform="translate(19 -3636)">
      <path id="Trazado_7948" data-name="Trazado 7948" d="M428.073,574.568" transform="translate(-349.651 -558.606)" fill="#4a70ff"/>
      <path id="Trazado_7949" data-name="Trazado 7949" d="M943.713,534.7l-9.341,1.113a4.954,4.954,0,0,0-4.665,4.624h8.6c2.984,0,5.4-2.09,5.4-4.668Z" transform="translate(-692.542 -531.356)" fill="#fd0"/>
      <g id="Grupo_3108" data-name="Grupo 3108" transform="translate(59.702 1.501)">
        <g id="Grupo_3106" data-name="Grupo 3106">
          <g id="Grupo_3099" data-name="Grupo 3099" transform="translate(0 10.407)">
            <path id="Trazado_7950" data-name="Trazado 7950" d="M393.27,575.615H375.7a5.469,5.469,0,0,0,2.245,3.411,7.435,7.435,0,0,0,4.4,1.252,8.917,8.917,0,0,0,3.217-.54,7.8,7.8,0,0,0,2.613-1.706l3.584,3.886q-3.282,3.757-9.586,3.757a15.162,15.162,0,0,1-6.952-1.533,11.235,11.235,0,0,1-4.664-4.253,11.712,11.712,0,0,1-1.641-6.175,11.874,11.874,0,0,1,1.619-6.153,11.345,11.345,0,0,1,4.447-4.275,13.77,13.77,0,0,1,12.5-.065,10.722,10.722,0,0,1,4.339,4.21A12.555,12.555,0,0,1,393.4,573.8Q393.4,573.931,393.27,575.615Zm-15.761-7.47a5.516,5.516,0,0,0-1.9,3.541h11.443a5.573,5.573,0,0,0-1.9-3.519,5.682,5.682,0,0,0-3.8-1.317A5.8,5.8,0,0,0,377.51,568.145Z" transform="translate(-368.917 -561.754)" fill="#000"/>
          </g>
          <g id="Grupo_3100" data-name="Grupo 3100" transform="translate(29.448 3.757)">
            <path id="Trazado_7951" data-name="Trazado 7951" d="M472.986,559.092l-4.059,4.232v7.643h-6.952V540.741h6.952v14.12l13.386-14.12h7.773l-12.523,13.472,13.256,16.754h-8.161Z" transform="translate(-461.975 -540.741)" fill="#000"/>
          </g>
          <g id="Grupo_3101" data-name="Grupo 3101" transform="translate(58.897 10.407)">
            <path id="Trazado_7952" data-name="Trazado 7952" d="M574.207,564.323q2.892,2.569,2.893,7.751v13.256h-6.3v-2.893q-1.9,3.239-7.082,3.239a10.991,10.991,0,0,1-4.642-.907,6.919,6.919,0,0,1-3-2.5,6.516,6.516,0,0,1-1.036-3.627,6.052,6.052,0,0,1,2.44-5.1q2.439-1.857,7.535-1.857h5.354a4.3,4.3,0,0,0-1.339-3.39,5.9,5.9,0,0,0-4.016-1.187,11.725,11.725,0,0,0-3.649.583,9.657,9.657,0,0,0-3.044,1.576l-2.418-4.707a14.605,14.605,0,0,1,4.555-2.072,20.411,20.411,0,0,1,5.462-.734Q571.314,561.754,574.207,564.323Zm-5.743,16.02a4.376,4.376,0,0,0,1.9-2.353v-2.375h-4.62q-4.146,0-4.146,2.72a2.422,2.422,0,0,0,1.015,2.051,4.57,4.57,0,0,0,2.785.756A5.868,5.868,0,0,0,568.464,580.343Z" transform="translate(-555.035 -561.754)" fill="#000"/>
          </g>
          <g id="Grupo_3102" data-name="Grupo 3102" transform="translate(87.05 10.407)">
            <path id="Trazado_7953" data-name="Trazado 7953" d="M680.681,564.323q2.568,2.569,2.569,7.708v13.3h-6.736V573.068a6.3,6.3,0,0,0-1.144-4.124,4.025,4.025,0,0,0-3.26-1.36,4.806,4.806,0,0,0-3.757,1.533,6.607,6.607,0,0,0-1.382,4.556v11.659h-6.736V573.068q0-5.484-4.4-5.484a4.754,4.754,0,0,0-3.714,1.533,6.606,6.606,0,0,0-1.382,4.556v11.659H644V562.1h6.434v2.677a8.507,8.507,0,0,1,3.174-2.246,10.683,10.683,0,0,1,4.124-.777,9.99,9.99,0,0,1,4.447.971,7.885,7.885,0,0,1,3.2,2.828,9.531,9.531,0,0,1,3.605-2.807,11.377,11.377,0,0,1,4.772-.993A9.367,9.367,0,0,1,680.681,564.323Z" transform="translate(-643.999 -561.754)" fill="#000"/>
          </g>
          <g id="Grupo_3103" data-name="Grupo 3103" transform="translate(132.346 1.943)">
            <path id="Trazado_7954" data-name="Trazado 7954" d="M806.761,544.963a10.7,10.7,0,0,1,4.167,4.189,13.814,13.814,0,0,1,0,12.565,10.694,10.694,0,0,1-4.167,4.188,11.838,11.838,0,0,1-5.894,1.49q-4.793,0-7.3-3.022v2.677h-6.434V535.01h6.736v11.27a8.972,8.972,0,0,1,7-2.807A11.844,11.844,0,0,1,806.761,544.963Zm-2.807,15.156a7.432,7.432,0,0,0,0-9.37,6.047,6.047,0,0,0-8.507,0,7.433,7.433,0,0,0,0,9.37,6.046,6.046,0,0,0,8.507,0Z" transform="translate(-787.136 -535.01)" fill="#000"/>
          </g>
          <g id="Grupo_3104" data-name="Grupo 3104" transform="translate(161.319)">
            <path id="Trazado_7955" data-name="Trazado 7955" d="M879.858,535.3a3.656,3.656,0,0,1,0-5.354,4.273,4.273,0,0,1,3.023-1.08,4.38,4.38,0,0,1,3.022,1.036,3.323,3.323,0,0,1,1.166,2.591,3.666,3.666,0,0,1-1.166,2.785,4.223,4.223,0,0,1-3.022,1.1A4.27,4.27,0,0,1,879.858,535.3Zm-.346,4.318h6.736v23.231h-6.736Z" transform="translate(-878.692 -528.869)" fill="#000"/>
          </g>
          <g id="Grupo_3105" data-name="Grupo 3105" transform="translate(173.626 10.407)">
            <path id="Trazado_7956" data-name="Trazado 7956" d="M936.753,564.323q2.893,2.569,2.893,7.751v13.256h-6.3v-2.893q-1.9,3.239-7.082,3.239a10.991,10.991,0,0,1-4.642-.907,6.92,6.92,0,0,1-3-2.5,6.518,6.518,0,0,1-1.036-3.627,6.052,6.052,0,0,1,2.439-5.1q2.439-1.857,7.535-1.857h5.354a4.3,4.3,0,0,0-1.338-3.39,5.9,5.9,0,0,0-4.016-1.187,11.721,11.721,0,0,0-3.648.583,9.659,9.659,0,0,0-3.044,1.576l-2.418-4.707A14.61,14.61,0,0,1,923,562.488a20.412,20.412,0,0,1,5.463-.734Q933.86,561.754,936.753,564.323Zm-5.743,16.02a4.371,4.371,0,0,0,1.9-2.353v-2.375h-4.62q-4.146,0-4.146,2.72a2.422,2.422,0,0,0,1.015,2.051,4.569,4.569,0,0,0,2.785.756A5.865,5.865,0,0,0,931.01,580.343Z" transform="translate(-917.581 -561.754)" fill="#000"/>
          </g>
        </g>
        <g id="Grupo_3107" data-name="Grupo 3107" transform="translate(0.143 38.601)">
          <path id="Trazado_7957" data-name="Trazado 7957" d="M370.512,655.088a2.161,2.161,0,0,1-.839-.81,2.372,2.372,0,0,1,0-2.323,2.156,2.156,0,0,1,.842-.81,2.463,2.463,0,0,1,1.2-.294,2.515,2.515,0,0,1,.949.174,1.954,1.954,0,0,1,.734.516l-.411.4a1.652,1.652,0,0,0-1.247-.525,1.81,1.81,0,0,0-.893.221,1.606,1.606,0,0,0-.623.611,1.8,1.8,0,0,0,0,1.74,1.605,1.605,0,0,0,.623.61,1.807,1.807,0,0,0,.893.222,1.656,1.656,0,0,0,1.247-.532l.411.4a1.974,1.974,0,0,1-.737.519,2.489,2.489,0,0,1-.953.178A2.445,2.445,0,0,1,370.512,655.088Z" transform="translate(-369.37 -650.851)" fill="#000"/>
          <path id="Trazado_7958" data-name="Trazado 7958" d="M399.6,654.334h-2.354l-.487,1.108h-.652l2.006-4.43h.626l2.013,4.43h-.665Zm-.221-.507-.956-2.171-.955,2.171Z" transform="translate(-387.648 -650.96)" fill="#000"/>
          <path id="Trazado_7959" data-name="Trazado 7959" d="M425.921,655.228a1.979,1.979,0,0,1-.731-.4l.234-.493a1.945,1.945,0,0,0,.649.37,2.389,2.389,0,0,0,.813.142,1.467,1.467,0,0,0,.823-.187.576.576,0,0,0,.272-.5.489.489,0,0,0-.148-.37,1,1,0,0,0-.367-.219q-.218-.076-.617-.171a6.329,6.329,0,0,1-.807-.241,1.331,1.331,0,0,1-.525-.37.987.987,0,0,1-.218-.674,1.14,1.14,0,0,1,.187-.64,1.281,1.281,0,0,1,.566-.455,2.291,2.291,0,0,1,.943-.171,2.973,2.973,0,0,1,.772.1,2.042,2.042,0,0,1,.652.291l-.209.506a2.294,2.294,0,0,0-.595-.269,2.211,2.211,0,0,0-.621-.092,1.368,1.368,0,0,0-.807.2.6.6,0,0,0-.269.506.484.484,0,0,0,.152.37,1.058,1.058,0,0,0,.377.222,5.854,5.854,0,0,0,.61.168,6.163,6.163,0,0,1,.8.24,1.348,1.348,0,0,1,.522.367.966.966,0,0,1,.218.664,1.13,1.13,0,0,1-.19.636,1.273,1.273,0,0,1-.576.456,2.383,2.383,0,0,1-.949.168A3.03,3.03,0,0,1,425.921,655.228Z" transform="translate(-407.526 -650.851)" fill="#000"/>
          <path id="Trazado_7960" data-name="Trazado 7960" d="M453.863,654.334h-2.354l-.487,1.108h-.652l2.006-4.43H453l2.013,4.43h-.665Zm-.221-.507-.956-2.171-.956,2.171Z" transform="translate(-424.737 -650.96)" fill="#000"/>
          <path id="Trazado_7961" data-name="Trazado 7961" d="M499.708,651.011h1.867a2.7,2.7,0,0,1,1.247.279,2.049,2.049,0,0,1,.845.781,2.371,2.371,0,0,1,0,2.31,2.045,2.045,0,0,1-.845.782,2.7,2.7,0,0,1-1.247.279h-1.867Zm1.829,3.88a2.046,2.046,0,0,0,.946-.209,1.508,1.508,0,0,0,.63-.585,1.822,1.822,0,0,0,0-1.74,1.514,1.514,0,0,0-.63-.586,2.055,2.055,0,0,0-.946-.209h-1.2v3.329Z" transform="translate(-458.462 -650.96)" fill="#000"/>
          <path id="Trazado_7962" data-name="Trazado 7962" d="M533.044,654.891v.551h-3.215v-4.43h3.127v.551h-2.494v1.361h2.221v.538h-2.221v1.43Z" transform="translate(-479.051 -650.96)" fill="#000"/>
          <path id="Trazado_7963" data-name="Trazado 7963" d="M575.811,655.088a2.163,2.163,0,0,1-.839-.81,2.372,2.372,0,0,1,0-2.323,2.158,2.158,0,0,1,.842-.81,2.462,2.462,0,0,1,1.2-.294,2.513,2.513,0,0,1,.949.174,1.954,1.954,0,0,1,.734.516l-.411.4a1.652,1.652,0,0,0-1.247-.525,1.809,1.809,0,0,0-.892.221,1.609,1.609,0,0,0-.623.611,1.8,1.8,0,0,0,0,1.74,1.608,1.608,0,0,0,.623.61,1.806,1.806,0,0,0,.892.222,1.656,1.656,0,0,0,1.247-.532l.411.4a1.974,1.974,0,0,1-.737.519,2.489,2.489,0,0,1-.953.178A2.444,2.444,0,0,1,575.811,655.088Z" transform="translate(-509.701 -650.851)" fill="#000"/>
          <path id="Trazado_7964" data-name="Trazado 7964" d="M604.9,654.334h-2.354l-.487,1.108h-.652l2.006-4.43h.627l2.012,4.43h-.664Zm-.221-.507-.955-2.171-.956,2.171Z" transform="translate(-527.979 -650.96)" fill="#000"/>
          <path id="Trazado_7965" data-name="Trazado 7965" d="M635.876,655.441l-.006-3.228-1.6,2.69h-.291l-1.6-2.671v3.209h-.607v-4.43h.519l1.848,3.114,1.823-3.114h.519l.006,4.43Z" transform="translate(-548.732 -650.96)" fill="#000"/>
          <path id="Trazado_7966" data-name="Trazado 7966" d="M668.058,653.533a1.118,1.118,0,0,1,.221.712,1.023,1.023,0,0,1-.433.886,2.157,2.157,0,0,1-1.263.31h-2.114v-4.43h1.987a1.957,1.957,0,0,1,1.174.3.985.985,0,0,1,.415.842,1.089,1.089,0,0,1-.162.6,1.055,1.055,0,0,1-.433.386A1.139,1.139,0,0,1,668.058,653.533Zm-2.956-2.009v1.417h1.3a1.316,1.316,0,0,0,.75-.18.663.663,0,0,0,0-1.057,1.318,1.318,0,0,0-.75-.18Zm2.266,3.228a.617.617,0,0,0,.272-.557q0-.74-1.082-.74H665.1v1.475h1.455A1.5,1.5,0,0,0,667.368,654.751Z" transform="translate(-571.084 -650.96)" fill="#000"/>
          <path id="Trazado_7967" data-name="Trazado 7967" d="M693.207,651.011h.633v4.43h-.633Z" transform="translate(-590.728 -650.96)" fill="#000"/>
          <path id="Trazado_7968" data-name="Trazado 7968" d="M713.019,655.088a2.174,2.174,0,0,1-.845-.813,2.337,2.337,0,0,1,0-2.316,2.177,2.177,0,0,1,.845-.814,2.619,2.619,0,0,1,2.411,0,2.154,2.154,0,0,1,.842.81,2.37,2.37,0,0,1,0,2.323,2.152,2.152,0,0,1-.842.81,2.614,2.614,0,0,1-2.411,0Zm2.085-.49a1.624,1.624,0,0,0,.614-.61,1.8,1.8,0,0,0,0-1.74,1.624,1.624,0,0,0-.614-.611,1.744,1.744,0,0,0-.877-.221,1.779,1.779,0,0,0-.883.221,1.614,1.614,0,0,0-.62.611,1.8,1.8,0,0,0,0,1.74,1.613,1.613,0,0,0,.62.61,1.776,1.776,0,0,0,.883.222A1.741,1.741,0,0,0,715.1,654.6Z" transform="translate(-603.483 -650.851)" fill="#000"/>
          <path id="Trazado_7969" data-name="Trazado 7969" d="M764.678,653.091h.608v1.728a2.365,2.365,0,0,1-.766.418,2.87,2.87,0,0,1-.912.146,2.478,2.478,0,0,1-1.209-.295,2.181,2.181,0,0,1-.845-.81,2.36,2.36,0,0,1,0-2.326,2.146,2.146,0,0,1,.848-.81,2.525,2.525,0,0,1,1.218-.291,2.57,2.57,0,0,1,.965.174,1.969,1.969,0,0,1,.737.51l-.392.392a1.783,1.783,0,0,0-1.285-.513,1.873,1.873,0,0,0-.909.218,1.6,1.6,0,0,0-.63.608,1.791,1.791,0,0,0,0,1.747,1.625,1.625,0,0,0,.63.61,1.838,1.838,0,0,0,.9.222,1.876,1.876,0,0,0,1.038-.285Z" transform="translate(-637.238 -650.851)" fill="#000"/>
          <path id="Trazado_7970" data-name="Trazado 7970" d="M791.428,651.011h.633v3.88h2.4v.551h-3.032Z" transform="translate(-657.867 -650.96)" fill="#000"/>
          <path id="Trazado_7971" data-name="Trazado 7971" d="M816.659,655.088a2.176,2.176,0,0,1-.845-.813,2.341,2.341,0,0,1,0-2.316,2.178,2.178,0,0,1,.845-.814,2.621,2.621,0,0,1,2.412,0,2.165,2.165,0,0,1,.842.81,2.374,2.374,0,0,1,0,2.323,2.163,2.163,0,0,1-.842.81,2.616,2.616,0,0,1-2.412,0Zm2.086-.49a1.631,1.631,0,0,0,.614-.61,1.8,1.8,0,0,0,0-1.74,1.632,1.632,0,0,0-.614-.611,1.743,1.743,0,0,0-.877-.221,1.776,1.776,0,0,0-.883.221,1.614,1.614,0,0,0-.621.611,1.8,1.8,0,0,0,0,1.74,1.613,1.613,0,0,0,.621.61,1.773,1.773,0,0,0,.883.222A1.74,1.74,0,0,0,818.745,654.6Z" transform="translate(-674.327 -650.851)" fill="#000"/>
          <path id="Trazado_7972" data-name="Trazado 7972" d="M850.636,653.533a1.12,1.12,0,0,1,.221.712,1.023,1.023,0,0,1-.434.886,2.153,2.153,0,0,1-1.262.31h-2.115v-4.43h1.988a1.956,1.956,0,0,1,1.174.3.985.985,0,0,1,.415.842,1.094,1.094,0,0,1-.161.6,1.052,1.052,0,0,1-.434.386A1.141,1.141,0,0,1,850.636,653.533Zm-2.956-2.009v1.417h1.3a1.315,1.315,0,0,0,.75-.18.663.663,0,0,0,0-1.057,1.317,1.317,0,0,0-.75-.18Zm2.266,3.228a.616.616,0,0,0,.273-.557q0-.74-1.082-.74H847.68v1.475h1.456A1.494,1.494,0,0,0,849.946,654.751Z" transform="translate(-695.885 -650.96)" fill="#000"/>
          <path id="Trazado_7973" data-name="Trazado 7973" d="M877.161,654.334h-2.354l-.488,1.108h-.652l2.006-4.43h.626l2.013,4.43h-.665Zm-.221-.507-.956-2.171-.955,2.171Z" transform="translate(-714.082 -650.96)" fill="#000"/>
          <path id="Trazado_7974" data-name="Trazado 7974" d="M904.027,651.011h.633v3.88h2.4v.551h-3.032Z" transform="translate(-734.834 -650.96)" fill="#000"/>
          <path id="Trazado_7975" data-name="Trazado 7975" d="M947.938,655.228a1.98,1.98,0,0,1-.731-.4l.234-.493a1.945,1.945,0,0,0,.649.37,2.388,2.388,0,0,0,.813.142,1.468,1.468,0,0,0,.823-.187.577.577,0,0,0,.272-.5.488.488,0,0,0-.149-.37.992.992,0,0,0-.367-.219q-.218-.076-.617-.171a6.352,6.352,0,0,1-.807-.241,1.334,1.334,0,0,1-.525-.37.989.989,0,0,1-.218-.674,1.143,1.143,0,0,1,.187-.64,1.283,1.283,0,0,1,.567-.455,2.291,2.291,0,0,1,.942-.171,2.976,2.976,0,0,1,.773.1,2.04,2.04,0,0,1,.651.291l-.208.506a2.3,2.3,0,0,0-.6-.269,2.21,2.21,0,0,0-.621-.092,1.367,1.367,0,0,0-.807.2.6.6,0,0,0-.269.506.485.485,0,0,0,.151.37,1.056,1.056,0,0,0,.377.222,5.832,5.832,0,0,0,.61.168,6.161,6.161,0,0,1,.8.24,1.346,1.346,0,0,1,.522.367.964.964,0,0,1,.218.664,1.13,1.13,0,0,1-.19.636,1.27,1.27,0,0,1-.576.456,2.38,2.38,0,0,1-.949.168A3.027,3.027,0,0,1,947.938,655.228Z" transform="translate(-764.35 -650.851)" fill="#000"/>
          <path id="Trazado_7976" data-name="Trazado 7976" d="M975.88,654.334h-2.354l-.487,1.108h-.652l2.006-4.43h.627l2.012,4.43h-.664Zm-.221-.507-.956-2.171-.956,2.171Z" transform="translate(-781.561 -650.96)" fill="#000"/>
        </g>
      </g>
      <path id="Rectángulo_2317" data-name="Rectángulo 2317" d="M6.329,0h8.179a0,0,0,0,1,0,0V0A6.329,6.329,0,0,1,8.179,6.329H0a0,0,0,0,1,0,0v0A6.329,6.329,0,0,1,6.329,0Z" transform="translate(7.728 10.806)"/>
      <path id="Rectángulo_2318" data-name="Rectángulo 2318" d="M6.329,0h8.179a0,0,0,0,1,0,0V0A6.329,6.329,0,0,1,8.179,6.329H0a0,0,0,0,1,0,0v0A6.329,6.329,0,0,1,6.329,0Z" transform="translate(7.728 30.774)"/>
      <path id="Rectángulo_2319" data-name="Rectángulo 2319" d="M3.166,0H14.508a0,0,0,0,1,0,0V6.329a0,0,0,0,1,0,0H3.163A3.163,3.163,0,0,1,0,3.166v0A3.166,3.166,0,0,1,3.166,0Z" transform="translate(7.728 20.79)"/>
      <path id="Trazado_7977" data-name="Trazado 7977" d="M259.871,592.95l-9.975-9.984v-6.329l8.074-6.105,3.684,1.213,1.168,3.189-2.964,4.776,8.885,8.939a2.523,2.523,0,0,1-1.789,4.3Z" transform="translate(-227.858 -555.846)"/>
      <path id="Trazado_7978" data-name="Trazado 7978" d="M213.626,524.126H194.8a14.539,14.539,0,0,0-14.539,14.539V557.5A14.539,14.539,0,0,0,194.8,572.035h18.831A14.539,14.539,0,0,0,228.165,557.5V538.665A14.539,14.539,0,0,0,213.626,524.126Zm1.356,11.19,4.336-.384c2.258,0,1.472.8-.134,2.387l-2.794,4.3L215.524,539a.517.517,0,0,0-.3-.3l-3.311-1.087Zm-27,2.781a3.165,3.165,0,0,1,3.165-3.165h11.343V538.1a3.165,3.165,0,0,1-3.165,3.165H187.984Zm14.508,19.968a3.165,3.165,0,0,1-3.165,3.165H187.984v-3.164a3.165,3.165,0,0,1,3.165-3.165h11.343Zm16.9,3.165h-7.128l-9.975-9.985H191.142a3.158,3.158,0,0,1-3.158-3.158v-.014a3.158,3.158,0,0,1,3.158-3.158h10.972l8.19-6.11,3.747,1.218,1.209,3.337-3.005,4.628,8.927,8.927A2.526,2.526,0,0,1,219.4,561.23Z" transform="translate(-180.256 -524.126)" fill="#fd0"/>
      <path id="Trazado_7979" data-name="Trazado 7979" d="M276.018,551.348l-6.494-2.135a.474.474,0,0,1-.02-.893l7.309-2.775,7.575-2.877a.474.474,0,0,1,.611.611l-2.876,7.575-2.776,7.309a.474.474,0,0,1-.893-.02l-2.135-6.494A.474.474,0,0,0,276.018,551.348Z" transform="translate(-241.053 -536.778)"/>
    </g>
  </g>
</svg>
