<svg id="Capa_1" enable-background="new 0 0 512 512" height="512" viewBox="0 0 512 512" width="512" xmlns="http://www.w3.org/2000/svg"><g><g><g><path d="m256 272.494-208.31 76.609 27.328 120.597 361.964-.001 27.328-120.595z" fill="#ff193d"/></g><g><path d="m256 272.494v197.206l180.982-.001 27.328-120.595z" fill="#bd003b"/></g><path d="m412.97 86.575h-313.94l-34.761 171.445h383.462z" fill="#d0e8ff"/><path d="m412.97 86.575h-156.97v171.445h191.731z" fill="#9dcfff"/></g><g><path d="m482 436.635c0 13.877-11.29 25.167-25.167 25.167s-25.166-11.29-25.166-25.167h-30c0 13.877-11.29 25.167-25.167 25.167s-25.167-11.29-25.167-25.167h-30c0 13.877-11.289 25.167-25.166 25.167s-25.167-11.29-25.167-25.167h-30c0 13.877-11.29 25.167-25.167 25.167s-25.166-11.29-25.166-25.167h-30c0 13.877-11.29 25.167-25.167 25.167s-25.167-11.29-25.167-25.167h-30c0 13.877-11.289 25.167-25.166 25.167s-25.167-11.29-25.167-25.167h-30c0 30.419 24.748 55.167 55.167 55.167 15.821 0 30.098-6.705 40.166-17.41 10.069 10.705 24.346 17.41 40.167 17.41s30.098-6.705 40.167-17.41c10.069 10.705 24.345 17.41 40.166 17.41s30.098-6.705 40.167-17.41c10.069 10.705 24.346 17.41 40.167 17.41s30.098-6.705 40.166-17.41c10.069 10.705 24.346 17.41 40.167 17.41s30.098-6.705 40.167-17.41c10.069 10.705 24.345 17.41 40.166 17.41 30.419 0 55.167-24.748 55.167-55.167z" fill="#3ba9ff"/><path d="m482 436.635c0 13.877-11.29 25.167-25.167 25.167s-25.166-11.29-25.166-25.167h-30c0 13.877-11.29 25.167-25.167 25.167s-25.167-11.29-25.167-25.167h-30c0 13.877-11.289 25.167-25.166 25.167s-25.167-11.29-25.167-25.167h-15v37.757c10.069 10.705 24.346 17.41 40.167 17.41s30.098-6.705 40.166-17.41c10.069 10.705 24.346 17.41 40.167 17.41s30.098-6.705 40.167-17.41c10.069 10.705 24.345 17.41 40.166 17.41 30.419 0 55.167-24.748 55.167-55.167z" fill="#0081ff"/></g><g><path d="m256 195.884-226.405 73.374 18.095 79.845 208.31-67.508 208.31 67.509 18.095-79.846z" fill="#ff9000"/></g><g><path d="m256 195.884v85.711l208.31 67.509 18.095-79.846z" fill="#ff641a"/></g><path d="m71.573 20.198h368.854v75.499h-368.854z" fill="#ff641a"/><path d="m256 20.198h184.427v75.499h-184.427z" fill="#ff193d"/></g></svg>