<svg id="Capa_1" enable-background="new 0 0 512 512" height="512" viewBox="0 0 512 512" width="512" xmlns="http://www.w3.org/2000/svg"><g><g><g><path d="m240.615 329.44h30v83.78h-30z" fill="#676e74"/></g><g><path d="m256.008 329.44h14.608v83.78h-14.608z" fill="#474f55"/></g><g><path d="m201.86 416.464-11.352-87.024 29.289-6.488 11.352 87.024z" fill="#676e74"/></g><g><path d="m310.14 416.464 11.352-87.024-29.289-6.488-11.352 87.024z" fill="#474f55"/></g><g><path d="m300.153 512h-88.523l-30.117-30.525v-68.255h148.757v68.255z" fill="#fcbe00"/></g><g><path d="m300.153 512h-44.153v-98.78h74.27v68.255z" fill="#ff9000"/></g><path d="m410.039 154.039c0-84.362-67.816-152.884-151.907-154.025-85.298-1.157-155.857 68.141-156.17 153.447-.146 39.903 14.883 76.29 39.644 103.727 22.379 24.799 39.274 54.04 50.227 85.597l.574 1.654h127.187l.571-1.646c11.134-32.081 28.839-61.378 51.321-86.827 23.992-27.157 38.553-62.84 38.553-101.927z" fill="#ff9000"/><path d="m258.132.014c-.71-.01-1.416-.002-2.124-.002l16.789 28.892c32.479 55.894 42.191 122.148 27.118 185.013-12.263 51.148-18.493 75.22-18.493 128.616v1.905h38.172l.571-1.646c11.134-32.081 28.839-61.378 51.321-86.827 23.992-27.158 38.553-62.84 38.553-101.927 0-84.361-67.816-152.883-151.907-154.024z" fill="#bd003b"/><path d="m299.915 213.918c15.073-62.864 5.361-129.118-27.118-185.013l-16.789-28.892c-.005 0-.01 0-.015 0l-16.789 28.892c-32.479 55.894-42.191 122.148-27.118 185.013 12.263 51.148 18.493 75.22 18.493 128.616v1.905h50.842v-1.905c0-53.396 6.23-77.468 18.494-128.616z" fill="#ff641a"/><g><g><g><path d="m168.325 398.22h174.581v30h-174.581z" fill="#ffdd46"/></g></g></g><g><g><g><path d="m256 398.22h86.906v30h-86.906z" fill="#fcbe00"/></g></g></g></g><g><path d="m256 0-.007.013h.015z" fill="none"/></g></g><path d="m256.008.013h-.008v344.427h25.421v-1.905c0-53.396 6.23-77.468 18.493-128.616 15.073-62.864 5.361-129.118-27.118-185.013z" fill="#ff193d"/></svg>