<svg xmlns="http://www.w3.org/2000/svg" xmlns:xlink="http://www.w3.org/1999/xlink" width="316.311" height="393.415" viewBox="0 0 316.311 393.415">
  <defs>
    <clipPath id="clip-path">
      <path id="Trazado_6750" data-name="Trazado 6750" d="M16.364,1.244s.528.528-1.848,2.112S6.335,6.26,7.655,8.371s2.639,3.167,1.584,3.96-2.64.791-3.96,1.848S0,2.565,0,2.565,9.767-2.186,16.364,1.244Z" fill="#ffda1a" stroke="#263238" stroke-linecap="round" stroke-linejoin="round" stroke-width="1"/>
    </clipPath>
    <clipPath id="clip-path-2">
      <path id="Trazado_6759" data-name="Trazado 6759" d="M49.645,5.852,47.932,0,.422,8.974,0,11.42a54.582,54.582,0,0,0,23.913,1.513A122.073,122.073,0,0,0,49.645,5.852Z" fill="#fff" stroke="#263238" stroke-linecap="round" stroke-linejoin="round" stroke-width="1"/>
    </clipPath>
    <clipPath id="clip-path-3">
      <path id="Trazado_6765" data-name="Trazado 6765" d="M113.333,54.7a161.93,161.93,0,0,0-10.278-27.366c-3.207-6.843-6.405-15.413-11.365-21.2C88.523,2.438,82.716-.466,81.4.062s-7.127,2.9-7.127,6.071S76.382,9.3,76.382,9.3s-.528,3.96,1.056,5.543S87.2,15.9,87.2,15.9a34.616,34.616,0,0,1,3.621,6.863C92.408,28.04,93.8,29.1,94.858,38.6s4.486,22.435,4.486,22.435a10.006,10.006,0,0,0-2.639,2.376c-1.584,1.848-11.614,11.878-11.614,11.878a61.9,61.9,0,0,1-8.973,3.43A43.917,43.917,0,0,0,68.3,81.983c-1.624-.186-3.263-.363-4.135-.363C62.32,81.62,49.386,84,49.386,84a43.883,43.883,0,0,0-9.5-4.223,62.027,62.027,0,0,1-8.974-3.432S20.881,66.312,19.3,64.464a10.005,10.005,0,0,0-2.639-2.376s3.432-12.934,4.486-22.436C22,31.983,24.2,23.277,28.8,16.954c0,0,8.183.528,9.766-1.056s1.056-5.543,1.056-5.543,2.111,0,2.111-3.167-5.806-5.543-7.125-6.071S27.479,3.494,24.312,7.189s-2.9,7.39-6.072,12.669S3.989,50.739,2.669,55.753s-2.9,7.918-2.64,10.294,12.934,16.1,16.1,19.8,15.308,16.364,15.308,16.364,4.488,22.171,5.807,30.089.528,29.826.528,29.826,14.517-3.168,28.242-4.751,28.769-6.863,30.616-6.863h1.848s-10.294-12.669-10.294-14.517c0-1.475.337-28.355.472-39.132,3.831-4.033,9.251-9.779,11.216-12.072,3.167-3.7,15.836-17.419,16.1-19.795S114.653,59.713,113.333,54.7Z" fill="#fff" stroke="#263238" stroke-linecap="round" stroke-linejoin="round" stroke-width="1"/>
    </clipPath>
    <clipPath id="clip-path-4">
      <path id="Trazado_6784" data-name="Trazado 6784" d="M.157,2.671S1.6-1.4,3.513.513s.96,6-.24,7.675S1.115,8.907.4,6.988A9.159,9.159,0,0,1,.157,2.671Z" fill="#fff" stroke="#000" stroke-linecap="round" stroke-linejoin="round" stroke-width="1"/>
    </clipPath>
    <clipPath id="clip-path-5">
      <path id="Trazado_6788" data-name="Trazado 6788" d="M4.246,1.986S1.76-1.55.431.815s.694,6.031,2.3,7.324,2.272.11,2.448-1.931A9.158,9.158,0,0,0,4.246,1.986Z" fill="#fff" stroke="#000" stroke-linecap="round" stroke-linejoin="round" stroke-width="1"/>
    </clipPath>
    <clipPath id="clip-path-6">
      <path id="Trazado_6794" data-name="Trazado 6794" d="M0,.479S6.234,16.787,9.592,15.587,13.909,0,13.909,0,3.6,2.158,0,.479Z" fill="#fff" stroke="#000" stroke-linecap="round" stroke-linejoin="round" stroke-width="1"/>
    </clipPath>
    <clipPath id="clip-path-7">
      <path id="Trazado_6799" data-name="Trazado 6799" d="M.217,14.963s1.2,10.551,2.638,15.347,7,9.151,14.438,7.951S27.316,26.233,27.316,25.514s-.481-13.669-3.358-18.466S15.565-2.3,7.89,1.293-.5,12.324.217,14.963Z" fill="#fff" stroke="#263238" stroke-linecap="round" stroke-linejoin="round" stroke-width="1"/>
    </clipPath>
    <clipPath id="clip-path-8">
      <path id="Trazado_6837" data-name="Trazado 6837" d="M43.142,76.908s-1.868,9.133-1.868,14.114,4.981,15.566,6.642,20.34,3.736,26.981,3.736,27.6c0,.176.084,1.405.2,3.074,7.343,2.043,22.489,2.742,40.533-16.177-3.28-3.332-6.863-6.427-9.817-10.032-2.078-2.538-3.677-4.417-3.521-5.507.24-1.68,2.212-10.15,4-17.364L88.608,82.28c1.376-1.427,7.511-9.182,8.083-10.145,3.321-5.6,19.717-22.208,21.378-23.661s5.4-9.756,8.3-22.208c1.072-4.6,2.343-9.956,3.519-14.891a26.5,26.5,0,0,1-6.736-2.383c-2,3.918-3.971,7.829-5.086,10.217-2.905,6.226-10.585,21.169-10.585,21.169l-19.3,20.133s-2.906,1.453-7.887,4.358c-.473.276-.962.576-1.457.886l-9.129,2.02-7.887-1.453a131.466,131.466,0,0,0-11.623-8.1c-4.981-2.905-7.887-4.358-7.887-4.358l-19.3-20.132S15.329,18.793,12.424,12.567C11.086,9.7,8.517,4.633,6.132,0A60.192,60.192,0,0,1,0,2.211C1.332,7.785,2.863,14.23,4.121,19.624c2.906,12.454,6.642,20.755,8.3,22.208S30.481,59.889,33.8,65.493,43.142,76.908,43.142,76.908Z" transform="translate(0 0)"/>
    </clipPath>
    <clipPath id="clip-path-9">
      <path id="Trazado_6842" data-name="Trazado 6842" d="M5.8,0s.207,13.075-.83,16.189S-1.875,25.322.615,30.3s11.623-.622,14.944-6.641,1.66-7.888,1.66-7.888V6.642Z" transform="translate(0 0)" fill="#fff" stroke="#263238" stroke-linecap="round" stroke-linejoin="round" stroke-width="1"/>
    </clipPath>
    <clipPath id="clip-path-10">
      <path id="Trazado_6847" data-name="Trazado 6847" d="M5.213,16.633S1.269,12.9.232,15.594s1.66,6.642,3.114,7.058l1.452.415a16.653,16.653,0,0,0,4.151,7.887c3.321,3.321,7.058,4.981,11.208,2.906s7.472-7.265,8.51-13.491a34.983,34.983,0,0,0,.623-9.34c0-1.038-1.868-8.51-7.264-10.377s-4.774.415-8.925,5.189A97.534,97.534,0,0,0,5.213,16.633Z" transform="translate(0 0)" fill="#ffda1a" stroke="#263238" stroke-linecap="round" stroke-linejoin="round" stroke-width="1"/>
    </clipPath>
  </defs>
  <g id="Grupo_2852" data-name="Grupo 2852" transform="translate(-42.688 -259.075)">
    <path id="Unión_1" data-name="Unión 1" d="M-10906.186-930.614a11.6,11.6,0,0,1,.222-2.3,11.654,11.654,0,0,1-.222-2.31c0-24.248,45.315-82,91-82s92,57.753,92,82a11.159,11.159,0,0,1-.378,2.949,12.063,12.063,0,0,1,.112,1.665c0,24.248-45.682,81.875-91.367,81.875S-10906.186-906.366-10906.186-930.614Z" transform="translate(11019.186 1438.229)" fill="#ffda1a" opacity="0.26"/>
    <path id="Trazado_6862" data-name="Trazado 6862" d="M140.762,0C218.5,0,281.525,21.331,281.525,47.645S218.5,95.29,140.762,95.29,0,73.959,0,47.645,63.022,0,140.762,0Z" transform="matrix(0.966, 0.259, -0.259, 0.966, 83.054, 394.63)" fill="none" stroke="#ffda1a" stroke-width="2"/>
    <path id="Polígono_8" data-name="Polígono 8" d="M7.285,2.858a2,2,0,0,1,3.43,0l5.468,9.113A2,2,0,0,1,14.468,15H3.532a2,2,0,0,1-1.715-3.029Z" transform="translate(91.287 315.744) rotate(-41)" fill="#ffda1a"/>
    <path id="Polígono_10" data-name="Polígono 10" d="M7.285,2.858a2,2,0,0,1,3.43,0l5.468,9.113A2,2,0,0,1,14.468,15H3.532a2,2,0,0,1-1.715-3.029Z" transform="matrix(0.656, -0.755, 0.755, 0.656, 133.627, 286.824)"/>
    <g id="Grupo_2453" data-name="Grupo 2453" transform="matrix(0.999, -0.035, 0.035, 0.999, 17.758, 261.018)">
      <g id="Character_2" data-name="Character 2" transform="matrix(0.848, 0.53, -0.53, 0.848, 228.949, 17)">
        <g id="Grupo_2440" data-name="Grupo 2440" transform="matrix(0.978, -0.208, 0.208, 0.978, 0, 24.118)">
          <g id="Grupo_2420" data-name="Grupo 2420" transform="translate(82.115 149.264)">
            <path id="Trazado_6747" data-name="Trazado 6747" d="M16.364,1.244s.528.528-1.848,2.112S6.335,6.26,7.655,8.371s2.639,3.167,1.584,3.96-2.64.791-3.96,1.848S0,2.565,0,2.565,9.767-2.186,16.364,1.244Z" transform="translate(0 0)" fill="#ffda1a"/>
            <g id="Grupo_2419" data-name="Grupo 2419" transform="translate(0 0)" clip-path="url(#clip-path)">
              <path id="Trazado_6748" data-name="Trazado 6748" d="M16.364,1.244s.528.528-1.848,2.112S6.335,6.26,7.655,8.371s2.639,3.167,1.584,3.96-2.64.791-3.96,1.848S0,2.565,0,2.565,9.767-2.186,16.364,1.244Z" fill="#ffda1a"/>
              <path id="Trazado_6749" data-name="Trazado 6749" d="M16.364,1.244s.528.528-1.848,2.112S6.335,6.26,7.655,8.371s2.639,3.167,1.584,3.96-2.64.791-3.96,1.848S0,2.565,0,2.565,9.767-2.186,16.364,1.244Z" fill="#ffda1a" opacity="0.25"/>
            </g>
            <path id="Trazado_6751" data-name="Trazado 6751" d="M16.364,1.244s.528.528-1.848,2.112S6.335,6.26,7.655,8.371s2.639,3.167,1.584,3.96-2.64.791-3.96,1.848S0,2.565,0,2.565,9.767-2.186,16.364,1.244Z" transform="translate(0 0)" fill="#ffda1a" stroke="#263238" stroke-linecap="round" stroke-linejoin="round" stroke-width="1"/>
          </g>
          <g id="Grupo_2423" data-name="Grupo 2423" transform="translate(37.614 150.245)">
            <path id="Trazado_6757" data-name="Trazado 6757" d="M49.645,5.852,47.932,0,.422,8.974,0,11.42a54.582,54.582,0,0,0,23.913,1.513A122.073,122.073,0,0,0,49.645,5.852Z" transform="translate(0 0)" fill="#fff"/>
            <g id="Grupo_2422" data-name="Grupo 2422" transform="translate(0 0)" clip-path="url(#clip-path-2)">
              <path id="Trazado_6758" data-name="Trazado 6758" d="M49.645,5.852,47.932,0,.422,8.974,0,11.42a54.582,54.582,0,0,0,23.913,1.513A122.073,122.073,0,0,0,49.645,5.852Z" fill="#949494" stroke="#263238" stroke-linecap="round" stroke-linejoin="round" stroke-width="1"/>
            </g>
            <path id="Trazado_6760" data-name="Trazado 6760" d="M49.645,5.852,47.932,0,.422,8.974,0,11.42a54.582,54.582,0,0,0,23.913,1.513A122.073,122.073,0,0,0,49.645,5.852Z" transform="translate(0 0)" fill="none" stroke="#263238" stroke-linecap="round" stroke-linejoin="round" stroke-width="1"/>
          </g>
          <g id="Grupo_2428" data-name="Grupo 2428">
            <g id="Grupo_2425" data-name="Grupo 2425">
              <path id="Trazado_6761" data-name="Trazado 6761" d="M113.333,54.7a161.93,161.93,0,0,0-10.278-27.366c-3.207-6.843-6.405-15.413-11.365-21.2C88.523,2.438,82.716-.466,81.4.062s-7.127,2.9-7.127,6.071S76.382,9.3,76.382,9.3s-.528,3.96,1.056,5.543S87.2,15.9,87.2,15.9a34.616,34.616,0,0,1,3.621,6.863C92.408,28.04,93.8,29.1,94.858,38.6s4.486,22.435,4.486,22.435a10.006,10.006,0,0,0-2.639,2.376c-1.584,1.848-11.614,11.878-11.614,11.878a61.9,61.9,0,0,1-8.973,3.43A43.917,43.917,0,0,0,68.3,81.983c-1.624-.186-3.263-.363-4.135-.363C62.32,81.62,49.386,84,49.386,84a43.883,43.883,0,0,0-9.5-4.223,62.027,62.027,0,0,1-8.974-3.432S20.881,66.312,19.3,64.464a10.005,10.005,0,0,0-2.639-2.376s3.432-12.934,4.486-22.436C22,31.983,24.2,23.277,28.8,16.954c0,0,8.183.528,9.766-1.056s1.056-5.543,1.056-5.543,2.111,0,2.111-3.167-5.806-5.543-7.125-6.071S27.479,3.494,24.312,7.189s-2.9,7.39-6.072,12.669S3.989,50.739,2.669,55.753s-2.9,7.918-2.64,10.294,12.934,16.1,16.1,19.8,15.308,16.364,15.308,16.364,4.488,22.171,5.807,30.089.528,29.826.528,29.826,14.517-3.168,28.242-4.751,28.769-6.863,30.616-6.863h1.848s-10.294-12.669-10.294-14.517c0-1.475.337-28.355.472-39.132,3.831-4.033,9.251-9.779,11.216-12.072,3.167-3.7,15.836-17.419,16.1-19.795S114.653,59.713,113.333,54.7Z" fill="#fff"/>
              <g id="Grupo_2424" data-name="Grupo 2424" clip-path="url(#clip-path-3)">
                <path id="Trazado_6762" data-name="Trazado 6762" d="M113.333,54.7a161.93,161.93,0,0,0-10.278-27.366c-3.207-6.843-6.405-15.413-11.365-21.2C88.523,2.438,82.716-.466,81.4.062s-7.127,2.9-7.127,6.071S76.382,9.3,76.382,9.3s-.528,3.96,1.056,5.543S87.2,15.9,87.2,15.9a34.616,34.616,0,0,1,3.621,6.863C92.408,28.04,93.8,29.1,94.858,38.6s4.486,22.435,4.486,22.435a10.006,10.006,0,0,0-2.639,2.376c-1.584,1.848-11.614,11.878-11.614,11.878a61.9,61.9,0,0,1-8.973,3.43A43.917,43.917,0,0,0,68.3,81.983c-1.624-.186-3.263-.363-4.135-.363C62.32,81.62,49.386,84,49.386,84a43.883,43.883,0,0,0-9.5-4.223,62.027,62.027,0,0,1-8.974-3.432S20.881,66.312,19.3,64.464a10.005,10.005,0,0,0-2.639-2.376s3.432-12.934,4.486-22.436C22,31.983,24.2,23.277,28.8,16.954c0,0,8.183.528,9.766-1.056s1.056-5.543,1.056-5.543,2.111,0,2.111-3.167-5.806-5.543-7.125-6.071S27.479,3.494,24.312,7.189s-2.9,7.39-6.072,12.669S3.989,50.739,2.669,55.753s-2.9,7.918-2.64,10.294,12.934,16.1,16.1,19.8,15.308,16.364,15.308,16.364,4.488,22.171,5.807,30.089.528,29.826.528,29.826,14.517-3.168,28.242-4.751,28.769-6.863,30.616-6.863h1.848s-10.294-12.669-10.294-14.517c0-1.475.337-28.355.472-39.132,3.831-4.033,9.251-9.779,11.216-12.072,3.167-3.7,15.836-17.419,16.1-19.795S114.653,59.713,113.333,54.7Z" fill="#d9d9d9" stroke="#263238" stroke-linecap="round" stroke-linejoin="round" stroke-width="1"/>
                <path id="Trazado_6763" data-name="Trazado 6763" d="M38.829,113.626c-.793-3.7-1.848-25.075-3.168-31.937s-4.486-9.5-6.334-12.406S22.2,62.158,15.6,55.031,2.933,41.834,3.989,36.555C4.723,32.884,11.839,12.236,16.106,0,11.681,9.076,3.772,27.617,2.669,31.8,1.348,36.82-.234,39.722.029,42.1s12.934,16.1,16.1,19.8S31.438,78.258,31.438,78.258s4.488,22.171,5.807,30.089a97.951,97.951,0,0,1,.745,12.8C38.669,117.757,39.087,114.832,38.829,113.626Z" transform="translate(0 23.949)" opacity="0.25"/>
                <path id="Trazado_6764" data-name="Trazado 6764" d="M27.186,57.539c0,3.96-19.268,18.213-23.755,25.6S.263,108.743.263,116.133A76.8,76.8,0,0,1,0,125.108l3.435,4.183c.037-4.221.341-28.464.467-38.564,3.831-4.033,9.251-9.779,11.216-12.072,3.167-3.7,15.836-17.419,16.1-19.795S29.9,53.58,28.579,48.566A161.9,161.9,0,0,0,18.3,21.2C15.093,14.355,11.9,5.786,6.936,0c0,0,8.373,20.324,13.387,33.784S27.186,53.58,27.186,57.539Z" transform="translate(84.755 6.133)" opacity="0.25"/>
              </g>
              <path id="Trazado_6766" data-name="Trazado 6766" d="M113.333,54.7a161.93,161.93,0,0,0-10.278-27.366c-3.207-6.843-6.405-15.413-11.365-21.2C88.523,2.438,82.716-.466,81.4.062s-7.127,2.9-7.127,6.071S76.382,9.3,76.382,9.3s-.528,3.96,1.056,5.543S87.2,15.9,87.2,15.9a34.616,34.616,0,0,1,3.621,6.863C92.408,28.04,93.8,29.1,94.858,38.6s4.486,22.435,4.486,22.435a10.006,10.006,0,0,0-2.639,2.376c-1.584,1.848-11.614,11.878-11.614,11.878a61.9,61.9,0,0,1-8.973,3.43A43.917,43.917,0,0,0,68.3,81.983c-1.624-.186-3.263-.363-4.135-.363C62.32,81.62,49.386,84,49.386,84a43.883,43.883,0,0,0-9.5-4.223,62.027,62.027,0,0,1-8.974-3.432S20.881,66.312,19.3,64.464a10.005,10.005,0,0,0-2.639-2.376s3.432-12.934,4.486-22.436C22,31.983,24.2,23.277,28.8,16.954c0,0,8.183.528,9.766-1.056s1.056-5.543,1.056-5.543,2.111,0,2.111-3.167-5.806-5.543-7.125-6.071S27.479,3.494,24.312,7.189s-2.9,7.39-6.072,12.669S3.989,50.739,2.669,55.753s-2.9,7.918-2.64,10.294,12.934,16.1,16.1,19.8,15.308,16.364,15.308,16.364,4.488,22.171,5.807,30.089.528,29.826.528,29.826,14.517-3.168,28.242-4.751,28.769-6.863,30.616-6.863h1.848s-10.294-12.669-10.294-14.517c0-1.475.337-28.355.472-39.132,3.831-4.033,9.251-9.779,11.216-12.072,3.167-3.7,15.836-17.419,16.1-19.795S114.653,59.713,113.333,54.7Z" fill="none" stroke="#000" stroke-linecap="round" stroke-linejoin="round" stroke-width="1"/>
            </g>
            <g id="Grupo_2426" data-name="Grupo 2426" transform="translate(25.895 2.819)">
              <path id="Trazado_6767" data-name="Trazado 6767" d="M7.17,3.759S.571-1.784.043.592,4,6.134,4,6.134" transform="translate(6.555 3.778)" fill="none" stroke="#000" stroke-linecap="round" stroke-linejoin="round" stroke-width="1"/>
              <path id="Trazado_6768" data-name="Trazado 6768" d="M4.751,0A5.3,5.3,0,0,1,0,5.807" transform="translate(0 7.009)" fill="none" stroke="#000" stroke-linecap="round" stroke-linejoin="round" stroke-width="1"/>
              <path id="Trazado_6769" data-name="Trazado 6769" d="M5.279,5.279,0,2.639.264.792,1.848,0" transform="translate(3.168 3.05)" fill="none" stroke="#000" stroke-linecap="round" stroke-linejoin="round" stroke-width="1"/>
              <path id="Trazado_6770" data-name="Trazado 6770" d="M0,0A31.981,31.981,0,0,1,.491,4.427" transform="translate(8.948 0)" fill="none" stroke="#000" stroke-linecap="round" stroke-linejoin="round" stroke-width="1"/>
              <path id="Trazado_6771" data-name="Trazado 6771" d="M0,0A16.624,16.624,0,0,1,0,5.41" transform="translate(11.899 0.738)" fill="none" stroke="#000" stroke-linecap="round" stroke-linejoin="round" stroke-width="1"/>
              <path id="Trazado_6772" data-name="Trazado 6772" d="M1.722,0A4.828,4.828,0,0,1,0,4.427" transform="translate(12.883 1.967)" fill="none" stroke="#000" stroke-linecap="round" stroke-linejoin="round" stroke-width="1"/>
            </g>
            <g id="Grupo_2427" data-name="Grupo 2427" transform="translate(76.249 2.326)">
              <path id="Trazado_6773" data-name="Trazado 6773" d="M0,.982s9.164-2.376,7.844.265S2.3,4.677,2.3,4.677" transform="translate(0.134 5.992)" fill="none" stroke="#000" stroke-linecap="round" stroke-linejoin="round" stroke-width="1"/>
              <path id="Trazado_6774" data-name="Trazado 6774" d="M5.279,8.974A22.577,22.577,0,0,0,1.584,6.6C.265,6.071,0,4.223,0,4.223S2.9,3.7,2.9,2.376.793,0,.793,0L.528,1.319" transform="translate(8.241 1.959)" fill="none" stroke="#000" stroke-linecap="round" stroke-linejoin="round" stroke-width="1"/>
              <path id="Trazado_6775" data-name="Trazado 6775" d="M.125,0S-.921,5.232,3.045,6.182" transform="translate(5.197 0)" fill="none" stroke="#000" stroke-linecap="round" stroke-linejoin="round" stroke-width="1"/>
              <path id="Trazado_6776" data-name="Trazado 6776" d="M.1,0S-.633,3.935,1.825,5.9" transform="translate(2.267 0.247)" fill="none" stroke="#000" stroke-linecap="round" stroke-linejoin="round" stroke-width="1"/>
              <path id="Trazado_6777" data-name="Trazado 6777" d="M.157,0s-.738,3.443.984,4.673" transform="translate(0 1.722)" fill="none" stroke="#000" stroke-linecap="round" stroke-linejoin="round" stroke-width="1"/>
            </g>
          </g>
          <g id="Grupo_2430" data-name="Grupo 2430" transform="translate(25.103 72.941)">
            <path id="Trazado_6778" data-name="Trazado 6778" d="M40.912,84.43c13.724-1.584,28.769-6.863,30.616-6.863h1.848S63.082,64.9,63.082,63.05c0-1.475.337-28.355.472-39.132,1.808-1.9,3.967-4.185,5.952-6.308-2.9-.865-6.047-2.374-7.216-4.972C60.844,9.423,61.552,3.86,62.326,0c-1.374,1.381-2.338,2.345-2.338,2.345a61.9,61.9,0,0,1-8.973,3.43A43.917,43.917,0,0,0,43.2,9.042c-1.624-.186-3.263-.363-4.135-.363-1.848,0-14.781,2.376-14.781,2.376a43.883,43.883,0,0,0-9.5-4.223A62.027,62.027,0,0,1,5.807,3.4l-.384-.384c.432,4.1.835,9.6.384,13.054C5.3,19.977,2.169,21.8,0,22.609c3.377,3.569,6.335,6.657,6.335,6.657s4.488,22.171,5.807,30.089.528,29.826.528,29.826S27.187,86.013,40.912,84.43Z" fill="#ffda1a" stroke="#000" stroke-linecap="round" stroke-linejoin="round" stroke-width="1"/>
            <g id="Grupo_2429" data-name="Grupo 2429" transform="translate(32.202 31.641)">
              <path id="Trazado_6779" data-name="Trazado 6779" d="M2.963,3.725A31.546,31.546,0,0,1,0,0" fill="#ffda1a" stroke="#000" stroke-linecap="round" stroke-linejoin="round" stroke-width="1"/>
              <path id="Trazado_6780" data-name="Trazado 6780" d="M24.079,23.664A156.007,156.007,0,0,0,7.452,6.772C4.4,4.183,1.95,1.92,0,0" transform="translate(6.801 7.745)" fill="#ffda1a" stroke="#000" stroke-linecap="round" stroke-linejoin="round" stroke-width="1"/>
            </g>
          </g>
          <path id="Trazado_6781" data-name="Trazado 6781" d="M5.764,29.384S4.324,26.505,1.207,20.75.727,4.922,12.477,1.086,31.662,4.443,33.341,9.239s.24,10.072-.719,12.95a18.5,18.5,0,0,0-.96,5.276A9.137,9.137,0,0,0,29.5,25.546c-1.679-1.2-4.556-13.909-8.394-14.868S9.12,11.877,8.4,17.873,7.681,32.98,5.764,29.384Z" transform="translate(38.264 42.578)" stroke="#000" stroke-linecap="round" stroke-linejoin="round" stroke-width="1"/>
          <g id="Grupo_2432" data-name="Grupo 2432" transform="translate(68.811 66.412)">
            <path id="Trazado_6782" data-name="Trazado 6782" d="M.157,2.671S1.6-1.4,3.513.513s.96,6-.24,7.675S1.115,8.907.4,6.988A9.159,9.159,0,0,1,.157,2.671Z" fill="#fff" stroke="#000" stroke-width="1"/>
            <g id="Grupo_2431" data-name="Grupo 2431" clip-path="url(#clip-path-4)">
              <path id="Trazado_6783" data-name="Trazado 6783" d="M.157,2.671S1.6-1.4,3.513.513s.96,6-.24,7.675S1.115,8.907.4,6.988A9.159,9.159,0,0,1,.157,2.671Z" fill="#d9d9d9" stroke="#000" stroke-linecap="round" stroke-linejoin="round" stroke-width="1"/>
            </g>
            <path id="Trazado_6785" data-name="Trazado 6785" d="M.157,2.671S1.6-1.4,3.513.513s.96,6-.24,7.675S1.115,8.907.4,6.988A9.159,9.159,0,0,1,.157,2.671Z" fill="none" stroke="#000" stroke-linecap="round" stroke-linejoin="round" stroke-width="1"/>
          </g>
          <g id="Grupo_2434" data-name="Grupo 2434" transform="translate(40.879 69.465)">
            <path id="Trazado_6786" data-name="Trazado 6786" d="M4.246,1.986S1.76-1.55.431.815s.694,6.031,2.3,7.324,2.272.11,2.448-1.931A9.158,9.158,0,0,0,4.246,1.986Z" fill="#fff" stroke="#000" stroke-width="1"/>
            <g id="Grupo_2433" data-name="Grupo 2433" clip-path="url(#clip-path-5)">
              <path id="Trazado_6787" data-name="Trazado 6787" d="M4.246,1.986S1.76-1.55.431.815s.694,6.031,2.3,7.324,2.272.11,2.448-1.931A9.158,9.158,0,0,0,4.246,1.986Z" fill="#d9d9d9" stroke="#000" stroke-linecap="round" stroke-linejoin="round" stroke-width="1"/>
            </g>
            <path id="Trazado_6789" data-name="Trazado 6789" d="M4.246,1.986S1.76-1.55.431.815s.694,6.031,2.3,7.324,2.272.11,2.448-1.931A9.158,9.158,0,0,0,4.246,1.986Z" fill="none" stroke="#000" stroke-linecap="round" stroke-linejoin="round" stroke-width="1"/>
          </g>
          <path id="Trazado_6790" data-name="Trazado 6790" d="M.027,3.278a52.13,52.13,0,0,0,.72,10.311A69.176,69.176,0,0,0,2.905,22.7l8.632-8.153L22.33,20.3S24.007,9.273,20.651,4.477,6.262-.8,3.385.88.027,3.278.027,3.278Z" transform="translate(48.317 79.475)" fill="#fff" stroke="#000" stroke-linecap="round" stroke-linejoin="round" stroke-width="1"/>
          <g id="Grupo_2436" data-name="Grupo 2436" transform="translate(51.462 84.672)">
            <path id="Trazado_6791" data-name="Trazado 6791" d="M0,.479S6.234,16.787,9.592,15.587,13.909,0,13.909,0,3.6,2.158,0,.479Z" fill="#fff" stroke="#000" stroke-width="1"/>
            <g id="Grupo_2435" data-name="Grupo 2435" clip-path="url(#clip-path-6)">
              <path id="Trazado_6792" data-name="Trazado 6792" d="M0,.479S6.234,16.787,9.592,15.587,13.909,0,13.909,0,3.6,2.158,0,.479Z" fill="#d9d9d9" stroke="#000" stroke-linecap="round" stroke-linejoin="round" stroke-width="1"/>
              <path id="Trazado_6793" data-name="Trazado 6793" d="M0,.479S6.234,16.787,9.592,15.587,13.909,0,13.909,0,3.6,2.158,0,.479Z" stroke="#000" stroke-width="1" opacity="0.25"/>
            </g>
            <path id="Trazado_6795" data-name="Trazado 6795" d="M0,.479S6.234,16.787,9.592,15.587,13.909,0,13.909,0,3.6,2.158,0,.479Z" fill="none" stroke="#000" stroke-linecap="round" stroke-linejoin="round" stroke-width="1"/>
          </g>
          <g id="Grupo_2439" data-name="Grupo 2439" transform="translate(43.091 50.045)">
            <g id="Grupo_2438" data-name="Grupo 2438">
              <path id="Trazado_6796" data-name="Trazado 6796" d="M.217,14.963s1.2,10.551,2.638,15.347,7,9.151,14.438,7.951S27.316,26.233,27.316,25.514s-.481-13.669-3.358-18.466S15.565-2.3,7.89,1.293-.5,12.324.217,14.963Z" fill="#fff"/>
              <g id="Grupo_2437" data-name="Grupo 2437" clip-path="url(#clip-path-7)">
                <path id="Trazado_6797" data-name="Trazado 6797" d="M.217,14.963s1.2,10.551,2.638,15.347,7,9.151,14.438,7.951S27.316,26.233,27.316,25.514s-.481-13.669-3.358-18.466S15.565-2.3,7.89,1.293-.5,12.324.217,14.963Z" fill="#d9d9d9" stroke="#263238" stroke-linecap="round" stroke-linejoin="round" stroke-width="1"/>
                <path id="Trazado_6798" data-name="Trazado 6798" d="M27.312,21.172c0-.719-.481-13.669-3.358-18.466A18.554,18.554,0,0,0,21.981,0c.71,2.989,4.336,19.1,1.468,24.594-3.168,6.071-10.03,6.6-16.365,3.43C2.388,25.678,1.03,11.879.64,4.892A10.8,10.8,0,0,0,.213,10.62s1.2,10.552,2.638,15.348,7,9.151,14.438,7.951S27.312,21.891,27.312,21.172Z" transform="translate(0.003 4.341)" opacity="0.25"/>
              </g>
              <path id="Trazado_6800" data-name="Trazado 6800" d="M.217,14.963s1.2,10.551,2.638,15.347,7,9.151,14.438,7.951S27.316,26.233,27.316,25.514s-.481-13.669-3.358-18.466S15.565-2.3,7.89,1.293-.5,12.324.217,14.963Z" fill="none" stroke="#000" stroke-linecap="round" stroke-linejoin="round" stroke-width="1"/>
            </g>
            <path id="Trazado_6801" data-name="Trazado 6801" d="M0,2.93A12.528,12.528,0,0,0,12.136,0C13.2.362,12.806,6.8,6.9,7.742A6.106,6.106,0,0,1,0,2.93Z" transform="translate(7.036 18.202)" fill="#fff" stroke="#000" stroke-linecap="round" stroke-linejoin="round" stroke-width="1"/>
            <path id="Trazado_6802" data-name="Trazado 6802" d="M.937,1.025S-.527,3.074.2,3.807s3.661.878,5.124-.732S4.451,0,4.451,0" transform="translate(9.499 14.4)" fill="none" stroke="#000" stroke-linecap="round" stroke-linejoin="round" stroke-width="1"/>
            <path id="Trazado_6803" data-name="Trazado 6803" d="M0,2.4S.719,0,4.556,0" transform="translate(4.773 14.003)" fill="none" stroke="#000" stroke-linecap="round" stroke-linejoin="round" stroke-width="1"/>
            <path id="Trazado_6804" data-name="Trazado 6804" d="M0,1.456A4.28,4.28,0,0,1,5.63.818" transform="translate(16.044 11.588)" fill="none" stroke="#000" stroke-linecap="round" stroke-linejoin="round" stroke-width="1"/>
            <path id="Trazado_6805" data-name="Trazado 6805" d="M6.161.1S.678-.993,0,3.98" transform="translate(2.689 9.104)" fill="none" stroke="#000" stroke-linecap="round" stroke-linejoin="round" stroke-width="2"/>
            <path id="Trazado_6806" data-name="Trazado 6806" d="M0,1.327S3.862-1.8,7.459,1.554" transform="translate(14.668 7.236)" fill="none" stroke="#000" stroke-linecap="round" stroke-linejoin="round" stroke-width="2"/>
          </g>
        </g>
      </g>
      <g id="Character_1" data-name="Character 1" transform="matrix(0.978, -0.208, 0.208, 0.978, 23.272, 54.072)">
        <g id="Grupo_2452" data-name="Grupo 2452" transform="translate(0 0)">
          <path id="Trazado_6807" data-name="Trazado 6807" d="M77.4,11.277s0-5.4-5.812-9.34S51.873.276,46.685,6.918,41.08,18.333,35.061,20.2,15.344,24.145,5.8,34.108.4,64.41,4.759,66.072s-1.039-1.453-.416-6.85a8.081,8.081,0,0,1,4.981-6.849S3.72,61.3,15.551,72.921s24.907,8.924,35.907,6.641S75.949,69.184,76.987,59.637s-2.49-14.944,0-19.3S88.61,36.6,89.856,28.3,87.78,8.993,77.4,11.277Z" transform="translate(11.193 43.777)" stroke="#000" stroke-linecap="round" stroke-linejoin="round" stroke-width="1"/>
          <g id="Grupo_2441" data-name="Grupo 2441" transform="translate(128.574 195.782)">
            <path id="Trazado_6808" data-name="Trazado 6808" d="M0,7.577S5.8.249,7.957.008s5.52,4.8,6.96,8.64,4.8,11.753,4.8,15.6c0,6.72-2.88,8.881-4.08,7.681s-4.32-8.64-6-10.081A9.974,9.974,0,0,0,5.995,19.92S2.364,10.585,0,7.577Z" transform="translate(0 0)" fill="#fff" stroke="#263238" stroke-linecap="round" stroke-linejoin="round" stroke-width="1"/>
            <path id="Trazado_6809" data-name="Trazado 6809" d="M0,0S7.016,7.016,9.522,13.782s3.258,13.282,1,16.038" transform="translate(5.871 1.844)" fill="none" stroke="#263238" stroke-linecap="round" stroke-linejoin="round" stroke-width="1"/>
          </g>
          <g id="Grupo_2442" data-name="Grupo 2442" transform="translate(112.442 255.313)">
            <path id="Trazado_6810" data-name="Trazado 6810" d="M3.208,0s6.96.48,9.361.72,2.4,6,1.439,10.08-2.16,6.72-1.2,11.281-1.68,9.6-3.119,11.76-4.561,1.68-4.8,0,.72-11.52-2.641-17.04S-.633,3.84,3.208,0Z" transform="translate(0)" fill="#fff" stroke="#263238" stroke-linecap="round" stroke-linejoin="round" stroke-width="1"/>
            <path id="Trazado_6811" data-name="Trazado 6811" d="M2,0a13.682,13.682,0,0,1,1.5,8.771c-.751,5.262.251,13.531.251,15.536S1,34.08,0,34.331" transform="translate(7.72 0.45)" fill="none" stroke="#263238" stroke-linecap="round" stroke-linejoin="round" stroke-width="1"/>
          </g>
          <path id="Trazado_6812" data-name="Trazado 6812" d="M147.126,6.642c-1.246,0-6.227,1.246-6.642,2.7s-1.038,15.567-1.038,15.567-8.718,16.6-11.623,22.831-10.585,21.169-10.585,21.169l-19.3,20.133s-2.906,1.453-7.887,4.358c-.473.276-.962.576-1.457.886l-9.129,2.02-7.887-1.453a131.467,131.467,0,0,0-11.623-8.1c-4.981-2.905-7.887-4.358-7.887-4.358l-19.3-20.132S25.084,47.323,22.178,41.1,10.555,18.265,10.555,18.265,9.933,4.151,9.517,2.7,4.121,0,2.875,0-.653,6.642.177,8.1,3.291,9.548,3.291,9.548a38.97,38.97,0,0,0,0,4.981c.207,1.038,3.321,3.113,3.321,3.113S10.971,35.7,13.876,48.153s6.642,20.755,8.3,22.208S40.235,88.418,43.556,94.022s9.34,11.415,9.34,11.415-1.868,9.133-1.868,14.114,4.981,15.566,6.642,20.34,3.736,26.981,3.736,27.6,1.037,14.321,1.037,14.321-11.208,24.492-14.736,41.926-1.868,27.4,6.226,31.134S98.766,263.8,99.8,265.047s1.868,2.075,3.321,2.075,3.321-.83,4.566,0,1.246,1.453,2.7,1.453a4.472,4.472,0,0,1,3.32,2.282c.416.83,2.906-.83,3.737-7.057s-.416-9.133-1.66-9.34-1.037-2.282-3.114-2.282a54.991,54.991,0,0,0-6.642.83,15.391,15.391,0,0,0-3.32-.623c-1.246,0-2.7-1.039-3.529-1.246s-14.529-5.811-14.529-5.811l-.519-.277c13.854-7.91,33.509-21.892,33.509-21.892s5.642-.353,8.111-2.469a35.735,35.735,0,0,0,4.585-4.937l4.231-1.764s0-4.585-2.468-7.759-3.527-4.585-3.527-4.585-6.7,3.174-8.817,3.88-5.291,1.058-7.054,2.822-6.348,5.289-6.348,5.289l-15.518,8.111s19.751-25.392,22.22-35.973c2.114-9.065-1.123-19.092-6.553-26.4-4.088-5.506-9.824-9.7-14.181-15.011-2.078-2.538-3.677-4.417-3.521-5.507.24-1.68,2.212-10.15,4-17.364l5.564-10.681c1.376-1.427,7.511-9.182,8.083-10.145,3.321-5.6,19.717-22.208,21.378-23.661s5.4-9.756,8.3-22.208,7.264-30.511,7.264-30.511,3.114-2.075,3.321-3.114a38.961,38.961,0,0,0,0-4.98s2.283,0,3.114-1.453S148.371,6.642,147.126,6.642Z" transform="translate(0 1.712)" fill="#fff" stroke="#000" stroke-linecap="round" stroke-linejoin="round" stroke-width="1"/>
          <g id="Grupo_2443" data-name="Grupo 2443" transform="translate(45.954 153.695)">
            <path id="Trazado_6813" data-name="Trazado 6813" d="M82.62,49.665s-6.7,3.174-8.817,3.88-5.291,1.058-7.054,2.822S60.4,61.656,60.4,61.656L44.883,69.767S64.634,44.375,67.1,33.793c2.114-9.064-1.123-19.091-6.554-26.4A61.152,61.152,0,0,0,53.753,0,84.959,84.959,0,0,1,39.695,9.935a39.34,39.34,0,0,1-24.269,5.178c.017.219.026.358.026.4,0,.623,1.037,14.321,1.037,14.321S5.281,54.327,1.753,71.761s-1.868,27.4,6.226,31.134,44.832,8.924,45.869,10.17,1.868,2.075,3.321,2.075,3.321-.83,4.566,0,1.246,1.453,2.7,1.453a4.472,4.472,0,0,1,3.32,2.282c.416.83,2.906-.83,3.737-7.057s-.416-9.133-1.66-9.34-1.037-2.282-3.114-2.282a54.991,54.991,0,0,0-6.642.83,15.391,15.391,0,0,0-3.32-.623c-1.246,0-2.7-1.039-3.529-1.246S38.7,93.347,38.7,93.347l-.519-.277c13.854-7.91,33.509-21.892,33.509-21.892s5.642-.353,8.111-2.469a35.735,35.735,0,0,0,4.585-4.937l4.231-1.764s0-4.585-2.468-7.759S82.62,49.665,82.62,49.665Z" transform="translate(0)" fill="#263238" stroke="#263238" stroke-linecap="round" stroke-linejoin="round" stroke-width="1"/>
            <path id="Trazado_6814" data-name="Trazado 6814" d="M16.226,0l4.08,1.92S3.267,42.961.866,54.722s.48,17.521,5.04,17.521,17.521-6.721,17.521-6.721" transform="translate(13.387 28.416)" fill="none" stroke="#fff" stroke-linecap="round" stroke-linejoin="round" stroke-width="1"/>
            <path id="Trazado_6815" data-name="Trazado 6815" d="M13.109,0S2.88,15.051,0,18.651" transform="translate(31.775 69.767)" fill="none" stroke="#fff" stroke-linecap="round" stroke-linejoin="round" stroke-width="1"/>
          </g>
          <path id="Trazado_6816" data-name="Trazado 6816" d="M6,7.316S1.852,1.5,1.229.26-.639,2.543.4,4.618A15.113,15.113,0,0,0,2.889,8.147s-1.66,4.981.83,7.056" transform="translate(1.647 0)" fill="#fff" stroke="#263238" stroke-linecap="round" stroke-linejoin="round" stroke-width="1"/>
          <path id="Trazado_6817" data-name="Trazado 6817" d="M0,7.317S4.151,1.505,4.774.259s1.868,2.283.83,4.358A15.067,15.067,0,0,1,3.114,8.147s1.66,4.98-.83,7.056" transform="translate(141.165 7.783)" fill="#fff" stroke="#263238" stroke-linecap="round" stroke-linejoin="round" stroke-width="1"/>
          <g id="Grupo_2446" data-name="Grupo 2446" transform="translate(9.754 30.241)">
            <path id="Trazado_6818" data-name="Trazado 6818" d="M43.142,76.908s-1.868,9.133-1.868,14.114,4.981,15.566,6.642,20.34,3.736,26.981,3.736,27.6c0,.176.084,1.405.2,3.074,7.343,2.043,22.489,2.742,40.533-16.177-3.28-3.332-6.863-6.427-9.817-10.032-2.078-2.538-3.677-4.417-3.521-5.507.24-1.68,2.212-10.15,4-17.364L88.608,82.28c1.376-1.427,7.511-9.182,8.083-10.145,3.321-5.6,19.717-22.208,21.378-23.661s5.4-9.756,8.3-22.208c1.072-4.6,2.343-9.956,3.519-14.891a26.5,26.5,0,0,1-6.736-2.383c-2,3.918-3.971,7.829-5.086,10.217-2.905,6.226-10.585,21.169-10.585,21.169l-19.3,20.133s-2.906,1.453-7.887,4.358c-.473.276-.962.576-1.457.886l-9.129,2.02-7.887-1.453a131.466,131.466,0,0,0-11.623-8.1c-4.981-2.905-7.887-4.358-7.887-4.358l-19.3-20.132S15.329,18.793,12.424,12.567C11.086,9.7,8.517,4.633,6.132,0A60.192,60.192,0,0,1,0,2.211C1.332,7.785,2.863,14.23,4.121,19.624c2.906,12.454,6.642,20.755,8.3,22.208S30.481,59.889,33.8,65.493,43.142,76.908,43.142,76.908Z" transform="translate(0 0)" fill="#ffda1a"/>
            <g id="Grupo_2445" data-name="Grupo 2445" transform="translate(0 0)" clip-path="url(#clip-path-8)">
              <g id="Grupo_2444" data-name="Grupo 2444" transform="translate(1.985 7.588)">
                <path id="Trazado_6819" data-name="Trazado 6819" d="M11.909,1.924c-.91-.483-1.4-.729-1.4-.729L9.362,0,0,10.008a30.136,30.136,0,0,1,1.885,2.63Z" transform="translate(29.82 45.087)"/>
                <path id="Trazado_6820" data-name="Trazado 6820" d="M12.525,2.3,10.318,0,0,8.147c.721.77,1.447,1.551,2.168,2.333Z" transform="translate(20.446 36.307)"/>
                <path id="Trazado_6821" data-name="Trazado 6821" d="M14.231,1.648c-.487-.3-.968-.6-1.431-.87S11.887.249,11.455,0L0,13.122c.707.876,1.41,1.7,2.074,2.451Z" transform="translate(35.414 49.863)"/>
                <path id="Trazado_6822" data-name="Trazado 6822" d="M11.907,0,0,6.6c.63.622,1.421,1.415,2.329,2.338l11.85-6.566Z" transform="translate(11.87 29.02)"/>
                <path id="Trazado_6823" data-name="Trazado 6823" d="M12.966,0,8.006,5.533a1.576,1.576,0,0,0-.6.348,1.545,1.545,0,0,0-.421.795L0,14.465c.687.709,1.12,1.128,1.12,1.128s-.342,1.68-.734,3.986l1.271-1.922c3.1,1.33,11.745,3.726,33.687,3.726q3.362,0,7.15-.079a1.571,1.571,0,0,0,.67-.168,6.568,6.568,0,0,0,2.66,1.291l.762-1.462c.275-.285.744-.829,1.317-1.514a10.384,10.384,0,0,1-1.126-.062c-3.95-.48-6.361-8.894-7.408-16.47-.355.2-.718.415-1.1.636-.473.276-.962.576-1.457.886l-.411.09c.169,1.1.37,2.255.617,3.441-15.173,3.9-23.062.733-26-1.047l4.553-5.08C14.759,1.256,13.878.63,12.966,0ZM23.637,13.033a57.109,57.109,0,0,0,14.123-1.974,28.008,28.008,0,0,0,2.876,7.1c-23.641.38-33.409-1.9-36.894-3.117L8.865,9.33C11.043,10.787,15.684,13.033,23.637,13.033Z" transform="translate(40.037 53.728)"/>
                <path id="Trazado_6824" data-name="Trazado 6824" d="M10.087,0,0,4.278q.4,1.606.81,3.1L11.5,2.848C11.013,1.873,10.538.915,10.087,0Z" transform="translate(2.585 9.603)"/>
                <path id="Trazado_6825" data-name="Trazado 6825" d="M8.007,0,0,2.959Q.371,4.524.736,6.072L9.424,2.861C9,1.987,8.52,1.024,8.007,0Z" transform="translate(0)"/>
                <path id="Trazado_6826" data-name="Trazado 6826" d="M12.714,2.835c-.44-.863-.926-1.82-1.441-2.835L0,6.608Q.606,8.245,1.181,9.6Z" transform="translate(6.171 19.128)"/>
                <path id="Trazado_6827" data-name="Trazado 6827" d="M1.493,0C.98,1.017.478,2.011,0,2.952c3.124,2.833,6.728,5.93,10.452,8.783.387-.939.786-1.975,1.192-3.1C8.021,5.808,4.51,2.756,1.493,0Z" transform="translate(108.943 23.088)"/>
                <path id="Trazado_6828" data-name="Trazado 6828" d="M35.213,4.935c.211-.96.465-2.087.751-3.33C19.258,3.919,6.969,1.9,0,0,.492,1.276.992,2.525,1.469,3.71A84.807,84.807,0,0,0,21.123,5.882,108.9,108.9,0,0,0,35.213,4.935Z" transform="translate(42.441 94.869)"/>
                <path id="Trazado_6829" data-name="Trazado 6829" d="M0,2.913A108.045,108.045,0,0,0,9.4,9.062c.234-.914.465-1.845.691-2.81.032-.14.066-.286.1-.426A103.43,103.43,0,0,1,1.407,0C1,.865.52,1.851,0,2.913Z" transform="translate(114.296 12.426)"/>
                <path id="Trazado_6830" data-name="Trazado 6830" d="M.011.352C.007.526,0,.707,0,.872A13.651,13.651,0,0,0,.333,3.536c6.77-.5,20.778-.821,40.7,2.269.245-1.007.49-2.012.733-2.993l.055-.105C21.242-.536,6.968-.191.011.352Z" transform="translate(39.289 82.562)"/>
                <path id="Trazado_6831" data-name="Trazado 6831" d="M37.42,2.295C36.638,1.538,35.87.771,35.106,0,23.159,8.028,8.941,11.292,0,12.606c.124,1.19.232,2.273.324,3.212C9.7,14.491,24.726,11.063,37.42,2.295Z" transform="translate(49.038 112.119)"/>
                <path id="Trazado_6832" data-name="Trazado 6832" d="M0,3.666C.152,4.7.3,5.783.448,6.892c1.186.037,2.471.06,3.851.06,8.243,0,19.634-.831,30.568-4.317C34.3,2.014,33.73,1.4,33.2.749,32.986.49,32.784.244,32.583,0,20.424,3.582,7.7,3.912,0,3.666Z" transform="translate(47.388 107.495)"/>
                <path id="Trazado_6833" data-name="Trazado 6833" d="M0,2.317C2.737,5.7,5.76,9.058,8.7,12.151c.847-.865,1.606-1.628,2.248-2.27C7.981,6.759,4.939,3.375,2.222,0Z" transform="translate(103.152 32.922)"/>
                <path id="Trazado_6834" data-name="Trazado 6834" d="M9.459,11.43c.724-.786,1.452-1.569,2.177-2.34A56.761,56.761,0,0,1,2.225,0L0,2.321A59.446,59.446,0,0,0,9.459,11.43Z" transform="translate(94.581 41.857)"/>
                <path id="Trazado_6835" data-name="Trazado 6835" d="M7.764,14.845c.306-.515.724-1.126,1.229-1.807C7.217,9.7,4.625,4.731,2.343,0L0,2.444C2.534,7.633,5.332,12.932,6.959,15.969,7.369,15.424,7.66,15.02,7.764,14.845Z" transform="translate(86.942 49.702)"/>
              </g>
              <path id="Trazado_6836" data-name="Trazado 6836" d="M129.595,9.37c-4.906,10.814-14.274,31.466-16.127,35.581-2.532,5.628-22.514,25.891-25.891,27.861s-5.347,6.754-6.754,11.82c-1.34,4.821-5.22,8.627-5.592,13.835-1.927-1.47-5.681-2.7-11.012-3.14-10.132-.845-19.7,1.688-19.7-7.6s5.91-18.293,6.191-21.107-5.347,2.251-8.16.282S20.6,42.98,14.968,35.946C11.381,31.461,5.011,12.887.861,0,.575.092.294.184,0,.274,1.332,5.847,2.863,12.292,4.121,17.686c2.906,12.454,6.642,20.755,8.3,22.208S30.481,57.951,33.8,63.555s9.34,11.415,9.34,11.415S41.274,84.1,41.274,89.085s4.981,15.566,6.642,20.34,3.736,26.981,3.736,27.6c0,.176.084,1.405.2,3.074a27.026,27.026,0,0,0,3.082.663c-.19-8.7-1.639-26.84.839-30.8,2.692-4.308,15.678-4.5,19.511-6.968a21.378,21.378,0,0,0,4.692,12.6c2.048,2.688,6.715,6.364,11.2,9.575.4-.407.807-.812,1.214-1.238-3.28-3.332-6.863-6.427-9.817-10.032-2.078-2.538-3.677-4.417-3.521-5.507.24-1.68,2.212-10.15,4-17.364l5.564-10.681c1.376-1.427,7.511-9.182,8.083-10.145,3.321-5.6,19.717-22.208,21.378-23.661s5.4-9.756,8.3-22.208c1.072-4.6,2.343-9.956,3.519-14.891C129.8,9.42,129.691,9.389,129.595,9.37Z" transform="translate(0 1.938)" opacity="0.25"/>
            </g>
            <path id="Trazado_6838" data-name="Trazado 6838" d="M43.142,76.908s-1.868,9.133-1.868,14.114,4.981,15.566,6.642,20.34,3.736,26.981,3.736,27.6c0,.176.084,1.405.2,3.074,7.343,2.043,22.489,2.742,40.533-16.177-3.28-3.332-6.863-6.427-9.817-10.032-2.078-2.538-3.677-4.417-3.521-5.507.24-1.68,2.212-10.15,4-17.364L88.608,82.28c1.376-1.427,7.511-9.182,8.083-10.145,3.321-5.6,19.717-22.208,21.378-23.661s5.4-9.756,8.3-22.208c1.072-4.6,2.343-9.956,3.519-14.891a26.5,26.5,0,0,1-6.736-2.383c-2,3.918-3.971,7.829-5.086,10.217-2.905,6.226-10.585,21.169-10.585,21.169l-19.3,20.133s-2.906,1.453-7.887,4.358c-.473.276-.962.576-1.457.886l-9.129,2.02-7.887-1.453a131.466,131.466,0,0,0-11.623-8.1c-4.981-2.905-7.887-4.358-7.887-4.358l-19.3-20.132S15.329,18.793,12.424,12.567C11.086,9.7,8.517,4.633,6.132,0A60.192,60.192,0,0,1,0,2.211C1.332,7.785,2.863,14.23,4.121,19.624c2.906,12.454,6.642,20.755,8.3,22.208S30.481,59.889,33.8,65.493,43.142,76.908,43.142,76.908Z" transform="translate(0 0)" fill="none" stroke="#000" stroke-linecap="round" stroke-linejoin="round" stroke-width="1"/>
          </g>
          <g id="Grupo_2448" data-name="Grupo 2448" transform="translate(63.697 80.375)">
            <path id="Trazado_6839" data-name="Trazado 6839" d="M5.8,0s.207,13.075-.83,16.189S-1.875,25.322.615,30.3s11.623-.622,14.944-6.641,1.66-7.888,1.66-7.888V6.642Z" transform="translate(0 0)" fill="#fff"/>
            <g id="Grupo_2447" data-name="Grupo 2447" transform="translate(0 0)" clip-path="url(#clip-path-9)">
              <path id="Trazado_6840" data-name="Trazado 6840" d="M12.81,6.642,1.395,0S1.6,13.075.565,16.189A8.521,8.521,0,0,1,0,17.439a11.737,11.737,0,0,0,6.711.142c2.17-.669,4.531-2.719,6.1-4.278Z" transform="translate(4.41 0)" fill="#ffda1a"/>
            </g>
            <path id="Trazado_6843" data-name="Trazado 6843" d="M5.8,0s.207,13.075-.83,16.189S-1.875,25.322.615,30.3s11.623-.622,14.944-6.641,1.66-7.888,1.66-7.888V6.642Z" transform="translate(0 0)" fill="none" stroke="#000" stroke-linecap="round" stroke-linejoin="round" stroke-width="1"/>
          </g>
          <g id="Grupo_2451" data-name="Grupo 2451" transform="translate(62.004 55.026)">
            <g id="Grupo_2450" data-name="Grupo 2450" transform="translate(0 0)">
              <path id="Trazado_6844" data-name="Trazado 6844" d="M5.213,16.633S1.269,12.9.232,15.594s1.66,6.642,3.114,7.058l1.452.415a16.653,16.653,0,0,0,4.151,7.887c3.321,3.321,7.058,4.981,11.208,2.906s7.472-7.265,8.51-13.491a34.983,34.983,0,0,0,.623-9.34c0-1.038-1.868-8.51-7.264-10.377s-4.774.415-8.925,5.189A97.534,97.534,0,0,0,5.213,16.633Z" transform="translate(0 0)" fill="#fff"/>
              <g id="Grupo_2449" data-name="Grupo 2449" clip-path="url(#clip-path-10)">
                <path id="Trazado_6845" data-name="Trazado 6845" d="M27.232,0c.333,3.442.9,12.345-1.562,16.606-3.1,5.348-6.192,10.413-12.383,7.88S5.126,15.48,5.126,15.48,3.437,15.762.9,13.511A3.172,3.172,0,0,0,0,12.93a5.426,5.426,0,0,0,2.413,2.535l1.452.415a16.653,16.653,0,0,0,4.151,7.887c3.321,3.321,7.058,4.981,11.208,2.906s7.472-7.265,8.51-13.491a34.983,34.983,0,0,0,.623-9.34A13.441,13.441,0,0,0,27.232,0Z" transform="translate(0.933 7.186)" fill="#ffda1a"/>
                <path id="Trazado_6846" data-name="Trazado 6846" d="M27.232,0c.333,3.442.9,12.345-1.562,16.606-3.1,5.348-6.192,10.413-12.383,7.88S5.126,15.48,5.126,15.48,3.437,15.762.9,13.511A3.172,3.172,0,0,0,0,12.93a5.426,5.426,0,0,0,2.413,2.535l1.452.415a16.653,16.653,0,0,0,4.151,7.887c3.321,3.321,7.058,4.981,11.208,2.906s7.472-7.265,8.51-13.491a34.983,34.983,0,0,0,.623-9.34A13.441,13.441,0,0,0,27.232,0Z" transform="translate(0.933 7.186)" fill="#ffda1a" opacity="0.5"/>
              </g>
              <path id="Trazado_6848" data-name="Trazado 6848" d="M5.213,16.633S1.269,12.9.232,15.594s1.66,6.642,3.114,7.058l1.452.415a16.653,16.653,0,0,0,4.151,7.887c3.321,3.321,7.058,4.981,11.208,2.906s7.472-7.265,8.51-13.491a34.983,34.983,0,0,0,.623-9.34c0-1.038-1.868-8.51-7.264-10.377s-4.774.415-8.925,5.189A97.534,97.534,0,0,0,5.213,16.633Z" transform="translate(0 0)" fill="none" stroke="#000" stroke-linecap="round" stroke-linejoin="round" stroke-width="1"/>
            </g>
            <path id="Trazado_6849" data-name="Trazado 6849" d="M2.283,0S.83,2.7,1.453,3.321s2.7,1.868,1.66,2.491A7.755,7.755,0,0,1,0,6.434" transform="translate(20.156 12.481)" fill="none" stroke="#000" stroke-linecap="round" stroke-linejoin="round" stroke-width="1"/>
            <path id="Trazado_6850" data-name="Trazado 6850" d="M0,0S2.491,2.906,10.379,1.868c0,0-4.774,4.774-6.85,4.774S0,0,0,0Z" transform="translate(14.137 19.745)" fill="none" stroke="#000" stroke-linecap="round" stroke-linejoin="round" stroke-width="1"/>
            <path id="Trazado_6851" data-name="Trazado 6851" d="M0,.321S2.905-.718,4.566.943" transform="translate(12.685 12.784)" fill="none" stroke="#000" stroke-linecap="round" stroke-linejoin="round" stroke-width="1"/>
            <path id="Trazado_6852" data-name="Trazado 6852" d="M0,.235S3.321-.8,3.943,1.481" transform="translate(23.063 14.529)" fill="none" stroke="#000" stroke-linecap="round" stroke-linejoin="round" stroke-width="1"/>
            <path id="Trazado_6853" data-name="Trazado 6853" d="M0,1.675S2.283-1.023,5.4.43" transform="translate(12.477 7.9)" fill="none" stroke="#000" stroke-linecap="round" stroke-linejoin="round" stroke-width="1"/>
            <path id="Trazado_6854" data-name="Trazado 6854" d="M0,.678S2.7-1.813,4.567,2.753" transform="translate(23.477 9.936)" fill="none" stroke="#000" stroke-linecap="round" stroke-linejoin="round" stroke-width="1"/>
          </g>
          <path id="Rectángulo_2175" data-name="Rectángulo 2175" d="M0,0H140.45a0,0,0,0,1,0,0V115.671a0,0,0,0,1,0,0H115.671A115.671,115.671,0,0,1,0,0V0A0,0,0,0,1,0,0Z" transform="translate(24.637 180.113)" fill="#fff"/>
        </g>
      </g>
    </g>
    <path id="Trazado_6857" data-name="Trazado 6857" d="M88.063,0c48.636,0,88.063,6.406,88.063,14.308S136.7,28.617,88.063,28.617,0,22.211,0,14.308,39.427,0,88.063,0Z" transform="translate(116.162 476.644)" fill="#ffda1a"/>
    <path id="Polígono_3" data-name="Polígono 3" d="M7.285,2.858a2,2,0,0,1,3.43,0l5.468,9.113A2,2,0,0,1,14.468,15H3.532a2,2,0,0,1-1.715-3.029Z" transform="matrix(-0.839, 0.545, -0.545, -0.839, 231.094, 322.512)" fill="#ffda1a"/>
    <path id="Polígono_9" data-name="Polígono 9" d="M7.285,2.858a2,2,0,0,1,3.43,0l5.468,9.113A2,2,0,0,1,14.468,15H3.532a2,2,0,0,1-1.715-3.029Z" transform="translate(331.287 292.744) rotate(-41)" fill="#ffda1a"/>
    <path id="Polígono_6" data-name="Polígono 6" d="M7.285,2.858a2,2,0,0,1,3.43,0l5.468,9.113A2,2,0,0,1,14.468,15H3.532a2,2,0,0,1-1.715-3.029Z" transform="translate(272.377 557.967) rotate(-47)" fill="#ffda1a"/>
    <path id="Polígono_4" data-name="Polígono 4" d="M7.285,2.858a2,2,0,0,1,3.43,0l5.468,9.113A2,2,0,0,1,14.468,15H3.532a2,2,0,0,1-1.715-3.029Z" transform="translate(249.842 280.829) rotate(-108)"/>
    <path id="Polígono_7" data-name="Polígono 7" d="M7.285,2.858a2,2,0,0,1,3.43,0l5.468,9.113A2,2,0,0,1,14.468,15H3.532a2,2,0,0,1-1.715-3.029Z" transform="translate(218.545 389.495) rotate(150)"/>
    <path id="Trazado_6860" data-name="Trazado 6860" d="M88.063,0c48.636,0,88.063,6.406,88.063,14.308S136.7,28.617,88.063,28.617,0,22.211,0,14.308,39.427,0,88.063,0Z" transform="translate(292.201 497.388) rotate(180)" fill="#ffda1a"/>
    <path id="Trazado_6863" data-name="Trazado 6863" d="M140.762,0C218.5,0,281.525,21.331,281.525,47.645S218.5,95.29,140.762,95.29,0,73.959,0,47.645,63.022,0,140.762,0Z" transform="matrix(0.966, -0.259, 0.259, 0.966, 58.392, 467.494)" fill="none" stroke="#ffda1a" stroke-width="2"/>
    <g id="Grupo_2455" data-name="Grupo 2455" transform="translate(1.186 14.229)">
      <path id="Unión_1-2" data-name="Unión 1" d="M-10906.186-930.614a11.6,11.6,0,0,1,.222-2.3,11.654,11.654,0,0,1-.222-2.31c0-24.248,45.315-82,91-82s92,57.753,92,82a11.159,11.159,0,0,1-.378,2.949,12.063,12.063,0,0,1,.112,1.665c0,24.248-45.682,81.875-91.367,81.875S-10906.186-906.366-10906.186-930.614Z" transform="translate(11018 1406)" fill="#ffda1a"/>
    </g>
    <g id="Icon_feather-check-circle" data-name="Icon feather-check-circle" transform="translate(164 447)">
      <path id="Trazado_6855" data-name="Trazado 6855" d="M83.5,39.491v4c-.01,17.759-11.97,32.965-29,38a40.283,40.283,0,0,1-45-17,38.776,38.776,0,0,1,3-47c11.538-13.5,30.778-18.228,47-11" transform="translate(-3 -2.991)" fill="none" stroke="#000" stroke-linecap="round" stroke-linejoin="round" stroke-width="4"/>
      <path id="Trazado_6856" data-name="Trazado 6856" d="M65.93,6.455l-40,40-12-12" transform="translate(14.57 2.045)" fill="none" stroke="#000" stroke-linecap="round" stroke-linejoin="round" stroke-width="4"/>
    </g>
    <path id="Polígono_5" data-name="Polígono 5" d="M7.285,2.858a2,2,0,0,1,3.43,0l5.468,9.113A2,2,0,0,1,14.468,15H3.532a2,2,0,0,1-1.715-3.029Z" transform="matrix(0.485, 0.875, -0.875, 0.485, 65.196, 463.992)"/>
  </g>
</svg>
