<svg xmlns="http://www.w3.org/2000/svg" width="456.171" height="255.633" viewBox="0 0 456.171 255.633">
  <g id="Grupo_2866" data-name="Grupo 2866" transform="translate(-8565.072 -2037.248)">
    <g id="Background_Simple" data-name="Background Simple" transform="translate(8615.162 1959.063)">
      <g id="Grupo_2795" data-name="Grupo 2795">
        <path id="Trazado_7392" data-name="Trazado 7392" d="M81.582,299.65s24.3,55.543,85.919,73.677,127.3-6.043,181.03-24.225,81.975-64.728,70-112.354-27.4-71.111-78.4-77.111-53.985,16-115,24.488-134.089-69.751-150.1,0S81.582,299.65,81.582,299.65Z" transform="translate(-69.295 -75.7)" fill="#fedc00" opacity="0.18"/>
      </g>
    </g>
    <g id="Trees" transform="translate(8565.072 2037.248)">
      <g id="Grupo_2804" data-name="Grupo 2804">
        <g id="Grupo_2797" data-name="Grupo 2797" transform="translate(365.355)">
          <path id="Trazado_7394" data-name="Trazado 7394" d="M402.725,226.711s22.324,2.209,33.639,16.047c0,0,11.954-16.032,33.426-15.7a43.393,43.393,0,1,0-67.07-.307Z" transform="translate(-392.987 -155.975)" fill="#fedc00"/>
          <g id="Grupo_2796" data-name="Grupo 2796" transform="translate(22.291 3.06)">
            <path id="Trazado_7396" data-name="Trazado 7396" d="M436.745,159.117,435.991,303.8h3.768Z" transform="translate(-416.398 -159.117)"/>
            <path id="Trazado_7397" data-name="Trazado 7397" d="M437.916,240.275s7.536-13.565,21.1-17.711c0,0-14.319,3.391-21.478,15.072Z" transform="translate(-416.438 -160.768)"/>
            <path id="Trazado_7398" data-name="Trazado 7398" d="M437.916,200.813s7.536-13.565,21.1-17.71c0,0-14.319,3.391-21.478,15.072Z" transform="translate(-416.438 -159.741)"/>
            <path id="Trazado_7399" data-name="Trazado 7399" d="M437.916,220.544s7.536-13.565,21.1-17.71c0,0-14.319,3.39-21.478,15.072Z" transform="translate(-416.438 -160.255)"/>
            <path id="Trazado_7400" data-name="Trazado 7400" d="M436.235,210.872s-7.272-13.565-20.361-17.71c0,0,13.816,3.391,20.724,15.072Z" transform="translate(-415.874 -160.003)"/>
            <path id="Trazado_7401" data-name="Trazado 7401" d="M436.235,230.216s-7.272-13.565-20.361-17.71c0,0,13.816,3.39,20.724,15.072Z" transform="translate(-415.874 -160.506)"/>
          </g>
        </g>
        <g id="Grupo_2799" data-name="Grupo 2799">
          <path id="Trazado_7402" data-name="Trazado 7402" d="M27.606,226.711s22.323,2.209,33.639,16.047c0,0,11.954-16.032,33.425-15.7a43.393,43.393,0,1,0-67.07-.307Z" transform="translate(-17.867 -155.975)" fill="#fedc00"/>
          <g id="Grupo_2798" data-name="Grupo 2798" transform="translate(22.291 3.06)">
            <path id="Trazado_7404" data-name="Trazado 7404" d="M61.625,159.117,60.871,303.8h3.768Z" transform="translate(-41.278 -159.117)"/>
            <path id="Trazado_7405" data-name="Trazado 7405" d="M62.8,240.275s7.536-13.565,21.1-17.711c0,0-14.318,3.391-21.478,15.072Z" transform="translate(-41.318 -160.768)"/>
            <path id="Trazado_7406" data-name="Trazado 7406" d="M62.8,200.813s7.536-13.565,21.1-17.71c0,0-14.318,3.391-21.478,15.072Z" transform="translate(-41.318 -159.741)"/>
            <path id="Trazado_7407" data-name="Trazado 7407" d="M62.8,220.544s7.536-13.565,21.1-17.71c0,0-14.318,3.39-21.478,15.072Z" transform="translate(-41.318 -160.255)"/>
            <path id="Trazado_7408" data-name="Trazado 7408" d="M61.115,210.872s-7.272-13.565-20.361-17.71c0,0,13.816,3.391,20.724,15.072Z" transform="translate(-40.754 -160.003)"/>
            <path id="Trazado_7409" data-name="Trazado 7409" d="M61.115,230.216s-7.272-13.565-20.361-17.71c0,0,13.816,3.39,20.724,15.072Z" transform="translate(-40.754 -160.506)"/>
          </g>
        </g>
        <g id="Grupo_2801" data-name="Grupo 2801" transform="translate(276.427 26.822)">
          <path id="Trazado_7410" data-name="Trazado 7410" d="M309.652,241.408s18.272,1.808,27.532,13.134c0,0,9.785-13.121,27.357-12.852a35.515,35.515,0,1,0-54.894-.251Z" transform="translate(-301.682 -183.514)" fill="#fedc00"/>
          <g id="Grupo_2800" data-name="Grupo 2800" transform="translate(18.244 2.504)">
            <path id="Trazado_7412" data-name="Trazado 7412" d="M337.5,186.085,336.879,304.5h3.084Z" transform="translate(-320.843 -186.085)"/>
            <path id="Trazado_7413" data-name="Trazado 7413" d="M338.455,252.509s6.167-11.1,17.269-14.495c0,0-11.719,2.775-17.578,12.335Z" transform="translate(-320.876 -187.436)"/>
            <path id="Trazado_7414" data-name="Trazado 7414" d="M338.455,220.211s6.167-11.1,17.269-14.495c0,0-11.719,2.776-17.578,12.336Z" transform="translate(-320.876 -186.596)"/>
            <path id="Trazado_7415" data-name="Trazado 7415" d="M338.455,236.36s6.167-11.1,17.269-14.495c0,0-11.719,2.776-17.578,12.336Z" transform="translate(-320.876 -187.016)"/>
            <path id="Trazado_7416" data-name="Trazado 7416" d="M337.079,228.444s-5.952-11.1-16.665-14.495c0,0,11.308,2.776,16.962,12.336Z" transform="translate(-320.414 -186.81)"/>
            <path id="Trazado_7417" data-name="Trazado 7417" d="M337.079,244.276s-5.952-11.1-16.665-14.495c0,0,11.308,2.776,16.962,12.336Z" transform="translate(-320.414 -187.222)"/>
          </g>
        </g>
        <g id="Grupo_2803" data-name="Grupo 2803" transform="translate(99.643 26.822)">
          <path id="Trazado_7418" data-name="Trazado 7418" d="M128.143,241.408s18.271,1.808,27.532,13.134c0,0,9.784-13.121,27.357-12.852a35.515,35.515,0,1,0-54.895-.251Z" transform="translate(-120.173 -183.514)" fill="#fedc00"/>
          <g id="Grupo_2802" data-name="Grupo 2802" transform="translate(18.243 2.504)">
            <path id="Trazado_7420" data-name="Trazado 7420" d="M155.987,186.085,155.37,304.5h3.084Z" transform="translate(-139.333 -186.085)"/>
            <path id="Trazado_7421" data-name="Trazado 7421" d="M156.945,252.509s6.168-11.1,17.27-14.495c0,0-11.72,2.775-17.579,12.335Z" transform="translate(-139.366 -187.436)"/>
            <path id="Trazado_7422" data-name="Trazado 7422" d="M156.945,220.211s6.168-11.1,17.27-14.495c0,0-11.72,2.776-17.579,12.336Z" transform="translate(-139.366 -186.596)"/>
            <path id="Trazado_7423" data-name="Trazado 7423" d="M156.945,236.36s6.168-11.1,17.27-14.495c0,0-11.72,2.776-17.579,12.336Z" transform="translate(-139.366 -187.016)"/>
            <path id="Trazado_7424" data-name="Trazado 7424" d="M155.569,228.444s-5.952-11.1-16.665-14.495c0,0,11.309,2.776,16.963,12.336Z" transform="translate(-138.904 -186.81)"/>
            <path id="Trazado_7425" data-name="Trazado 7425" d="M155.569,244.276s-5.952-11.1-16.665-14.495c0,0,11.309,2.776,16.963,12.336Z" transform="translate(-138.904 -187.222)"/>
          </g>
        </g>
        <line id="Línea_148" data-name="Línea 148" x2="420.304" transform="translate(16.462 148.254)" fill="none" stroke="#000" stroke-miterlimit="10" stroke-width="1.047"/>
      </g>
    </g>
    <path id="Trazado_7521" data-name="Trazado 7521" d="M316.143,198.773s-1.64,6.793-1.64,7.965a9.687,9.687,0,0,1-.234,2.109s-3.514,4.216-3.046,5.388,2.342,2.109,2.342,2.109,1.874,6.793,3.748,7.262a45.148,45.148,0,0,0,5.857.7l.7,5.623,9.371-1.405-2.342-8.434.937-7.262s1.64-3.046,0-7.965-5.153-5.154-7.5-5.154A81.587,81.587,0,0,1,316.143,198.773Z" transform="translate(8539.57 1880.159)" fill="#fff" stroke="#000" stroke-linecap="round" stroke-linejoin="round" stroke-width="1.047"/>
    <path id="Trazado_7522" data-name="Trazado 7522" d="M320.392,195.165s-8.2-.234-7.965,1.874,8.668,4.92,8.668,4.92-2.811,1.875-1.405,3.749a16.133,16.133,0,0,0,4.685,3.514s-.937,3.983.468,4.216,2.343-1.874,2.577-2.577,2.811-.468,3.514,1.406a9.631,9.631,0,0,1,.7,3.045s2.811-8.434,3.279-12.181S324.843,195.165,320.392,195.165Z" transform="translate(8539.538 1880.253)" stroke="#000" stroke-linecap="round" stroke-linejoin="round" stroke-width="1.047"/>
    <path id="Trazado_7523" data-name="Trazado 7523" d="M325.944,213.9s2.826-6.229,4.526-3.168,1.008,6.263-.691,6.6-3.061.68-3.061.68" transform="translate(8539.186 1879.87)" fill="#fff" stroke="#000" stroke-linecap="round" stroke-linejoin="round" stroke-width="1.047"/>
    <path id="Trazado_7524" data-name="Trazado 7524" d="M313.3,280.726c-.463.529-7.965,16.633-8.9,22.021s-7.028,37.482-7.262,38.888-13.119,4.217-14.056,4.451.937,2.812,3.749,3.514,10.776,3.983,12.65,2.109,4.451-12.416,5.154-13.588,13.888-32.237,13.888-32.237,6.755-14.916,8.162-16.323-1.669-7.663-2.84-9.537S316.576,276.978,313.3,280.726Z" transform="translate(8540.308 1878.09)" stroke="#000" stroke-linecap="round" stroke-linejoin="round" stroke-width="1.047"/>
    <path id="Trazado_7525" data-name="Trazado 7525" d="M312.63,280.908s3.279,15.7,4.92,21.318a44.751,44.751,0,0,0,6.793,13.118c1.874,2.577,11.011,25.3,11.011,25.3l1.405,3.514s-.468,1.405-3.046,3.28-9.839,4.92-7.965,5.622,9.371.7,12.885.469a12.17,12.17,0,0,0,7.965-3.748c1.405-1.64-2.342-6.325-2.342-7.263s-8.2-29.517-8.667-30.923-2.812-11.479-2.812-11.479V288.638s1.172-2.108,1.172-6.793-3.514-5.623-3.514-5.623l-19.21,1.875Z" transform="translate(8539.568 1878.143)" stroke="#000" stroke-linecap="round" stroke-linejoin="round" stroke-width="1.047"/>
    <path id="Trazado_7526" data-name="Trazado 7526" d="M310.984,279.556s.468,3.983,1.874,4.216,15.93,4.217,22.255-.468c0,0,1.172-3.514.469-4.451s-2.343-.468-10.777-.468S310.984,278.384,310.984,279.556Z" transform="translate(8539.575 1878.09)" fill="#fedc00" stroke="#000" stroke-linecap="round" stroke-linejoin="round" stroke-width="1.047"/>
    <path id="Trazado_7527" data-name="Trazado 7527" d="M332.5,225.712s-8.668,1.172-12.416,4.92-7.028,10.542-8.668,16.867-2.811,29.517-.468,30.689,22.021,2.342,25.3.937-.234-12.416-.234-16.632,3.748-18.507,3.045-26.472S332.5,225.712,332.5,225.712Z" transform="translate(8539.611 1879.458)" fill="#fedc00" stroke="#000" stroke-linecap="round" stroke-linejoin="round" stroke-width="1.047"/>
    <g id="Grupo_2857" data-name="Grupo 2857" transform="translate(8802.635 2078.333)">
      <path id="Trazado_7437" data-name="Trazado 7437" d="M299.926,250.083c-.1-9.639-4.037-17.872-9.263-21.447l-.02-1.969-14.416.152c-8.115.086-14.583,10.682-14.446,23.666s6.828,23.442,14.943,23.357l14.415-.152-.02-1.969C296.267,268.036,300.029,259.722,299.926,250.083Z" transform="translate(-261.779 -198.899)" stroke="#000" stroke-linecap="round" stroke-linejoin="round" stroke-width="1.047"/>
      <path id="Trazado_7438" data-name="Trazado 7438" d="M306.815,249.98c-.106-10.127-4.012-18.781-9.5-22.537l-.021-2.07-6.176.065c-8.527.091-15.323,11.224-15.179,24.867s7.174,24.631,15.7,24.54l6.176-.065-.022-2.069C303.2,268.841,306.922,260.108,306.815,249.98Z" transform="translate(-262.147 -198.866)" fill="#fff" stroke="#000" stroke-linecap="round" stroke-linejoin="round" stroke-width="1.047"/>
      <path id="Trazado_7439" data-name="Trazado 7439" d="M313.156,249.915c.144,13.643-6.651,24.777-15.178,24.866s-15.557-10.9-15.7-24.54,6.652-24.777,15.179-24.867S313.011,236.272,313.156,249.915Z" transform="translate(-262.312 -198.866)" fill="#d9dfe5" stroke="#000" stroke-linecap="round" stroke-linejoin="round" stroke-width="1.047"/>
      <path id="Trazado_7440" data-name="Trazado 7440" d="M309.965,249.824c.068,6.467-3.153,11.743-7.195,11.786s-7.373-5.165-7.441-11.631,3.153-11.743,7.194-11.786S309.9,243.358,309.965,249.824Z" transform="translate(-262.652 -199.199)" stroke="#000" stroke-linecap="round" stroke-linejoin="round" stroke-width="1.047"/>
      <g id="Grupo_2807" data-name="Grupo 2807" transform="translate(103.338)">
        <path id="Trazado_7441" data-name="Trazado 7441" d="M426.981,299.481A118.2,118.2,0,0,0,428,281.373c-3.162,1.46-21.631,1.991-23.326,2.037-1.695-.046-20.163-.577-23.326-2.037a118.2,118.2,0,0,0,1.02,18.108c1.276,7.907,12.5,39.53,12.752,41.062a34.082,34.082,0,0,0,1.275,4.335s-6.376,4.591-9.181,6.376-.766,2.551,2.04,2.551,8.672-.766,10.457-.766c1.57,0,4.322-1.379,4.962-1.712.641.333,3.392,1.712,4.963,1.712,1.785,0,7.651.766,10.457.766s4.845-.766,2.039-2.551-9.181-6.376-9.181-6.376a34.074,34.074,0,0,0,1.275-4.335C414.484,339.012,425.7,307.388,426.981,299.481Z" transform="translate(-368.229 -200.323)" stroke="#000" stroke-linecap="round" stroke-linejoin="round" stroke-width="1.047"/>
        <g id="Grupo_2805" data-name="Grupo 2805" transform="translate(0 31.487)">
          <path id="Trazado_7442" data-name="Trazado 7442" d="M400.467,230.486s-9.861,3.231-14.962,6.461-10.2,20.743-10.2,21.423a21.627,21.627,0,0,1-1.19,3.57s-5.1-1.189-6.121,3.061,5.1,9.691,8.331,9.861,4.251-.85,4.251-.85-2.04,4.081-1.19,5.78,7.99,7.991,22.1,7.822,24.313-2.551,25.843-4.591,1.7-6.291,1.7-6.291,5.271-1.36,7.141-4.761,1.53-6.971.51-10.541-6.291-13.942-9.861-19.723S415.77,232.7,412.2,231.676,402.847,230.486,400.467,230.486Z" transform="translate(-367.879 -230.486)" fill="#fedc00" stroke="#000" stroke-linecap="round" stroke-linejoin="round" stroke-width="1.047"/>
          <path id="Trazado_7443" data-name="Trazado 7443" d="M404.2,244.809c1.416-.471,5.821-4.405,7.552-8.339a19.085,19.085,0,0,0,1.415-4.726c-.074-.021-.155-.048-.225-.068-3.571-1.02-9.352-1.19-11.732-1.19,0,0-2.064.678-4.785,1.718a17.254,17.254,0,0,0,1.166,6.154C399.165,242.292,402.783,245.282,404.2,244.809Z" transform="translate(-368.622 -230.486)" fill="#fff" stroke="#000" stroke-linecap="round" stroke-linejoin="round" stroke-width="1.047"/>
          <path id="Trazado_7444" data-name="Trazado 7444" d="M421.065,253.355s4.08,21.763,8.671,23.973" transform="translate(-369.263 -231.081)" fill="none" stroke="#000" stroke-linecap="round" stroke-linejoin="round" stroke-width="1.047"/>
          <path id="Trazado_7445" data-name="Trazado 7445" d="M380.914,274.612s5.1-19.213,5.441-21.083" transform="translate(-368.218 -231.086)" fill="none" stroke="#000" stroke-linecap="round" stroke-linejoin="round" stroke-width="1.047"/>
          <path id="Trazado_7446" data-name="Trazado 7446" d="M427.758,263.449s-2.832.629-2.832,2.674" transform="translate(-369.364 -231.344)" fill="none" stroke="#000" stroke-linecap="round" stroke-linejoin="round" stroke-width="1.047"/>
          <path id="Trazado_7447" data-name="Trazado 7447" d="M378.558,263.772s3.147,2.045,2.832,5.192" transform="translate(-368.157 -231.352)" fill="none" stroke="#000" stroke-linecap="round" stroke-linejoin="round" stroke-width="1.047"/>
        </g>
        <path id="Trazado_7448" data-name="Trazado 7448" d="M399.834,354.736c1.57,0,4.322-1.379,4.962-1.712.641.333,3.392,1.712,4.963,1.712,1.785,0,7.651.766,10.457.766s4.845-.766,2.039-2.551c-2.437-1.551-7.564-5.215-8.869-6.152-3.01,2.752-8.962,2.072-8.962,2.072a30.5,30.5,0,0,1-3.571-.766c-1.785-.509-4.336-1.53-4.336-1.53s-6.376,4.591-9.181,6.376-.766,2.551,2.04,2.551S398.049,354.736,399.834,354.736Z" transform="translate(-368.35 -202.021)" fill="#fedc00" stroke="#000" stroke-linecap="round" stroke-linejoin="round" stroke-width="1.047"/>
        <g id="Grupo_2806" data-name="Grupo 2806" transform="translate(32.503 98.647)">
          <line id="Línea_149" data-name="Línea 149" y1="44.473" transform="translate(3.571 1.53)" fill="none" stroke="#fff" stroke-linecap="round" stroke-linejoin="round" stroke-width="1.047"/>
          <path id="Trazado_7449" data-name="Trazado 7449" d="M405.289,353.026l-.372-4.153v-2.2" transform="translate(-401.346 -300.671)" fill="none" stroke="#263238" stroke-linecap="round" stroke-linejoin="round" stroke-width="1.047"/>
          <line id="Línea_150" data-name="Línea 150" x2="7.396" fill="none" stroke="#fff" stroke-linecap="round" stroke-linejoin="round" stroke-width="1.047"/>
        </g>
        <path id="Trazado_7450" data-name="Trazado 7450" d="M391.21,204.126s-5.3,3.183-4.508,5.968,3.182,3.314,2.652,4.906-2.387,2.52-.265,3.448a17.429,17.429,0,0,0,3.713,1.193s1.989,6.763,5.3,7.956,9.15.4,13.26-.132a6.881,6.881,0,0,0,5.967-5.039c.4-1.458-1.724.266-2.785-1.326s.53-5.7,1.724-9.282-2.387-10.344-7.028-12.6S395.719,198.159,391.21,204.126Z" transform="translate(-368.367 -198.157)" stroke="#000" stroke-linecap="round" stroke-linejoin="round" stroke-width="1.047"/>
        <path id="Trazado_7451" data-name="Trazado 7451" d="M400.428,227.924a36.278,36.278,0,0,0-1.36,6.8c-.17,2.891,2.21,6.12,4.761,5.951s4.761-5.271,5.1-7.821-.85-9.352-.85-9.352-3.911.17-5.441,1.53A9.509,9.509,0,0,0,400.428,227.924Z" transform="translate(-368.69 -198.817)" fill="#fff" stroke="#000" stroke-linecap="round" stroke-linejoin="round" stroke-width="1.047"/>
        <path id="Trazado_7452" data-name="Trazado 7452" d="M396.773,208.1s.132,3.979,4.111,7.824a24.65,24.65,0,0,0,8.354,5.3,7.5,7.5,0,0,1-.663,2.519,1.852,1.852,0,0,1-1.856.929h-1.326s-1.925,4.566-4.312,5.229-8.153.207-8.949-5.628-.928-10.608-.266-11.8S396.773,208.1,396.773,208.1Z" transform="translate(-368.492 -198.416)" fill="#fff" stroke="#000" stroke-linecap="round" stroke-linejoin="round" stroke-width="1.047"/>
      </g>
      <path id="Trazado_7453" data-name="Trazado 7453" d="M439.6,260.552a10.727,10.727,0,0,0,1.077-3.928c0-1.775-3.295-4.308-3.928-4.942s-1.2-.57-1.33.317a3.644,3.644,0,0,0,1.141,2.661,3,3,0,0,1,1.027,1.533c.051.431-1.09,2.585-.52,3.979S439.283,262.009,439.6,260.552Z" transform="translate(-266.298 -199.54)" fill="#fff" stroke="#000" stroke-linecap="round" stroke-linejoin="round" stroke-width="1.047"/>
      <path id="Trazado_7454" data-name="Trazado 7454" d="M304.284,250.585s14.281,4.591,22.953,15.3,14.281,9.181,24.993,5.61,14.793-16.322,29.585-5.61,17.852,14.792,30.094,8.671S430.783,253.646,442,258.747s6.121,31.114,7.141,43.867-.509,44.377,2.04,48.457,28.565,1.021,28.565,1.021" transform="translate(-262.885 -199.522)" fill="none" stroke="#000" stroke-linecap="round" stroke-linejoin="round" stroke-width="3.142"/>
    </g>
    <g id="Grupo_2858" data-name="Grupo 2858" transform="translate(8817.112 2108.732)">
      <path id="Trazado_7455" data-name="Trazado 7455" d="M330.416,233.012s-2.861-4.656-7.065-3.439c-4.445,1.287-6.75,7.65-7.814,11.615-1.07,3.985-1.738,8.243-3.65,11.934,0,0-8.436-.145-13.136-1.5a111.332,111.332,0,0,1-10.583-3.872s-1.664-2.325-2.841-2.781-4.231-1.362-4.458-.656,3.546,3.009,3.546,3.009-7.017,1.011-7.713,1.721,4.951,2.993,4.951,2.993,2.116.681,7.257-.544c0,0,18.869,11.983,22.632,13.349s5.876,1.812,8.4-3.134,11.063-17.22,12.417-22.154" transform="translate(-276.642 -229.37)" fill="#fedc00" stroke="#000" stroke-linecap="round" stroke-linejoin="round" stroke-width="1.047"/>
      <path id="Trazado_7456" data-name="Trazado 7456" d="M293.087,250.1c-2.751-1.03-4.921-1.957-4.921-1.957s-1.664-2.325-2.841-2.781-4.231-1.362-4.458-.656,3.546,3.009,3.546,3.009-7.017,1.011-7.713,1.721,4.951,2.993,4.951,2.993,2.116.681,7.257-.544c0,0,1.027.652,2.638,1.662Z" transform="translate(-276.642 -229.762)" fill="#fff" stroke="#000" stroke-linecap="round" stroke-linejoin="round" stroke-width="1.047"/>
    </g>
    <g id="Grupo_2859" data-name="Grupo 2859" transform="translate(8905.197 2131.844)">
      <path id="Trazado_7457" data-name="Trazado 7457" d="M368.159,262.389a10.72,10.72,0,0,1-1.077-3.928c0-1.774,3.295-4.308,3.928-4.941s1.2-.571,1.33.317a3.646,3.646,0,0,1-1.14,2.661,3,3,0,0,0-1.028,1.532c-.05.431,1.091,2.586.52,3.98S368.477,263.846,368.159,262.389Z" transform="translate(-367.082 -253.099)" fill="#fff" stroke="#000" stroke-linecap="round" stroke-linejoin="round" stroke-width="1.047"/>
      <g id="Grupo_2811" data-name="Grupo 2811" transform="translate(1.718 2.936)">
        <path id="Trazado_7458" data-name="Trazado 7458" d="M370.476,257.122s-2.713,5.016-1.14,6.783,3.108-4.054,3.4-5.671S371.483,255.014,370.476,257.122Z" transform="translate(-368.846 -256.113)" fill="#fff" stroke="#000" stroke-linecap="round" stroke-linejoin="round" stroke-width="1.047"/>
        <path id="Trazado_7459" data-name="Trazado 7459" d="M372.777,258.922s-2.714,5.016-1.141,6.784,3.109-4.055,3.4-5.672S373.784,256.815,372.777,258.922Z" transform="translate(-368.906 -256.16)" fill="#fff" stroke="#000" stroke-linecap="round" stroke-linejoin="round" stroke-width="1.047"/>
        <path id="Trazado_7460" data-name="Trazado 7460" d="M375.3,259.4s-2.713,5.016-1.14,6.784,3.109-4.055,3.4-5.672S376.31,257.3,375.3,259.4Z" transform="translate(-368.972 -256.173)" fill="#fff" stroke="#000" stroke-linecap="round" stroke-linejoin="round" stroke-width="1.047"/>
        <path id="Trazado_7461" data-name="Trazado 7461" d="M378.546,259.443s-2.531,3.943-1.144,5.37,2.872-3.159,3.158-4.493S379.486,257.7,378.546,259.443Z" transform="translate(-369.058 -256.178)" fill="#fff" stroke="#000" stroke-linecap="round" stroke-linejoin="round" stroke-width="1.047"/>
      </g>
    </g>
    <g id="Grupo_2860" data-name="Grupo 2860" transform="translate(8964.214 2134.978)">
      <g id="Grupo_2813" data-name="Grupo 2813">
        <path id="Trazado_7462" data-name="Trazado 7462" d="M437.791,257.326s2.713,5.016,1.14,6.783-3.109-4.055-3.4-5.672S436.784,255.218,437.791,257.326Z" transform="translate(-427.88 -256.317)" fill="#fff" stroke="#000" stroke-linecap="round" stroke-linejoin="round" stroke-width="1.047"/>
        <path id="Trazado_7463" data-name="Trazado 7463" d="M435.49,259.126s2.713,5.016,1.14,6.784-3.109-4.055-3.4-5.672S434.484,257.018,435.49,259.126Z" transform="translate(-427.82 -256.364)" fill="#fff" stroke="#000" stroke-linecap="round" stroke-linejoin="round" stroke-width="1.047"/>
        <path id="Trazado_7464" data-name="Trazado 7464" d="M432.963,259.607s2.713,5.016,1.141,6.783-3.109-4.055-3.4-5.672S431.957,257.5,432.963,259.607Z" transform="translate(-427.754 -256.376)" fill="#fff" stroke="#000" stroke-linecap="round" stroke-linejoin="round" stroke-width="1.047"/>
        <path id="Trazado_7465" data-name="Trazado 7465" d="M429.728,259.646s2.532,3.944,1.144,5.37-2.871-3.159-3.158-4.493S428.789,257.9,429.728,259.646Z" transform="translate(-427.676 -256.382)" fill="#fff" stroke="#000" stroke-linecap="round" stroke-linejoin="round" stroke-width="1.047"/>
      </g>
    </g>
    <g id="Grupo_2863" data-name="Grupo 2863" transform="translate(8623.109 2134.517)">
      <g id="Grupo_2816" data-name="Grupo 2816" transform="translate(0 115.543)">
        <path id="Trazado_7466" data-name="Trazado 7466" d="M85.506,316.58v5.533a17.6,17.6,0,0,0-4.023,7.376c-1.174,4.527-4.862,23.974-3.856,24.478s10.12,2.6,13.057,2.164c3.353-.5,6.2-.336,4.527-2.18s-10.543-7.026-10.543-7.026,9.724-14.083,11.9-19.28S99.086,314.4,99.086,314.4l-13.077-.5Z" transform="translate(-77.454 -313.898)" fill="#fff" stroke="#000" stroke-linecap="round" stroke-linejoin="round" stroke-width="1.047"/>
        <path id="Trazado_7467" data-name="Trazado 7467" d="M90.683,357.014c3.353-.5,6.2-.336,4.527-2.18s-10.543-7.026-10.543-7.026l-.335,2.012-6.379-.781c-.467,3.249-.672,5.638-.327,5.811C78.632,355.352,87.746,357.454,90.683,357.014Z" transform="translate(-77.454 -314.781)" stroke="#000" stroke-linecap="round" stroke-linejoin="round" stroke-width="1.047"/>
      </g>
      <g id="Grupo_2817" data-name="Grupo 2817" transform="translate(39.067 115.268)">
        <path id="Trazado_7468" data-name="Trazado 7468" d="M118.571,319.436l1.509,2.682a9.819,9.819,0,0,0-.5,7.879c1.509,4.695,5.03,21.963,5.03,22.969s2.18,1.676,3.856,1.676,6.494.33,7.165.33,5.532.839,7.208-.168-2.135-3.012-4.65-4.186-8.048-4.191-8.048-4.191,1.342-13.748,1.342-19.783,1.341-8.048-.5-11.736-13.413,1.677-13.413,1.677Z" transform="translate(-117.565 -313.615)" fill="#fff" stroke="#000" stroke-linecap="round" stroke-linejoin="round" stroke-width="1.047"/>
        <path id="Trazado_7469" data-name="Trazado 7469" d="M138.361,351.5c-2.515-1.174-8.048-4.191-8.048-4.191l-.67,2.515-5.379.968c.319,1.668.517,2.818.517,3.055,0,1.005,2.18,1.676,3.856,1.676s6.494.33,7.165.33,5.532.839,7.208-.168S140.876,352.671,138.361,351.5Z" transform="translate(-117.739 -314.492)" stroke="#000" stroke-linecap="round" stroke-linejoin="round" stroke-width="1.047"/>
      </g>
      <g id="Grupo_2819" data-name="Grupo 2819" transform="translate(2.372)">
        <g id="Grupo_2818" data-name="Grupo 2818" transform="translate(6.641)">
          <path id="Trazado_7470" data-name="Trazado 7470" d="M108.808,204.8a45.833,45.833,0,0,0-4.483-6.364c-2.314-2.6-9.545-2.458-12.727,1.013s-2.169,9.545-1.012,11.281,3.615,9.834,3.615,9.834l.579,5.784,13.45,4.772-2.748-9.4s5.207-1.013,5.64-2.6-.868-7.087-.868-7.087,1.736-1.157,1.59-2.169S108.808,204.8,108.808,204.8Z" transform="translate(-86.78 -195.303)" fill="#fff" stroke="#000" stroke-linecap="round" stroke-linejoin="round" stroke-width="1.047"/>
          <path id="Trazado_7471" data-name="Trazado 7471" d="M93.262,210.982s2.3,1.919,3.561-.285a13.8,13.8,0,0,0,2.2-6.3c0-1.89-4.724-3.464-1.575-4.724s5.415,1.543,6.8-1.276.127-3.132-7.43-3.132-11.336,3.778-9.762,8.5a63.516,63.516,0,0,0,4.724,10.077Z" transform="translate(-86.708 -195.267)" stroke="#000" stroke-linecap="round" stroke-linejoin="round" stroke-width="1.047"/>
          <path id="Trazado_7472" data-name="Trazado 7472" d="M109.578,208.335a3.616,3.616,0,1,1-3.615-3.615A3.615,3.615,0,0,1,109.578,208.335Z" transform="translate(-87.115 -195.513)" fill="none" stroke="#000" stroke-linecap="round" stroke-linejoin="round" stroke-width="1.047"/>
          <path id="Trazado_7473" data-name="Trazado 7473" d="M109.229,205.135a3.4,3.4,0,0,1,2.974,6.1" transform="translate(-87.295 -195.517)" fill="none" stroke="#000" stroke-linecap="round" stroke-linejoin="round" stroke-width="1.047"/>
          <line id="Línea_151" data-name="Línea 151" x1="8.677" y2="2.892" transform="translate(6.554 12.822)" fill="#fff" stroke="#000" stroke-linecap="round" stroke-linejoin="round" stroke-width="1.047"/>
          <path id="Trazado_7474" data-name="Trazado 7474" d="M95.843,213.252s-1.735-3.615-3.47-2.893-.868,6.364.868,6.942a3.738,3.738,0,0,0,3.326-.868s1.446,3.037,3.182,3.9" transform="translate(-86.831 -195.657)" fill="#fff" stroke="#000" stroke-linecap="round" stroke-linejoin="round" stroke-width="1.047"/>
        </g>
        <path id="Trazado_7475" data-name="Trazado 7475" d="M84.207,279.74l-1.079,13.849-3.237,20.5s7.553,5.935,14.568,5.935,8.993-.9,8.993-.9l3.956-21.043,3.957,22.122s7.733-1.259,12.949-2.518a34.325,34.325,0,0,0,10.072-4.676l-10.431-27.158-2.264-14s-11.69,1.078-18.7,1.439-16.367-1.439-16.367-1.439Z" transform="translate(-79.89 -197.261)" fill="#fedc00" stroke="#000" stroke-linecap="round" stroke-linejoin="round" stroke-width="1.047"/>
        <path id="Trazado_7476" data-name="Trazado 7476" d="M91.7,223.177s16.565,5.781,21.666,11.392c2.827,3.11,5.991,24.439,7.131,29.65s3.129,15.618,3.129,15.618-10.1,4.56-17.916,4.723-22.8-3.421-22.8-3.421,1.787-23.106,1.787-33.856.163-17.753,1.955-21.173C86.648,226.11,89.58,222.852,91.7,223.177Z" transform="translate(-79.969 -195.993)" stroke="#000" stroke-linecap="round" stroke-linejoin="round" stroke-width="1.047"/>
        <path id="Trazado_7477" data-name="Trazado 7477" d="M87.374,284.383s.9,15.107,0,20.682A42.884,42.884,0,0,1,84.137,315.5" transform="translate(-80.001 -197.587)" fill="none" stroke="#000" stroke-linecap="round" stroke-linejoin="round" stroke-width="1.047"/>
        <path id="Trazado_7478" data-name="Trazado 7478" d="M87.83,291.606a8.248,8.248,0,0,0,5.4-6.115" transform="translate(-80.097 -197.616)" fill="none" stroke="#000" stroke-linecap="round" stroke-linejoin="round" stroke-width="1.047"/>
        <path id="Trazado_7479" data-name="Trazado 7479" d="M80.813,312.266s8.993,7.733,23.021,4.856" transform="translate(-79.914 -198.313)" fill="none" stroke="#000" stroke-linecap="round" stroke-linejoin="round" stroke-width="1.047"/>
        <path id="Trazado_7480" data-name="Trazado 7480" d="M111.836,316.723s14.747-1.619,21.222-5.934" transform="translate(-80.722 -198.274)" fill="none" stroke="#000" stroke-linecap="round" stroke-linejoin="round" stroke-width="1.047"/>
      </g>
    </g>
    <path id="Trazado_7528" data-name="Trazado 7528" d="M179.1,216s-1.419,1.058-6.378,4.674-1.049,9.1-1.049,9.1-3.549.556-8.281,5.527,2.111,13.522,8.516,14.859,13.873-6.59,16.119-13.926-.724-18.421-2.214-20.709S179.1,216,179.1,216Z" transform="translate(8543.459 1938.747)" stroke="#000" stroke-linecap="round" stroke-linejoin="round" stroke-width="1.047"/>
    <path id="Trazado_7529" data-name="Trazado 7529" d="M198.283,214.573s2.47-3.813.233-9.332-8.885-8.043-15.375-4.046a11.422,11.422,0,0,0-5.191,12.949c.634,2.554,3.832,6.478,4.5,6.529s6.506,2.181,10.492.323S198.283,214.573,198.283,214.573Z" transform="translate(8543.049 1939.147)" stroke="#000" stroke-linecap="round" stroke-linejoin="round" stroke-width="1.047"/>
    <path id="Trazado_7530" data-name="Trazado 7530" d="M187.066,229.7s-11.823,1.742-13.987,5.913.888,26.948.888,26.948-5.048,11.123-5.11,18.3,3.122,19.777,2.873,22.93-3.488,38.938-3.488,39.937,6.824,3.163,16.643,4.327,28.627-2.331,28.627-2.331-.376-21.13.615-33.74-.426-23.928-2.895-28.63-14.16-21.646-14.16-21.646,5.646-10.241,6-14.722-1.47-6.792-5.738-11.969A14.87,14.87,0,0,0,187.066,229.7Z" transform="translate(8543.292 1938.354)" fill="#fedc00" stroke="#000" stroke-linecap="round" stroke-linejoin="round" stroke-width="1.047"/>
    <path id="Trazado_7531" data-name="Trazado 7531" d="M185.328,221.119a72.8,72.8,0,0,1,.536,8.055c-.156,1.992.488,6.55,3.881,7.985s5.554-.565,5.544-2.569a20.661,20.661,0,0,0-.95-4.916l.1-5.5S188.546,220.537,185.328,221.119Z" transform="translate(8542.847 1938.579)" fill="#fff" stroke="#000" stroke-linecap="round" stroke-linejoin="round" stroke-width="1.047"/>
    <path id="Trazado_7532" data-name="Trazado 7532" d="M182.12,217.12s-2.5-2.2-2.58.966,2.839,4.229,3.49,4.447a2.167,2.167,0,0,0,1.533-.38s4.538,3.862,8.188,4.149,5.121-1.435,5.974-8.045-5.966-13.324-5.966-13.324S186.909,215.66,182.12,217.12Z" transform="translate(8542.998 1938.999)" fill="#fff" stroke="#000" stroke-linecap="round" stroke-linejoin="round" stroke-width="1.047"/>
    <path id="Trazado_7534" data-name="Trazado 7534" d="M124.96,281.024a8.827,8.827,0,0,1,.543-3.306c.609-1.327,3.941-2.09,4.632-2.346s1.1-.013.885.693a3,3,0,0,1-1.766,1.6,2.469,2.469,0,0,0-1.293.794c-.185.3-.072,2.307-.977,3.153S124.7,282.222,124.96,281.024Z" transform="translate(8544.419 1937.168)" fill="#fff" stroke="#000" stroke-linecap="round" stroke-linejoin="round" stroke-width="1.047"/>
    <path id="Trazado_7533" data-name="Trazado 7533" d="M196.973,251.106s-11.731-1.53-16.832,6.631-14.793,36.725-32.645,41.317-22.953-32.135-33.664-31.115c-10.206.972-17.342,0-23.464,11.222-3.277,6.007-19.632,71.623-27.372,72.3-24.629,2.147-40.482.75-40.482.75" transform="translate(8547.086 1937.8)" fill="none" stroke="#000" stroke-linecap="round" stroke-linejoin="round" stroke-width="3.142"/>
    <g id="Grupo_2864" data-name="Grupo 2864" transform="translate(8619.043 2161.897)">
      <path id="Trazado_7491" data-name="Trazado 7491" d="M92.2,223.649s-2.7-1.079-6.295,1.079S72.6,250.447,73.317,252.964s10.971,7.194,16.726,8.812,16.186,3.6,16.186,3.6,3.237,5.036,4.317,5.217a23.846,23.846,0,0,0,4.676-.54s1.979,1.618,2.7-.18-.719-4.136-2.338-5.935-8.453-2.7-8.453-2.7L88.6,248.468l7.733-14.388" transform="translate(-73.279 -223.379)" stroke="#000" stroke-linecap="round" stroke-linejoin="round" stroke-width="1.047"/>
      <path id="Trazado_7492" data-name="Trazado 7492" d="M110.546,271.025a23.833,23.833,0,0,0,4.676-.541s1.979,1.619,2.7-.179-.719-4.136-2.338-5.935-8.453-2.7-8.453-2.7L88.6,248.9l2.766-5.146c-6.933-4.319-11.521-3.994-14-3.127-2.488,5.957-4.381,11.607-4.049,12.77.72,2.518,10.971,7.194,16.726,8.812s16.186,3.6,16.186,3.6S109.467,270.845,110.546,271.025Z" transform="translate(-73.279 -223.814)" fill="#fff" stroke="#000" stroke-linecap="round" stroke-linejoin="round" stroke-width="1.047"/>
    </g>
    <g id="Grupo_2861" data-name="Grupo 2861" transform="translate(8738.378 2167.706)">
      <path id="Trazado_7493" data-name="Trazado 7493" d="M229.591,250.986c-.789-8.5-4.86-15.483-9.733-18.26l-.161-1.737-12.714,1.179c-7.158.664-12.1,10.487-11.036,21.939s7.727,20.2,14.884,19.534l12.713-1.179-.161-1.737C227.662,267.1,230.38,259.487,229.591,250.986Z" transform="translate(-195.803 -229.386)" stroke="#000" stroke-linecap="round" stroke-linejoin="round" stroke-width="1.047"/>
      <path id="Trazado_7494" data-name="Trazado 7494" d="M235.665,250.41c-.828-8.932-4.9-16.287-10.022-19.2l-.169-1.825-5.446.505c-7.521.7-12.713,11.018-11.6,23.051s8.118,21.222,15.639,20.524l5.446-.506-.169-1.825C233.843,267.322,236.494,259.343,235.665,250.41Z" transform="translate(-196.128 -229.344)" fill="#fff" stroke="#000" stroke-linecap="round" stroke-linejoin="round" stroke-width="1.047"/>
      <path id="Trazado_7495" data-name="Trazado 7495" d="M241.258,249.9c1.116,12.032-4.075,22.354-11.6,23.051s-14.522-8.491-15.639-20.524,4.076-22.354,11.6-23.051S240.142,237.871,241.258,249.9Z" transform="translate(-196.274 -229.343)" fill="#fff" stroke="#000" stroke-linecap="round" stroke-linejoin="round" stroke-width="1.047"/>
      <path id="Trazado_7496" data-name="Trazado 7496" d="M247.387,243.108l-21.128,1.961a2.264,2.264,0,0,1-2.463-2.045h0a2.264,2.264,0,0,1,2.045-2.464l21.127-1.961a2.265,2.265,0,0,1,2.464,2.045h0A2.265,2.265,0,0,1,247.387,243.108Z" transform="translate(-196.532 -229.583)" fill="#fedc00" stroke="#000" stroke-linecap="round" stroke-linejoin="round" stroke-width="1.047"/>
      <path id="Trazado_7497" data-name="Trazado 7497" d="M248.982,260.3l-21.128,1.961a2.264,2.264,0,0,1-2.463-2.045h0a2.264,2.264,0,0,1,2.045-2.463l21.128-1.961a2.263,2.263,0,0,1,2.463,2.045h0A2.263,2.263,0,0,1,248.982,260.3Z" transform="translate(-196.573 -230.031)" fill="#fedc00" stroke="#000" stroke-linecap="round" stroke-linejoin="round" stroke-width="1.047"/>
    </g>
    <g id="Grupo_2862" data-name="Grupo 2862" transform="translate(8709.189 2169.646)">
      <path id="Trazado_7498" data-name="Trazado 7498" d="M179.7,231.335s-5.081.936-7.486,3.919-7.343,25.467-6.211,28.06,19.405,5.865,25.048,6.308a80.3,80.3,0,0,0,13.569-.6s4.851-.12,6.2-.348,3.794-1.538,3.834-2.036-.2-1.686-2.027-1.829-5.729-1.451-6.227-1.49a31.6,31.6,0,0,1,3.562-.723s.244-.982-1.76-.973-3.829-.133-4.583.976a16.267,16.267,0,0,0-1.383,2.729s-11.247.786-17.357-2.2-8.035-3.971-8.035-3.971l4.381-17.519" transform="translate(-165.835 -231.335)" fill="#fedc00" stroke="#000" stroke-linecap="round" stroke-linejoin="round" stroke-width="1.047"/>
      <path id="Trazado_7499" data-name="Trazado 7499" d="M210.824,269.057c1.353-.227,3.793-1.538,3.833-2.036s-.2-1.686-2.027-1.829-5.729-1.451-6.227-1.491a31.792,31.792,0,0,1,3.562-.722s.244-.982-1.76-.973-3.829-.133-4.583.976a16.267,16.267,0,0,0-1.383,2.729s-11.247.786-17.357-2.2-8.035-3.971-8.035-3.971l2.672-10.682a38.187,38.187,0,0,0-10.88-2.7c-1.821,7.348-3.311,15.994-2.636,17.543,1.132,2.593,19.405,5.865,25.048,6.308a80.3,80.3,0,0,0,13.569-.6S209.47,269.285,210.824,269.057Z" transform="translate(-165.836 -231.721)" fill="#fff" stroke="#000" stroke-linecap="round" stroke-linejoin="round" stroke-width="1.047"/>
    </g>
    <g id="Grupo_2865" data-name="Grupo 2865" transform="translate(8668.647 2215.88)">
      <g id="Grupo_2824" data-name="Grupo 2824">
        <path id="Trazado_7500" data-name="Trazado 7500" d="M127.448,279.229s-3.75,2.819-3.18,4.68,3.716-1.964,4.487-3.075S128.924,278,127.448,279.229Z" transform="translate(-124.209 -278.804)" fill="#fff" stroke="#000" stroke-linecap="round" stroke-linejoin="round" stroke-width="1.047"/>
        <path id="Trazado_7501" data-name="Trazado 7501" d="M128.21,281.818s-3.75,2.819-3.18,4.68,3.716-1.964,4.487-3.075S129.686,280.588,128.21,281.818Z" transform="translate(-124.229 -278.872)" fill="#fff" stroke="#000" stroke-linecap="round" stroke-linejoin="round" stroke-width="1.047"/>
        <path id="Trazado_7502" data-name="Trazado 7502" d="M130.047,283.5s-3.75,2.819-3.18,4.68,3.716-1.965,4.487-3.075S131.523,282.268,130.047,283.5Z" transform="translate(-124.277 -278.915)" fill="#fff" stroke="#000" stroke-linecap="round" stroke-linejoin="round" stroke-width="1.047"/>
        <path id="Trazado_7503" data-name="Trazado 7503" d="M131.564,284.865s-3.245,2.079-2.7,3.622,3.232-1.376,3.9-2.275S132.866,283.88,131.564,284.865Z" transform="translate(-124.329 -278.953)" fill="#fff" stroke="#000" stroke-linecap="round" stroke-linejoin="round" stroke-width="1.047"/>
      </g>
    </g>
  </g>
</svg>
