<svg xmlns="http://www.w3.org/2000/svg" xmlns:xlink="http://www.w3.org/1999/xlink" width="372.58" height="300.893" viewBox="0 0 372.58 300.893">
  <defs>
    <clipPath id="clip-path">
      <path id="Trazado_7070" data-name="Trazado 7070" d="M394.05,350.03l.074-8.2L292.067,316.986l-177.7,59.462v8.514a1.723,1.723,0,0,0,.391,1.127,2.619,2.619,0,0,0,1.163.794l99.9,41.222a11.184,11.184,0,0,0,2.546.659,17.051,17.051,0,0,0,2.918.167,17.424,17.424,0,0,0,2.922-.317,11.906,11.906,0,0,0,2.559-.791l166.089-75.8a1.7,1.7,0,0,0,.844-.663A2.034,2.034,0,0,0,394.05,350.03Z" fill="#fff" stroke="#000" stroke-miterlimit="10" stroke-width="1"/>
    </clipPath>
  </defs>
  <g id="Grupo_2834" data-name="Grupo 2834" transform="translate(-24.221 -334.075)">
    <path id="Polígono_8" data-name="Polígono 8" d="M7.285,2.858a2,2,0,0,1,3.43,0l5.468,9.113A2,2,0,0,1,14.468,15H3.532a2,2,0,0,1-1.715-3.029Z" transform="translate(91.287 367.744) rotate(-41)" fill="#ffda1a"/>
    <path id="Polígono_9" data-name="Polígono 9" d="M7.285,2.858a2,2,0,0,1,3.43,0l5.468,9.113A2,2,0,0,1,14.468,15H3.532a2,2,0,0,1-1.715-3.029Z" transform="translate(58.287 500.744) rotate(-41)" fill="#ffda1a"/>
    <path id="Polígono_10" data-name="Polígono 10" d="M7.285,2.858a2,2,0,0,1,3.43,0l5.468,9.113A2,2,0,0,1,14.468,15H3.532a2,2,0,0,1-1.715-3.029Z" transform="matrix(0.656, -0.755, 0.755, 0.656, 314.627, 483.824)"/>
    <path id="Polígono_3" data-name="Polígono 3" d="M7.285,2.858a2,2,0,0,1,3.43,0l5.468,9.113A2,2,0,0,1,14.468,15H3.532a2,2,0,0,1-1.715-3.029Z" transform="matrix(-0.839, 0.545, -0.545, -0.839, 287.094, 438.512)" fill="#ffda1a"/>
    <path id="Polígono_12" data-name="Polígono 12" d="M7.285,2.858a2,2,0,0,1,3.43,0l5.468,9.113A2,2,0,0,1,14.468,15H3.532a2,2,0,0,1-1.715-3.029Z" transform="translate(301.287 436.744) rotate(-41)" fill="#ffda1a"/>
    <path id="Polígono_6" data-name="Polígono 6" d="M7.285,2.858a2,2,0,0,1,3.43,0l5.468,9.113A2,2,0,0,1,14.468,15H3.532a2,2,0,0,1-1.715-3.029Z" transform="translate(213.377 363.967) rotate(-47)" fill="#ffda1a"/>
    <path id="Polígono_4" data-name="Polígono 4" d="M7.285,2.858a2,2,0,0,1,3.43,0l5.468,9.113A2,2,0,0,1,14.468,15H3.532a2,2,0,0,1-1.715-3.029Z" transform="translate(167.842 355.829) rotate(-108)"/>
    <path id="Polígono_11" data-name="Polígono 11" d="M7.285,2.858a2,2,0,0,1,3.43,0l5.468,9.113A2,2,0,0,1,14.468,15H3.532a2,2,0,0,1-1.715-3.029Z" transform="translate(273.842 355.829) rotate(-108)"/>
    <path id="Polígono_7" data-name="Polígono 7" d="M7.285,2.858a2,2,0,0,1,3.43,0l5.468,9.113A2,2,0,0,1,14.468,15H3.532a2,2,0,0,1-1.715-3.029Z" transform="translate(147.545 410.495) rotate(150)"/>
    <g id="Grupo_2696" data-name="Grupo 2696" transform="translate(-46.933 179.512)">
      <g id="Grupo_2694" data-name="Grupo 2694">
        <path id="Trazado_7067" data-name="Trazado 7067" d="M394.05,350.03l.074-8.2L292.067,316.986l-177.7,59.462v8.514a1.723,1.723,0,0,0,.391,1.127,2.619,2.619,0,0,0,1.163.794l99.9,41.222a11.184,11.184,0,0,0,2.546.659,17.051,17.051,0,0,0,2.918.167,17.424,17.424,0,0,0,2.922-.317,11.906,11.906,0,0,0,2.559-.791l166.089-75.8a1.7,1.7,0,0,0,.844-.663A2.034,2.034,0,0,0,394.05,350.03Z" fill="#fff" stroke="#000" stroke-width="1"/>
        <g id="Grupo_2693" data-name="Grupo 2693" clip-path="url(#clip-path)">
          <path id="Trazado_7068" data-name="Trazado 7068" d="M393.7,351.359a2.034,2.034,0,0,0,.347-1.329l.074-8.2L292.067,316.986,223.31,339.994v88.757c.3-.043.609-.079.9-.137a11.906,11.906,0,0,0,2.559-.791l166.089-75.8A1.7,1.7,0,0,0,393.7,351.359Z" stroke="#000" stroke-width="1" opacity="0.2"/>
          <path id="Trazado_7069" data-name="Trazado 7069" d="M220.564,429.135V415.362h-3.483V428.7A11.1,11.1,0,0,0,220.564,429.135Z" stroke="#000" stroke-width="1" opacity="0.2"/>
        </g>
        <path id="Trazado_7071" data-name="Trazado 7071" d="M394.05,350.03l.074-8.2L292.067,316.986l-177.7,59.462v8.514a1.723,1.723,0,0,0,.391,1.127,2.619,2.619,0,0,0,1.163.794l99.9,41.222a11.184,11.184,0,0,0,2.546.659,17.051,17.051,0,0,0,2.918.167,17.424,17.424,0,0,0,2.922-.317,11.906,11.906,0,0,0,2.559-.791l166.089-75.8a1.7,1.7,0,0,0,.844-.663A2.034,2.034,0,0,0,394.05,350.03Z" fill="rgba(0,0,0,0)" stroke="#000" stroke-miterlimit="10" stroke-width="1"/>
      </g>
      <g id="Grupo_2695" data-name="Grupo 2695">
        <path id="Trazado_7072" data-name="Trazado 7072" d="M341.836,331.608,328.772,328.3a4.176,4.176,0,0,0-.594-.1,5.38,5.38,0,0,0-.635-.025,4.683,4.683,0,0,0-.6.049,2.448,2.448,0,0,0-.493.122.712.712,0,0,0-.288.175.175.175,0,0,0-.036.194.445.445,0,0,0,.2.19,1.845,1.845,0,0,0,.437.162l13.077,3.333a4.144,4.144,0,0,0,.61.1,5.175,5.175,0,0,0,.647.025,4.448,4.448,0,0,0,.609-.051,2.371,2.371,0,0,0,.495-.128.648.648,0,0,0,.279-.18.177.177,0,0,0,.024-.2.513.513,0,0,0-.22-.194,2,2,0,0,0-.452-.165" fill="#fff"/>
        <path id="Trazado_7073" data-name="Trazado 7073" d="M380.126,342.9l-22.041-5.624h-3.617c-.393,0-.788-.011-1.178-.034s-.777-.056-1.155-.1-.746-.1-1.1-.161-.7-.138-1.018-.22l-38.443-9.873c-.283-.073-.545-.152-.783-.237a5.561,5.561,0,0,1-.638-.271,3.027,3.027,0,0,1-.479-.3,1.383,1.383,0,0,1-.3-.317l-.766-1.115-19.74-5.036L138.539,371.5l94.882,36.333L380.126,342.9" fill="#ffda1a" stroke="#fff" stroke-miterlimit="10" stroke-width="3"/>
        <path id="Trazado_7136" data-name="Trazado 7136" d="M380.126,342.9l-22.041-5.624h-3.617c-.393,0-.788-.011-1.178-.034s-.777-.056-1.155-.1-.746-.1-1.1-.161-.7-.138-1.018-.22l-38.443-9.873c-.283-.073-.545-.152-.783-.237a5.561,5.561,0,0,1-.638-.271,3.027,3.027,0,0,1-.479-.3,1.383,1.383,0,0,1-.3-.317l-.766-1.115-19.74-5.036L138.539,371.5l94.882,36.333L380.126,342.9" transform="translate(0 -17)" fill="#ffda1a" stroke="#fff" stroke-miterlimit="10" stroke-width="3" opacity="0.5"/>
        <path id="Trazado_7074" data-name="Trazado 7074" d="M394.412,341.133a2.454,2.454,0,0,0-.924-.707,8.325,8.325,0,0,0-1.707-.6l-96.287-23.959a12.708,12.708,0,0,0-1.843-.3,17.6,17.6,0,0,0-2.009-.074,16.311,16.311,0,0,0-1.941.149,9.274,9.274,0,0,0-1.638.369l-171.4,58.144a7.445,7.445,0,0,0-1.794.845,2.229,2.229,0,0,0-.862.942.924.924,0,0,0,.123.925,2.627,2.627,0,0,0,1.163.794l100.534,40.714a11.184,11.184,0,0,0,2.546.659,17.051,17.051,0,0,0,2.918.167,17.322,17.322,0,0,0,2.922-.318,11.85,11.85,0,0,0,2.559-.79l166.871-75.565a1.712,1.712,0,0,0,.845-.663A.669.669,0,0,0,394.412,341.133Zm-160.991,66.7L138.539,371.5l150.323-51.885,19.74,5.036.765,1.115a1.412,1.412,0,0,0,.306.317,3.027,3.027,0,0,0,.479.3,5.561,5.561,0,0,0,.638.271c.238.085.5.164.783.237l38.443,9.873c.322.082.663.156,1.018.22s.723.118,1.1.161.764.078,1.155.1.785.034,1.178.034h3.617l22.041,5.624Zm92.74-79.316a.712.712,0,0,1,.288-.175,2.448,2.448,0,0,1,.493-.122,4.683,4.683,0,0,1,.6-.049,5.38,5.38,0,0,1,.635.025,4.176,4.176,0,0,1,.594.1l13.064,3.311a2,2,0,0,1,.452.165.513.513,0,0,1,.22.194.177.177,0,0,1-.024.2.648.648,0,0,1-.279.18,2.371,2.371,0,0,1-.495.128,4.435,4.435,0,0,1-.609.051,5.175,5.175,0,0,1-.647-.025,4.144,4.144,0,0,1-.61-.1l-13.077-3.333a1.845,1.845,0,0,1-.437-.162.45.45,0,0,1-.2-.19A.175.175,0,0,1,326.161,328.517Zm-145.49,63.141a2.713,2.713,0,0,1-.781.439,6.027,6.027,0,0,1-1.13.308,8.348,8.348,0,0,1-1.251.124,7.691,7.691,0,0,1-1.22-.064,4.589,4.589,0,0,1-1.037-.255,1.686,1.686,0,0,1-.65-.406.555.555,0,0,1-.158-.474.851.851,0,0,1,.321-.485,2.815,2.815,0,0,1,.789-.436,5.969,5.969,0,0,1,1.122-.3,8.206,8.206,0,0,1,1.24-.121,7.7,7.7,0,0,1,1.211.063,4.7,4.7,0,0,1,1.037.252,1.734,1.734,0,0,1,.651.4.565.565,0,0,1,.167.472A.83.83,0,0,1,180.671,391.658Z"/>
        <path id="Trazado_7075" data-name="Trazado 7075" d="M180.164,390.3a4.7,4.7,0,0,0-1.037-.252,7.7,7.7,0,0,0-1.211-.063,8.338,8.338,0,0,0-1.24.121,5.969,5.969,0,0,0-1.122.3,2.789,2.789,0,0,0-.789.437.846.846,0,0,0-.321.484.555.555,0,0,0,.158.474,1.686,1.686,0,0,0,.65.406,4.589,4.589,0,0,0,1.037.255,7.691,7.691,0,0,0,1.22.064,8.348,8.348,0,0,0,1.251-.124,6.027,6.027,0,0,0,1.13-.308,2.713,2.713,0,0,0,.781-.439.835.835,0,0,0,.311-.484.565.565,0,0,0-.167-.472,1.734,1.734,0,0,0-.651-.4" fill="#fff"/>
      </g>
    </g>
    <g id="Grupo_2711" data-name="Grupo 2711" transform="matrix(0.788, 0.616, -0.616, 0.788, 185.739, 322.407)">
      <g id="Grupo_2697" data-name="Grupo 2697" transform="translate(50.925 44.584)">
        <path id="Trazado_7076" data-name="Trazado 7076" d="M248.1,230.487s-8.769.361-13.813-1.8-9.129.241-10.57,4.084,1.321,7.928,8.288,11.772,11.531,2.882,14.294-.241S252.662,233.49,248.1,230.487Z" transform="translate(-200.852 -204.475)" fill="#fff" stroke="#000" stroke-linecap="round" stroke-miterlimit="10" stroke-width="1"/>
        <path id="Trazado_7077" data-name="Trazado 7077" d="M246.317,234.168s-5.117.446-6.534.446-1.984-1.134-2.834-.284-3.118-1.417-3.118-1.417a4.491,4.491,0,0,1-1.7,4.252c-2.267,1.984,1.417,7.936,14.172,6.519S246.317,234.168,246.317,234.168Z" transform="translate(-202.097 -205.244)" opacity="0.17"/>
        <path id="Trazado_7078" data-name="Trazado 7078" d="M230.918,227.983a8.348,8.348,0,0,0-5.285-1.561c-3.243.12-6.367,5.045-6.247,6.847.147,2.2,3.243,5.405,6.247,6.246S232.96,233.869,230.918,227.983Z" transform="translate(-200.248 -204.253)" stroke="#000" stroke-linecap="round" stroke-miterlimit="10" stroke-width="1"/>
        <path id="Trazado_7079" data-name="Trazado 7079" d="M203.561,225.046a11.473,11.473,0,0,1-4.2-4.685c-1.2-2.882,2.163-7.687,4.325-7.687a2.706,2.706,0,0,1,2.4,4.084c-.961,2.042-2.282,5.406-1.8,6.486S204.4,226.007,203.561,225.046Z" transform="translate(-197.154 -202.157)" fill="#fff" stroke="#000" stroke-linecap="round" stroke-miterlimit="10" stroke-width="1"/>
        <path id="Trazado_7080" data-name="Trazado 7080" d="M225.986,225.536a40.153,40.153,0,0,1-1.711-4.238c-.053-.15-.2-.573-.339-1.019l-.167-1.2-.425-.867c-1.081-4.2-2.523-4.684-4.2-4.684s-2.763,2.522-4.2,3.123-5.165-.36-7.327.36-3.123,5.765-1.922,8.648,5.045,5.886,9.129,6.967,5.525,1.2,5.886,1.081S226.826,231.9,225.986,225.536Z" transform="translate(-198.078 -202.287)" fill="#fff" stroke="#000" stroke-linecap="round" stroke-miterlimit="10" stroke-width="1"/>
        <path id="Trazado_7081" data-name="Trazado 7081" d="M203.8,200.375l-6.586,3.834a.82.82,0,0,0-.212,1.24l13.3,15.625a.82.82,0,0,0,1.09.144l5.636-3.886a.821.821,0,0,0,.177-1.185l-12.347-15.573A.82.82,0,0,0,203.8,200.375Z" transform="translate(-196.803 -200.264)" stroke="#000" stroke-linecap="round" stroke-miterlimit="10" stroke-width="1"/>
        <path id="Trazado_7082" data-name="Trazado 7082" d="M220.454,214.286s-3.6,2.883-6.006.841,2.162-6.726,6.006-6.847,4.8,9.009,4.685,10.931" transform="translate(-199.393 -201.486)" fill="#fff" stroke="#000" stroke-linecap="round" stroke-miterlimit="10" stroke-width="1"/>
        <path id="Trazado_7083" data-name="Trazado 7083" d="M208.575,229.877s-4.684-2.4-5.525-4.925.961-8.888,3.6-9.609,3,1.682,2.762,3.724-.841,3.6-.48,5.165,2.4,2.882,2.4,4.564S209.3,230.478,208.575,229.877Z" transform="translate(-197.724 -202.544)" fill="#fff" stroke="#000" stroke-linecap="round" stroke-miterlimit="10" stroke-width="1"/>
        <path id="Trazado_7084" data-name="Trazado 7084" d="M214.61,233.262s-7.721-1.415-7-7.6c.281-2.4,1.8-6.607,4.444-6.607s1.2,6.126,1.2,6.126,1.321-2.042,4.564.481" transform="translate(-198.445 -203.13)" fill="#fff" stroke="#000" stroke-linecap="round" stroke-miterlimit="10" stroke-width="1"/>
      </g>
      <g id="Grupo_2698" data-name="Grupo 2698" transform="translate(85.251)">
        <ellipse id="Elipse_145" data-name="Elipse 145" cx="26.414" cy="25.894" rx="26.414" ry="25.894" fill="#fff" stroke="#000" stroke-linecap="round" stroke-miterlimit="10" stroke-width="1"/>
        <ellipse id="Elipse_146" data-name="Elipse 146" cx="21.206" cy="20.789" rx="21.206" ry="20.789" transform="translate(5.208 5.106)" opacity="0.08"/>
        <path id="Trazado_7085" data-name="Trazado 7085" d="M290.345,174.538A25.666,25.666,0,0,0,280.2,154.145c2.429,25.4-12.163,16.268-29.529,21.334-5.9,1.72-9.629,4.159-11.991,6.669a26.366,26.366,0,0,0,25.253,18.285C278.519,200.433,290.345,188.84,290.345,174.538Z" transform="translate(-237.517 -148.644)" stroke="#000" stroke-linecap="round" stroke-miterlimit="10" stroke-width="1"/>
        <path id="Trazado_7086" data-name="Trazado 7086" d="M252.577,159.888a4.056,4.056,0,1,1-5.736,0A4.056,4.056,0,0,1,252.577,159.888Z" transform="translate(-238.58 -149.339)" fill="#fff" stroke="#000" stroke-linecap="round" stroke-miterlimit="10" stroke-width="1"/>
      </g>
      <g id="Grupo_2699" data-name="Grupo 2699" transform="translate(0 88.625)">
        <path id="Trazado_7087" data-name="Trazado 7087" d="M237.141,252.246s-17.561.944-27.19,4.154-12.463,5.287-12.84,9.819-.189,9.064,10.574,12.463,22.281,2.643,30.778,1.7,10.574-9.063,10.574-15.295S242.427,251.869,237.141,252.246Z" transform="translate(-145.91 -252.232)" fill="#fff" stroke="#000" stroke-linecap="round" stroke-miterlimit="10" stroke-width="1"/>
        <path id="Trazado_7088" data-name="Trazado 7088" d="M237.119,262.939l-2.268,6.8s-5.669-7.369-6.236-4.535,0,4.819-.85,4.819-3.118-2.268-3.118-1.134a2.9,2.9,0,0,1-1.134,1.984,11.489,11.489,0,0,0-2.834-.85h-3.118c-1.134,0-3.969-1.985-3.969-1.985s-1.417,1.7-1.417,2.835.567,8.5,3.4,9.636,15.3,1.134,18.706.567,8.786-.567,9.07-3.118S239.386,259.821,237.119,262.939Z" transform="translate(-148.223 -253.803)" opacity="0.17"/>
        <path id="Trazado_7089" data-name="Trazado 7089" d="M212.689,276.991s7.559.756,13.985.756,14.362-.378,14.362-.378" transform="translate(-148.301 -256.009)" fill="none" stroke="#000" stroke-linecap="round" stroke-miterlimit="10" stroke-width="1"/>
        <path id="Trazado_7090" data-name="Trazado 7090" d="M175.106,326.365s-4.154,7.552-6.042,9.252-7.553.944-16.05-4.531-14.917-14.728-16.05-19.071a6.425,6.425,0,0,1,5.475-8.308c3.777-.377,7.175,5.476,11.141,7.175a21.4,21.4,0,0,0,10.952,1.7C167.741,312.2,176.8,320.7,175.106,326.365Z" transform="translate(-136.711 -260.081)" fill="#fff" stroke="#000" stroke-linecap="round" stroke-miterlimit="10" stroke-width="1"/>
        <path id="Trazado_7091" data-name="Trazado 7091" d="M187.324,270.152s-8.235,8.412-12.2,16.909-6.937,15.108-4.587,19.829c.724,1.454,6.27,8.879,10.8,8.879s19.68-11.691,24.12-24.12c2.29-6.412,1.553-10.7,1.553-10.7S193.151,262.323,187.324,270.152Z" transform="translate(-141.744 -254.672)" fill="#fff" stroke="#000" stroke-linecap="round" stroke-miterlimit="10" stroke-width="1"/>
        <path id="Trazado_7092" data-name="Trazado 7092" d="M201.456,273.581s-6.519-5.669-5.386-.283,3.118,10.77,1.984,13.6c-.992,2.483-5.385,3.4-4.251,3.968s4.251-2.55-.284,1.418-5.952,3.968-5.669,5.669a8.574,8.574,0,0,0,.851,2.551c.283.85-2.268,4.252-3.685,6.8s-5.4,3.592-3.685,6.235,9.069-3.968,12.187-6.519,7.086-4.535,8.786-8.219,4.252-8.5,4.819-13.321C207.124,285.485,209.108,276.132,201.456,273.581Z" transform="translate(-143.454 -255.091)" opacity="0.17"/>
        <path id="Trazado_7093" data-name="Trazado 7093" d="M205.795,278.775s-1.512,10.2-4.536,14.74-6.425,5.291-8.315,8.315-3.4,6.047-6.047,7.559-4.536,6.8-4.536,6.8" transform="translate(-143.675 -256.281)" fill="none" stroke="#000" stroke-linecap="round" stroke-miterlimit="10" stroke-width="1"/>
        <path id="Trazado_7094" data-name="Trazado 7094" d="M159.622,322.588c-5.664-2.077-10.763-6.23-11.707-9.252-.753-2.412-2.946-7.459-3.8-9.4a3.934,3.934,0,0,0-1.674-.228,6.425,6.425,0,0,0-5.475,8.308c1.133,4.343,7.552,13.595,16.05,19.071s14.162,6.231,16.05,4.531c1.142-1.027,3.109-4.191,4.488-6.535C170.228,325.143,164.847,324.5,159.622,322.588Z" transform="translate(-136.711 -260.082)" fill="#fff" stroke="#000" stroke-linecap="round" stroke-miterlimit="10" stroke-width="1"/>
        <path id="Trazado_7095" data-name="Trazado 7095" d="M171.383,332.711c-1.978-3.1-6.427-4.407-11.194-6.229-6.42-2.455-15.861-10.2-16.617-15.484a9.95,9.95,0,0,0-3.331-6.54,6.475,6.475,0,0,0-3.277,7.673c1.133,4.343,7.552,13.595,16.05,19.071s14.162,6.231,16.05,4.531A17.905,17.905,0,0,0,171.383,332.711Z" transform="translate(-136.711 -260.199)" fill="#fff" stroke="#000" stroke-linecap="round" stroke-miterlimit="10" stroke-width="1"/>
        <path id="Trazado_7096" data-name="Trazado 7096" d="M166.142,314.214s9.766,5.327,13.762,12.874a4.553,4.553,0,0,0,2.812-3.256c.74-2.664-4.588-8.286-9.767-10.95S165.846,311.4,166.142,314.214Z" transform="translate(-141.196 -261.256)" fill="#fedc00" stroke="#000" stroke-linecap="round" stroke-miterlimit="10" stroke-width="1"/>
        <path id="Trazado_7097" data-name="Trazado 7097" d="M191.023,267.894s1.242-6.828,10.552-7.863,11.794,16.966,8.9,21.724C210.472,281.756,201.161,268.307,191.023,267.894Z" transform="translate(-144.996 -253.415)" fill="#fedc00" stroke="#000" stroke-linecap="round" stroke-miterlimit="10" stroke-width="1"/>
      </g>
      <g id="Grupo_2702" data-name="Grupo 2702" transform="translate(88.587 30.48)">
        <g id="Grupo_2700" data-name="Grupo 2700" transform="translate(42.132 4.318)">
          <path id="Trazado_7098" data-name="Trazado 7098" d="M299.856,191.893a14.009,14.009,0,0,1,13.545-2.352c7.884,2.779,9.5,23.515,6.469,43.4s-9.067,25.008-16.779,25.012-12.13-2.992-12.13-10.261S299.856,191.893,299.856,191.893Z" transform="translate(-290.96 -188.716)" fill="#fff" stroke="#000" stroke-linecap="round" stroke-miterlimit="10" stroke-width="1"/>
          <path id="Trazado_7099" data-name="Trazado 7099" d="M302.368,196.56s3.412-5,11.147-2.5,5.459,14.559,5.459,24.34-5.914,31.848-8.872,35.033-11.6,3.64-13.421.682S303.505,204.749,302.368,196.56Z" transform="translate(-291.794 -189.424)" opacity="0.17"/>
        </g>
        <g id="Grupo_2701" data-name="Grupo 2701">
          <path id="Trazado_7100" data-name="Trazado 7100" d="M297.513,211c0-13.218-5.475-27.568-8.875-27.379,0,0-25.868,14.917-30.967,20.393-4.838,5.2-11.541,23.306-11.084,28.853-.425.5-1.741,2.191-1.6,3.595-1.382,2.786-3.748,8.158-3.748,12.3,0,5.853,1.322,16.8,6.986,19.449s22.281,6.419,30.023,2.266c7.062-3.79,10.5-12.443,9.613-19.38a5.25,5.25,0,0,0,.961-.636,2.991,2.991,0,0,0,.687-4.11C297.118,240.072,297.513,221.93,297.513,211Z" transform="translate(-241.244 -183.621)" fill="#fff" stroke="#000" stroke-linecap="round" stroke-miterlimit="10" stroke-width="1"/>
          <path id="Trazado_7101" data-name="Trazado 7101" d="M273.862,206.464s-3.4,4.819-1.134,10.2,8.786,9.353,5.1,13.038-3.4,5.1-1.7,5.385,2.551,1.134,0,1.418-5.952-.284-3.685,1.133,7.086,1.418,4.252,2.268-16.722-.85-15.872.85.85,1.985,7.936,3.969,10.77.567,9.069,2.267-6.8,1.134-6.519,1.984a6.407,6.407,0,0,0,1.7,1.984s1.134.284-3.685.851-17-5.386-13.888-3.118,7.086,3.4,7.653,4.535-.284,3.968-1.7,4.819-9.92,10.77-6.236,17.856,17.573,4.535,21.541,1.7,7.369-11.337,8.219-14.739-1.417-4.535,0-4.818,2.268.566,1.984-1.418-1.984-3.4-1.984-4.535,1.134-1.134,3.4-3.118,3.118-2.551,3.118-4.818-.283-3.685,1.418-5.1,2.267-1.418,2.267-3.4-.567-3.968,0-5.952a48.234,48.234,0,0,0,1.417-5.1c.851-3.685.51-9.58-2.3-13.86S278.68,201.647,273.862,206.464Z" transform="translate(-243.226 -186.799)" opacity="0.17"/>
          <path id="Trazado_7102" data-name="Trazado 7102" d="M292.846,217.228s2.268,12.473-.378,17.386-9.07,8.693-6.425,10.96,4.914,3.024,3.024,4.158-4.536,2.646-4.536,4.536,1.134,4.158-2.267,7.559" transform="translate(-247.502 -188.748)" fill="none" stroke="#000" stroke-linecap="round" stroke-miterlimit="10" stroke-width="1"/>
        </g>
        <path id="Trazado_7103" data-name="Trazado 7103" d="M252.191,219.487c.658-.506,4.257.231,4.99.353,4.957.814,7.029,1.977,5.617,5.805-.9,2.436-1.238,6.968-3.821,8.726-1.647,1.12-8.5-.109-10.065-2.278s1.9-10.928,1.9-10.928A3.851,3.851,0,0,1,252.191,219.487Z" transform="translate(-242.352 -189.065)" fill="#fedc00" stroke="#000" stroke-linecap="round" stroke-miterlimit="10" stroke-width="1"/>
      </g>
      <g id="Grupo_2705" data-name="Grupo 2705" transform="translate(96.003 73.867)">
        <path id="Trazado_7104" data-name="Trazado 7104" d="M263.867,243.722a3.75,3.75,0,1,1-3.75-3.75A3.75,3.75,0,0,1,263.867,243.722Z" transform="translate(-250.968 -235.604)" stroke="#000" stroke-linecap="round" stroke-miterlimit="10" stroke-width="1"/>
        <path id="Trazado_7105" data-name="Trazado 7105" d="M257.5,252.925a3.75,3.75,0,1,1-3.75-3.75A3.75,3.75,0,0,1,257.5,252.925Z" transform="translate(-249.996 -237.008)" stroke="#000" stroke-linecap="round" stroke-miterlimit="10" stroke-width="1"/>
        <g id="Grupo_2703" data-name="Grupo 2703" transform="translate(6.88)">
          <path id="Trazado_7106" data-name="Trazado 7106" d="M274.079,247.51c-8.813,0-14.208-2.321-14.619-2.5a2.268,2.268,0,0,1,1.84-4.146c.23.1,17.273,7.241,40.73-5.758a2.268,2.268,0,1,1,2.2,3.967C292.247,245.71,281.839,247.51,274.079,247.51Z" transform="translate(-258.115 -234.818)" fill="#fedc00" stroke="#000" stroke-linecap="round" stroke-miterlimit="10" stroke-width="1"/>
        </g>
        <g id="Grupo_2704" data-name="Grupo 2704" transform="translate(1.481 13.648)">
          <path id="Trazado_7107" data-name="Trazado 7107" d="M277.747,261.989a50.269,50.269,0,0,1-24.952-6.885,2.268,2.268,0,0,1,2.433-3.827c.25.158,20.649,12.741,41.332,1.281a2.268,2.268,0,1,1,2.2,3.967A42.839,42.839,0,0,1,277.747,261.989Z" transform="translate(-251.744 -250.923)" fill="#fedc00" stroke="#000" stroke-linecap="round" stroke-miterlimit="10" stroke-width="1"/>
        </g>
      </g>
      <g id="Grupo_2706" data-name="Grupo 2706" transform="translate(64.017 99.402)">
        <ellipse id="Elipse_147" data-name="Elipse 147" cx="14.067" cy="13.029" rx="14.067" ry="13.029" transform="translate(35.899)" fill="#fedc00" stroke="#000" stroke-linecap="round" stroke-miterlimit="10" stroke-width="1"/>
        <path id="Trazado_7108" data-name="Trazado 7108" d="M229.269,362.375s.755,5.664-.944,7.741-8.875,5.853-12.84,8.874-3.4,4.154-2.832,6.42S218.883,389,229.08,389s20.393-7.741,22.092-10.385-3.587-11.707-3.965-15.106-.566-4.531-.566-4.531S237.2,365.773,229.269,362.375Z" transform="translate(-212.252 -279.293)" fill="#fff" stroke="#000" stroke-linecap="round" stroke-miterlimit="10" stroke-width="1"/>
        <path id="Trazado_7109" data-name="Trazado 7109" d="M233.4,364.537a13.089,13.089,0,0,1-1.51,6.986c-1.888,3.4-9.819,5.1-10.952,7.364s3.021,3.021,9.252,0,9.441-9.63,9.819-12.841S235.474,362.46,233.4,364.537Z" transform="translate(-213.548 -279.944)" fill="#fff" stroke="#000" stroke-linecap="round" stroke-miterlimit="10" stroke-width="1"/>
        <path id="Trazado_7110" data-name="Trazado 7110" d="M251.172,381.559a4.577,4.577,0,0,0,.085-3.27c-5.533,4.108-13.321,8.949-20.1,9.691a32.658,32.658,0,0,1-18.471-3.259c-.736,1.258-.386,2.229-.033,3.637.566,2.265,6.23,3.587,16.427,3.587S249.473,384.2,251.172,381.559Z" transform="translate(-212.252 -282.239)" fill="#fff" stroke="#000" stroke-linecap="round" stroke-miterlimit="10" stroke-width="1"/>
        <ellipse id="Elipse_148" data-name="Elipse 148" cx="10.746" cy="7.486" rx="10.746" ry="7.486" transform="translate(13.692 76.975) rotate(-6.794)" fill="#fedc00" stroke="#000" stroke-linecap="round" stroke-miterlimit="10" stroke-width="1"/>
        <path id="Trazado_7111" data-name="Trazado 7111" d="M228.237,319.816s-4.792,7.52-2.149,24.325c1.391,8.838,3.217,14.851,8.692,15.606s14.007-1.448,15.214-6.279c1.014-4.055,6.625-23-.483-28.737C245.438,321.442,235.6,313.962,228.237,319.816Z" transform="translate(-214.241 -272.988)" fill="#fff" stroke="#000" stroke-linecap="round" stroke-miterlimit="10" stroke-width="1"/>
        <path id="Trazado_7112" data-name="Trazado 7112" d="M239.653,329.036s-7.936-2.268-7.086-.283,3.968,2.551,6.8,3.118,9.473,2.447,6.579,3.916-5.445,3.169-3.461,4.3,4.938,3.016,3.461,3.634-1.193,3.452-.626,4.869,1.134,2.551.283,4.535.284,7.652,1.7.851a135.972,135.972,0,0,0,2.267-16.439c.284-3.4,0-5.953-.85-6.236a25.84,25.84,0,0,0-4.819-1.134A23.846,23.846,0,0,1,239.653,329.036Z" transform="translate(-215.341 -274.558)" opacity="0.17"/>
        <path id="Trazado_7113" data-name="Trazado 7113" d="M276.363,289.915s2.832-10.2-3.965-18.316-24.358,3.777-32.478,15.862-10.008,20.77-9.819,23.6,3.776,6.8,15.861,6.42S272.775,305.776,276.363,289.915Z" transform="translate(-214.973 -265.557)" fill="#fff" stroke="#000" stroke-linecap="round" stroke-miterlimit="10" stroke-width="1"/>
        <path id="Trazado_7114" data-name="Trazado 7114" d="M277.06,280.763s-6.236-10.2-7.369-9.069,4.251,9.353,1.133,10.487-7.369-3.118-7.936-1.984,5.952,5.952,2.834,9.352-9.069,4.535-9.636,9.07-1.7,7.936-3.118,8.219-3.685,0-3.685,1.7,1.7,1.984,1.7,2.835-.919,1.309-3.719,1.08-3.65.054-3.65,1.187a11.534,11.534,0,0,0,.567,2.835s6.329,4.167,8.125,1.233,2.646-3.784,3.78-5.485,7.369-8.786,10.2-11.9,2.551-4.818,3.968-4.535,1.418-1.7,1.418-3.118a1.648,1.648,0,0,1,1.133-1.7,7.071,7.071,0,0,0,1.134-2.834C274.226,286.431,279.044,285.014,277.06,280.763Z" transform="translate(-217.036 -265.965)" opacity="0.17"/>
        <path id="Trazado_7115" data-name="Trazado 7115" d="M246.8,327.025c-.247.336-.5.691-.718,1.064-1.158,1.947,1.134,4.158,1.89,7.559s-.378,4.913,0,7.937,1.89,4.913,1.89,8.314a22.244,22.244,0,0,1-1.89,7.559" transform="translate(-216.516 -274.419)" fill="none" stroke="#000" stroke-linecap="round" stroke-miterlimit="10" stroke-width="1"/>
        <path id="Trazado_7116" data-name="Trazado 7116" d="M276.315,274.737s-2.555,14-9.736,22.7-14.363,11.339-13.607,13.985-2.646,1.512-5.291,1.512-.756,2.268.378,3.024c.917.611-.126,1.679-1.172,3.094" transform="translate(-217.452 -266.443)" fill="none" stroke="#000" stroke-linecap="round" stroke-miterlimit="10" stroke-width="1"/>
        <path id="Trazado_7117" data-name="Trazado 7117" d="M230.188,313.442s4.249,9.014,21.762,9.658c0,0,1.159.644.129,3.606-.1.282-2.688.491-2.963.533a63.724,63.724,0,0,1-7.052.725c-4.23.183-10.875.325-13.652-3.6C225.861,320.757,227.04,316.176,230.188,313.442Z" transform="translate(-214.505 -272.347)" fill="#fedc00" stroke="#000" stroke-linecap="round" stroke-miterlimit="10" stroke-width="1"/>
      </g>
      <g id="Grupo_2707" data-name="Grupo 2707" transform="translate(100.858 26.325)">
        <path id="Trazado_7118" data-name="Trazado 7118" d="M258.749,207.046a3.024,3.024,0,0,1-1.947-5.339c.786-.661,19.456-16.256,36.154-22.782a3.023,3.023,0,1,1,2.2,5.632c-15.763,6.161-34.28,21.625-34.466,21.78A3.007,3.007,0,0,1,258.749,207.046Z" transform="translate(-255.724 -178.717)" fill="#fedc00" stroke="#000" stroke-linecap="round" stroke-miterlimit="10" stroke-width="1"/>
      </g>
      <g id="Grupo_2710" data-name="Grupo 2710" transform="translate(117.854 36.714)">
        <ellipse id="Elipse_149" data-name="Elipse 149" cx="15.389" cy="14.917" rx="15.389" ry="14.917" fill="#fedc00" stroke="#000" stroke-linecap="round" stroke-miterlimit="10" stroke-width="1"/>
        <g id="Grupo_2709" data-name="Grupo 2709" transform="translate(4.905 1.445)">
          <g id="Grupo_2708" data-name="Grupo 2708">
            <path id="Trazado_7119" data-name="Trazado 7119" d="M301.038,194.024s-6.982-4.231-14.6,2.327-5.5,17.773.847,22.215,19.888,6.982,21.368,8.04,5.29,3.808,13.118.635,6.347-10.155,2.963-16.08S308.02,196.139,301.038,194.024Z" transform="translate(-281.568 -192.681)" fill="#fff" stroke="#000" stroke-linecap="round" stroke-miterlimit="10" stroke-width="1"/>
            <path id="Trazado_7120" data-name="Trazado 7120" d="M289.732,196.388s-4.777,3.867-4.55,8.417,3.867,6.6,7.507,6.6,6.825,1.592,7.735,3.185,1.592,1.592,3.413,1.592.682,1.138,3.867,1.138,4.095-.228,5.005-.683-1.137-.682,2.5-.455,9.555.455,8.19-2.73-12.057-11.829-17.289-14.786S293.143,193.885,289.732,196.388Z" transform="translate(-282.118 -193.067)" opacity="0.17"/>
            <path id="Trazado_7121" data-name="Trazado 7121" d="M282.43,214.591a52.863,52.863,0,0,0,12.807,5.272c6.5,1.53,10.324,1.912,10.707,3.441a2.735,2.735,0,0,0,3.441,1.912,9.271,9.271,0,0,1,3.441,0" transform="translate(-281.699 -196.024)" fill="none" stroke="#000" stroke-linecap="round" stroke-miterlimit="10" stroke-width="1"/>
            <path id="Trazado_7135" data-name="Trazado 7135" d="M4.535,0A4.359,4.359,0,0,1,9.071,4.158,4.359,4.359,0,0,1,4.535,8.315,4.359,4.359,0,0,1,0,4.158,4.359,4.359,0,0,1,4.535,0Z" transform="translate(24.401 12.109)" fill="#fedc00" stroke="#000" stroke-linecap="round" stroke-width="1"/>
            <path id="Trazado_7122" data-name="Trazado 7122" d="M325.34,214.532s-11.132,5.89-12.059,17.349c-.291,3.591,19.171.746,22-1.481,5-3.93,1.222-11.112-.668-13.38C331.458,213.23,327.879,212.416,325.34,214.532Z" transform="translate(-286.405 -195.84)" fill="#fedc00" stroke="#000" stroke-linecap="round" stroke-miterlimit="10" stroke-width="1"/>
            <path id="Trazado_7123" data-name="Trazado 7123" d="M307.983,268.165s-5.925,2.539-8.252,4.655-6.982,7.828-5.713,9.732,4.443.212,5.289-.635,4.232-4.654,4.232-4.654-1.693,11.424-1.269,13.118,1.269,2.115,2.962,2.115,3.174-2.327,3.386-4.019,1.058-6.559,1.058-6.559a15.966,15.966,0,0,1,1.9,7.405c-.212,3.6,1.27,5.078,3.385,4.232s2.539-4.02,2.539-4.02a8.912,8.912,0,0,0,5.078-3.385c1.11-1.6,3.174-2.751,1.9-8.464s-2.75-7.617-2.75-7.617S313.06,269.012,307.983,268.165Z" transform="translate(-283.434 -204.196)" fill="#fff" stroke="#000" stroke-linecap="round" stroke-miterlimit="10" stroke-width="1"/>
            <path id="Trazado_7124" data-name="Trazado 7124" d="M310.236,269.853s-7.224,4-6.3,4.764,2.613,1.076,3.228,4.3,1.075,3.536,2.458,1.537,2.767-.615,4,2.305,2.613,1.23,3.227-1.536,3.075-.308,3.689,1.536.615-1.844.922-3.535,3.075,3.228,3.536,1.844-2.613-9.529-3.536-9.99S310.236,269.853,310.236,269.853Z" transform="translate(-284.967 -204.454)" opacity="0.17"/>
            <path id="Trazado_7125" data-name="Trazado 7125" d="M310.024,262.174s-2.962,3.173-.423,6.136,10.367,3.6,13.541,2.75,2.75-6.136,1.269-7.405S310.024,262.174,310.024,262.174Z" transform="translate(-285.687 -203.282)" fill="#fedc00" stroke="#000" stroke-linecap="round" stroke-miterlimit="10" stroke-width="1"/>
            <path id="Trazado_7126" data-name="Trazado 7126" d="M312.716,234.222s-4.02,20.946-2.962,24.119,7.616,5.713,12.271,4.655,11-11.425,13.118-23.062,1.9-10.156-3.174-11S318,229.991,312.716,234.222Z" transform="translate(-285.84 -198.181)" fill="#fff" stroke="#000" stroke-linecap="round" stroke-miterlimit="10" stroke-width="1"/>
            <path id="Trazado_7127" data-name="Trazado 7127" d="M320.279,232.332c1.622.583,3.973,2.883,2.674,4.925-1.592,2.5-3.64,3.185-3.867,5.232s.909,6.6.909,7.734.683,4.095-1.364,5.232-1.592,3.185-1.592,3.868,0,.454-.455,1.592,3.412,2.73,6.142.909a28.8,28.8,0,0,0,10.919-17.289c1.049-5.378,1.925-10.706,1.592-13.876A35.4,35.4,0,0,0,320.279,232.332Z" transform="translate(-286.904 -198.448)" opacity="0.17"/>
            <path id="Trazado_7128" data-name="Trazado 7128" d="M316.893,232.554s.437,2.855-1.842,7.981c-1.964,4.42-3.528,8.833-3.146,12.657a29.535,29.535,0,0,1-.415,7.725" transform="translate(-286.132 -198.764)" fill="none" stroke="#000" stroke-linecap="round" stroke-miterlimit="10" stroke-width="1"/>
            <path id="Trazado_7129" data-name="Trazado 7129" d="M321.693,291.858a46.384,46.384,0,0,0-.423-8.463" transform="translate(-287.624 -206.52)" fill="#fff" stroke="#000" stroke-linecap="round" stroke-miterlimit="10" stroke-width="1"/>
            <path id="Trazado_7130" data-name="Trazado 7130" d="M326.014,289.725s1.269-4.443.211-7.828" transform="translate(-288.348 -206.291)" fill="#fff" stroke="#000" stroke-linecap="round" stroke-miterlimit="10" stroke-width="1"/>
          </g>
          <path id="Trazado_7131" data-name="Trazado 7131" d="M295.8,194.483c-3.3,0-9.635,5.526-9.016,9.116.406,2.36,10.552,7.485,12.418,5.624,1.134-1.134,6.8-6.047,9.449-7.936S300.715,194.485,295.8,194.483Z" transform="translate(-282.356 -192.956)" fill="#fff" stroke="#000" stroke-linecap="round" stroke-miterlimit="10" stroke-width="1"/>
        </g>
      </g>
    </g>
    <path id="Trazado_7063" data-name="Trazado 7063" d="M28.594,0,0,27.712s.651,7.773,9.725,13.275,19-.552,19-.552Z" transform="translate(277.552 361.785) rotate(28)" fill="#fedc00" stroke="#000" stroke-linecap="round" stroke-linejoin="round" stroke-width="1"/>
    <path id="Trazado_7132" data-name="Trazado 7132" d="M4.136,0,0,4.008a2.731,2.731,0,0,0,1.406,1.92,2.848,2.848,0,0,0,2.748-.08Z" transform="translate(302.563 379.411) rotate(-91)" fill="#fedc00" stroke="#000" stroke-linecap="round" stroke-linejoin="round" stroke-width="1"/>
    <path id="Trazado_7133" data-name="Trazado 7133" d="M4.136,0,0,4.008a2.731,2.731,0,0,0,1.406,1.92,2.848,2.848,0,0,0,2.748-.08Z" transform="translate(307.316 375.756) rotate(-166)" fill="#fedc00" stroke="#000" stroke-linecap="round" stroke-linejoin="round" stroke-width="1"/>
    <path id="Trazado_7134" data-name="Trazado 7134" d="M4.136,6.262,0,2.254A2.731,2.731,0,0,1,1.407.334a2.848,2.848,0,0,1,2.748.08Z" transform="translate(296.041 372.779) rotate(-39)" fill="#fedc00" stroke="#000" stroke-linecap="round" stroke-linejoin="round" stroke-width="1"/>
  </g>
</svg>
