<svg xmlns="http://www.w3.org/2000/svg" width="357.094" height="306.606" viewBox="0 0 357.094 306.606">
  <g id="Grupo_2835" data-name="Grupo 2835" transform="translate(-34 -193)">
    <g id="Background_Simple" data-name="Background Simple" transform="translate(34 209.272)">
      <g id="Background_Simple-2" data-name="Background Simple" transform="translate(0)">
        <g id="Grupo_2714" data-name="Grupo 2714">
          <path id="Trazado_7137" data-name="Trazado 7137" d="M26.747,299.986c17.842,57.283,68.645,75.126,154.007,75.126s146.456-17.41,180.3-61.039,29.749-117.83-44.92-113.48c0,0,16.708-35.77-8.011-57.058-26.1-22.473-59.408-3.112-59.408-3.112s-29.8-73.864-97.216-51.39C74.467,114.71,95.268,202.818,95.268,202.818S8.9,242.7,26.747,299.986Z" transform="translate(-24.319 -84.777)" fill="#fedc00"/>
        </g>
      </g>
    </g>
    <g id="Graphics" transform="translate(61.777 193)">
      <g id="Background_details" data-name="Background details">
        <g id="Grupo_2715" data-name="Grupo 2715" transform="translate(37.392 32.737)">
          <path id="Trazado_7139" data-name="Trazado 7139" d="M139.794,110.173l-28.425-3.953-2.61,18.545,28.08,4.685Zm-1.692.514-13.932,6.7-11.337-10.215ZM109.6,124.152l2.36-16.77,12.088,10.891,14.853-7.144-2.678,17.466Z" transform="translate(-108.759 -106.22)"/>
          <path id="Trazado_7140" data-name="Trazado 7140" d="M139.794,110.173l-28.425-3.953-2.61,18.545,28.08,4.685Zm-1.692.514-13.932,6.7-11.337-10.215ZM109.6,124.152l2.36-16.77,12.088,10.891,14.853-7.144-2.678,17.466Z" transform="translate(-108.759 -106.22)" opacity="0.6"/>
        </g>
        <g id="Grupo_2716" data-name="Grupo 2716" transform="translate(184.619 19.103)">
          <path id="Trazado_7141" data-name="Trazado 7141" d="M323.873,88.465,300.5,108.91l30.084,36.223.24.289,24.609-20.993Zm29.941,35.247-26.124-7.063-3.332-26.506Zm-52.282-14.72,22.025-19.265,3.459,27.508,27.111,7.331-23.215,19.8Z" transform="translate(-300.498 -88.465)"/>
          <path id="Trazado_7142" data-name="Trazado 7142" d="M323.873,88.465,300.5,108.91l30.084,36.223.24.289,24.609-20.993Zm29.941,35.247-26.124-7.063-3.332-26.506Zm-52.282-14.72,22.025-19.265,3.459,27.508,27.111,7.331-23.215,19.8Z" transform="translate(-300.498 -88.465)" opacity="0.6"/>
        </g>
        <g id="Grupo_2719" data-name="Grupo 2719">
          <g id="Grupo_2717" data-name="Grupo 2717">
            <path id="Trazado_7143" data-name="Trazado 7143" d="M60.434,188.4h-.007a.372.372,0,0,1-.365-.379q.014-.743.032-1.487a.365.365,0,0,1,.381-.362.37.37,0,0,1,.362.38q-.018.741-.032,1.482A.371.371,0,0,1,60.434,188.4Zm.16-5.2h-.017a.372.372,0,0,1-.355-.388q.032-.743.071-1.486a.371.371,0,0,1,.742.038q-.038.739-.071,1.48A.371.371,0,0,1,60.593,183.2Zm.294-5.188-.025,0a.37.37,0,0,1-.345-.4q.052-.743.11-1.484a.364.364,0,0,1,.4-.342.372.372,0,0,1,.342.4q-.058.738-.109,1.477A.372.372,0,0,1,60.887,178.011Zm.435-5.178-.037,0a.371.371,0,0,1-.333-.405q.073-.739.151-1.48a.371.371,0,0,1,.739.078q-.078.737-.15,1.474A.372.372,0,0,1,61.323,172.833Zm.581-5.164c-.015,0-.031,0-.047,0a.372.372,0,0,1-.322-.415q.094-.737.194-1.474a.371.371,0,1,1,.736.1q-.1.734-.193,1.468A.373.373,0,0,1,61.9,167.669Zm.733-5.144a.384.384,0,0,1-.058,0,.371.371,0,0,1-.309-.425q.116-.735.239-1.468a.371.371,0,1,1,.733.122q-.122.73-.238,1.462A.371.371,0,0,1,62.637,162.525Zm.891-5.119a.363.363,0,0,1-.07-.006.371.371,0,0,1-.295-.435q.139-.731.285-1.46a.371.371,0,1,1,.728.145q-.145.727-.283,1.454A.372.372,0,0,1,63.527,157.406Zm1.056-5.088a.379.379,0,0,1-.082-.009.372.372,0,0,1-.281-.443q.164-.727.333-1.45a.371.371,0,0,1,.723.17q-.168.721-.331,1.443A.372.372,0,0,1,64.583,152.318Zm1.224-5.049a.387.387,0,0,1-.094-.012.372.372,0,0,1-.266-.453q.188-.72.382-1.438a.371.371,0,0,1,.716.194q-.194.714-.381,1.431A.37.37,0,0,1,65.807,147.269Zm1.4-5a.37.37,0,0,1-.356-.478q.213-.713.434-1.424a.371.371,0,1,1,.709.22q-.22.706-.432,1.416A.371.371,0,0,1,67.206,142.265Zm1.58-4.95a.383.383,0,0,1-.12-.019.371.371,0,0,1-.232-.471q.24-.706.486-1.407a.372.372,0,1,1,.7.246q-.246.7-.484,1.4A.372.372,0,0,1,68.786,137.314Zm1.766-4.887a.366.366,0,0,1-.133-.025.371.371,0,0,1-.214-.479q.266-.7.541-1.388a.371.371,0,1,1,.69.273q-.273.688-.537,1.379A.37.37,0,0,1,70.552,132.427Zm1.954-4.815a.38.38,0,0,1-.147-.03.371.371,0,0,1-.194-.488q.294-.684.6-1.366a.371.371,0,0,1,.679.3q-.3.677-.592,1.358A.372.372,0,0,1,72.507,127.612Zm2.147-4.732a.373.373,0,0,1-.335-.532q.321-.671.652-1.34a.371.371,0,1,1,.666.329q-.328.665-.647,1.332A.373.373,0,0,1,74.653,122.88ZM77,118.238a.365.365,0,0,1-.174-.044.371.371,0,0,1-.154-.5q.35-.657.708-1.311a.371.371,0,1,1,.651.357q-.356.65-.7,1.3A.371.371,0,0,1,77,118.238ZM79.54,113.7a.371.371,0,0,1-.319-.561q.379-.642.769-1.278a.371.371,0,0,1,.633.388q-.386.632-.763,1.269A.373.373,0,0,1,79.54,113.7Zm2.757-4.41a.371.371,0,0,1-.309-.576q.411-.622.829-1.24a.371.371,0,0,1,.614.417q-.415.614-.823,1.232A.371.371,0,0,1,82.3,109.295Zm2.962-4.274a.365.365,0,0,1-.218-.071.37.37,0,0,1-.081-.518q.439-.6.885-1.2a.372.372,0,0,1,.6.445q-.445.593-.881,1.192A.372.372,0,0,1,85.259,105.021Zm3.159-4.129a.372.372,0,0,1-.289-.6q.466-.582.941-1.156a.371.371,0,0,1,.572.472q-.471.571-.935,1.149A.369.369,0,0,1,88.418,100.892Zm3.35-3.975a.371.371,0,0,1-.278-.617q.494-.559.994-1.11a.371.371,0,1,1,.55.5q-.5.547-.988,1.1A.371.371,0,0,1,91.768,96.917Zm162.6-1.217a.372.372,0,0,1-.139-.027q-.69-.279-1.377-.561a.372.372,0,1,1,.283-.687q.685.282,1.373.561a.371.371,0,0,1-.14.715Zm-4.8-1.993a.361.361,0,0,1-.145-.03l-1.367-.584a.371.371,0,1,1,.293-.682l1.364.583a.371.371,0,0,1-.145.713ZM95.3,93.108A.367.367,0,0,1,95.044,93a.371.371,0,0,1-.008-.525q.519-.533,1.047-1.06a.371.371,0,1,1,.524.525q-.523.523-1.039,1.053A.37.37,0,0,1,95.3,93.108Zm149.5-1.465a.366.366,0,0,1-.149-.031l-1.36-.6a.371.371,0,0,1,.3-.679l1.357.6a.371.371,0,0,1-.15.711Zm-4.746-2.118a.355.355,0,0,1-.152-.033l-1.354-.612a.371.371,0,0,1,.306-.676l1.352.612a.371.371,0,0,1-.152.709ZM99.014,89.473a.372.372,0,0,1-.253-.643q.546-.508,1.1-1.008a.371.371,0,1,1,.5.55q-.548.5-1.089,1A.369.369,0,0,1,99.014,89.473Zm136.308-2.1a.372.372,0,0,1-.155-.034l-1.351-.618a.372.372,0,0,1,.31-.676l1.351.619a.371.371,0,0,1-.154.709ZM102.9,86.024a.372.372,0,0,1-.24-.655q.569-.48,1.145-.953a.371.371,0,0,1,.471.574q-.571.469-1.136.946A.372.372,0,0,1,102.9,86.024Zm127.7-.816a.372.372,0,0,1-.155-.034l-1.351-.619a.371.371,0,0,1,.31-.675l1.35.619a.371.371,0,0,1-.154.709Zm-4.726-2.162a.371.371,0,0,1-.154-.034l-1.351-.614a.371.371,0,1,1,.308-.676l1.351.614a.371.371,0,0,1-.154.709Zm-118.919-.272a.371.371,0,0,1-.225-.666q.593-.451,1.191-.893a.371.371,0,1,1,.442.6q-.594.439-1.183.887A.37.37,0,0,1,106.952,82.774ZM221.134,80.9a.377.377,0,0,1-.152-.031l-1.356-.605a.371.371,0,0,1,.3-.679l1.358.606a.371.371,0,0,1-.151.709ZM111.165,79.736a.371.371,0,0,1-.21-.678q.616-.42,1.237-.83a.371.371,0,1,1,.408.62q-.616.408-1.226.824A.369.369,0,0,1,111.165,79.736Zm105.213-.928a.373.373,0,0,1-.147-.031l-1.361-.586a.371.371,0,0,1,.291-.683l1.365.588a.371.371,0,0,1-.147.712ZM115.53,76.925a.372.372,0,0,1-.193-.689q.636-.387,1.278-.762a.372.372,0,1,1,.375.641q-.637.372-1.269.756A.364.364,0,0,1,115.53,76.925Zm96.064-.146a.371.371,0,0,1-.142-.028q-.684-.284-1.371-.564a.371.371,0,1,1,.28-.688q.69.281,1.375.566a.371.371,0,0,1-.142.714Zm-4.818-1.946a.366.366,0,0,1-.135-.025q-.69-.271-1.381-.537a.372.372,0,1,1,.267-.693q.693.268,1.385.54a.371.371,0,0,1-.136.716Zm-86.733-.479a.371.371,0,0,1-.176-.7q.657-.351,1.32-.69a.371.371,0,1,1,.339.66q-.656.336-1.308.685A.378.378,0,0,1,120.043,74.354Zm81.873-1.364a.37.37,0,0,1-.127-.023q-.7-.256-1.394-.5a.371.371,0,0,1,.25-.7q.7.251,1.4.507a.371.371,0,0,1-.127.72Zm-77.224-.949a.371.371,0,0,1-.157-.708q.677-.313,1.358-.614a.371.371,0,1,1,.3.679q-.675.3-1.347.609A.359.359,0,0,1,124.692,72.041Zm72.32-.776a.354.354,0,0,1-.118-.02q-.7-.236-1.407-.467a.371.371,0,0,1,.232-.706q.706.232,1.412.47a.371.371,0,0,1-.118.723ZM129.468,70a.372.372,0,0,1-.136-.717q.695-.272,1.393-.532a.371.371,0,1,1,.259.7q-.692.258-1.38.528A.368.368,0,0,1,129.468,70Zm62.594-.32a.372.372,0,0,1-.107-.016q-.709-.215-1.421-.423a.372.372,0,0,1,.209-.713q.715.21,1.427.426a.371.371,0,0,1-.107.726Zm-5-1.426a.379.379,0,0,1-.1-.012q-.715-.191-1.434-.374a.371.371,0,0,1,.183-.719q.722.184,1.443.376a.371.371,0,0,1-.1.729Zm-52.7,0a.372.372,0,0,1-.114-.725q.711-.229,1.424-.446a.371.371,0,1,1,.216.71q-.707.215-1.411.442A.375.375,0,0,1,134.359,68.251Zm47.655-1.238a.367.367,0,0,1-.081-.009q-.723-.164-1.447-.317a.371.371,0,1,1,.154-.726q.728.154,1.456.319a.371.371,0,0,1-.081.733Zm-42.664-.207a.371.371,0,0,1-.091-.731q.723-.184,1.45-.356a.371.371,0,1,1,.17.723q-.72.169-1.437.352A.378.378,0,0,1,139.35,66.806Zm37.57-.829a.39.39,0,0,1-.066-.005q-.729-.132-1.46-.254a.371.371,0,0,1,.123-.733q.735.123,1.469.256a.371.371,0,0,1-.066.736Zm-32.495-.293a.371.371,0,0,1-.068-.736q.734-.138,1.47-.261a.371.371,0,0,1,.124.732q-.73.123-1.457.259A.351.351,0,0,1,144.426,65.684Zm27.36-.512a.353.353,0,0,1-.049,0q-.734-.1-1.469-.184a.371.371,0,1,1,.087-.737q.741.088,1.479.185a.371.371,0,0,1-.048.739ZM149.567,64.9a.371.371,0,0,1-.044-.74q.742-.089,1.487-.163a.371.371,0,1,1,.074.739q-.737.074-1.471.162Zm17.052-.273h-.03q-.737-.06-1.475-.107a.372.372,0,0,1-.347-.395.377.377,0,0,1,.395-.346q.743.047,1.487.107a.371.371,0,0,1-.029.742Zm-11.869-.174a.371.371,0,0,1-.02-.742q.745-.04,1.49-.067A.36.36,0,0,1,156.6,64a.372.372,0,0,1-.358.385q-.737.026-1.477.066Zm6.68-.1h-.009q-.738-.017-1.478-.023a.371.371,0,0,1,0-.743h0q.745.006,1.49.023a.371.371,0,0,1-.008.743Z" transform="translate(-60.062 -63.586)"/>
            <path id="Trazado_7144" data-name="Trazado 7144" d="M60.434,188.4h-.007a.372.372,0,0,1-.365-.379q.014-.743.032-1.487a.365.365,0,0,1,.381-.362.37.37,0,0,1,.362.38q-.018.741-.032,1.482A.371.371,0,0,1,60.434,188.4Zm.16-5.2h-.017a.372.372,0,0,1-.355-.388q.032-.743.071-1.486a.371.371,0,0,1,.742.038q-.038.739-.071,1.48A.371.371,0,0,1,60.593,183.2Zm.294-5.188-.025,0a.37.37,0,0,1-.345-.4q.052-.743.11-1.484a.364.364,0,0,1,.4-.342.372.372,0,0,1,.342.4q-.058.738-.109,1.477A.372.372,0,0,1,60.887,178.011Zm.435-5.178-.037,0a.371.371,0,0,1-.333-.405q.073-.739.151-1.48a.371.371,0,0,1,.739.078q-.078.737-.15,1.474A.372.372,0,0,1,61.323,172.833Zm.581-5.164c-.015,0-.031,0-.047,0a.372.372,0,0,1-.322-.415q.094-.737.194-1.474a.371.371,0,1,1,.736.1q-.1.734-.193,1.468A.373.373,0,0,1,61.9,167.669Zm.733-5.144a.384.384,0,0,1-.058,0,.371.371,0,0,1-.309-.425q.116-.735.239-1.468a.371.371,0,1,1,.733.122q-.122.73-.238,1.462A.371.371,0,0,1,62.637,162.525Zm.891-5.119a.363.363,0,0,1-.07-.006.371.371,0,0,1-.295-.435q.139-.731.285-1.46a.371.371,0,1,1,.728.145q-.145.727-.283,1.454A.372.372,0,0,1,63.527,157.406Zm1.056-5.088a.379.379,0,0,1-.082-.009.372.372,0,0,1-.281-.443q.164-.727.333-1.45a.371.371,0,0,1,.723.17q-.168.721-.331,1.443A.372.372,0,0,1,64.583,152.318Zm1.224-5.049a.387.387,0,0,1-.094-.012.372.372,0,0,1-.266-.453q.188-.72.382-1.438a.371.371,0,0,1,.716.194q-.194.714-.381,1.431A.37.37,0,0,1,65.807,147.269Zm1.4-5a.37.37,0,0,1-.356-.478q.213-.713.434-1.424a.371.371,0,1,1,.709.22q-.22.706-.432,1.416A.371.371,0,0,1,67.206,142.265Zm1.58-4.95a.383.383,0,0,1-.12-.019.371.371,0,0,1-.232-.471q.24-.706.486-1.407a.372.372,0,1,1,.7.246q-.246.7-.484,1.4A.372.372,0,0,1,68.786,137.314Zm1.766-4.887a.366.366,0,0,1-.133-.025.371.371,0,0,1-.214-.479q.266-.7.541-1.388a.371.371,0,1,1,.69.273q-.273.688-.537,1.379A.37.37,0,0,1,70.552,132.427Zm1.954-4.815a.38.38,0,0,1-.147-.03.371.371,0,0,1-.194-.488q.294-.684.6-1.366a.371.371,0,0,1,.679.3q-.3.677-.592,1.358A.372.372,0,0,1,72.507,127.612Zm2.147-4.732a.373.373,0,0,1-.335-.532q.321-.671.652-1.34a.371.371,0,1,1,.666.329q-.328.665-.647,1.332A.373.373,0,0,1,74.653,122.88ZM77,118.238a.365.365,0,0,1-.174-.044.371.371,0,0,1-.154-.5q.35-.657.708-1.311a.371.371,0,1,1,.651.357q-.356.65-.7,1.3A.371.371,0,0,1,77,118.238ZM79.54,113.7a.371.371,0,0,1-.319-.561q.379-.642.769-1.278a.371.371,0,0,1,.633.388q-.386.632-.763,1.269A.373.373,0,0,1,79.54,113.7Zm2.757-4.41a.371.371,0,0,1-.309-.576q.411-.622.829-1.24a.371.371,0,0,1,.614.417q-.415.614-.823,1.232A.371.371,0,0,1,82.3,109.295Zm2.962-4.274a.365.365,0,0,1-.218-.071.37.37,0,0,1-.081-.518q.439-.6.885-1.2a.372.372,0,0,1,.6.445q-.445.593-.881,1.192A.372.372,0,0,1,85.259,105.021Zm3.159-4.129a.372.372,0,0,1-.289-.6q.466-.582.941-1.156a.371.371,0,0,1,.572.472q-.471.571-.935,1.149A.369.369,0,0,1,88.418,100.892Zm3.35-3.975a.371.371,0,0,1-.278-.617q.494-.559.994-1.11a.371.371,0,1,1,.55.5q-.5.547-.988,1.1A.371.371,0,0,1,91.768,96.917Zm162.6-1.217a.372.372,0,0,1-.139-.027q-.69-.279-1.377-.561a.372.372,0,1,1,.283-.687q.685.282,1.373.561a.371.371,0,0,1-.14.715Zm-4.8-1.993a.361.361,0,0,1-.145-.03l-1.367-.584a.371.371,0,1,1,.293-.682l1.364.583a.371.371,0,0,1-.145.713ZM95.3,93.108A.367.367,0,0,1,95.044,93a.371.371,0,0,1-.008-.525q.519-.533,1.047-1.06a.371.371,0,1,1,.524.525q-.523.523-1.039,1.053A.37.37,0,0,1,95.3,93.108Zm149.5-1.465a.366.366,0,0,1-.149-.031l-1.36-.6a.371.371,0,0,1,.3-.679l1.357.6a.371.371,0,0,1-.15.711Zm-4.746-2.118a.355.355,0,0,1-.152-.033l-1.354-.612a.371.371,0,0,1,.306-.676l1.352.612a.371.371,0,0,1-.152.709ZM99.014,89.473a.372.372,0,0,1-.253-.643q.546-.508,1.1-1.008a.371.371,0,1,1,.5.55q-.548.5-1.089,1A.369.369,0,0,1,99.014,89.473Zm136.308-2.1a.372.372,0,0,1-.155-.034l-1.351-.618a.372.372,0,0,1,.31-.676l1.351.619a.371.371,0,0,1-.154.709ZM102.9,86.024a.372.372,0,0,1-.24-.655q.569-.48,1.145-.953a.371.371,0,0,1,.471.574q-.571.469-1.136.946A.372.372,0,0,1,102.9,86.024Zm127.7-.816a.372.372,0,0,1-.155-.034l-1.351-.619a.371.371,0,0,1,.31-.675l1.35.619a.371.371,0,0,1-.154.709Zm-4.726-2.162a.371.371,0,0,1-.154-.034l-1.351-.614a.371.371,0,1,1,.308-.676l1.351.614a.371.371,0,0,1-.154.709Zm-118.919-.272a.371.371,0,0,1-.225-.666q.593-.451,1.191-.893a.371.371,0,1,1,.442.6q-.594.439-1.183.887A.37.37,0,0,1,106.952,82.774ZM221.134,80.9a.377.377,0,0,1-.152-.031l-1.356-.605a.371.371,0,0,1,.3-.679l1.358.606a.371.371,0,0,1-.151.709ZM111.165,79.736a.371.371,0,0,1-.21-.678q.616-.42,1.237-.83a.371.371,0,1,1,.408.62q-.616.408-1.226.824A.369.369,0,0,1,111.165,79.736Zm105.213-.928a.373.373,0,0,1-.147-.031l-1.361-.586a.371.371,0,0,1,.291-.683l1.365.588a.371.371,0,0,1-.147.712ZM115.53,76.925a.372.372,0,0,1-.193-.689q.636-.387,1.278-.762a.372.372,0,1,1,.375.641q-.637.372-1.269.756A.364.364,0,0,1,115.53,76.925Zm96.064-.146a.371.371,0,0,1-.142-.028q-.684-.284-1.371-.564a.371.371,0,1,1,.28-.688q.69.281,1.375.566a.371.371,0,0,1-.142.714Zm-4.818-1.946a.366.366,0,0,1-.135-.025q-.69-.271-1.381-.537a.372.372,0,1,1,.267-.693q.693.268,1.385.54a.371.371,0,0,1-.136.716Zm-86.733-.479a.371.371,0,0,1-.176-.7q.657-.351,1.32-.69a.371.371,0,1,1,.339.66q-.656.336-1.308.685A.378.378,0,0,1,120.043,74.354Zm81.873-1.364a.37.37,0,0,1-.127-.023q-.7-.256-1.394-.5a.371.371,0,0,1,.25-.7q.7.251,1.4.507a.371.371,0,0,1-.127.72Zm-77.224-.949a.371.371,0,0,1-.157-.708q.677-.313,1.358-.614a.371.371,0,1,1,.3.679q-.675.3-1.347.609A.359.359,0,0,1,124.692,72.041Zm72.32-.776a.354.354,0,0,1-.118-.02q-.7-.236-1.407-.467a.371.371,0,0,1,.232-.706q.706.232,1.412.47a.371.371,0,0,1-.118.723ZM129.468,70a.372.372,0,0,1-.136-.717q.695-.272,1.393-.532a.371.371,0,1,1,.259.7q-.692.258-1.38.528A.368.368,0,0,1,129.468,70Zm62.594-.32a.372.372,0,0,1-.107-.016q-.709-.215-1.421-.423a.372.372,0,0,1,.209-.713q.715.21,1.427.426a.371.371,0,0,1-.107.726Zm-5-1.426a.379.379,0,0,1-.1-.012q-.715-.191-1.434-.374a.371.371,0,0,1,.183-.719q.722.184,1.443.376a.371.371,0,0,1-.1.729Zm-52.7,0a.372.372,0,0,1-.114-.725q.711-.229,1.424-.446a.371.371,0,1,1,.216.71q-.707.215-1.411.442A.375.375,0,0,1,134.359,68.251Zm47.655-1.238a.367.367,0,0,1-.081-.009q-.723-.164-1.447-.317a.371.371,0,1,1,.154-.726q.728.154,1.456.319a.371.371,0,0,1-.081.733Zm-42.664-.207a.371.371,0,0,1-.091-.731q.723-.184,1.45-.356a.371.371,0,1,1,.17.723q-.72.169-1.437.352A.378.378,0,0,1,139.35,66.806Zm37.57-.829a.39.39,0,0,1-.066-.005q-.729-.132-1.46-.254a.371.371,0,0,1,.123-.733q.735.123,1.469.256a.371.371,0,0,1-.066.736Zm-32.495-.293a.371.371,0,0,1-.068-.736q.734-.138,1.47-.261a.371.371,0,0,1,.124.732q-.73.123-1.457.259A.351.351,0,0,1,144.426,65.684Zm27.36-.512a.353.353,0,0,1-.049,0q-.734-.1-1.469-.184a.371.371,0,1,1,.087-.737q.741.088,1.479.185a.371.371,0,0,1-.048.739ZM149.567,64.9a.371.371,0,0,1-.044-.74q.742-.089,1.487-.163a.371.371,0,1,1,.074.739q-.737.074-1.471.162Zm17.052-.273h-.03q-.737-.06-1.475-.107a.372.372,0,0,1-.347-.395.377.377,0,0,1,.395-.346q.743.047,1.487.107a.371.371,0,0,1-.029.742Zm-11.869-.174a.371.371,0,0,1-.02-.742q.745-.04,1.49-.067A.36.36,0,0,1,156.6,64a.372.372,0,0,1-.358.385q-.737.026-1.477.066Zm6.68-.1h-.009q-.738-.017-1.478-.023a.371.371,0,0,1,0-.743h0q.745.006,1.49.023a.371.371,0,0,1-.008.743Z" transform="translate(-60.062 -63.586)" opacity="0.6"/>
          </g>
          <g id="Grupo_2718" data-name="Grupo 2718" transform="translate(228.215 41.464)">
            <path id="Trazado_7145" data-name="Trazado 7145" d="M417.75,215.986a.364.364,0,0,1-.164-.038.372.372,0,0,1-.171-.5q.326-.663.639-1.333a.372.372,0,1,1,.673.316q-.317.675-.644,1.344A.371.371,0,0,1,417.75,215.986Zm2.154-4.728a.378.378,0,0,1-.145-.03.372.372,0,0,1-.2-.486q.289-.681.565-1.367a.371.371,0,0,1,.689.277q-.279.692-.569,1.379A.373.373,0,0,1,419.9,211.257Zm1.888-4.841a.352.352,0,0,1-.124-.022.371.371,0,0,1-.225-.475q.249-.7.486-1.4a.371.371,0,0,1,.7.237q-.238.707-.491,1.409A.373.373,0,0,1,421.792,206.416Zm1.607-4.943a.376.376,0,0,1-.1-.015.371.371,0,0,1-.252-.461q.207-.709.4-1.423a.371.371,0,0,1,.716.2q-.2.719-.408,1.435A.371.371,0,0,1,423.4,201.473Zm1.309-5.029a.345.345,0,0,1-.083-.01.37.37,0,0,1-.279-.445q.164-.721.316-1.444a.371.371,0,0,1,.726.153q-.153.729-.319,1.457A.371.371,0,0,1,424.708,196.445Zm1-5.1a.319.319,0,0,1-.06,0,.369.369,0,0,1-.306-.425q.118-.73.223-1.462a.371.371,0,0,1,.735.105q-.107.738-.226,1.475A.37.37,0,0,1,425.705,191.343Zm.663-5.154-.035,0a.371.371,0,0,1-.335-.4q.069-.736.124-1.473a.372.372,0,0,1,.741.055q-.056.744-.126,1.487A.371.371,0,0,1,426.369,186.189Zm.309-5.188h-.009a.372.372,0,0,1-.362-.38q.017-.738.021-1.478a.371.371,0,0,1,.371-.369h0a.372.372,0,0,1,.37.373q0,.746-.021,1.492A.371.371,0,0,1,426.677,181Zm-.065-5.2a.372.372,0,0,1-.371-.353q-.037-.738-.089-1.474a.372.372,0,0,1,.345-.4.377.377,0,0,1,.4.344q.052.745.089,1.49a.37.37,0,0,1-.352.389Zm-.457-5.177a.371.371,0,0,1-.368-.324q-.092-.733-.2-1.462a.371.371,0,0,1,.312-.423.377.377,0,0,1,.422.312c.075.493.143.986.206,1.48a.37.37,0,0,1-.321.415A.331.331,0,0,1,426.156,170.629Zm-.864-5.123a.371.371,0,0,1-.362-.294q-.152-.722-.322-1.44a.371.371,0,1,1,.722-.171q.173.727.327,1.457a.371.371,0,0,1-.286.44A.379.379,0,0,1,425.292,165.506ZM424,160.475a.372.372,0,0,1-.356-.263q-.215-.706-.447-1.407a.371.371,0,1,1,.7-.233c.156.473.308.948.452,1.424a.369.369,0,0,1-.355.479Zm-1.725-4.9a.37.37,0,0,1-.344-.233q-.275-.684-.567-1.364a.372.372,0,0,1,.683-.292q.294.686.572,1.379a.371.371,0,0,1-.345.51Zm-2.139-4.735a.371.371,0,0,1-.332-.2q-.333-.659-.683-1.309a.371.371,0,1,1,.654-.352q.355.659.691,1.325a.372.372,0,0,1-.164.5A.365.365,0,0,1,420.133,150.839Zm-2.544-4.532a.371.371,0,0,1-.316-.175q-.389-.628-.795-1.245a.372.372,0,0,1,.621-.408q.41.625.8,1.261a.371.371,0,0,1-.12.511A.363.363,0,0,1,417.589,146.308Zm-2.936-4.288a.37.37,0,0,1-.3-.148q-.443-.589-.9-1.166a.371.371,0,1,1,.58-.462q.466.585.917,1.182a.371.371,0,0,1-.3.594Zm-3.319-4a.369.369,0,0,1-.273-.121q-.5-.545-1.01-1.077a.371.371,0,0,1,.535-.515q.518.538,1.023,1.09a.372.372,0,0,1-.274.622Zm-3.686-3.661a.368.368,0,0,1-.248-.1q-.549-.493-1.11-.97a.371.371,0,0,1,.48-.567q.57.485,1.126.984a.372.372,0,0,1-.248.648Zm-4.036-3.27a.365.365,0,0,1-.218-.071q-.6-.433-1.2-.848a.371.371,0,1,1,.419-.613q.616.42,1.222.861a.372.372,0,0,1-.218.672Zm-4.358-2.825a.373.373,0,0,1-.184-.049q-.638-.366-1.288-.712a.371.371,0,1,1,.349-.655q.66.351,1.308.723a.371.371,0,0,1-.185.693Zm-4.642-2.329a.374.374,0,0,1-.148-.031q-.677-.3-1.361-.571a.371.371,0,1,1,.277-.689q.693.279,1.381.578a.372.372,0,0,1-.149.712Zm-4.857-1.844a.359.359,0,0,1-.116-.018q-.7-.23-1.407-.444a.371.371,0,0,1,.215-.711q.715.217,1.424.449a.371.371,0,0,1-.116.724Zm-4.994-1.427a.357.357,0,0,1-.089-.011q-.716-.176-1.438-.342a.371.371,0,0,1,.166-.723q.727.166,1.45.345a.371.371,0,0,1-.089.731Zm-5.077-1.1a.436.436,0,0,1-.07-.006q-.726-.137-1.455-.266a.371.371,0,1,1,.129-.731q.734.129,1.464.267a.371.371,0,0,1-.068.736Zm-5.123-.865a.458.458,0,0,1-.057,0q-.733-.112-1.466-.218a.371.371,0,1,1,.106-.734q.738.106,1.471.218a.371.371,0,0,1-.055.738Zm-5.145-.728a.354.354,0,0,1-.05,0l-1.471-.2a.371.371,0,1,1,.1-.736l1.473.2a.371.371,0,0,1-.048.739Zm-5.152-.683a.375.375,0,0,1-.051,0l-1.472-.2a.371.371,0,0,1-.318-.418.375.375,0,0,1,.418-.318l1.471.2a.371.371,0,0,1-.048.739Zm-5.148-.73a.362.362,0,0,1-.057,0q-.737-.113-1.471-.231a.371.371,0,0,1,.117-.733q.733.117,1.466.23a.371.371,0,0,1-.055.739Z" transform="translate(-357.275 -117.586)"/>
            <path id="Trazado_7146" data-name="Trazado 7146" d="M417.75,215.986a.364.364,0,0,1-.164-.038.372.372,0,0,1-.171-.5q.326-.663.639-1.333a.372.372,0,1,1,.673.316q-.317.675-.644,1.344A.371.371,0,0,1,417.75,215.986Zm2.154-4.728a.378.378,0,0,1-.145-.03.372.372,0,0,1-.2-.486q.289-.681.565-1.367a.371.371,0,0,1,.689.277q-.279.692-.569,1.379A.373.373,0,0,1,419.9,211.257Zm1.888-4.841a.352.352,0,0,1-.124-.022.371.371,0,0,1-.225-.475q.249-.7.486-1.4a.371.371,0,0,1,.7.237q-.238.707-.491,1.409A.373.373,0,0,1,421.792,206.416Zm1.607-4.943a.376.376,0,0,1-.1-.015.371.371,0,0,1-.252-.461q.207-.709.4-1.423a.371.371,0,0,1,.716.2q-.2.719-.408,1.435A.371.371,0,0,1,423.4,201.473Zm1.309-5.029a.345.345,0,0,1-.083-.01.37.37,0,0,1-.279-.445q.164-.721.316-1.444a.371.371,0,0,1,.726.153q-.153.729-.319,1.457A.371.371,0,0,1,424.708,196.445Zm1-5.1a.319.319,0,0,1-.06,0,.369.369,0,0,1-.306-.425q.118-.73.223-1.462a.371.371,0,0,1,.735.105q-.107.738-.226,1.475A.37.37,0,0,1,425.705,191.343Zm.663-5.154-.035,0a.371.371,0,0,1-.335-.4q.069-.736.124-1.473a.372.372,0,0,1,.741.055q-.056.744-.126,1.487A.371.371,0,0,1,426.369,186.189Zm.309-5.188h-.009a.372.372,0,0,1-.362-.38q.017-.738.021-1.478a.371.371,0,0,1,.371-.369h0a.372.372,0,0,1,.37.373q0,.746-.021,1.492A.371.371,0,0,1,426.677,181Zm-.065-5.2a.372.372,0,0,1-.371-.353q-.037-.738-.089-1.474a.372.372,0,0,1,.345-.4.377.377,0,0,1,.4.344q.052.745.089,1.49a.37.37,0,0,1-.352.389Zm-.457-5.177a.371.371,0,0,1-.368-.324q-.092-.733-.2-1.462a.371.371,0,0,1,.312-.423.377.377,0,0,1,.422.312c.075.493.143.986.206,1.48a.37.37,0,0,1-.321.415A.331.331,0,0,1,426.156,170.629Zm-.864-5.123a.371.371,0,0,1-.362-.294q-.152-.722-.322-1.44a.371.371,0,1,1,.722-.171q.173.727.327,1.457a.371.371,0,0,1-.286.44A.379.379,0,0,1,425.292,165.506ZM424,160.475a.372.372,0,0,1-.356-.263q-.215-.706-.447-1.407a.371.371,0,1,1,.7-.233c.156.473.308.948.452,1.424a.369.369,0,0,1-.355.479Zm-1.725-4.9a.37.37,0,0,1-.344-.233q-.275-.684-.567-1.364a.372.372,0,0,1,.683-.292q.294.686.572,1.379a.371.371,0,0,1-.345.51Zm-2.139-4.735a.371.371,0,0,1-.332-.2q-.333-.659-.683-1.309a.371.371,0,1,1,.654-.352q.355.659.691,1.325a.372.372,0,0,1-.164.5A.365.365,0,0,1,420.133,150.839Zm-2.544-4.532a.371.371,0,0,1-.316-.175q-.389-.628-.795-1.245a.372.372,0,0,1,.621-.408q.41.625.8,1.261a.371.371,0,0,1-.12.511A.363.363,0,0,1,417.589,146.308Zm-2.936-4.288a.37.37,0,0,1-.3-.148q-.443-.589-.9-1.166a.371.371,0,1,1,.58-.462q.466.585.917,1.182a.371.371,0,0,1-.3.594Zm-3.319-4a.369.369,0,0,1-.273-.121q-.5-.545-1.01-1.077a.371.371,0,0,1,.535-.515q.518.538,1.023,1.09a.372.372,0,0,1-.274.622Zm-3.686-3.661a.368.368,0,0,1-.248-.1q-.549-.493-1.11-.97a.371.371,0,0,1,.48-.567q.57.485,1.126.984a.372.372,0,0,1-.248.648Zm-4.036-3.27a.365.365,0,0,1-.218-.071q-.6-.433-1.2-.848a.371.371,0,1,1,.419-.613q.616.42,1.222.861a.372.372,0,0,1-.218.672Zm-4.358-2.825a.373.373,0,0,1-.184-.049q-.638-.366-1.288-.712a.371.371,0,1,1,.349-.655q.66.351,1.308.723a.371.371,0,0,1-.185.693Zm-4.642-2.329a.374.374,0,0,1-.148-.031q-.677-.3-1.361-.571a.371.371,0,1,1,.277-.689q.693.279,1.381.578a.372.372,0,0,1-.149.712Zm-4.857-1.844a.359.359,0,0,1-.116-.018q-.7-.23-1.407-.444a.371.371,0,0,1,.215-.711q.715.217,1.424.449a.371.371,0,0,1-.116.724Zm-4.994-1.427a.357.357,0,0,1-.089-.011q-.716-.176-1.438-.342a.371.371,0,0,1,.166-.723q.727.166,1.45.345a.371.371,0,0,1-.089.731Zm-5.077-1.1a.436.436,0,0,1-.07-.006q-.726-.137-1.455-.266a.371.371,0,1,1,.129-.731q.734.129,1.464.267a.371.371,0,0,1-.068.736Zm-5.123-.865a.458.458,0,0,1-.057,0q-.733-.112-1.466-.218a.371.371,0,1,1,.106-.734q.738.106,1.471.218a.371.371,0,0,1-.055.738Zm-5.145-.728a.354.354,0,0,1-.05,0l-1.471-.2a.371.371,0,1,1,.1-.736l1.473.2a.371.371,0,0,1-.048.739Zm-5.152-.683a.375.375,0,0,1-.051,0l-1.472-.2a.371.371,0,0,1-.318-.418.375.375,0,0,1,.418-.318l1.471.2a.371.371,0,0,1-.048.739Zm-5.148-.73a.362.362,0,0,1-.057,0q-.737-.113-1.471-.231a.371.371,0,0,1,.117-.733q.733.117,1.466.23a.371.371,0,0,1-.055.739Z" transform="translate(-357.275 -117.586)" opacity="0.6"/>
          </g>
        </g>
      </g>
    </g>
    <g id="Window" transform="translate(54.353 261.14)">
      <g id="Grupo_2720" data-name="Grupo 2720">
        <rect id="Rectángulo_2363" data-name="Rectángulo 2363" width="122.31" height="77.443" transform="translate(2.381 15.784)" fill="#fff" stroke="#263238" stroke-miterlimit="10" stroke-width="1" style="isolation: isolate"/>
        <path id="Trazado_7147" data-name="Trazado 7147" d="M91.088,159.116l-2.37-6.789H50.391V251.2H177.453V159.116Zm83.994,86.448H52.772V168.111h122.31Z" transform="translate(-50.391 -152.327)" fill="#fedc00" stroke="#000" stroke-linecap="round" stroke-linejoin="round" stroke-width="1"/>
        <path id="Trazado_7148" data-name="Trazado 7148" d="M56.793,163.729l-1.757,1.684,1.82,1.955" transform="translate(-51.469 -154.974)" fill="#fedc00" stroke="#000" stroke-linecap="round" stroke-linejoin="round" stroke-width="1"/>
        <line id="Línea_121" data-name="Línea 121" x2="3.899" transform="translate(3.566 10.439)" fill="#c6ff00" stroke="#000" stroke-linecap="round" stroke-linejoin="round" stroke-width="1"/>
        <path id="Trazado_7149" data-name="Trazado 7149" d="M70.237,163.729l1.757,1.684-1.82,1.955" transform="translate(-54.984 -154.974)" fill="#fedc00" stroke="#000" stroke-linecap="round" stroke-linejoin="round" stroke-width="1"/>
        <line id="Línea_122" data-name="Línea 122" x1="3.899" transform="translate(13.112 10.439)" fill="#c6ff00" stroke="#000" stroke-linecap="round" stroke-linejoin="round" stroke-width="1"/>
        <path id="Trazado_7150" data-name="Trazado 7150" d="M82.372,165.193a1.914,1.914,0,0,0-1.8-1.383,1.757,1.757,0,1,0,1.113,3.119" transform="translate(-56.99 -154.993)" fill="#fedc00" stroke="#000" stroke-linecap="round" stroke-linejoin="round" stroke-width="1"/>
        <path id="Trazado_7151" data-name="Trazado 7151" d="M81.9,165.395h1.373v-1.612" transform="translate(-57.706 -154.986)" fill="#c6ff00" stroke="#000" stroke-linecap="round" stroke-linejoin="round" stroke-width="1"/>
        <line id="Línea_123" data-name="Línea 123" x2="2.464" y2="2.537" transform="translate(34.084 3.514)" fill="#c6ff00" stroke="#000" stroke-linecap="round" stroke-linejoin="round" stroke-width="1"/>
        <line id="Línea_124" data-name="Línea 124" x1="2.548" y2="2.454" transform="translate(34.042 3.556)" fill="#c6ff00" stroke="#000" stroke-linecap="round" stroke-linejoin="round" stroke-width="1"/>
      </g>
    </g>
    <g id="Email" transform="translate(34.623 267.841)">
      <g id="Email-2" data-name="Email">
        <g id="Grupo_2722" data-name="Grupo 2722" transform="translate(41.852 94.893)">
          <path id="Trazado_7152" data-name="Trazado 7152" d="M152.595,333.991l-18.859-36.8L79.2,326.769,98.15,361.511Z" transform="translate(-79.202 -287.551)" fill="#fff"/>
          <g id="Grupo_2721" data-name="Grupo 2721" transform="translate(0.221 19.224)">
            <path id="Trazado_7153" data-name="Trazado 7153" d="M129.793,310.037l-10.916,27.291L79.491,329.79l36.57,3.427,12.277-23.544Z" transform="translate(-79.491 -309.673)" fill="#fedc00"/>
          </g>
          <path id="Trazado_7155" data-name="Trazado 7155" d="M79.451,326.718l18.756,34.864,54.445-27.52L133.559,297.5Z" transform="translate(-79.26 -287.622)" fill="none" stroke="#000" stroke-linecap="round" stroke-linejoin="round" stroke-width="1"/>
          <path id="Trazado_7156" data-name="Trazado 7156" d="M79.451,326.718l36.6,3.672L133.559,297.5" transform="translate(-79.26 -287.622)" fill="none" stroke="#000" stroke-linecap="round" stroke-linejoin="round" stroke-width="1"/>
          <circle id="Elipse_152" data-name="Elipse 152" cx="8.047" cy="8.047" r="8.047" transform="translate(41.006 11.38) rotate(-45)" fill="#fedc00"/>
          <ellipse id="Elipse_154" data-name="Elipse 154" cx="8.047" cy="8.047" rx="8.047" ry="8.047" transform="translate(44.339 3.581)" fill="none" stroke="#000" stroke-linecap="round" stroke-linejoin="round" stroke-width="1"/>
          <ellipse id="Elipse_155" data-name="Elipse 155" cx="8.047" cy="8.047" rx="8.047" ry="8.047" transform="translate(44.339 1.335)" fill="#fedc00"/>
          <ellipse id="Elipse_156" data-name="Elipse 156" cx="8.047" cy="8.047" rx="8.047" ry="8.047" transform="translate(44.339 1.335)" fill="none" stroke="#000" stroke-linecap="round" stroke-linejoin="round" stroke-width="1"/>
        </g>
        <g id="Grupo_2724" data-name="Grupo 2724" transform="translate(180.606 56.641)">
          <rect id="Rectángulo_2364" data-name="Rectángulo 2364" width="43.131" height="26.053" rx="3" fill="#fff"/>
          <rect id="Rectángulo_2365" data-name="Rectángulo 2365" width="43.131" height="26.053" rx="3" fill="none" stroke="#263238" stroke-linecap="round" stroke-linejoin="round" stroke-width="1"/>
          <g id="Grupo_2723" data-name="Grupo 2723" transform="translate(2.843 3.959)">
            <rect id="Rectángulo_2366" data-name="Rectángulo 2366" width="37.646" height="1.76" fill="#fedc00" stroke="#fedc00" stroke-linecap="round" stroke-width="1"/>
            <rect id="Rectángulo_2367" data-name="Rectángulo 2367" width="37.646" height="1.76" transform="translate(0 4.062)" fill="#fedc00" stroke="#fedc00" stroke-linecap="round" stroke-width="1"/>
            <rect id="Rectángulo_2368" data-name="Rectángulo 2368" width="37.646" height="1.76" transform="translate(0 8.125)" fill="#fedc00" stroke="#fedc00" stroke-linecap="round" stroke-width="1"/>
            <rect id="Rectángulo_2369" data-name="Rectángulo 2369" width="37.646" height="1.76" transform="translate(0 12.187)" fill="#fedc00" stroke="#fedc00" stroke-linecap="round" stroke-width="1"/>
            <rect id="Rectángulo_2370" data-name="Rectángulo 2370" width="37.646" height="1.76" transform="translate(0 16.25)" fill="#fedc00" stroke="#fedc00" stroke-linecap="round" stroke-width="1"/>
          </g>
        </g>
        <g id="Grupo_2725" data-name="Grupo 2725">
          <path id="Trazado_7157" data-name="Trazado 7157" d="M202.942,262.392a75.605,75.605,0,0,0-16.835,12.223c-11.5,11.476-17.19,27.329-25.374,41.348a127.453,127.453,0,0,1-32.754,37.02c-13.609,10.365-29.739,18.06-46.827,19.291s-35.132-4.665-46.273-17.628-13.89-33.246-4.48-47.5a36.028,36.028,0,0,1,36.9-14.9c5.39,1.2,10.406,3.635,15.364,6.054l7.656,3.734" transform="translate(-24.697 -184.579)" fill="none" stroke="#000" stroke-linecap="round" stroke-linejoin="round" stroke-width="1" stroke-dasharray="2 5"/>
          <path id="Trazado_7158" data-name="Trazado 7158" d="M287.291,164.544c7.708-3.663,16.84-4.712,24.878-1.845s14.694,9.941,16.076,18.362c1.192,7.265-1.519,14.764-5.939,20.651a55.394,55.394,0,0,1-11.952,11.266" transform="translate(-85.658 -161.054)" fill="none" stroke="#000" stroke-linecap="round" stroke-linejoin="round" stroke-width="1" stroke-dasharray="2 5"/>
        </g>
      </g>
    </g>
    <g id="Character_1" data-name="Character 1" transform="translate(53.604 222.073)">
      <g id="Character_1-2" data-name="Character 1" transform="translate(0 0)">
        <path id="Trazado_7159" data-name="Trazado 7159" d="M228.845,206.6l6.721-4.206,16.861-20.547L266.074,193.3,248.6,213.016l-2.523-1.775-14.3,3S230.333,208.617,228.845,206.6Z" transform="translate(-91.072 -120.114)" fill="#fff"/>
        <path id="Trazado_7160" data-name="Trazado 7160" d="M97.733,208.624,90.945,214l1.834,3.8s.345,4.912,3.177,6.437,10.335-3.329,10.335-3.329.776-5.168-1.839-8.981Z" transform="translate(-59.058 -126.329)" fill="#fff"/>
        <path id="Trazado_7161" data-name="Trazado 7161" d="M189.779,130.622s-11.618,22.462-18.461,24.012l-2.711.9s-2.446,7.74-10.777,9.034l1.094-6.452-6.057,5.985s-9.763-8.945-7.44-21.08l8.545.561,3.809-7.143a5.176,5.176,0,0,1-2.472-5.433c.775-3.614,1.549-6.971,5.293-4,0,0,8.133,4.131,14.717-1.679s8.391-6.584,11.877-4.518C187.2,120.81,186.294,128.814,189.779,130.622Z" transform="translate(-71.624 -105.702)" fill="#fff"/>
        <path id="Trazado_7162" data-name="Trazado 7162" d="M130.663,170.811s-9-5.952-7.564-20.662a102.935,102.935,0,0,0-26.8-1.13l-46.88,41.166a10.877,10.877,0,0,0,8.287,7.534c6.719,1.322,23.271,2.385,23.271,2.385l6.461-5.652-14.664-6.038L95.554,174.9l.015,22.616s2.563,7.6,1.082,9.482l-9.885,9.98s16.619,30.695,53.955,11.3l-3.974-21.294s6.236-1.628,2.62-5.029l6.021-9.862s6.346,22.945,12.006,28.845L189.509,206.8s-.852-5.508-2.574-7.722l-22.612,5.148s.372-20.383-1.1-27.025-4.333-13.218-10.489-17.7c0,0-4.088,2.875-6.056,1.891,0,0-3.552,9.92-11.05,9.889l1.193-6.939-5.363,5.764-.793.707" transform="translate(-49.418 -112.41)" fill="#fedc00"/>
        <g id="Grupo_2726" data-name="Grupo 2726" transform="translate(82.344 13.645)" opacity="0.5">
          <path id="Trazado_7163" data-name="Trazado 7163" d="M189.724,121.718a7.809,7.809,0,0,0-4.9,2.11c-1.383,1.176-2.529,2.6-3.843,3.857a20.611,20.611,0,0,1-13.853,5.631,17.654,17.654,0,0,1-3.533,8.574,3.241,3.241,0,0,0-1.014,2.341,2.937,2.937,0,0,0,.544,1.11l2.309,3.388a2.23,2.23,0,0,1,.474,1.054c.05.723-.584,1.289-1.157,1.732l-4.918,3.792s-3.337-8.19-3.171-11.853l3.809-7.143s-7.226-8.464-1.52-11.384,9.29.8,9.29.8,13.67-6.636,17.785-6.5S189.724,121.718,189.724,121.718Z" transform="translate(-156.657 -119.219)" fill="#fedc00"/>
        </g>
        <path id="Trazado_7165" data-name="Trazado 7165" d="M193.953,131.94s-7.619,19.049-17.824,25.444c0,0-.68.68-2.858,0s-6.939-6.123-8.708-8.844a10.215,10.215,0,0,1-1.2-4.846" transform="translate(-75.871 -108.527)" fill="none" stroke="#000" stroke-linecap="round" stroke-linejoin="round" stroke-width="1"/>
        <path id="Trazado_7166" data-name="Trazado 7166" d="M178.746,150.015a5.333,5.333,0,0,0,3.81,3.265" transform="translate(-79.441 -112.723)" fill="none" stroke="#000" stroke-linecap="round" stroke-linejoin="round" stroke-width="1"/>
        <path id="Trazado_7167" data-name="Trazado 7167" d="M190.642,134.1a4.719,4.719,0,0,0-4.473-1.6" transform="translate(-81.164 -108.638)" fill="none" stroke="#000" stroke-linecap="round" stroke-linejoin="round" stroke-width="1"/>
        <path id="Trazado_7168" data-name="Trazado 7168" d="M196.4,137.076a2.927,2.927,0,0,1,3.256.948" transform="translate(-83.541 -109.681)" fill="none" stroke="#000" stroke-linecap="round" stroke-linejoin="round" stroke-width="1"/>
        <path id="Trazado_7169" data-name="Trazado 7169" d="M192.861,139.5a6.93,6.93,0,0,0-1.838,3,4.9,4.9,0,0,0,.259,3.467,5.8,5.8,0,0,1,.632,1.372,1.048,1.048,0,0,1-.6,1.24,1.356,1.356,0,0,1-.676-.046,11.825,11.825,0,0,1-3.811-1.726" transform="translate(-81.318 -110.283)" fill="none" stroke="#000" stroke-linecap="round" stroke-linejoin="round" stroke-width="1"/>
        <path id="Trazado_7170" data-name="Trazado 7170" d="M164.621,132.45a15.082,15.082,0,0,0-.68-2.224c-.357-.91-.955-1.9-1.926-2.013a1.93,1.93,0,0,0-1.02.189,3.479,3.479,0,0,0-1.808,2.416,7.574,7.574,0,0,0,.064,3.1,18.774,18.774,0,0,0,.673,2.568,4.214,4.214,0,0,0,1.1,1.911,2.354,2.354,0,0,0,3.888-1.805" transform="translate(-74.869 -107.66)" fill="none" stroke="#000" stroke-linecap="round" stroke-linejoin="round" stroke-width="1"/>
        <path id="Trazado_7171" data-name="Trazado 7171" d="M159.987,141.1a28.649,28.649,0,0,1-3.359,7.451" transform="translate(-74.307 -110.655)" fill="none" stroke="#000" stroke-linecap="round" stroke-linejoin="round" stroke-width="1"/>
        <path id="Trazado_7172" data-name="Trazado 7172" d="M90.517,213.946l2.162,3.783s.135,5.27,2.837,6.351,10.675-3.243,10.675-3.243a14.362,14.362,0,0,0-1.2-8.7,76.419,76.419,0,0,0-8.016-3.848" transform="translate(-58.959 -126.253)" fill="none" stroke="#000" stroke-linecap="round" stroke-linejoin="round" stroke-width="1"/>
        <line id="Línea_125" data-name="Línea 125" x1="2.027" y1="7.837" transform="translate(41.287 88.369)" fill="none" stroke="#000" stroke-linecap="round" stroke-linejoin="round" stroke-width="1"/>
        <line id="Línea_126" data-name="Línea 126" x1="2.525" y1="7.892" transform="translate(37.098 89.585)" fill="none" stroke="#000" stroke-linecap="round" stroke-linejoin="round" stroke-width="1"/>
        <line id="Línea_127" data-name="Línea 127" y1="16.44" x2="28.346" transform="translate(23.211 59.452)" fill="none" stroke="#000" stroke-linecap="round" stroke-linejoin="round" stroke-width="1"/>
        <path id="Trazado_7173" data-name="Trazado 7173" d="M109.929,182.736c2.7-.1,4.417-.205,7.121-.3" transform="translate(-63.466 -120.249)" fill="none" stroke="#000" stroke-linecap="round" stroke-linejoin="round" stroke-width="1"/>
        <line id="Línea_128" data-name="Línea 128" y2="23.237" transform="translate(46.276 62.655)" fill="none" stroke="#000" stroke-linecap="round" stroke-linejoin="round" stroke-width="1"/>
        <path id="Trazado_7174" data-name="Trazado 7174" d="M183.261,162.547s6.789,2.188,11.109,16.914a245.61,245.61,0,0,1,1.053,28.214" transform="translate(-80.489 -115.633)" fill="none" stroke="#000" stroke-linecap="round" stroke-linejoin="round" stroke-width="1"/>
        <path id="Trazado_7175" data-name="Trazado 7175" d="M238.814,207.918s8.069.286,7.873,1.659-6.9,2.659-6.9,2.659a1.7,1.7,0,0,1,.1.322s1.625,3-.736,4.389" transform="translate(-93.386 -126.165)" fill="none" stroke="#000" stroke-linecap="round" stroke-linejoin="round" stroke-width="1"/>
        <path id="Trazado_7176" data-name="Trazado 7176" d="M229.09,207.868a70.737,70.737,0,0,0-7.457,4.857l-23.347,5.965" transform="translate(-83.977 -126.154)" fill="none" stroke="#000" stroke-linecap="round" stroke-linejoin="round" stroke-width="1"/>
        <path id="Trazado_7177" data-name="Trazado 7177" d="M140.215,223.284s6.9,2.76,16-2.483" transform="translate(-70.496 -129.156)" fill="none" stroke="#000" stroke-linecap="round" stroke-linejoin="round" stroke-width="1"/>
        <path id="Trazado_7178" data-name="Trazado 7178" d="M187.025,139.656c-.355.992-1.033,1.656-1.513,1.484s-.583-1.116-.228-2.108,1.033-1.656,1.514-1.484S187.381,138.664,187.025,139.656Z" transform="translate(-80.91 -109.823)"/>
        <path id="Trazado_7179" data-name="Trazado 7179" d="M196.013,141.809c-.356.992-1.033,1.656-1.514,1.484s-.583-1.116-.227-2.108,1.033-1.656,1.513-1.484S196.368,140.816,196.013,141.809Z" transform="translate(-82.996 -110.323)"/>
        <g id="Grupo_2727" data-name="Grupo 2727" transform="translate(38.737 114.765)">
          <path id="Trazado_7180" data-name="Trazado 7180" d="M144.56,267.641q1.971-.094,4.061-.335" transform="translate(-110.242 -254.717)" fill="none" stroke="#000" stroke-linecap="round" stroke-linejoin="round" stroke-width="1"/>
          <path id="Trazado_7181" data-name="Trazado 7181" d="M99.866,250.911s9.442,12.348,30.048,12.964" transform="translate(-99.866 -250.911)" fill="none" stroke="#000" stroke-linecap="round" stroke-linejoin="round" stroke-width="1"/>
        </g>
        <g id="Grupo_2728" data-name="Grupo 2728" transform="translate(144.448 61.55)">
          <path id="Trazado_7182" data-name="Trazado 7182" d="M242.134,205.832l8.48,7.127,17.477-19.712-13.484-11.64-17.071,20.341" transform="translate(-237.537 -181.607)" fill="none" stroke="#000" stroke-linecap="round" stroke-linejoin="round" stroke-width="1"/>
          <path id="Trazado_7183" data-name="Trazado 7183" d="M254.608,181.607,252.814,197.6l-15.277,4.35" transform="translate(-237.537 -181.607)" fill="none" stroke="#000" stroke-linecap="round" stroke-linejoin="round" stroke-width="1"/>
        </g>
        <path id="Trazado_7184" data-name="Trazado 7184" d="M162.476,124.127s9.99,2.549,16.9-3.554,8.994-2.73,8.994-2.73-1.767,5.942,2.248,8.672l9.681-8.866s-5.185-5.588-11.608-4.625c0,0-4.832-10.343-13-11.039-9.62-.819-31.932,7.778-19.037,35.617l2.326-5.466s-2.408-7.48.554-9.834C161.705,120.574,162.476,124.127,162.476,124.127Z" transform="translate(-73.404 -101.561)"/>
        <path id="Trazado_7185" data-name="Trazado 7185" d="M199.013,119c.383.15,1.761-.348,2.282-.335a8.183,8.183,0,0,1,2.888.654,16.736,16.736,0,0,1,5.636,4.239c3.206,3.584,6.186,8.353,11.492,8.687,4.728.3,8.18-3.3,12.686-3.844,9.382-1.13,16.3,8.411,15.114,17.051-2.668,19.432-32.182,31.229-54.3,27.174-.749-.137-.085-12.389-10.847-20.1,0,0,13.87-16.362,14.786-24.824C199.665,119.272,199.016,119.006,199.013,119Z" transform="translate(-80.653 -105.447)"/>
        <path id="Trazado_7186" data-name="Trazado 7186" d="M197.546,113.427s.942-6.325-5.921-11.978" transform="translate(-82.431 -101.449)" fill="none" stroke="#000" stroke-linecap="round" stroke-linejoin="round" stroke-width="1"/>
        <path id="Trazado_7187" data-name="Trazado 7187" d="M153.984,150.544s-.157,4.735,5.051,14.048l-6.156,6.471s-10.1-7.261-7.26-21.309Z" transform="translate(-71.634 -112.663)" fill="none" stroke="#000" stroke-linecap="round" stroke-linejoin="round" stroke-width="1"/>
        <path id="Trazado_7188" data-name="Trazado 7188" d="M172.881,164.4c-4.434,10.824-11.192,10.011-11.192,10.011l1.193-6.939s4.565-2.532,6.658-5.294c.074-.1-.087.1-.035.042" transform="translate(-75.482 -115.54)" fill="none" stroke="#000" stroke-linecap="round" stroke-linejoin="round" stroke-width="1"/>
        <line id="Línea_129" data-name="Línea 129" x1="2.311" y1="8.089" transform="translate(44.111 87.171)" fill="none" stroke="#000" stroke-linecap="round" stroke-linejoin="round" stroke-width="1"/>
        <path id="Trazado_7189" data-name="Trazado 7189" d="M163.065,191.037l-12.405,20.75s1.315,1.308.863,2.661-3.55,2.4-3.55,2.4,4.03,21.209,4.04,21.264c.249,1.311-11,4.727-12.108,5.028-9.008,2.444-18.466,2.2-26.865-2.353a41.485,41.485,0,0,1-14.982-13.975l9.074-9.3" transform="translate(-60.71 -122.247)" fill="none" stroke="#000" stroke-linecap="round" stroke-linejoin="round" stroke-width="1"/>
        <path id="Trazado_7190" data-name="Trazado 7190" d="M174.541,205.094s1.947,11.684,11.9,28.94l32.283-14.29,14.386-3.28" transform="translate(-78.465 -125.51)" fill="none" stroke="#000" stroke-linecap="round" stroke-linejoin="round" stroke-width="1"/>
        <path id="Trazado_7191" data-name="Trazado 7191" d="M197.6,221.308a9.528,9.528,0,0,0-5.776,8.116" transform="translate(-82.477 -129.274)" fill="none" stroke="#000" stroke-linecap="round" stroke-linejoin="round" stroke-width="1"/>
        <path id="Trazado_7192" data-name="Trazado 7192" d="M189.054,224.008a20.773,20.773,0,0,1,5.185-2.919" transform="translate(-81.834 -129.223)" fill="none" stroke="#000" stroke-linecap="round" stroke-linejoin="round" stroke-width="1"/>
        <path id="Trazado_7193" data-name="Trazado 7193" d="M231.3,221.856c.531-1.593-2.6-7.662-2.6-7.662" transform="translate(-91.036 -127.622)" fill="none" stroke="#263238" stroke-linecap="round" stroke-linejoin="round" stroke-width="1"/>
        <path id="Trazado_7194" data-name="Trazado 7194" d="M123.417,149.815c-9.061-.977-23.773-2.309-26.631-1.018-4.189,1.892-31.574,27.385-31.574,27.385l-15.794,13.91c.251,5.023,8.287,7.534,8.287,7.534l23.271,2.385,7.116-5.4S68,185.822,60.467,185.068" transform="translate(-49.418 -112.317)" fill="none" stroke="#000" stroke-linecap="round" stroke-linejoin="round" stroke-width="1"/>
        <path id="Trazado_7195" data-name="Trazado 7195" d="M69.759,191.96s6.593,2,7.592,6.393" transform="translate(-54.14 -122.461)" fill="none" stroke="#000" stroke-linecap="round" stroke-linejoin="round" stroke-width="1"/>
        <path id="Trazado_7196" data-name="Trazado 7196" d="M199.279,142.626c1.892,3.021,3.978,6.033,6.915,8.052a17.916,17.916,0,0,0,12.332,2.653,31.593,31.593,0,0,0,12-4.47c2.5-1.481,4.9-3.19,7.651-4.13s6-.994,8.353.706" transform="translate(-84.208 -111.008)" fill="none" stroke="#fff" stroke-linecap="round" stroke-linejoin="round" stroke-width="0.5"/>
        <path id="Trazado_7197" data-name="Trazado 7197" d="M193.2,153.179c.124,4.369.5,8.954,2.884,12.615a16.716,16.716,0,0,0,9.675,6.575,23.225,23.225,0,0,0,13-.208c3.469-1.08,6.625-2.958,9.924-4.48s6.908-2.711,10.515-2.271" transform="translate(-82.796 -113.458)" fill="none" stroke="#fff" stroke-linecap="round" stroke-linejoin="round" stroke-width="0.5"/>
      </g>
    </g>
    <g id="Character_2" data-name="Character 2" transform="translate(186.225 332.504)">
      <g id="Character_2-2" data-name="Character 2">
        <path id="Trazado_7198" data-name="Trazado 7198" d="M248.928,311.393l.63-6.877L255.3,301.4l-8.686-16.136-24.476,12.779,8.559,16.059,5.29-2.613,10.42,5.465Z" transform="translate(-222.133 -226.553)" fill="#fff"/>
        <path id="Trazado_7199" data-name="Trazado 7199" d="M357.792,223.8s-7.95,18.549-8.673,24.812-.361,9.395,2.65,11.563,8.49,2.276,8.49,2.276l-.524,3.3a4.619,4.619,0,0,0-3.871,2.37,8.237,8.237,0,0,0-1.661,4.186s2.109,8.3,3.812,8.441,3.512-5.679,3.512-5.679,1.517,8.31,2.985,8.029,14.959-9.315,14.959-9.315,1.209-6.266-1.745-9.517c0,0-.784-6.212.059-9.1,0,0,5.828.736,6.142-5.229.28-5.314-2.529-7.589-4.216-5.42l-3.974-10,1.566-7.106Z" transform="translate(-251.539 -212.284)" fill="#fff"/>
        <g id="Grupo_2729" data-name="Grupo 2729" transform="translate(97.127 11.518)">
          <path id="Trazado_7200" data-name="Trazado 7200" d="M360.614,225.659l.617,1.078s-9.706,16.021-9.243,26.5,15.405,7.7,15.405,7.7-.924,13.094-6.471,12.323l-1.386-3.235.4-7.309s-5.789.531-9.332-3.012-1.849-11.092,1.386-21.413,5.764-14.489,5.764-14.489Z" transform="translate(-348.626 -223.802)" fill="rgba(254,220,0,0.35)"/>
        </g>
        <path id="Trazado_7202" data-name="Trazado 7202" d="M385.54,312.924a34.347,34.347,0,0,1-3.225,9.713,43.073,43.073,0,0,1-6.012,8.984l1.344,12.654,3.2,16.523c-.008.008-.023.015-.031.023a1.77,1.77,0,0,0-.146.107c-.192.146-.538.4-1.029.745L332,364c-1.252-2.9-2.641-6.189-3.947-9.422-2.38-5.9-4.484-11.618-4.96-14.482a7.583,7.583,0,0,1-.1-.983l-8.086-8.078L288.23,345.566l-34.4-29.109.054-.1,3.494-6.987.015-.038,34.215,16.332,7.087-9.8.1-.322.008-.038,2.027-6.634.023-.069,1.267-4.146,1.62-5.306,10.128-4.83.031-.015,18.259-8.707.023.092c.092.315.376,1.336.783,2.572.092.3.184.6.292.9.069.223.146.445.23.66a23.956,23.956,0,0,0,1.229,2.895c.077.146.161.284.238.407a4.537,4.537,0,0,0,.361.514c.008.015.023.023.031.038a.826.826,0,0,0,.622.361c.86-.069,1.9-1.943,2.626-3.517a1.174,1.174,0,0,1,.061-.146c.415-.929.722-1.728.806-1.95.015-.038.023-.061.023-.061a.865.865,0,0,1,.015.092c.115.729.975,5.759,2.211,7.41.038.054.085.107.123.161a.933.933,0,0,0,.63.361h.015c.6,0,2.48-1.144,4.73-2.664.008,0,.015-.008.023-.015,4.154-2.81,9.537-6.918,10.328-7.517.069-.061.1-.084.1-.084a15.085,15.085,0,0,0,0-4.423l.131.046,22.229,8.592c0,.008,0,.008.008.008l.645.246s3.233,3.962,4.907,13.745A25.128,25.128,0,0,1,385.54,312.924Z" transform="translate(-229.492 -225.766)" fill="#fedc00"/>
        <path id="Trazado_7203" data-name="Trazado 7203" d="M321.458,306.643l2.058-11.623L298.88,288.4l-4.254,17.837,9.815,3.073,4.44,8.993,6.737,4.631,7.4-6.9.63-5.505Z" transform="translate(-238.962 -227.281)" fill="#fff"/>
        <path id="Trazado_7204" data-name="Trazado 7204" d="M289.13,302.343" transform="translate(-237.687 -230.517)" fill="none" stroke="#263238" stroke-linecap="round" stroke-linejoin="round" stroke-width="1"/>
        <g id="Grupo_2730" data-name="Grupo 2730" transform="translate(0.09 58.614)">
          <path id="Trazado_7205" data-name="Trazado 7205" d="M249.585,304.485l5.721-2.837-8.622-16.512-24.434,13.2,8.47,15.743,11.509-5.888" transform="translate(-222.25 -285.137)" fill="none" stroke="#000" stroke-linecap="round" stroke-linejoin="round" stroke-width="1"/>
          <path id="Trazado_7206" data-name="Trazado 7206" d="M222.25,298.332l16.528,1.658,7.906-14.854" transform="translate(-222.25 -285.137)" fill="none" stroke="#000" stroke-linecap="round" stroke-linejoin="round" stroke-width="1"/>
        </g>
        <g id="Grupo_2731" data-name="Grupo 2731" transform="translate(55.663 61.015)">
          <path id="Trazado_7207" data-name="Trazado 7207" d="M317.551,312.833l2.631.76,3.416-18.88-24.713-6.45-4.26,17.944,9.488,2.742" transform="translate(-294.626 -288.263)" fill="none" stroke="#000" stroke-linecap="round" stroke-linejoin="round" stroke-width="1"/>
          <path id="Trazado_7208" data-name="Trazado 7208" d="M300.342,288.263l9.811,12.264,14.773-5.814" transform="translate(-295.953 -288.263)" fill="none" stroke="#000" stroke-linecap="round" stroke-linejoin="round" stroke-width="1"/>
        </g>
        <path id="Trazado_7209" data-name="Trazado 7209" d="M358.757,220.533s-9.675,21.916-10.327,30.819c-.647,8.85,7.655,10.22,7.755,10.235a18.055,18.055,0,0,0,9.915-1c2.479-1.066,4.46-3.041,6.524-4.735" transform="translate(-251.445 -211.525)" fill="none" stroke="#000" stroke-linecap="round" stroke-linejoin="round" stroke-width="1"/>
        <path id="Trazado_7210" data-name="Trazado 7210" d="M358.446,249.16l-3.908-2.171,4.56-9.771" transform="translate(-252.871 -215.398)" fill="none" stroke="#000" stroke-linecap="round" stroke-linejoin="round" stroke-width="1"/>
        <path id="Trazado_7211" data-name="Trazado 7211" d="M365.919,242.4c-.286.865-.144,1.692.318,1.844s1.068-.425,1.354-1.292.144-1.692-.318-1.844S366.206,241.538,365.919,242.4Z" transform="translate(-255.479 -216.297)"/>
        <path id="Trazado_7212" data-name="Trazado 7212" d="M356.187,238.754c-.286.866-.144,1.692.318,1.844s1.068-.425,1.354-1.292.144-1.692-.318-1.844S356.474,237.889,356.187,238.754Z" transform="translate(-253.219 -215.45)"/>
        <path id="Trazado_7213" data-name="Trazado 7213" d="M364.949,255.308a6.223,6.223,0,0,1-5.6,2.1" transform="translate(-253.987 -219.598)" fill="none" stroke="#000" stroke-linecap="round" stroke-linejoin="round" stroke-width="1"/>
        <path id="Trazado_7214" data-name="Trazado 7214" d="M366.469,236.551a2.339,2.339,0,0,1,2.779.5,6.845,6.845,0,0,1,1.442,2.657" transform="translate(-255.641 -215.18)" fill="none" stroke="#000" stroke-linecap="round" stroke-linejoin="round" stroke-width="2"/>
        <path id="Trazado_7215" data-name="Trazado 7215" d="M359.946,234.688a1.746,1.746,0,0,0-3.14-.347" transform="translate(-253.397 -214.537)" fill="none" stroke="#000" stroke-linecap="round" stroke-linejoin="round" stroke-width="2"/>
        <path id="Trazado_7216" data-name="Trazado 7216" d="M385.918,255.493s2.587-4.233,5.291-3.293,1.411,4.821.117,7.29-4.586,2.587-6.467,1.529" transform="translate(-259.91 -218.845)" fill="none" stroke="#000" stroke-linecap="round" stroke-linejoin="round" stroke-width="1"/>
        <path id="Trazado_7217" data-name="Trazado 7217" d="M385.523,247.826s2.569-4.335-.16-5.78-6.09,3.446-6.09,3.446c-.084.063-.347,0-.692-.125a2.479,2.479,0,0,1-1.411-3.292c.113-.272.21-.541.293-.793a7.073,7.073,0,0,0,.276-3.463c-.448-2.347-2.117-4.261-1.849-6.773a16.2,16.2,0,0,1,1.741-5.62c-13.963,2.793-22.341-5.12-20.479-11.636s6.283-.7,16.058-4.422S390,221.522,390,221.522c9.774,6.749.433,16.237.433,16.237l-4.989,10.335Z" transform="translate(-253.418 -208.801)"/>
        <path id="Trazado_7218" data-name="Trazado 7218" d="M413.29,346.2c.361,12.324,4.328,29.494,4.328,29.494" transform="translate(-266.51 -239.698)" fill="none" stroke="#000" stroke-linecap="round" stroke-linejoin="round" stroke-width="1"/>
        <path id="Trazado_7219" data-name="Trazado 7219" d="M356.979,397.567c-1.244-2.933-6.811-22.357-8.008-25.682-1.751-4.868-3.448-10.09-5.06-15.465" transform="translate(-250.404 -243.071)" fill="none" stroke="#000" stroke-linecap="round" stroke-linejoin="round" stroke-width="1"/>
        <path id="Trazado_7220" data-name="Trazado 7220" d="M412.294,351.26" transform="translate(-266.279 -241.873)" fill="none" stroke="#263238" stroke-linecap="round" stroke-linejoin="round" stroke-width="1"/>
        <path id="Trazado_7221" data-name="Trazado 7221" d="M389.054,281.882s19.86,7.057,22.883,8.932" transform="translate(-260.884 -225.767)" fill="none" stroke="#263238" stroke-linecap="round" stroke-linejoin="round" stroke-width="1"/>
        <path id="Trazado_7222" data-name="Trazado 7222" d="M365.173,285.894c-1.556-1.145-2.436-4.074-2.082-6.236l.488-5.065" transform="translate(-254.839 -224.075)" fill="none" stroke="#000" stroke-linecap="round" stroke-linejoin="round" stroke-width="1"/>
        <path id="Trazado_7223" data-name="Trazado 7223" d="M386.446,264.366s-1,3.337-.178,9.322" transform="translate(-260.162 -221.701)" fill="none" stroke="#000" stroke-linecap="round" stroke-linejoin="round" stroke-width="1"/>
        <path id="Trazado_7224" data-name="Trazado 7224" d="M364.985,341.939l-35.3-24.819-7.722,6.895s31.438,35.023,43.847,40.538c0,0,24.759-26.689,32.757-39.926,0,0,8.082-13.224-2.072-31.116" transform="translate(-245.309 -228.466)" fill="none" stroke="#000" stroke-linecap="round" stroke-linejoin="round" stroke-width="1"/>
        <line id="Línea_130" data-name="Línea 130" y1="25.139" x2="18.957" transform="translate(115.434 85.421)" fill="none" stroke="#000" stroke-linecap="round" stroke-linejoin="round" stroke-width="1"/>
        <line id="Línea_131" data-name="Línea 131" x2="11.858" y2="0.552" transform="translate(116.023 110.96)" fill="none" stroke="#000" stroke-linecap="round" stroke-linejoin="round" stroke-width="1"/>
        <path id="Trazado_7225" data-name="Trazado 7225" d="M399.586,223.466s1.539-6.154-2.307-10.9" transform="translate(-262.793 -209.676)" fill="none" stroke="#000" stroke-linecap="round" stroke-miterlimit="10" stroke-width="1"/>
        <path id="Trazado_7226" data-name="Trazado 7226" d="M298.679,324.122l-7.243,10.061L256.985,317.44l-3.22,7.083,34.451,29.3,26.57-14.65" transform="translate(-229.477 -234.022)" fill="none" stroke="#000" stroke-linecap="round" stroke-linejoin="round" stroke-width="1"/>
        <line id="Línea_132" data-name="Línea 132" y1="9.107" x2="18.288" transform="translate(84.376 60.029)" fill="none" stroke="#263238" stroke-linecap="round" stroke-linejoin="round" stroke-width="1"/>
        <path id="Trazado_7227" data-name="Trazado 7227" d="M254.762,313.524l.989-9.231-3.7-6.872s.531-4.857-.532-4.829-1.006,11.841-1.006,11.841-3.133,2.211-1.976,7.06" transform="translate(-228.203 -228.253)" fill="none" stroke="#000" stroke-linecap="round" stroke-linejoin="round" stroke-width="1"/>
        <line id="Línea_133" data-name="Línea 133" x2="9.863" y2="5.708" transform="translate(14.425 84.794)" fill="none" stroke="#263238" stroke-linecap="round" stroke-linejoin="round" stroke-width="1"/>
        <path id="Trazado_7228" data-name="Trazado 7228" d="M329.793,312.465l1.861,3.259-.359,5.8" transform="translate(-247.126 -232.867)" fill="none" stroke="#000" stroke-linecap="round" stroke-linejoin="round" stroke-width="1"/>
        <path id="Trazado_7229" data-name="Trazado 7229" d="M321.172,317.965c0-.5-10.494-11.822-10.494-11.822l-1.2.948,4.306,8.421-3.61-6.335-1.012,1.2.944,4.632-1.26-3.367-1.707.885,4.649,9.9,6.62,4.272" transform="translate(-241.867 -231.399)" fill="none" stroke="#000" stroke-linecap="round" stroke-linejoin="round" stroke-width="1"/>
        <g id="Grupo_2732" data-name="Grupo 2732" transform="translate(95.877 145.102)">
          <path id="Trazado_7230" data-name="Trazado 7230" d="M422.824,397.772" transform="translate(-364.601 -397.772)" fill="none" stroke="#263238" stroke-linecap="round" stroke-linejoin="round" stroke-width="1"/>
          <path id="Trazado_7231" data-name="Trazado 7231" d="M411.8,404.373" transform="translate(-362.041 -399.304)" fill="none" stroke="#263238" stroke-linecap="round" stroke-linejoin="round" stroke-width="1"/>
          <path id="Trazado_7232" data-name="Trazado 7232" d="M400.926,409.51" transform="translate(-359.517 -400.497)" fill="none" stroke="#263238" stroke-linecap="round" stroke-linejoin="round" stroke-width="1"/>
          <path id="Trazado_7233" data-name="Trazado 7233" d="M347,406.952" transform="translate(-346.998 -399.903)" fill="none" stroke="#263238" stroke-linecap="round" stroke-linejoin="round" stroke-width="1"/>
        </g>
        <path id="Trazado_7234" data-name="Trazado 7234" d="M381.679,276.507s-8.224,6.5-15.856,9.439c0,0,.734,8.806,2.641,9.392.707.217,1.784-.514,2.358-.825a45.451,45.451,0,0,0,3.931-2.473c2.609-1.779,5.145-3.668,7.648-5.592.488-.375,1.223-.733,1.259-1.388.167-3.084.344-6.13-1.95-8.519Z" transform="translate(-255.491 -224.519)" fill="none" stroke="#000" stroke-linecap="round" stroke-linejoin="round" stroke-width="1"/>
        <path id="Trazado_7235" data-name="Trazado 7235" d="M363.48,286.45s-2.1,7.294-3.856,7.043-3.892-8.915-3.892-8.915,2.009-6.907,5.776-5.777" transform="translate(-253.148 -225.023)" fill="none" stroke="#000" stroke-linecap="round" stroke-linejoin="round" stroke-width="1"/>
        <path id="Trazado_7236" data-name="Trazado 7236" d="M302.982,338.91a34.227,34.227,0,0,1,.036,7.864" transform="translate(-240.902 -239.006)" fill="none" stroke="#000" stroke-linecap="round" stroke-linejoin="round" stroke-width="1"/>
        <line id="Línea_134" data-name="Línea 134" x2="2.924" y2="9.519" transform="translate(87.548 83.334)" fill="none" stroke="#000" stroke-linecap="round" stroke-linejoin="round" stroke-width="1"/>
        <path id="Trazado_7237" data-name="Trazado 7237" d="M394.2,309.613a26.02,26.02,0,0,0-2.958,13.845" transform="translate(-261.379 -232.205)" fill="none" stroke="#000" stroke-linecap="round" stroke-linejoin="round" stroke-width="1"/>
        <path id="Trazado_7238" data-name="Trazado 7238" d="M388.482,316.7a30.669,30.669,0,0,0,.286,8.4" transform="translate(-260.713 -233.849)" fill="none" stroke="#000" stroke-linecap="round" stroke-linejoin="round" stroke-width="1"/>
        <path id="Trazado_7239" data-name="Trazado 7239" d="M304.574,340.333a13.283,13.283,0,0,1,1.522,4.855" transform="translate(-241.272 -239.336)" fill="none" stroke="#000" stroke-linecap="round" stroke-linejoin="round" stroke-width="1"/>
        <path id="Trazado_7240" data-name="Trazado 7240" d="M360.2,216.71a5.207,5.207,0,0,0,2.112,3.1,12.067,12.067,0,0,0,3.456,1.627,36.254,36.254,0,0,0,11.116,1.793,9.055,9.055,0,0,1,2.459.207,2.627,2.627,0,0,1,1.821,1.535" transform="translate(-254.184 -210.637)" fill="none" stroke="#fff" stroke-linecap="round" stroke-linejoin="round" stroke-width="0.5"/>
        <path id="Trazado_7241" data-name="Trazado 7241" d="M363.9,212.827c.5,2.09,2.66,3.422,4.787,3.726a22.951,22.951,0,0,0,6.4-.482,10.315,10.315,0,0,1,6.306.625c1.9,1.013,3.16,3.468,2.2,5.39" transform="translate(-255.043 -209.736)" fill="none" stroke="#fff" stroke-linecap="round" stroke-linejoin="round" stroke-width="0.5"/>
        <path id="Trazado_7242" data-name="Trazado 7242" d="M331.676,322.272" transform="translate(-247.564 -235.143)" fill="none" stroke="#263238" stroke-linecap="round" stroke-linejoin="round" stroke-width="1"/>
      </g>
    </g>
  </g>
</svg>
