<svg id="Capa_1" enable-background="new 0 0 512 512" height="512" viewBox="0 0 512 512" width="512" xmlns="http://www.w3.org/2000/svg"><g><g><path d="m101.818 501.921-28.352-9.86 26.455-76.072h156.079v30.018h-134.737z" fill="#676e74"/></g><g><path d="m410.182 501.921-19.445-55.914h-134.737v-30.018h156.079l26.455 76.072z" fill="#474f55"/></g><path d="m217.23 89.926h77.539v64.007h-77.539z" fill="#ff193d"/><path d="m255.998 89.926h38.772v64.007h-38.772z" fill="#bd003b"/><g><path d="m290.328 130.569h-68.656c-49.841 0-92.218 35.76-100.97 84.366-.281 1.559 9.237 3.131 9.026 4.715l-14.655 110.233c-.919 6.915-10.894 13.743-10.456 20.417 3.457 52.674 47.339 95.707 102.4 95.707h97.966c55.056 0 98.936-43.025 102.399-95.693.439-6.678-13.617-13.511-14.537-20.431l-14.655-110.233c-.211-1.584 13.389-3.156 13.108-4.715-8.752-48.606-51.129-84.366-100.97-84.366z" fill="#ff641a"/><path d="m290.328 130.569h-34.328v315.438h48.983c55.056 0 98.936-43.025 102.399-95.693.439-6.678-13.617-13.511-14.537-20.431l-14.655-110.233c-.211-1.584 13.389-3.156 13.108-4.715-8.752-48.606-51.129-84.366-100.97-84.366z" fill="#ff193d"/><g><g><path d="m6.347 64.104h499.305v30.019h-499.305z" fill="#474f55" transform="matrix(.966 -.259 .259 .966 -11.753 68.952)"/></g><g><path d="m256 94.652v-31.078l237.261-63.574 7.769 28.996z" fill="#32393f"/></g><g><path d="m240.991-170.539h30.019v499.305h-30.019z" fill="#676e74" transform="matrix(.259 -.966 .966 .259 113.324 305.914)"/></g><g><path d="m493.261 158.227-237.261-63.575v-31.078l245.03 65.656z" fill="#474f55"/></g></g></g><path d="m406.691 329.883-14.655-110.233c-.211-1.585-.457-3.156-.738-4.715h-270.596c-.281 1.559-.527 3.13-.738 4.715l-14.655 110.233c-.92 6.921-1.125 13.753-.685 20.431h302.752c.439-6.679.235-13.511-.685-20.431z" fill="#d0e8ff"/><path d="m406.691 329.883-14.655-110.233c-.211-1.585-.457-3.156-.738-4.715h-135.298v135.379h151.376c.439-6.679.235-13.511-.685-20.431z" fill="#9dcfff"/><g><path d="m48.366 481.982h83.971v30.018h-83.971z" fill="#474f55"/></g><g><path d="m379.663 481.982h83.971v30.018h-83.971z" fill="#32393f"/></g></g></svg>