<svg xmlns="http://www.w3.org/2000/svg" width="36.156" height="25.518" viewBox="0 0 36.156 25.518">
  <g id="Grupo_2850" data-name="Grupo 2850" transform="translate(-237.844 -816.256)">
    <path id="Combined-Shape" d="M34,18h6a2,2,0,0,1,0,4H34a2,2,0,0,1,0-4Zm-4,8H40a2,2,0,0,1,0,4H30a2,2,0,0,1,0-4Zm0,8H40a2,2,0,0,1,0,4H30a2,2,0,0,1,0-4Z" transform="translate(232 803.774)" fill="#fff" fill-rule="evenodd" opacity="0.3"/>
    <g id="ico_24_payment_money_vs" data-name="ico / 24 / payment / money_vs" transform="matrix(0.545, -0.839, 0.839, 0.545, 233.4, 832.528)">
      <path id="Icon_color" data-name="Icon color" d="M6.11,16H1a1,1,0,0,1-1-1V3A1,1,0,0,1,1,2H6.253A6.984,6.984,0,0,0,9.27,1.31L9.89,1a9.138,9.138,0,0,1,4-1H19a1,1,0,0,1,1,1V13a1,1,0,0,1-1,1H13.844a6.963,6.963,0,0,0-3.114.74l-.62.31A9.135,9.135,0,0,1,6.11,16ZM5,4A3,3,0,0,1,2,7v4a3,3,0,0,1,3,3H6.122A7.1,7.1,0,0,0,9.27,13.26l.62-.31a9.166,9.166,0,0,1,4-.95H15a3,3,0,0,1,3-3V5a3,3,0,0,1-3-3H13.779a7.106,7.106,0,0,0-3.049.691L10.11,3a9.149,9.149,0,0,1-4,1Zm5,7a3,3,0,1,1,3-3A3,3,0,0,1,10,11Z" transform="translate(2 4)" fill="#fff"/>
    </g>
  </g>
</svg>
