<svg xmlns="http://www.w3.org/2000/svg" width="351.775" height="327.188" viewBox="0 0 351.775 327.188">
  <g id="Grupo_2390" data-name="Grupo 2390" transform="translate(-31.35 -200.637)">
    <g id="Background_Simple" data-name="Background Simple" transform="translate(31.35 200.637)">
      <g id="Grupo_2343" data-name="Grupo 2343">
        <path id="Trazado_6599" data-name="Trazado 6599" d="M113.578,355.878c19.108,20.173,66.019,12.785,86.338,0C265.87,314.379,381.477,245.3,386.71,145.231c2.224-42.535-35.281-64.87-50.954-71.423-37.634-15.736-78.923-20.459-119.673-22.281-42.564-1.9-88.222-.422-126.558,20.346C75,79.739,61.306,89.828,51.928,103.6a99.975,99.975,0,0,0-16.46,47.464c-2.344,27.124,4.953,54.321,15.987,79.21s25.751,47.934,39.258,71.573C99.525,317.268,97.479,338.883,113.578,355.878Z" transform="translate(-35.029 -50.918)" fill="#f7efb7"/>
      </g>
    </g>
    <g id="Device" transform="translate(41.398 218.287)">
      <path id="Trazado_6608" data-name="Trazado 6608" d="M227.449,314.857s-6.239,31.689-44.528,38.833c0,0-10,7.975-13.328,12.7s-21.08,12.746-39.11,37.775S85.55,349.7,85.55,349.7l59.41-77.164Z" transform="translate(-54.694 -110.752)" fill="rgba(0,0,0,0.7)" opacity="0.2"/>
      <g id="Grupo_2353" data-name="Grupo 2353" transform="translate(0 49.224)">
        <path id="Trazado_6609" data-name="Trazado 6609" d="M295.344,142.065s20.647-10.092,25.189-8.349,8.879,12.182-8.465,22.183-12.182,28.63-12.182,28.63h12.389s7.433,3.028,10.324,6.917,4.955,17.177,6.607,21.683.826,9.007-3.716,10.473c0,0-2.89,12.6-2.065,18.182s.413,9.185-4.956,9.861a9.363,9.363,0,0,1-10.323-9.861l-4.13,14.962,2.891,5.751a37.432,37.432,0,0,1,11.149,6.756c5.782,4.956,11.563,6.308,9.911,11.826s-4.955,11.474-22.3,4.573-31.8-34.006-31.8-34.006l-10.418-94.518Z" transform="translate(-88.557 -133.513)" fill="#f6f7f9"/>
        <path id="Trazado_6610" data-name="Trazado 6610" d="M317.076,196.567c-9.362,12.762.993,27.452.993,27.452s-6.476,3.613-6.661,12.828c-.074,3.826.891,9.185,2.039,14.137a9.291,9.291,0,0,1-5.3-9l-4.137,14.962,2.892,5.748a35.265,35.265,0,0,1,8.515,4.681c-2.568,5.9-3.349,13.181-3.12,20.695a54.972,54.972,0,0,1-6.631-2.214c-17.347-6.9-31.793-34.01-31.793-34.01l-10.422-94.521,31.89-15.058s11.283-5.513,19-7.691a62.769,62.769,0,0,0,1.833,18.863,43.773,43.773,0,0,1-4.107,2.665c-17.347,9.994-12.187,28.629-12.187,28.629h12.393s7.065,2.878,10.09,6.631A20.15,20.15,0,0,0,317.076,196.567Z" transform="translate(-88.557 -133.716)" fill="#e2e4e6" opacity="0.4"/>
        <path id="Trazado_6611" data-name="Trazado 6611" d="M221.931,280.711s-22.461,44.041-62.947,54.028c0,0-1.546,8.714-8.4,12.453-3.657,1.994-18.421,24.124-31.389,44.32L47.44,347.493c4.423-4.371,9.458-9.406,14.609-14.66C77.026,317.561,93,300.406,97.9,291.979c4.371-7.529,9.9-20.6,14.719-32.883,6.168-15.706,11.187-30.138,11.187-30.138l23.934-26.605,37.63-41.832,1.626,5.35Z" transform="translate(-47.44 -138.654)" fill="#f6f7f9"/>
        <path id="Trazado_6612" data-name="Trazado 6612" d="M203.187,160.52l36.562,120.191s-22.461,44.041-62.947,54.028c0,0-1.546,8.714-8.4,12.453-3.282,1.789-15.514,19.8-27.356,38.079,4.387-15.058,17.1-39.065,17.1-39.065-8.155-9.656-5.778-19.835-2.517-16.935,3.158,2.818,11.466,11.04,11.989,11.555-3.606-4.247-4.438-10.892-4.438-10.892s10.1,6.719,10.921-4.077-6.057-37.078-6.057-37.078l-18.009-69.166Z" transform="translate(-65.258 -138.654)" fill="#e2e4e6"/>
        <g id="Grupo_2351" data-name="Grupo 2351" transform="translate(174.896)">
          <path id="Trazado_6613" data-name="Trazado 6613" d="M263.453,157.126l31.891-15.061s20.647-10.092,25.189-8.349,8.879,12.182-8.465,22.183-12.182,28.63-12.182,28.63h12.389s7.433,3.028,10.324,6.917,4.955,17.177,6.607,21.683.826,9.007-3.716,10.473c0,0-2.89,12.6-2.065,18.182s.413,9.185-4.956,9.861a9.363,9.363,0,0,1-10.323-9.861l-4.13,14.962,2.891,5.751a37.432,37.432,0,0,1,11.149,6.756c5.782,4.956,11.563,6.308,9.911,11.826s-4.955,11.474-22.3,4.573-31.8-34.006-31.8-34.006" transform="translate(-263.453 -133.513)" fill="none" stroke="#000" stroke-linecap="round" stroke-linejoin="round" stroke-width="1"/>
          <path id="Trazado_6614" data-name="Trazado 6614" d="M336.117,236.727c-6.195,1.673-13.421.433-16.1-10.509s2.686-22.633,6.194-23.745" transform="translate(-274.081 -146.639)" fill="none" stroke="#000" stroke-linecap="round" stroke-linejoin="round" stroke-width="1"/>
          <path id="Trazado_6615" data-name="Trazado 6615" d="M318.651,263.106s-.413-14.094,4.749-17.573" transform="translate(-273.958 -154.836)" fill="none" stroke="#263238" stroke-linecap="round" stroke-linejoin="round" stroke-width="1"/>
        </g>
        <path id="Trazado_6616" data-name="Trazado 6616" d="M119.843,340.11s-15.132-1.884-18.51-8.655c-2.8-5.6-17.935,15.353-35.849,24.552,14.977-15.271,30.955-32.427,35.849-40.854,4.371-7.529,9.9-20.6,14.719-32.883v.015c-.243,10.186-5.674,25.781-4.121,33.9a6.529,6.529,0,0,0-4.659,7.89C108.435,330.513,119.843,340.11,119.843,340.11Z" transform="translate(-50.875 -161.828)" fill="#e2e4e6" opacity="0.4"/>
        <g id="Grupo_2352" data-name="Grupo 2352" transform="translate(0 21.868)">
          <path id="Trazado_6617" data-name="Trazado 6617" d="M238.8,308.966S216.34,353.008,175.851,363c0,0-1.543,8.711-8.394,12.45-3.656,1.995-18.42,24.123-31.392,44.323" transform="translate(-64.309 -188.778)" fill="none" stroke="#000" stroke-linecap="round" stroke-linejoin="round" stroke-width="1"/>
          <path id="Trazado_6618" data-name="Trazado 6618" d="M47.44,347.5C64.73,330.4,91.316,303.3,97.9,291.977c9.963-17.145,25.911-63.023,25.911-63.023l61.564-68.433" transform="translate(-47.44 -160.522)" fill="none" stroke="#263238" stroke-linecap="round" stroke-linejoin="round" stroke-width="1"/>
          <path id="Trazado_6619" data-name="Trazado 6619" d="M174.393,225.067s9.454,8.471,12.112,16.174" transform="translate(-71.605 -172.808)" fill="none" stroke="#000" stroke-linecap="round" stroke-linejoin="round" stroke-width="1"/>
        </g>
      </g>
      <rect id="Rectángulo_2161" data-name="Rectángulo 2161" width="112.649" height="227.506" rx="6.728" transform="translate(107.211)"/>
      <path id="Trazado_6620" data-name="Trazado 6620" d="M259.468,80.036l-2.15,3.95a2.692,2.692,0,0,1-2.364,1.4H219.315a2.692,2.692,0,0,1-2.364-1.4l-2.15-3.95a2.692,2.692,0,0,0-2.364-1.4H187.558a2.692,2.692,0,0,0-2.691,2.692V294.309A2.691,2.691,0,0,0,187.558,297h99.151a2.691,2.691,0,0,0,2.692-2.691V81.323a2.692,2.692,0,0,0-2.692-2.692H261.832A2.692,2.692,0,0,0,259.468,80.036Z" transform="translate(-73.599 -73.843)" fill="#fedc00" stroke="#000" stroke-linecap="round" stroke-linejoin="round" stroke-width="1"/>
      <g id="Grupo_2355" data-name="Grupo 2355" transform="translate(154.36 5.202)">
        <g id="Grupo_2354" data-name="Grupo 2354">
          <circle id="Elipse_134" data-name="Elipse 134" cx="1.453" cy="1.453" r="1.453" fill="none" stroke="#fff" stroke-miterlimit="10" stroke-width="1"/>
          <path id="Trazado_6621" data-name="Trazado 6621" d="M260.331,80.724a.9.9,0,1,1-.9-.9A.9.9,0,0,1,260.331,80.724Z" transform="translate(-241.98 -79.271)" fill="none" stroke="#fff" stroke-miterlimit="10" stroke-width="1"/>
        </g>
        <path id="Trazado_6622" data-name="Trazado 6622" d="M253.565,80.239h-8.8a.564.564,0,0,0-.564.564h0a.564.564,0,0,0,.564.564h8.8a.564.564,0,0,0,.564-.564h0A.564.564,0,0,0,253.565,80.239Z" transform="translate(-239.252 -79.35)" fill="#fff"/>
      </g>
      <g id="Grupo_2357" data-name="Grupo 2357" transform="translate(50.456 40.757)">
        <path id="Trazado_6623" data-name="Trazado 6623" d="M172.046,260.848c1.214,18.664-7.433,39.448-7.433,39.448l-46.7-13.152-8.147-2.3c8.08-11.253,11.952-33.4,9.84-51.326-.162-1.355-.265-2.627-.331-3.835-.773-14.786,5.328-19.114,10.524-25.649,5.63-7.072,18.282-33.8,18.282-40.118s15.823-21.8,12.305-39.374c0,0,4.784-2.966,9.6-.53,2.179,1.1,4.365,3.311,6.116,7.4,4.122,9.634-1.663,36.842-6.587,43.518l-9.479,39.249a84.048,84.048,0,0,1,6.336,15.522A133.448,133.448,0,0,1,172.046,260.848Z" transform="translate(-109.759 -123.055)" fill="#f6f7f9"/>
        <path id="Trazado_6624" data-name="Trazado 6624" d="M119.27,254.755c2.642,7.242,5.453,12.107,5.21,22.292s-5.674,25.781-4.121,33.9a7.172,7.172,0,0,0-2.451,1.266l-8.147-2.3c8.08-11.253,11.952-33.4,9.84-51.326C119.439,257.235,119.336,255.962,119.27,254.755Z" transform="translate(-109.759 -148.124)" fill="#f6f7f9" opacity="0.4"/>
        <path id="Trazado_6625" data-name="Trazado 6625" d="M180.029,175.164l-9.479,39.249a84.048,84.048,0,0,1,6.336,15.522c-.007-.007-.007-.015-.015-.022-6.41-10.348-11.834-13.417-11.834-13.417,4.276-5.13,7.573-42.613,7.573-42.613s13.4-15.749,12.114-32.228a52.739,52.739,0,0,0-4.225-17.412c2.179,1.1,4.365,3.311,6.116,7.4C190.737,141.28,184.952,168.488,180.029,175.164Z" transform="translate(-120.28 -123.281)" fill="#f6f7f9" opacity="0.4"/>
        <g id="Grupo_2356" data-name="Grupo 2356" transform="translate(0 0.001)">
          <path id="Trazado_6626" data-name="Trazado 6626" d="M109.758,284.846c8.086-11.249,11.952-33.4,9.843-51.324s4.57-22.415,10.2-29.488,18.28-33.788,18.28-40.116,15.819-21.8,12.3-39.372c0,0,10.1-6.257,15.715,6.876,4.118,9.633-1.665,36.836-6.586,43.516l-9.48,39.249s10.117,17.446,12.016,46.661c1.213,18.663-7.433,39.448-7.433,39.448" transform="translate(-109.758 -123.057)" fill="#f6f7f9" stroke="#000" stroke-linecap="round" stroke-linejoin="round" stroke-width="1"/>
          <path id="Trazado_6627" data-name="Trazado 6627" d="M148.324,360.409s10.63,6.547,16.831,16.893" transform="translate(-117.099 -168.236)" fill="#f6f7f9" stroke="#263238" stroke-linecap="round" stroke-linejoin="round" stroke-width="1"/>
          <path id="Trazado_6628" data-name="Trazado 6628" d="M175.2,367.614s-9.157,1.3-17.433-8.6c-5.3-6.344-21.409-9.21-25.116-25.793" transform="translate(-114.116 -163.062)" fill="#f6f7f9" stroke="#000" stroke-linecap="round" stroke-linejoin="round" stroke-width="1"/>
        </g>
      </g>
    </g>
    <g id="Grupo_2344" data-name="Grupo 2344" transform="translate(67.01 260.388)">
      <rect id="Rectángulo_2159" data-name="Rectángulo 2159" width="46.124" height="29.495" rx="3.51" transform="translate(8.554 0) rotate(16.858)" fill="none" stroke="#000" stroke-miterlimit="10" stroke-width="1"/>
      <line id="Línea_70" data-name="Línea 70" x2="44.141" y2="13.376" transform="translate(6.561 6.575)" fill="none" stroke="#000" stroke-miterlimit="10" stroke-width="1"/>
      <line id="Línea_71" data-name="Línea 71" x2="44.141" y2="13.376" transform="translate(5.218 11.008)" fill="none" stroke="#000" stroke-miterlimit="10" stroke-width="1"/>
      <path id="Trazado_6601" data-name="Trazado 6601" d="M122.531,164.312a2.868,2.868,0,0,0,.249,2.25,2.874,2.874,0,1,1,1.207-3.984A2.862,2.862,0,0,0,122.531,164.312Z" transform="translate(-86.598 -131.645)" fill="none" stroke="#000" stroke-miterlimit="10" stroke-width="1"/>
      <path id="Trazado_6602" data-name="Trazado 6602" d="M128.92,166.244a2.871,2.871,0,1,1-1.915-3.58A2.871,2.871,0,0,1,128.92,166.244Z" transform="translate(-87.491 -131.915)" fill="none" stroke="#000" stroke-miterlimit="10" stroke-width="1"/>
    </g>
    <g id="Grupo_2346" data-name="Grupo 2346" transform="translate(290.961 245.734)">
      <rect id="Rectángulo_2160" data-name="Rectángulo 2160" width="51.546" height="26.812" transform="translate(0 21.46) rotate(-24.602)" fill="none" stroke="#000" stroke-miterlimit="10" stroke-width="1"/>
      <path id="Trazado_6603" data-name="Trazado 6603" d="M400.74,120.993,393.647,105.5A2.748,2.748,0,0,1,390,104.15l-37.88,17.344a2.749,2.749,0,0,1-1.355,3.643l7.093,15.489a2.748,2.748,0,0,1,3.643,1.355l37.88-17.345A2.748,2.748,0,0,1,400.74,120.993Z" transform="translate(-346.74 -100.147)" fill="none" stroke="#000" stroke-miterlimit="10" stroke-width="1"/>
      <circle id="Elipse_132" data-name="Elipse 132" cx="7.047" cy="7.047" r="7.047" transform="matrix(0.793, -0.609, 0.609, 0.793, 19.134, 21.624)" fill="none" stroke="#000" stroke-miterlimit="10" stroke-width="1"/>
      <g id="Grupo_2345" data-name="Grupo 2345" transform="translate(25.642 18.085)">
        <path id="Trazado_6604" data-name="Trazado 6604" d="M382.748,129.8l.527,1.151-.5.229-.522-1.141a4.127,4.127,0,0,1-2.81.185l.029-.7a3.751,3.751,0,0,0,2.487-.121l-1.206-2.632c-1.225.234-2.5.407-3.107-.914-.44-.961-.13-2.108,1.347-2.929l-.527-1.151.5-.229.522,1.141a4.317,4.317,0,0,1,2.316-.309l.02.7a4.089,4.089,0,0,0-2.047.235l1.214,2.652c1.254-.247,2.593-.472,3.206.869C384.644,127.8,384.3,128.98,382.748,129.8Zm-2.315-3.734-1.146-2.5c-.989.563-1.207,1.3-.919,1.934C378.716,126.257,379.515,126.23,380.433,126.065Zm3.054,1.144c-.362-.79-1.216-.726-2.173-.542l1.146,2.5C383.523,128.584,383.78,127.849,383.487,127.209Z" transform="translate(-377.463 -121.542)"/>
      </g>
    </g>
    <g id="Grupo_2348" data-name="Grupo 2348" transform="translate(306.264 322.519)">
      <circle id="Elipse_133" data-name="Elipse 133" cx="7.047" cy="7.047" r="7.047" transform="matrix(0.973, -0.229, 0.229, 0.973, 0, 3.233)" fill="none" stroke="#000" stroke-miterlimit="10" stroke-width="1"/>
      <g id="Grupo_2347" data-name="Grupo 2347" transform="translate(4.505 3.944)">
        <path id="Trazado_6605" data-name="Trazado 6605" d="M382.33,214.348l-.663,1.078-.469-.288.657-1.069a4.13,4.13,0,0,1-1.717-2.231l.6-.368a3.752,3.752,0,0,0,1.485,2L383.74,211c-.877-.888-1.731-1.852-.97-3.09.554-.9,1.679-1.28,3.184-.511l.662-1.078.469.288-.657,1.069a4.313,4.313,0,0,1,1.546,1.752l-.574.409a4.083,4.083,0,0,0-1.335-1.57l-1.527,2.485c.9.9,1.835,1.891,1.063,3.147C385.041,214.814,383.872,215.181,382.33,214.348Zm1.814-4L385.585,208c-1.018-.509-1.755-.278-2.118.313C383.028,209.028,383.5,209.677,384.143,210.347Zm.749,3.174c.456-.741-.073-1.415-.759-2.108l-1.441,2.345C383.77,214.317,384.524,214.121,384.892,213.521Z" transform="translate(-380.138 -206.324)"/>
      </g>
    </g>
    <g id="Grupo_2350" data-name="Grupo 2350" transform="translate(62.987 372.945)">
      <path id="Trazado_6606" data-name="Trazado 6606" d="M94.312,269.921a10.581,10.581,0,1,1-14.022-5.227A10.58,10.58,0,0,1,94.312,269.921Z" transform="translate(-74.104 -263.735)" fill="none" stroke="#000" stroke-miterlimit="10" stroke-width="1"/>
      <g id="Grupo_2349" data-name="Grupo 2349" transform="translate(5.521 3.322)">
        <path id="Trazado_6607" data-name="Trazado 6607" d="M88.853,280.241l.789,1.729-.751.343-.783-1.714a6.2,6.2,0,0,1-4.219.274l.045-1.056a5.638,5.638,0,0,0,3.735-.18l-1.807-3.954c-1.84.35-3.757.608-4.664-1.376-.66-1.444-.192-3.166,2.026-4.4l-.79-1.729.752-.343.783,1.713a6.485,6.485,0,0,1,3.478-.462l.029,1.058a6.131,6.131,0,0,0-3.074.351l1.82,3.984c1.884-.37,3.894-.706,4.814,1.308C91.7,277.249,91.181,279.014,88.853,280.241Zm-3.473-5.61-1.717-3.758c-1.487.843-1.814,1.955-1.382,2.9C82.8,274.918,84,274.879,85.381,274.631Zm4.584,1.722c-.542-1.188-1.825-1.092-3.262-.818l1.717,3.758C90.019,278.419,90.4,277.315,89.965,276.353Z" transform="translate(-80.923 -267.838)"/>
      </g>
    </g>
    <rect id="Rectángulo_2162" data-name="Rectángulo 2162" width="81" height="20" rx="8" transform="translate(163 407)"/>
    <g id="Rectángulo_2163" data-name="Rectángulo 2163" transform="translate(165 279)" fill="#fff" stroke="#000" stroke-width="1">
      <rect width="81" height="20" rx="8" stroke="none"/>
      <rect x="0.5" y="0.5" width="80" height="19" rx="7.5" fill="none"/>
    </g>
    <g id="Rectángulo_2164" data-name="Rectángulo 2164" transform="translate(165 305)" fill="#fff" stroke="#000" stroke-width="1">
      <rect width="81" height="20" rx="8" stroke="none"/>
      <rect x="0.5" y="0.5" width="80" height="19" rx="7.5" fill="none"/>
    </g>
    <g id="Rectángulo_2165" data-name="Rectángulo 2165" transform="translate(216 293)" fill="#fff" stroke="#000" stroke-width="1">
      <rect width="21" height="20" rx="7" stroke="none"/>
      <rect x="0.5" y="0.5" width="20" height="19" rx="6.5" fill="none"/>
    </g>
    <g id="Hand" transform="translate(214.154 314.631)">
      <g id="Grupo_2360" data-name="Grupo 2360">
        <path id="Trazado_6629" data-name="Trazado 6629" d="M332.68,389.3c-23.439-11.211-9.241-20.2-41.49-34.116S258.612,329.38,262.5,302.024s.8-56.434,10.187-58.9-7.342-40.19,3.592-53.528l53.8,104.639Z" transform="translate(-260.809 -184.307)" fill="rgba(0,0,0,0.7)" opacity="0.2"/>
        <g id="Grupo_2359" data-name="Grupo 2359" transform="translate(11.84)">
          <path id="Trazado_6630" data-name="Trazado 6630" d="M422.8,386.971c-1.1-3.15-2.223-6.587-3.084-9.7a46.667,46.667,0,0,0-4.055-11.047c-.324-.6-.678-1.236-1.067-1.913a67.521,67.521,0,0,1-6.955-15.838c-1.178-4.43-.023-15.338,1.1-25.892.8-7.595,1.546-14.763,1.332-18.826l-.066-1.442c-.551-10.628-1.7-32.751-4.084-38.874-2.3-5.9-4.46-6.778-8.39-8.353-.4-.176-.824-.338-1.274-.53-1.471-.618-3.981-1.913-6.874-3.407-6.52-3.379-14.63-7.581-18.752-8.14a36.5,36.5,0,0,0-11.555.538c-5.078-3.9-13.719-8.92-16.287-9.016-2.112-.1-6.7,1.214-8.927,1.907-.515.162-.912.287-1.112.353a32.975,32.975,0,0,0-4.416-2.9c-.11-.052-.213-.1-.3-.133-2.856-1.177-7.176-1.222-9.531-1.155-.713.029-1.265.074-1.523.1-4.439-6.837-8.817-13.645-10.716-16.633-3.967-6.285-16.251-32.14-16.375-32.412a.231.231,0,0,0-.162-.133.386.386,0,0,0-.111-.036c-.956-.28-7.992-2.069-10.819,4.754-3.091,7.418,1.325,23.72,5.63,29.637,2.075,2.856,7.727,14.477,13.476,26.51-1.48,1.369-13.263,12.261-18.989,14.292-4.688,1.657-3.591,25.685-2.708,44.983.331,7.124.611,13.255.53,16.935-.162,7.124,12.8,16.942,25.362,26.429,11.356,8.6,23.095,17.48,24.471,23.934a12.354,12.354,0,0,0,2.76,4.945c2.163,2.753,4.945,6,6.131,12.159.346,1.84,3.311,4.254,5.637,8.2h85.13C425.52,394.419,424.181,390.923,422.8,386.971ZM304.865,258.964c4.121,8.633,6.668,13.8,7.271,14.344s.581,3.312.559,5.969a49.4,49.4,0,0,0,.243,6.992c-1,.883-7.337,6.653-8.618,11.319l-5.387-6.344-1.362-19.886C298.388,270.511,303.93,264.66,304.865,258.964Z" transform="translate(-275.432 -183.065)" fill="#f6f7f9"/>
          <path id="Trazado_6631" data-name="Trazado 6631" d="M411.878,326.522c2,18.663,2.028,28.782,4.27,34.184,3.785,9.119,9.364,10.965,9.364,10.965a56.409,56.409,0,0,1-4.392-11.1c-1.177-4.426-.021-15.334,1.1-25.889.8-7.593,1.552-14.766,1.339-18.83l-.073-1.441c-.551-10.628-1.7-32.748-4.084-38.871-2.3-5.9-4.458-6.778-8.385-8.356-.408-.174-.83-.336-1.277-.528-1.474-.614-3.979-1.911-6.874-3.407-6.522-3.375-14.634-7.58-18.751-8.137a36.5,36.5,0,0,0-11.555.534c-5.08-3.9-13.718-8.917-16.292-9.017-2.108-.1-7.81,1.563-10.033,2.26,9.695,7.93,23.709,17.79,23.709,17.79,11.068,2.2,9.65,7.008,14.124,9.693,4.052,2.433,7.927-4.681,11.308-5.306,4.464-.827,9.543,3.909,9.317,9.622C404.068,296.512,410.162,310.5,411.878,326.522Z" transform="translate(-288.91 -195.162)" fill="#c4c5c7" opacity="0.4"/>
          <path id="Trazado_6632" data-name="Trazado 6632" d="M352.583,268.233s-8.773-7.272-12.973-9.737-4.853-10.8-1.55-12.837a.867.867,0,0,1,.407-.126c-.1-.051-.209-.1-.3-.138-2.856-1.179-7.171-1.221-9.528-1.151,4.892,9.046,8.735,15.987,9.784,17.5C341.954,266.858,352.583,268.233,352.583,268.233Z" transform="translate(-285.56 -194.706)" fill="#e2e4e6"/>
          <path id="Trazado_6633" data-name="Trazado 6633" d="M329.152,369.911c.368-1.936-2.818-7.6-4.217-9.9-3.187-5.247-40.133-37.9-34.775-46.609,5.336-8.735,10.237-2.259,13.622-1.7,2.436.4,9.1-3.57,9.067-3.9-.758-6.712,5.439-11.076,5.439-11.076s-.574-26.716-1.995-26.26-18.48-40.126-18.48-40.126-18.016-23.963-17-35.142,8.824-11.415,8.824-11.415l-.015-.3c-.956-.28-7.992-2.069-10.819,4.754-3.091,7.418,1.325,23.72,5.63,29.637,2.075,2.856,7.727,14.477,13.476,26.51-1.48,1.369-13.263,12.261-18.989,14.292-4.688,1.657-3.591,25.685-2.708,44.983.331,7.124.611,13.255.53,16.935-.162,7.124,12.8,16.942,25.362,26.429,11.356,8.6,23.095,17.48,24.471,23.934a12.354,12.354,0,0,0,2.76,4.945A32.061,32.061,0,0,1,329.152,369.911ZM304.865,258.964c4.121,8.633,6.668,13.8,7.271,14.344s.581,3.312.559,5.969a49.4,49.4,0,0,0,.243,6.992c-1,.883-7.337,6.653-8.618,11.319l-5.387-6.344-1.362-19.886C298.388,270.511,303.93,264.66,304.865,258.964Z" transform="translate(-275.432 -183.065)" fill="#e2e4e6" opacity="0.4"/>
          <g id="Grupo_2358" data-name="Grupo 2358" transform="translate(0.295 0.278)">
            <path id="Trazado_6634" data-name="Trazado 6634" d="M338.012,256.552a18.408,18.408,0,0,1-9.1-6.377c-3.7-4.955-18.23-27.523-22.258-33.893s-16.393-32.431-16.393-32.431-7.611-2.547-10.573,4.563,1.095,23.167,5.6,29.355,25.957,53.853,27.66,55.393-.851,14.246,2.558,17.32" transform="translate(-276.344 -183.408)" fill="none" stroke="#000" stroke-linecap="round" stroke-linejoin="round" stroke-width="1"/>
            <path id="Trazado_6635" data-name="Trazado 6635" d="M318.387,303.986s-7.855,6.842-8.777,11.834l-5.829-6.859L302.4,288.85s7.032-7.042,7.418-13.314" transform="translate(-280.861 -200.944)" fill="none" stroke="#000" stroke-linecap="round" stroke-linejoin="round" stroke-width="1"/>
            <path id="Trazado_6636" data-name="Trazado 6636" d="M298.334,258.882s-13.042,12.305-19.244,14.5-1.682,48.3-1.99,61.655,46.924,36.606,49.822,50.279c1.151,5.434,5.908,6.545,8.82,16.965" transform="translate(-275.796 -197.774)" fill="none" stroke="#000" stroke-linecap="round" stroke-linejoin="round" stroke-width="1"/>
            <path id="Trazado_6637" data-name="Trazado 6637" d="M326.563,244.7s7.1-.638,11.1,1.023,20.25,15.618,24.158,18.286,9.814,3.673,10.934,6.545" transform="translate(-285.46 -195.052)" fill="none" stroke="#000" stroke-linecap="round" stroke-linejoin="round" stroke-width="1"/>
            <path id="Trazado_6638" data-name="Trazado 6638" d="M346.174,249.267s7.31-2.414,10.068-2.292,13.262,6.319,17.958,10.445a39.994,39.994,0,0,0,12.237,7.434" transform="translate(-289.193 -195.507)" fill="none" stroke="#000" stroke-linecap="round" stroke-linejoin="round" stroke-width="1"/>
            <path id="Trazado_6639" data-name="Trazado 6639" d="M378.676,257.957a35.69,35.69,0,0,1,11.583-.558c5.926.8,20.809,9.554,25.549,11.529s7.015,2.339,9.5,8.722,3.638,30.639,4.139,40.223-4.491,37.043-2.434,44.771,5.789,13.681,8.049,17.816" transform="translate(-295.379 -197.444)" fill="none" stroke="#000" stroke-linecap="round" stroke-linejoin="round" stroke-width="1"/>
            <path id="Trazado_6640" data-name="Trazado 6640" d="M301.76,290.727s-1.18-4.724-2.74-5.328" transform="translate(-280.217 -202.821)" fill="none" stroke="#263238" stroke-linecap="round" stroke-linejoin="round" stroke-width="1"/>
            <path id="Trazado_6641" data-name="Trazado 6641" d="M304.1,316.819a60.318,60.318,0,0,0,2.211,8.14c1.158,2.875-.649,7.031-.649,7.031" transform="translate(-281.185 -208.802)" fill="none" stroke="#000" stroke-linecap="round" stroke-linejoin="round" stroke-width="1"/>
            <path id="Trazado_6642" data-name="Trazado 6642" d="M311.3,325.29c-.193,4.6,4.387,9.972,5.5,9.212" transform="translate(-282.554 -210.415)" fill="none" stroke="#263238" stroke-linecap="round" stroke-linejoin="round" stroke-width="1"/>
            <path id="Trazado_6643" data-name="Trazado 6643" d="M340.074,288.85s4.91-7.948,9.625-8.337,10.151,6.3,13.062,5.673,6.563-4.906,11.452-5.689,7.18,1.569,11.063,1.763,4.271-4.987,8.93-5.7,6.211,1.654,9.317,2.219,3.886-1.848,6.405-3.247" transform="translate(-288.031 -200.944)" fill="none" stroke="#000" stroke-linecap="round" stroke-linejoin="round" stroke-width="1"/>
          </g>
        </g>
      </g>
    </g>
    <g id="ico_24_actions_autorenew" data-name="ico / 24 / actions / autorenew" transform="translate(220 296)">
      <path id="Icon_color" data-name="Icon color" d="M4.1,12a.282.282,0,0,1-.2-.081L1.909,9.993a.27.27,0,0,1,0-.387L3.9,7.68a.289.289,0,0,1,.4,0l.112.109a.265.265,0,0,1,.085.2V9.273A3.332,3.332,0,0,0,7.88,6a3.113,3.113,0,0,0-.394-1.511.271.271,0,0,1,.051-.322l.417-.4a.289.289,0,0,1,.2-.079l.039,0a.293.293,0,0,1,.209.131,4.258,4.258,0,0,1,0,4.363,4.547,4.547,0,0,1-3.9,2.184v1.249a.263.263,0,0,1-.085.2l-.112.109A.284.284,0,0,1,4.1,12ZM.849,8.321l-.039,0A.291.291,0,0,1,.6,8.182a4.257,4.257,0,0,1,0-4.363A4.548,4.548,0,0,1,4.5,1.636V.386a.263.263,0,0,1,.085-.2L4.7.081a.289.289,0,0,1,.4,0L7.091,2.007a.272.272,0,0,1,0,.387L5.1,4.32a.289.289,0,0,1-.4,0L4.585,4.21a.263.263,0,0,1-.085-.2V2.727A3.332,3.332,0,0,0,1.12,6a3.171,3.171,0,0,0,.389,1.522.265.265,0,0,1-.051.322l-.411.4A.289.289,0,0,1,.849,8.321Z" transform="translate(2 1)"/>
    </g>
  </g>
</svg>
