<svg xmlns="http://www.w3.org/2000/svg" width="300.657" height="253.009" viewBox="0 0 300.657 253.009">
  <g id="Grupo_2401" data-name="Grupo 2401" transform="translate(-4134.743 -3934.569)">
    <g id="Grupo_2391" data-name="Grupo 2391" transform="translate(4177.896 4002.321)" style="isolation: isolate">
      <path id="Trazado_6646" data-name="Trazado 6646" d="M409.931,309.808q-.595-3.987-1.435-7.887L383.582,314Z" transform="translate(-153.85 -200.229)" fill="#fedc00"/>
      <path id="Trazado_6647" data-name="Trazado 6647" d="M238.968,196.215s-73.686,29.327-113.492,43.559a128.042,128.042,0,0,0-14.958,34.284l63.257-27.636-50.054,32.763,36.4-6.371-.911,4.551L257.5,250.972,115.53,315.587l21.841-20.022-31.331,12c0,.084,0,.167,0,.252a128.415,128.415,0,0,0,8.631,46.431l139.194-53.221-76.447,40.044,136.511-49.144-36.4,8.19,50.964-25.482H300.276l52.4-18.642q-2.587-5.875-5.73-11.433L242.031,280.094,339.8,233.3a128.756,128.756,0,0,0-203.145-8.819Z" transform="translate(-106.037 -179.064)" fill="#fedc00"/>
      <path id="Trazado_6648" data-name="Trazado 6648" d="M337.009,366.394c-2.315,0,18.553-11.039,34.057-19.078a129.337,129.337,0,0,0,.027-31.816L240.54,370.034l34.583-26.392L155.5,387.325H359.272a127.873,127.873,0,0,0,9.4-26.558C357.692,362.915,339.525,366.394,337.009,366.394Z" transform="translate(-114.558 -202.568)" fill="#fedc00"/>
    </g>
    <path id="Trazado_6720" data-name="Trazado 6720" d="M110.865,394.647l44.116-36.214a2.325,2.325,0,0,1,3.292.658c1.317,1.975-1.317,15.8-1.317,15.8l7.243.658,1.317,4.609,4.61,4.61.658,9.876Z" transform="translate(4071.027 3792.43)" stroke="#263238" stroke-miterlimit="10" stroke-width="1"/>
    <path id="Trazado_6721" data-name="Trazado 6721" d="M65.744,396.166l28.313-20.412s4.609-.659,3.95,3.951-7.243,9.876-7.243,9.876l.659,5.268,1.03,2.851H59.159Z" transform="translate(4079.934 3789.378)" stroke="#263238" stroke-miterlimit="10" stroke-width="1"/>
    <path id="Trazado_6722" data-name="Trazado 6722" d="M8.667,0H67.208a8.667,8.667,0,0,1,8.667,8.667V73.554a8.667,8.667,0,0,1-8.667,8.667H8.667A8.667,8.667,0,0,1,0,73.554V8.667A8.667,8.667,0,0,1,8.667,0Z" transform="translate(4311.695 3965.229) rotate(3.479)" fill="#fedc00" stroke="#000" stroke-width="1"/>
    <g id="Grupo_2392" data-name="Grupo 2392" transform="translate(4257 3983.87)">
      <path id="Trazado_6654" data-name="Trazado 6654" d="M249.046,191.472s-4.691,5.794-18.486,9.933-17.106,6.345-17.106,6.345-8,2.76-10.76,9.657-1.1,10.485,14.9,9.381S266.7,212.716,266.7,212.716s6.07-11.036,4.691-20.417S251.8,187.609,249.046,191.472Z" transform="translate(-201.606 -173.949)" fill="#fff" stroke="#000" stroke-miterlimit="10" stroke-width="1"/>
      <path id="Trazado_6655" data-name="Trazado 6655" d="M216.61,226.755s32.95-5.119,49.266-14.4" transform="translate(-204.19 -178.349)" fill="none" stroke="#263238" stroke-miterlimit="10" stroke-width="0.5"/>
      <path id="Trazado_6656" data-name="Trazado 6656" d="M214.333,221.924s.316,3.159.61,6.351c1.446-.008,3.049-.07,4.841-.194,16-1.1,49.112-14.071,49.112-14.071a45.591,45.591,0,0,0,4.692-14.362l-1.865-5.316s-9.381,10.485-18.21,16.555S214.333,221.924,214.333,221.924Z" transform="translate(-203.798 -175.244)" fill="#fedc00" opacity="0.49" style="mix-blend-mode: multiply;isolation: isolate"/>
      <path id="Trazado_6657" data-name="Trazado 6657" d="M247.517,224.059c.971-3.192,2.017-8.819-.161-14.446a13.768,13.768,0,0,0-6.175-7.175c-1.478.569-3.094,1.127-4.862,1.657q-.654.2-1.278.387c2.894,1.785,7.523,5.618,7.9,12.029a46.2,46.2,0,0,1-.155,8.946C244.366,225.008,245.949,224.538,247.517,224.059Z" transform="translate(-207.366 -176.64)" stroke="#000" stroke-miterlimit="10" stroke-width="1"/>
      <path id="Trazado_6658" data-name="Trazado 6658" d="M280.721,175.255A14.3,14.3,0,0,0,276,172.161c-11.846-4.5-17.73,9.361-19.969,18.615,0,0,2.315,1.879,9.212.776s16.829-5.793,17.935-9.66C283.866,179.482,282.59,177.1,280.721,175.255Z" transform="translate(-210.905 -171.271)" stroke="#000" stroke-miterlimit="10" stroke-width="1"/>
      <path id="Trazado_6659" data-name="Trazado 6659" d="M215.824,214.049s0,6.346-4.414,8-8.553-1.38-8.553-1.38-.828-12.14.276-14.347S213.893,208.807,215.824,214.049Z" transform="translate(-201.77 -177.213)" fill="#fff" stroke="#000" stroke-miterlimit="10" stroke-width="1"/>
    </g>
    <g id="Grupo_2393" data-name="Grupo 2393" transform="translate(4302.989 3984.719)">
      <path id="Trazado_6660" data-name="Trazado 6660" d="M290.3,173.069s-7.467,1.03-9.27,3.347-11.845,56.65-12.36,58.2,1.545,6.437,7.982,13.389,14.42,9.012,22.145,9.527,26.007-3.347,30.385-7.467,3.862-14.935,3.862-20.857,2.318-46.608.772-50.212-11.587-6.695-13.132-6.695S292.1,172.812,290.3,173.069Z" transform="translate(-259.135 -172.297)" fill="#fff" stroke="#000" stroke-miterlimit="10" stroke-width="1"/>
      <path id="Trazado_6661" data-name="Trazado 6661" d="M336.724,229.2c0-5.923,2.318-46.608.772-50.212s-11.587-6.695-13.132-6.695-28.582.515-30.385.772a38.338,38.338,0,0,0-4.026.824,29.059,29.059,0,0,0,24.6,14.988,48.565,48.565,0,0,0,16.266-1.739l-3.022,33.745-23.409-2.205,17.338,9.379,1.1,14.347,12.5,3.433C337.01,240.786,336.724,233.63,336.724,229.2Z" transform="translate(-262.814 -172.297)" fill="#fedc00" opacity="0.49" style="mix-blend-mode: multiply;isolation: isolate"/>
      <g id="Grupo_2371" data-name="Grupo 2371" transform="translate(0 16.867)">
        <g id="Grupo_2370" data-name="Grupo 2370" transform="translate(16.203 20.556)">
          <path id="Trazado_6662" data-name="Trazado 6662" d="M303.651,238.007c-11.778,0-26.3-18.183-26.909-18.957l1.948-1.541c.142.18,14.382,18.015,24.962,18.015,3.071,0,5.123-.738,6.1-2.193,1.49-2.219.156-5.639.142-5.673l2.3-.941c.077.189,1.864,4.656-.379,8C310.347,236.9,307.6,238.007,303.651,238.007Z" transform="translate(-276.742 -217.509)" stroke="#000" stroke-miterlimit="10" stroke-width="1"/>
        </g>
        <path id="Trazado_6663" data-name="Trazado 6663" d="M262.669,241.913c.714-.641,1.65-1.457,2.467-2.1-.658-.078-4.213-.609-5.214-3.1-.954-2.376.562-6.147,4.382-10.9,11.644-14.5,30.2-17.556,30.391-17.585l-.367-2.568c-.8.124-19.662,3.209-31.926,18.485-4.526,5.637-6.129,10.208-4.765,13.589A7.659,7.659,0,0,0,262.669,241.913Z" transform="translate(-257.166 -194.911)" stroke="#000" stroke-miterlimit="10" stroke-width="1"/>
        <rect id="Rect치ngulo_2167" data-name="Rect치ngulo 2167" width="3.862" height="5.922" transform="matrix(0.999, 0.054, -0.054, 0.999, 36.477, 9.04)" fill="#fff" stroke="#000" stroke-miterlimit="10" stroke-width="1"/>
        <rect id="Rect치ngulo_2168" data-name="Rect치ngulo 2168" width="3.862" height="5.922" transform="translate(47.432 31.982) rotate(-86.537)" fill="#fff" stroke="#000" stroke-miterlimit="10" stroke-width="1"/>
        <path id="Trazado_6664" data-name="Trazado 6664" d="M304.763,196.165l-1.545,22.024a3.753,3.753,0,0,0,3.448,4l21.7,1.713a3.752,3.752,0,0,0,4.046-3.646l.579-22.976a3.753,3.753,0,0,0-3.614-3.845l-20.733-.761A3.754,3.754,0,0,0,304.763,196.165Z" transform="translate(-265.098 -192.675)" fill="#fff" stroke="#000" stroke-miterlimit="10" stroke-width="1"/>
        <path id="Trazado_6665" data-name="Trazado 6665" d="M316.922,192.945l-.639,14.066,6.952.515.895-14.316Z" transform="translate(-267.35 -192.722)" fill="#fedc00" stroke="#000" stroke-miterlimit="10" stroke-width="1"/>
        <path id="Trazado_6666" data-name="Trazado 6666" d="M334.992,217.427a4.377,4.377,0,1,1-4.377-4.377A4.377,4.377,0,0,1,334.992,217.427Z" transform="translate(-269.065 -196.185)" fill="#fedc00" stroke="#000" stroke-miterlimit="10" stroke-width="1"/>
      </g>
    </g>
    <g id="Grupo_2394" data-name="Grupo 2394" transform="translate(4159.311 3935.131)">
      <path id="Trazado_6667" data-name="Trazado 6667" d="M199.712,235.319s6.208,1.1,10.484-2.069,1.932-8.829-1.931-12-11.726-4.139-14.9-2.621-1.517,7.45-.552,10.622S195.435,234.767,199.712,235.319Z" transform="translate(-102.178 -130.569)" fill="#fff" stroke="#000" stroke-miterlimit="10" stroke-width="1"/>
      <g id="Grupo_2373" data-name="Grupo 2373">
        <path id="Trazado_6668" data-name="Trazado 6668" d="M149.764,115.624s3.9,12.264-9.894,19.437-20.417,6.622-36.42,17.107-19.865,33.661-19.865,33.661,3.863-9.933,22.073-11.037,36.43-1.83,43.594-2.207c10.484-.552,16-6.622,16-6.622Z" transform="translate(-83.585 -112.946)" fill="#fedc00" stroke="#000" stroke-miterlimit="10" stroke-width="1"/>
        <path id="Trazado_6669" data-name="Trazado 6669" d="M226.141,318.861,163.519,115.067a2.07,2.07,0,0,1,1.377-2.588h0a2.069,2.069,0,0,1,2.579,1.372L230.1,317.657Z" transform="translate(-97.339 -112.389)" stroke="#000" stroke-miterlimit="10" stroke-width="1"/>
      </g>
      <path id="Trazado_6670" data-name="Trazado 6670" d="M193.071,238.266s-.69,2.483,2.346,3.173,8.277-.828,8-3.449-2.345-3.173-4.553-2.9S193.071,237.025,193.071,238.266Z" transform="translate(-102.435 -133.516)" fill="#fff" stroke="#000" stroke-miterlimit="10" stroke-width="1"/>
      <path id="Trazado_6671" data-name="Trazado 6671" d="M194.566,228.537s-7.695,1.208-8.017,2.869.281,5.509,2.338,6.087,8.844-.093,10.074-2.291-.469-6.377-2.044-6.831A2.657,2.657,0,0,0,194.566,228.537Z" transform="translate(-101.309 -132.34)" fill="#fff" stroke="#000" stroke-miterlimit="10" stroke-width="1"/>
      <path id="Trazado_6672" data-name="Trazado 6672" d="M191.951,222.145s-7.695,1.208-8.017,2.869.281,5.509,2.338,6.086,8.844-.093,10.074-2.29-.469-6.377-2.044-6.831A2.657,2.657,0,0,0,191.951,222.145Z" transform="translate(-100.858 -131.239)" fill="#fff" stroke="#000" stroke-miterlimit="10" stroke-width="1"/>
      <path id="Trazado_6673" data-name="Trazado 6673" d="M189.676,212.565s-8.417-.482-9.139,1.2-.962,5.893,1.083,6.974,9.379,1.924,11.183-.12,1.147-6.164-.416-7.006A10.23,10.23,0,0,0,189.676,212.565Z" transform="translate(-100.197 -129.623)" fill="#fff" stroke="#000" stroke-miterlimit="10" stroke-width="1"/>
      <path id="Trazado_6674" data-name="Trazado 6674" d="M204.2,214.738s2.068-4.236.591-7.388-4.728-2.462-6.107-1.477a7.3,7.3,0,0,0-2.1,2.535s3.481-.072,4.959,1.405S204.2,214.738,204.2,214.738Z" transform="translate(-103.052 -128.351)" stroke="#000" stroke-miterlimit="10" stroke-width="1"/>
      <path id="Trazado_6675" data-name="Trazado 6675" d="M203.384,209.822a2.48,2.48,0,0,0-1.641-1.766c-1.646-.545-4.387-1.1-5.329.779-1.379,2.76-1.379,9.933,2.76,11.313s5.242-1.931,4.966-5.518A30.577,30.577,0,0,0,203.384,209.822Z" transform="translate(-102.88 -128.779)" fill="#fff" stroke="#000" stroke-miterlimit="10" stroke-width="1"/>
    </g>
    <g id="Grupo_2395" data-name="Grupo 2395" transform="translate(4345.633 4045.479)">
      <path id="Trazado_6676" data-name="Trazado 6676" d="M339.879,250.034c-4.941-3.526-14.2-6.9-22.723-1.515-8.56,5.407-8.661,17.429-8.408,21.662,8.7-.385,23.465-3.828,27.341-7.475C338.812,260.143,339.64,254.99,339.879,250.034Z" transform="translate(-308.685 -245.703)" stroke="#000" stroke-miterlimit="10" stroke-width="1"/>
      <g id="Grupo_2375" data-name="Grupo 2375" transform="translate(2.673 4.852)">
        <path id="Trazado_6677" data-name="Trazado 6677" d="M317.173,319.013a6.419,6.419,0,0,0-1.545,5.665c.773,3.348,0,32.445,0,32.445s.257,6.952,12.36,8.755,16.222-1.545,16.222-1.545-.257-36.565-.515-40.685a12.757,12.757,0,0,0-2.318-6.695Z" transform="translate(-312.527 -262.829)" fill="#fff" stroke="#000" stroke-miterlimit="10" stroke-width="1"/>
        <path id="Trazado_6678" data-name="Trazado 6678" d="M341.377,316.954l-24.2,2.059a6.419,6.419,0,0,0-1.545,5.665,89.765,89.765,0,0,1,.342,11.037,26.8,26.8,0,0,1,13.585,9.449c5.813,7.586,9.665,20.9,9.665,20.9a11.542,11.542,0,0,0,4.99-1.727s-.257-36.565-.515-40.685A12.757,12.757,0,0,0,341.377,316.954Z" transform="translate(-312.527 -262.829)" fill="#fedc00" opacity="0.49" style="mix-blend-mode: multiply;isolation: isolate"/>
        <path id="Trazado_6679" data-name="Trazado 6679" d="M340.25,254.7s-2.832-3.6-13.39-3.09-15.192,13.132-14.935,15.707,1.8,37.08,2.832,39.912,12.875,5.408,21.63,3.863,9.527-9.271,8.5-14.678-2.575-37.08-2.575-38.109S341.538,256.249,340.25,254.7Z" transform="translate(-311.915 -251.564)" fill="#fff" stroke="#000" stroke-miterlimit="10" stroke-width="1"/>
        <path id="Trazado_6681" data-name="Trazado 6681" d="M345.023,296.789c-1.031-5.408-2.575-37.08-2.575-38.109s-.772-2.06-2.06-3.6a6.117,6.117,0,0,0-1.922-1.362l-1.235.514s.552,5.518.552,12.692,2.5,28.491-3.7,29.87-21.129-24.353-21.129-24.353l-.237,6.7c.61,11.159,1.506,26.614,2.181,28.47,1.031,2.832,12.875,5.408,21.63,3.863S346.052,302.2,345.023,296.789Z" transform="translate(-312.052 -251.934)" fill="#fedc00" opacity="0.49" style="mix-blend-mode: multiply;isolation: isolate"/>
        <path id="Trazado_6680" data-name="Trazado 6680" d="M316.282,318.951s7.468,6.695,16.223,6.18,11.073-6.18,11.073-6.18.772-2.575-9.27-4.893S316.282,318.951,316.282,318.951Z" transform="translate(-312.667 -262.251)" stroke="#000" stroke-miterlimit="10" stroke-width="1"/>
      </g>
    </g>
    <g id="Grupo_2396" data-name="Grupo 2396" transform="translate(4317.038 3939.069)">
      <ellipse id="Elipse_136" data-name="Elipse 136" cx="24.524" cy="26.486" rx="24.524" ry="26.486" transform="translate(6.621 2.943)" stroke="#000" stroke-miterlimit="10" stroke-width="1"/>
      <ellipse id="Elipse_137" data-name="Elipse 137" cx="27.712" cy="26.486" rx="27.712" ry="26.486" transform="translate(3.433)" fill="#fff" stroke="#000" stroke-miterlimit="10" stroke-width="1"/>
      <path id="Trazado_6682" data-name="Trazado 6682" d="M318.463,119.576c.945,12.151-2.08,32.579-29.374,43.954a28.325,28.325,0,0,0,18.77,7.006c15.3,0,27.712-11.858,27.712-26.486A26.515,26.515,0,0,0,318.463,119.576Z" transform="translate(-276.714 -117.564)" fill="#fedc00" opacity="0.49" style="mix-blend-mode: multiply;isolation: isolate"/>
      <circle id="Elipse_138" data-name="Elipse 138" cx="3.065" cy="3.065" r="3.065" transform="translate(0 18.883)" fill="#fff" stroke="#000" stroke-miterlimit="10" stroke-width="1"/>
      <g id="Grupo_2377" data-name="Grupo 2377" transform="translate(8.093 10.791)">
        <ellipse id="Elipse_140" data-name="Elipse 140" cx="22.685" cy="19.006" rx="22.685" ry="19.006" stroke="#000" stroke-miterlimit="10" stroke-width="1"/>
        <path id="Trazado_6683" data-name="Trazado 6683" d="M289.228,140.642v8.829l1.413-6.71,3.885,8.123V141.7l15.187,21.9-10.6-24.371h4.945l-3.532-3.179,6.358-1.766-8.124-.706S292.407,135.344,289.228,140.642Z" transform="translate(-284.831 -130.767)" fill="#fedc00"/>
      </g>
    </g>
    <g id="Grupo_2397" data-name="Grupo 2397" transform="translate(4368.428 3983.87)">
      <path id="Trazado_6684" data-name="Trazado 6684" d="M363.122,191.284s.239.133.67.377c3.526,1.987,19.912,11.337,23.791,15.585,4.353,4.767-5.8,11.815-14.51,13.888s-25.5-12.644-27.985-15.546-4.768-18.448,1.037-21.35S363.122,191.284,363.122,191.284Z" transform="translate(-337.302 -173.413)" fill="#fff" stroke="#000" stroke-miterlimit="10" stroke-width="1"/>
      <path id="Trazado_6685" data-name="Trazado 6685" d="M387.582,207.246c-3.879-4.249-20.264-13.6-23.791-15.585l-.67-.377s-11.193-9.949-17-7.047-3.524,18.448-1.037,21.35a66.336,66.336,0,0,0,8.492,7.378L369.4,199.124,388.2,211.56A3.717,3.717,0,0,0,387.582,207.246Z" transform="translate(-337.302 -173.413)" fill="#fedc00" opacity="0.49" style="mix-blend-mode: multiply;isolation: isolate"/>
      <path id="Trazado_6686" data-name="Trazado 6686" d="M338.87,175.255a14.3,14.3,0,0,1,4.721-3.094c11.846-4.5,18.175,9.034,20.414,18.288,0,0-2.76,2.207-9.657,1.1s-16.829-5.793-17.935-9.66C335.725,179.482,337,177.1,338.87,175.255Z" transform="translate(-336.224 -171.271)" stroke="#000" stroke-miterlimit="10" stroke-width="1"/>
      <path id="Trazado_6687" data-name="Trazado 6687" d="M367.168,221.066s11.4-13.474,19.485-13.682,11.816,6.012,10.986,10.986-7.048,10.572-7.048,10.572,4.353-14.925-2.073-14.925S367.168,221.066,367.168,221.066Z" transform="translate(-341.555 -177.491)" stroke="#000" stroke-miterlimit="10" stroke-width="1"/>
      <path id="Trazado_6688" data-name="Trazado 6688" d="M361.663,225.014s13.681-11.193,23.424-12.644,13.266,10.365,4.145,17.412-15.132,9.95-21.558,9.121S356.066,231.647,361.663,225.014Z" transform="translate(-340.196 -178.33)" fill="#fff" stroke="#000" stroke-miterlimit="10" stroke-width="1"/>
      <path id="Trazado_6689" data-name="Trazado 6689" d="M373.911,237.537s19.834-8.318,23.353-20.154" transform="translate(-342.717 -179.215)" fill="none" stroke="#000" stroke-miterlimit="10" stroke-width="0.5"/>
      <path id="Trazado_6690" data-name="Trazado 6690" d="M391.55,213.382c.14,2.411-.584,8.574-10.6,12.927-12.692,5.518-15.245,5.533-15.245,5.533a8.926,8.926,0,0,1-.991,5.988,11.032,11.032,0,0,0,3.893,1.267c6.426.829,12.437-2.073,21.558-9.121C397.252,224.505,396.706,216.161,391.55,213.382Z" transform="translate(-341.133 -178.525)" fill="#fedc00" opacity="0.49" style="mix-blend-mode: multiply;isolation: isolate"/>
      <path id="Trazado_6691" data-name="Trazado 6691" d="M356.149,232.149s2.487-3.317,6.011-3.731,7.255,4.56,8.5,8.706-.415,6.219-2.28,6.84S356.149,232.149,356.149,232.149Z" transform="translate(-339.657 -181.111)" stroke="#000" stroke-miterlimit="10" stroke-width="1"/>
      <path id="Trazado_6692" data-name="Trazado 6692" d="M366.47,244.571s1.244-3.938-4.146-9.535-7.255-2.487-12.023.208-6.426,7.462-4.353,10.779,2.9,5.389,9.121,6.426,9.743-5.389,9.743-5.389A4.337,4.337,0,0,0,366.47,244.571Z" transform="translate(-337.748 -181.718)" fill="#fff" stroke="#000" stroke-miterlimit="10" stroke-width="1"/>
      <path id="Trazado_6693" data-name="Trazado 6693" d="M367.325,250.21s-4.768,2.9-7.67,3.11" transform="translate(-340.261 -184.87)" fill="#fff" stroke="#000" stroke-linecap="round" stroke-miterlimit="10" stroke-width="1"/>
      <path id="Trazado_6694" data-name="Trazado 6694" d="M357.958,244.5a69.253,69.253,0,0,1-11.414,2.725c1.842,3,2.914,4.9,8.779,5.874,6.219,1.037,9.743-5.389,9.743-5.389a4.337,4.337,0,0,0,1.658-2.487s1.244-3.938-4.146-9.535C362.578,235.685,364.028,242.292,357.958,244.5Z" transform="translate(-338.002 -182.367)" fill="#fedc00" opacity="0.49" style="mix-blend-mode: multiply;isolation: isolate"/>
    </g>
    <g id="Grupo_2398" data-name="Grupo 2398" transform="translate(4253.932 4130.612)">
      <g id="Grupo_2381" data-name="Grupo 2381">
        <path id="Trazado_6695" data-name="Trazado 6695" d="M201.5,402.538s-7.725-5.518-.552-12.692,12.14-5.518,14.9-12.14,5.518-18.762,25.936-25.935,40.834-1.1,50.767,6.07,28.143,12.14,38.076,11.036,22.073,8.829,23.728,17.659,4.966,9.933,6.622,11.588,3.311,6.07,3.311,6.07h-150.1S205.365,405.3,201.5,402.538Z" transform="translate(-197.899 -348.554)" stroke="#000" stroke-miterlimit="10" stroke-width="1"/>
        <path id="Trazado_6696" data-name="Trazado 6696" d="M371.991,383.886s4.716,7.075,1.768,12.971-8.254,5.9-8.254,5.9" transform="translate(-226.773 -354.641)" stroke="#fff" stroke-miterlimit="10" stroke-width="1"/>
        <path id="Trazado_6697" data-name="Trazado 6697" d="M360.938,402.4s0,2.359-8.254,5.307" transform="translate(-224.564 -357.831)" stroke="#fff" stroke-miterlimit="10" stroke-width="1"/>
        <path id="Trazado_6698" data-name="Trazado 6698" d="M268.08,411.646c-2.609.739-4.434,1.2-4.434,1.2" transform="translate(-209.225 -359.423)" stroke="#fff" stroke-miterlimit="10" stroke-width="1"/>
        <path id="Trazado_6699" data-name="Trazado 6699" d="M296.486,379.879c-2.727,2.285-5.675,5.38-6.559,8.622-1.769,6.485,1.179,7.665-3.538,11.2-2.621,1.966-8.885,4.114-13.933,5.635" transform="translate(-210.743 -353.95)" stroke="#fff" stroke-miterlimit="10" stroke-width="1"/>
        <path id="Trazado_6700" data-name="Trazado 6700" d="M307.25,375.338s-1.124.661-2.686,1.785" transform="translate(-216.274 -353.168)" stroke="#fff" stroke-miterlimit="10" stroke-width="1"/>
        <path id="Trazado_6701" data-name="Trazado 6701" d="M269.2,400.268s-8.254,5.307-15.33,7.665-22.994-1.769-22.994-1.769" transform="translate(-203.581 -357.463)" stroke="#fff" stroke-miterlimit="10" stroke-width="1"/>
        <path id="Trazado_6702" data-name="Trazado 6702" d="M226.647,401.253a18.254,18.254,0,0,1-7.164-5.971" transform="translate(-201.617 -356.604)" stroke="#fff" stroke-miterlimit="10" stroke-width="1"/>
        <path id="Trazado_6703" data-name="Trazado 6703" d="M237.031,405.062a22.483,22.483,0,0,1-4.668-.926" transform="translate(-203.836 -358.129)" stroke="#fff" stroke-miterlimit="10" stroke-width="1"/>
      </g>
    </g>
    <path id="Trazado_6723" data-name="Trazado 6723" d="M285.418,245.485c-6.677-5.623-12.454-4.979-15.773-3.769-.536,2.717-.888,4.456-.974,4.714-.516,1.545,1.545,6.437,7.982,13.389a28.656,28.656,0,0,0,15.441,8.609C293.7,262.212,294.026,252.734,285.418,245.485Z" transform="translate(4043.854 3800.605)" stroke="#000" stroke-miterlimit="10" stroke-width="1"/>
    <g id="Grupo_2399" data-name="Grupo 2399" transform="translate(4288.094 4044.696)">
      <path id="Trazado_6705" data-name="Trazado 6705" d="M257.4,347.614s-12.1,6.438-12.36,13.39,6.952,6.953,14.935,4.893,18.282-10.558,20.085-11.33,7.983-4.378,6.695-9.528S278.517,335,278.517,335Z" transform="translate(-240.181 -260.302)" fill="#fff" stroke="#000" stroke-miterlimit="10" stroke-width="1"/>
      <path id="Trazado_6706" data-name="Trazado 6706" d="M286.846,347.76c-6.936,5.022-22.316,15.8-29.184,17.761a14.167,14.167,0,0,1-12.607-1.991c-.01,6.609,7.075,6.591,14.925,4.566,7.983-2.06,18.282-10.558,20.085-11.33C281.805,356.02,287.606,352.628,286.846,347.76Z" transform="translate(-240.184 -262.501)" fill="#fedc00" stroke="#000" stroke-miterlimit="10" stroke-width="1"/>
      <path id="Trazado_6707" data-name="Trazado 6707" d="M243.173,313.75s8.24,26.523,11.33,29.1,16.223.516,16.223.516a54.794,54.794,0,0,0,4.893,7.467c2.059,2.318,8.24.516,8.5-5.922s-3.606-15.45-3.606-15.45l-8.755-24.205s-10.3-2.059-19.827,0S243.173,313.75,243.173,313.75Z" transform="translate(-239.858 -255.02)" fill="#fff" stroke="#000" stroke-miterlimit="10" stroke-width="1"/>
      <path id="Trazado_6708" data-name="Trazado 6708" d="M288.585,350.093a17.464,17.464,0,0,1,.247,4.359" transform="translate(-247.683 -262.903)" fill="none" stroke="#000" stroke-linecap="round" stroke-miterlimit="10" stroke-width="0.5"/>
      <path id="Trazado_6709" data-name="Trazado 6709" d="M274.2,312.846s8.586,16.544,11.356,28.113" transform="translate(-245.205 -256.486)" fill="none" stroke="#000" stroke-linecap="round" stroke-miterlimit="10" stroke-width="0.5"/>
      <path id="Trazado_6710" data-name="Trazado 6710" d="M284.407,344.908c.257-6.437-3.606-15.45-3.606-15.45l-8.755-24.205a58.432,58.432,0,0,0-16.574-.548,39.061,39.061,0,0,1-6.39,1.516,9.83,9.83,0,0,0-4.233,3.143c2.2.7,4.692,1.45,7.3,2.145,8.277,2.208,11.036-1.1,12.692,5.518s3.525,20.115,6.177,26.337a54.794,54.794,0,0,0,4.893,7.467C277.969,353.148,284.15,351.346,284.407,344.908Z" transform="translate(-240.149 -255.021)" fill="#fedc00" opacity="0.49" style="mix-blend-mode: multiply;isolation: isolate"/>
      <path id="Trazado_6711" data-name="Trazado 6711" d="M241.456,300.708s-3.862,4.893-1.545,10.815,11.587,7.467,19.57,4.634,12.36-9.785,11.33-13.389S241.456,300.708,241.456,300.708Z" transform="translate(-239.171 -254.339)" stroke="#000" stroke-miterlimit="10" stroke-width="1"/>
      <path id="Trazado_6712" data-name="Trazado 6712" d="M286.477,267.178s-10.3,23.69-16.995,28.583-21.63,5.149-27.038-.773,1.03-19.827,7.725-30.642,10.042-20.086,17.51-19.57S287.507,254.561,286.477,267.178Z" transform="translate(-239.387 -244.756)" fill="#fff" stroke="#000" stroke-miterlimit="10" stroke-width="1"/>
      <path id="Trazado_6713" data-name="Trazado 6713" d="M267.5,307.6a15.4,15.4,0,0,1-2.966,1.461" transform="translate(-242.54 -256.583)" fill="none" stroke="#000" stroke-linecap="round" stroke-miterlimit="10" stroke-width="0.5"/>
      <path id="Trazado_6714" data-name="Trazado 6714" d="M288.7,274.424c-3.2,6.811-9.187,18.173-16.205,24.651" transform="translate(-244.911 -249.867)" fill="none" stroke="#000" stroke-linecap="round" stroke-miterlimit="10" stroke-width="0.5"/>
      <path id="Trazado_6716" data-name="Trazado 6716" d="M264.289,292.659c-5.791,4.877-13.6,6.384-19.431,6.758,6.339,4.413,19.285,3.807,25.388-.652,6.695-4.893,16.995-28.583,16.995-28.583a18.235,18.235,0,0,0-1.154-7.993C283.184,267.5,273.146,285.2,264.289,292.659Z" transform="translate(-240.151 -247.759)" fill="#fedc00" opacity="0.49" style="mix-blend-mode: multiply;isolation: isolate"/>
    </g>
    <g id="Grupo_2400" data-name="Grupo 2400" transform="translate(4192.274 3972.433) rotate(-16)">
      <path id="Trazado_2701" data-name="Trazado 2701" d="M3238,938.518l11.1,11.1h10.674l-10.674-11.1,10.674-11.018H3249.1Z" transform="translate(-3226.207 -927.5)"/>
      <path id="Trazado_2702" data-name="Trazado 2702" d="M3207.021,956.3h9.125l-3.443-3.443,3.443-3.357h-9.125l-3.271,3.357Z" transform="translate(-3203.75 -941.925)"/>
      <path id="Trazado_2703" data-name="Trazado 2703" d="M3219,974.5l3.874,3.874h8.866l-3.7-3.874Z" transform="translate(-3213.749 -958.317)"/>
      <path id="Trazado_2704" data-name="Trazado 2704" d="M3231.74,974.5l-3.874,3.874H3219l3.7-3.874Z" transform="translate(-3213.749 -972.434)"/>
    </g>
  </g>
</svg>
