<svg xmlns="http://www.w3.org/2000/svg" width="52" height="52" viewBox="0 0 52 52">
  <g id="Grupo_1816" data-name="Grupo 1816" transform="translate(-953 -842)">
    <rect id="Rectángulo_2079" data-name="Rectángulo 2079" width="52" height="52" rx="15" transform="translate(953 842)" fill="#fd0"/>
    <rect id="Rectángulo_2078" data-name="Rectángulo 2078" width="38" height="33" rx="8" transform="translate(959 853)"/>
    <path id="Rectángulo_2317" data-name="Rectángulo 2317" d="M6.329,0h8.179A6.329,6.329,0,0,1,8.179,6.329H0A6.329,6.329,0,0,1,6.329,0Z" transform="translate(961.723 855.806)"/>
    <path id="Rectángulo_2318" data-name="Rectángulo 2318" d="M6.329,0h8.179A6.329,6.329,0,0,1,8.179,6.329H0A6.329,6.329,0,0,1,6.329,0Z" transform="translate(961.723 875.774)"/>
    <path id="Rectángulo_2319" data-name="Rectángulo 2319" d="M3.166,0H14.508V6.329H3.163A3.163,3.163,0,0,1,0,3.166H0A3.166,3.166,0,0,1,3.166,0Z" transform="translate(961.723 865.79)"/>
    <path id="Trazado_7977" data-name="Trazado 7977" d="M259.871,592.95l-9.975-9.984v-6.329l8.074-6.1,3.684,1.213,1.168,3.189-2.964,4.776,8.885,8.939a2.523,2.523,0,0,1-1.789,4.3Z" transform="translate(726.137 289.154)"/>
    <path id="Trazado_7978" data-name="Trazado 7978" d="M213.626,524.126H194.8a14.539,14.539,0,0,0-14.539,14.539V557.5A14.539,14.539,0,0,0,194.8,572.035h18.831A14.539,14.539,0,0,0,228.165,557.5V538.665A14.539,14.539,0,0,0,213.626,524.126Zm1.356,11.19,4.336-.384c2.258,0,1.472.8-.134,2.387l-2.794,4.3L215.524,539a.517.517,0,0,0-.3-.3l-3.311-1.087Zm-27,2.781a3.165,3.165,0,0,1,3.165-3.165H202.49V538.1a3.165,3.165,0,0,1-3.165,3.165H187.984Zm14.508,19.968a3.165,3.165,0,0,1-3.165,3.165H187.984v-3.164a3.165,3.165,0,0,1,3.165-3.165h11.343Zm16.9,3.165h-7.128l-9.975-9.985H191.142a3.158,3.158,0,0,1-3.158-3.158v-.014a3.158,3.158,0,0,1,3.158-3.158h10.972l8.19-6.11,3.747,1.218,1.209,3.337-3.005,4.628,8.927,8.927a2.526,2.526,0,0,1-1.782,4.315Z" transform="translate(773.739 320.874)" fill="#fd0"/>
    <path id="Trazado_7979" data-name="Trazado 7979" d="M276.018,551.348l-6.494-2.135a.474.474,0,0,1-.02-.893l7.309-2.775,7.575-2.877a.474.474,0,0,1,.611.611l-2.876,7.575-2.776,7.309a.474.474,0,0,1-.893-.02l-2.135-6.494a.474.474,0,0,0-.3-.3Z" transform="translate(712.942 308.222)"/>
  </g>
</svg>
