<svg id="Capa_1" enable-background="new 0 0 512 512" height="512" viewBox="0 0 512 512" width="512" xmlns="http://www.w3.org/2000/svg"><g><g><path d="m118.374 38.666h95.787v30h-95.787z" fill="#676e74"/></g><g><path d="m297.839 38.666h95.787v30h-95.787z" fill="#474f55"/></g><g><path d="m285.011 107.331h-58.023c-50.046 0-90.616 40.57-90.616 90.616v196.568l68.773 36.426h101.708l68.773-36.426v-196.568c.001-50.046-40.569-90.616-90.615-90.616z" fill="#00ddc0"/><path d="m285.011 107.331h-29.011v323.61h50.854l68.773-36.426v-196.568c0-50.046-40.57-90.616-90.616-90.616z" fill="#00ba9f"/><path d="m256 512c-28.086 0-50.854-22.768-50.854-50.854v-133.26c0-28.086 22.768-50.854 50.854-50.854 28.086 0 50.854 22.768 50.854 50.854v133.26c0 28.086-22.768 50.854-50.854 50.854z" fill="#474f55"/><path d="m256 277.031v234.969c28.086 0 50.854-22.768 50.854-50.854v-133.26c0-28.087-22.768-50.855-50.854-50.855z" fill="#32393f"/><circle cx="256" cy="53.666" fill="#ffdd46" r="53.666"/><path d="m256 0v107.331c29.639 0 53.666-24.027 53.666-53.666 0-29.638-24.027-53.665-53.666-53.665z" fill="#fcbe00"/></g></g></svg>