<svg id="Capa_1" enable-background="new 0 0 512 512" height="512" viewBox="0 0 512 512" width="512" xmlns="http://www.w3.org/2000/svg"><g><g><path d="m327.148 454.23-221.944 3.135-8.217-77.938h263.929z" fill="#d0e8ff"/></g><g><path d="m327.148 454.23-98.196 3.135v-77.938h131.964z" fill="#9dcfff"/></g><g><path d="m335.994 471.465h-228.009v-30h210.197l89.503-164.139 26.337 14.362z" fill="#00ddc0"/></g><g><path d="m335.994 471.465h-107.042v-30h89.23l89.503-164.139 26.337 14.362z" fill="#00ba9f"/></g><g><path d="m424.604 383.913-62.083-335.384h-55.469v-30h80.426l66.624 359.923z" fill="#009a84"/></g><g><g><path d="m63.644 493.471c-35.094 0-63.644-28.551-63.644-63.645 0-35.093 28.55-63.644 63.644-63.644s63.644 28.551 63.644 63.644c-.001 35.094-28.551 63.645-63.644 63.645z" fill="#676e74"/></g><g><path d="m448.356 493.471c-35.093 0-63.644-28.551-63.644-63.645 0-35.093 28.551-63.644 63.644-63.644s63.644 28.551 63.644 63.644c0 35.094-28.551 63.645-63.644 63.645z" fill="#474f55"/></g></g></g></svg>