<svg id="Capa_1" enable-background="new 0 0 512 512" height="512" viewBox="0 0 512 512" width="512" xmlns="http://www.w3.org/2000/svg"><g><g><g><g><g><path d="m283.793 24.765h94.351v30h-94.351z" fill="#3ba9ff"/></g><g><path d="m133.856 24.765h89.345v30h-89.345z" fill="#72bbff"/></g></g></g></g><path d="m223.818 0h64.363v429.827h-64.363z" fill="#d0e8ff"/><path d="m256 0h32.182v429.827h-32.182z" fill="#9dcfff"/><path d="m103.44 408.464h305.119v64.363h-305.119z" fill="#3ba9ff"/><path d="m256 408.464h152.56v64.363h-152.56z" fill="#0081ff"/><g><path d="m87.112 512c-24.434 0-44.241-19.807-44.241-44.241v-150.261c0-24.434 19.807-44.241 44.241-44.241 24.434 0 44.241 19.807 44.241 44.241v150.261c0 24.434-19.808 44.241-44.241 44.241z" fill="#d0e8ff"/><path d="m424.888 512c-24.434 0-44.241-19.807-44.241-44.241v-150.261c0-24.434 19.807-44.241 44.241-44.241 24.434 0 44.241 19.807 44.241 44.241v150.261c.001 24.434-19.807 44.241-44.241 44.241z" fill="#9dcfff"/></g><path d="m50.201 0h117.497v79.531h-117.497z" fill="#0081ff"/><path d="m344.301 0h117.497v79.531h-117.497z" fill="#005fe3"/></g></svg>