<svg width="108" height="108" viewBox="0 0 108 108" fill="none" xmlns="http://www.w3.org/2000/svg">
	<mask id="mask0" mask-type="alpha" maskUnits="userSpaceOnUse" x="0" y="0" width="108" height="108">
		<path d="M0 54C0 24.1766 24.1766 0 54 0C83.8234 0 108 24.1766 108 54C108 83.8234 83.8234 108 54 108H0V54Z" fill="#C4C4C4"/>
	</mask>
	<g mask="url(#mask0)">
		<rect width="108" height="108" fill="#F4EDE4"/>
		<path d="M99 68.2414L67.857 51.5L16.4846 81.2174L40.7219 96.8752C41.426 97.3358 42.2655 97.6067 43.1051 97.6879L46.7068 97.9588C47.3297 97.9859 47.9255 97.8234 48.44 97.5254L99 68.2414Z" fill="black"/>
		<path d="M48.7109 96.6855L16.4847 77.804L13.6412 79.1855C12.6392 79.6731 12.6121 81.0547 13.5599 81.5965L41.3178 97.1189C42.1844 97.6065 43.2135 97.7691 44.1884 97.5794L48.7109 96.6855Z" fill="black"/>
		<path d="M47.6002 94.5454L16.4571 77.804V79.0501C16.4571 79.9711 16.9717 80.838 17.7841 81.2714L46.4899 96.7126C47.194 97.0918 48.0064 97.0647 48.7105 96.6855L49.4688 96.252L47.6002 94.5454Z" fill="#381038"/>
		<path d="M65.691 46.8946L65.6097 12.7616L18.5431 39.9596L18.6244 74.0927L65.691 46.8946ZM41.8869 27.6609C42.1306 27.5255 42.3202 27.1733 42.3202 26.9024C42.3202 26.6315 42.1306 26.5231 41.8869 26.6586C41.6431 26.794 41.4536 27.1462 41.4536 27.4171C41.4536 27.688 41.6431 27.7964 41.8869 27.6609ZM16.3767 38.7406L67.7491 9.05029L67.8574 48.1407L16.485 77.8039L16.3767 38.7406Z" fill="#F4EDE4"/>
		<path d="M65.6092 12.7886L65.6904 46.8945L18.6239 74.0926L18.5426 39.9595L65.6092 12.7886Z" fill="#4A154B"/>
		<path d="M16.4844 77.804L14.8866 76.9372C14.3721 76.6663 14.0471 76.0974 14.0471 75.5014V37.332L16.376 38.6594L16.4844 77.804Z" fill="#381038"/>
		<path d="M67.8574 9.05029L65.5285 7.7229L14.0206 37.3319L16.3767 38.7406L67.8574 9.05029Z" fill="#F4EDE4"/>
		<path d="M99 64.8281V66.7244C99 67.2662 98.7021 67.7809 98.2417 68.0518L48.7108 96.7127C48.2234 96.9836 47.6276 96.6314 47.6276 96.0896V94.5455L99 64.8281Z" fill="#4A154B"/>
		<path d="M99 64.8278L67.857 48.0864L16.4846 77.8038L47.6005 94.5452L99 64.8278Z" fill="#F4EDE4"/>
		<path d="M79.9896 62.5522L65.6638 54.8317C65.2846 54.6149 64.7972 54.6149 64.418 54.8588L29.5378 75.0406C29.0504 75.3386 29.0504 76.0429 29.5649 76.3138L43.7553 83.9531C44.2428 84.224 44.8385 84.1969 45.2989 83.926L80.0166 63.8254C80.5041 63.5546 80.5041 62.8231 79.9896 62.5522Z" fill="#4A154B"/>
		<path d="M77.985 74.1739L71.7022 70.7877C71.5939 70.7335 71.4314 70.7335 71.3231 70.7877L59.6512 77.5872C59.4075 77.7227 59.4075 78.1019 59.6512 78.2374L65.7174 81.5152C65.9882 81.6507 66.3131 81.6507 66.5839 81.4881L78.0121 74.8512C78.2829 74.7157 78.2558 74.3094 77.985 74.1739Z" fill="#4A154B"/>
		<path d="M24.7711 73.0089L61.3845 51.8247L62.1156 52.2311C62.4406 52.3936 62.4406 52.8541 62.1156 53.0437L26.9105 73.4152C26.4772 73.659 25.9356 73.6861 25.4752 73.4423L24.7711 73.0089Z" fill="#4A154B"/>
		<path d="M46.6793 42.2083L48.1688 41.3415C48.9812 40.8539 49.6582 41.2602 49.6582 42.1813C49.6582 43.1294 49.0083 44.2672 48.1688 44.7548C47.3563 45.2424 46.6793 44.8361 46.6793 43.915V42.2083Z" fill="#F4EDE4"/>
		<path d="M44.4588 43.5087C45.2712 43.0211 45.9482 43.4274 45.9482 44.3485V48.6287C45.9482 49.5768 45.2983 50.7146 44.4588 51.2022C43.6464 51.6898 42.9693 51.2835 42.9693 50.3353V46.0551C42.9693 45.1341 43.6193 43.9692 44.4588 43.5087Z" fill="#F4EDE4"/>
		<path d="M44.4314 34.9482C45.2439 34.4606 45.9209 34.867 45.9209 35.8151C45.9209 36.7632 45.271 37.901 44.4314 38.3886L42.942 39.2555V37.5488C42.942 36.5736 43.619 35.4358 44.4314 34.9482Z" fill="#F4EDE4"/>
		<path d="M44.4313 39.2286L48.1414 37.0885C48.9538 36.6009 49.6309 37.0073 49.6309 37.9283C49.6309 38.8765 48.9809 40.0142 48.1414 40.5018L44.4313 42.6419C43.6189 43.1295 42.9419 42.7232 42.9419 41.8021C42.969 40.854 43.6189 39.7162 44.4313 39.2286Z" fill="#F4EDE4"/>
		<path d="M37.0115 43.5358C37.824 43.0482 38.501 43.4545 38.501 44.3756V46.0822L37.0115 46.9491C36.1991 47.4367 35.5221 47.0575 35.5221 46.1093C35.5221 45.1612 36.172 43.9963 37.0115 43.5358Z" fill="#F4EDE4"/>
		<path d="M40.7215 37.0884C41.5339 36.6008 42.2109 37.0071 42.2109 37.9552V42.2354C42.2109 43.1836 41.561 44.3213 40.7215 44.8089C39.9091 45.2966 39.232 44.8902 39.232 43.9692V39.689C39.232 38.7138 39.882 37.576 40.7215 37.0884Z" fill="#F4EDE4"/>
		<path d="M40.7488 49.9286L42.2383 49.0618V50.7684C42.2383 51.7165 41.5883 52.8543 40.7488 53.3419C39.9364 53.8295 39.2594 53.4232 39.2594 52.4751C39.2594 51.554 39.9364 50.4162 40.7488 49.9286Z" fill="#F4EDE4"/>
		<path d="M37.0114 47.8158L40.7215 45.6757C41.5339 45.1881 42.2109 45.5944 42.2109 46.5155C42.2109 47.4636 41.561 48.6014 40.7215 49.089L37.0114 51.2291C36.199 51.7167 35.522 51.3103 35.522 50.3893C35.522 49.4412 36.199 48.2763 37.0114 47.8158Z" fill="#F4EDE4"/>
	</g>
</svg>
