<svg xmlns="http://www.w3.org/2000/svg" width="12" height="14" viewBox="0 0 12 14">
  <g id="album" transform="translate(-4.281 -2.769)">
    <path id="Icon_color" data-name="Icon color" d="M10.5,14h-9A1.454,1.454,0,0,1,0,12.6V1.4A1.454,1.454,0,0,1,1.5,0h9A1.454,1.454,0,0,1,12,1.4V12.6A1.454,1.454,0,0,1,10.5,14ZM3.75,5.977a.411.411,0,0,1,.21.057l1.455.91a.392.392,0,0,0,.21.06A.4.4,0,0,0,5.8,6.962.346.346,0,0,0,6,6.65V1.75a.364.364,0,0,0-.375-.35H1.875a.364.364,0,0,0-.375.35v4.9a.346.346,0,0,0,.2.312A.4.4,0,0,0,1.875,7a.392.392,0,0,0,.21-.06l1.455-.91A.411.411,0,0,1,3.75,5.977Z" transform="translate(4.281 2.769)"/>
  </g>
</svg>
