<svg xmlns="http://www.w3.org/2000/svg" width="22" height="25" viewBox="0 0 22 25">
  <g id="Grupo_2254" data-name="Grupo 2254" transform="translate(-196 -819)">
    <path id="Sustracción_1" data-name="Sustracción 1" d="M-5318.055-15h-18.334a.618.618,0,0,1-.611-.624v-2.5a.619.619,0,0,1,.611-.626h1.833V-27.5h-1.833a.619.619,0,0,1-.611-.625v-2.288a1.247,1.247,0,0,1,.758-1.149l7.822-3.251a2.39,2.39,0,0,1,.928-.188h.558a2.386,2.386,0,0,1,.933.188l7.8,3.251a1.247,1.247,0,0,1,.758,1.149v2.288a.619.619,0,0,1-.611.625h-1.834v8.749h1.834a.619.619,0,0,1,.611.626v2.5A.618.618,0,0,1-5318.055-15ZM-5326-27.5v8.749h3.667V-27.5Zm-6.11,0v8.749h3.667V-27.5Z" transform="translate(5534.223 854)" fill="#fff"/>
    <path id="Path" d="M21.389,0H.611A.618.618,0,0,0,0,.625v1.25A.618.618,0,0,0,.611,2.5H21.389A.618.618,0,0,0,22,1.875V.625A.618.618,0,0,0,21.389,0Z" transform="translate(196 841.5)" fill="#fff" opacity="0.3"/>
  </g>
</svg>
