<svg xmlns="http://www.w3.org/2000/svg" width="23" height="23" viewBox="0 0 23 23">
  <g id="Grupo_2263" data-name="Grupo 2263" transform="translate(-34 -57)">
    <path id="Path" d="M8.944,2.556V6.389A2.556,2.556,0,0,1,6.389,8.944H2.556A2.556,2.556,0,0,1,0,6.389V2.556A2.556,2.556,0,0,1,2.556,0H6.389A2.556,2.556,0,0,1,8.944,2.556Z" transform="translate(34 57)" opacity="0.26"/>
    <path id="Path-2" data-name="Path" d="M6.389,0H2.556A2.556,2.556,0,0,0,0,2.556V6.389A2.556,2.556,0,0,0,2.556,8.944H6.389A2.556,2.556,0,0,0,8.944,6.389V2.556A2.556,2.556,0,0,0,6.389,0Z" transform="translate(48.056 57)"/>
    <path id="Path-3" data-name="Path" d="M6.389,0H2.556A2.556,2.556,0,0,0,0,2.556V6.389A2.556,2.556,0,0,0,2.556,8.944H6.389A2.556,2.556,0,0,0,8.944,6.389V2.556A2.556,2.556,0,0,0,6.389,0Z" transform="translate(34 71.056)"/>
    <path id="Path-4" data-name="Path" d="M6.389,0H2.556A2.556,2.556,0,0,0,0,2.556V6.389A2.556,2.556,0,0,0,2.556,8.944H6.389A2.556,2.556,0,0,0,8.944,6.389V2.556A2.556,2.556,0,0,0,6.389,0Z" transform="translate(48.056 71.056)" opacity="0.26"/>
  </g>
</svg>
