<svg id="Grupo_72" data-name="Grupo 72" xmlns="http://www.w3.org/2000/svg" xmlns:xlink="http://www.w3.org/1999/xlink" width="45" height="45" viewBox="0 0 45 45">
  <defs>
    <clipPath id="clip-path">
      <path id="Face_ID" data-name="Face ID" d="M37.705,45H32.652a1.143,1.143,0,0,1,0-2.286h5.054a5.014,5.014,0,0,0,5.009-5.009V32.652a1.143,1.143,0,0,1,2.286,0v5.054A7.3,7.3,0,0,1,37.705,45ZM12.348,45H7.294A7.3,7.3,0,0,1,0,37.705V32.652a1.143,1.143,0,0,1,2.286,0v5.054a5.014,5.014,0,0,0,5.008,5.009h5.054a1.143,1.143,0,1,1,0,2.286ZM22.5,36.342a11.578,11.578,0,0,1-7.884-3.083,1.186,1.186,0,0,1,1.609-1.744,9.248,9.248,0,0,0,12.55,0,1.186,1.186,0,1,1,1.609,1.744A11.578,11.578,0,0,1,22.5,36.342Zm-.659-7.909h-.968a1.187,1.187,0,0,1,0-2.374h.968A.66.66,0,0,0,22.5,25.4V16.963a1.187,1.187,0,0,1,2.374,0V25.4A3.036,3.036,0,0,1,21.841,28.433ZM31.925,21.4a1.122,1.122,0,0,1-1.121-1.12V16.9a1.121,1.121,0,0,1,2.241,0v3.384A1.122,1.122,0,0,1,31.925,21.4Zm-18.587,0a1.122,1.122,0,0,1-1.12-1.12V16.9a1.12,1.12,0,0,1,2.241,0v3.384A1.122,1.122,0,0,1,13.338,21.4Zm30.519-7.911a1.144,1.144,0,0,1-1.143-1.143V7.294a5.014,5.014,0,0,0-5.009-5.008H32.652a1.143,1.143,0,0,1,0-2.286h5.054A7.3,7.3,0,0,1,45,7.294v5.054A1.144,1.144,0,0,1,43.857,13.491Zm-42.714,0A1.144,1.144,0,0,1,0,12.348V7.294A7.3,7.3,0,0,1,7.294,0h5.054a1.143,1.143,0,0,1,0,2.286H7.294A5.014,5.014,0,0,0,2.286,7.294v5.054A1.144,1.144,0,0,1,1.143,13.491Z"/>
    </clipPath>
  </defs>
  <path id="Face_ID-2" data-name="Face ID" d="M37.705,45H32.652a1.143,1.143,0,0,1,0-2.286h5.054a5.014,5.014,0,0,0,5.009-5.009V32.652a1.143,1.143,0,0,1,2.286,0v5.054A7.3,7.3,0,0,1,37.705,45ZM12.348,45H7.294A7.3,7.3,0,0,1,0,37.705V32.652a1.143,1.143,0,0,1,2.286,0v5.054a5.014,5.014,0,0,0,5.008,5.009h5.054a1.143,1.143,0,1,1,0,2.286ZM22.5,36.342a11.578,11.578,0,0,1-7.884-3.083,1.186,1.186,0,0,1,1.609-1.744,9.248,9.248,0,0,0,12.55,0,1.186,1.186,0,1,1,1.609,1.744A11.578,11.578,0,0,1,22.5,36.342Zm-.659-7.909h-.968a1.187,1.187,0,0,1,0-2.374h.968A.66.66,0,0,0,22.5,25.4V16.963a1.187,1.187,0,0,1,2.374,0V25.4A3.036,3.036,0,0,1,21.841,28.433ZM31.925,21.4a1.122,1.122,0,0,1-1.121-1.12V16.9a1.121,1.121,0,0,1,2.241,0v3.384A1.122,1.122,0,0,1,31.925,21.4Zm-18.587,0a1.122,1.122,0,0,1-1.12-1.12V16.9a1.12,1.12,0,0,1,2.241,0v3.384A1.122,1.122,0,0,1,13.338,21.4Zm30.519-7.911a1.144,1.144,0,0,1-1.143-1.143V7.294a5.014,5.014,0,0,0-5.009-5.008H32.652a1.143,1.143,0,0,1,0-2.286h5.054A7.3,7.3,0,0,1,45,7.294v5.054A1.144,1.144,0,0,1,43.857,13.491Zm-42.714,0A1.144,1.144,0,0,1,0,12.348V7.294A7.3,7.3,0,0,1,7.294,0h5.054a1.143,1.143,0,0,1,0,2.286H7.294A5.014,5.014,0,0,0,2.286,7.294v5.054A1.144,1.144,0,0,1,1.143,13.491Z"/>
  <g id="Enmascarar_grupo_72" data-name="Enmascarar grupo 72" clip-path="url(#clip-path)">
    <g id="Color_02" data-name="Color/02">
      <rect id="Color" width="45" height="45"/>
    </g>
  </g>
</svg>
