<svg xmlns="http://www.w3.org/2000/svg" width="20" height="18.003" viewBox="0 0 20 18.003">
  <g id="hidden_outlined" transform="translate(-2 -2.998)" opacity="0.26">
    <path id="Icon_color" data-name="Icon color" d="M17.96,18a.483.483,0,0,1-.35-.151l-2.948-2.94A10.863,10.863,0,0,1,9.994,16H9.938A10.641,10.641,0,0,1,.06,9.311.79.79,0,0,1,0,9a1,1,0,0,1,.06-.32A9.6,9.6,0,0,1,3.748,4l-2.6-2.62a.481.481,0,0,1,0-.7l.53-.53a.48.48,0,0,1,.7,0l16.46,16.47a.481.481,0,0,1,0,.7l-.53.53A.482.482,0,0,1,17.96,18ZM5.2,5.441A8.081,8.081,0,0,0,2.069,9a8.813,8.813,0,0,0,7.924,5,8.97,8.97,0,0,0,3.118-.64L11.353,11.6a3,3,0,0,1-4-4Zm12.4,7.45h0l-1.419-1.42A7.207,7.207,0,0,0,17.919,9,8.814,8.814,0,0,0,9.994,4a7.988,7.988,0,0,0-1.189.09L7.115,2.4A10.7,10.7,0,0,1,19.988,8.7a.937.937,0,0,1,0,.3.806.806,0,0,1-.06.329,9.153,9.153,0,0,1-2.328,3.56Z" transform="translate(2 2.998)"/>
  </g>
</svg>
