<svg xmlns="http://www.w3.org/2000/svg" width="124.358" height="81.619" viewBox="0 0 124.358 81.619">
  <g id="Grupo_2242" data-name="Grupo 2242" transform="translate(-406 -265)">
    <path id="Trazado_6186" data-name="Trazado 6186" d="M757.515,308.929l37.005,37.69H759.732a11.285,11.285,0,0,1-7.994-3.32l-34.246-34.371a4.452,4.452,0,0,1-.023-6.261l33.665-34.289A11.285,11.285,0,0,1,759.188,265H794.52l-37.005,37.69A4.452,4.452,0,0,0,757.515,308.929Z" transform="translate(-264.162)" fill="#ffda1a"/>
    <path id="Trazado_6187" data-name="Trazado 6187" d="M582.894,686.395H553.1a7.433,7.433,0,0,1-5.337-2.26L536,672h29.355a8.186,8.186,0,0,1,5.848,2.458Z" transform="translate(-110.708 -346.602)"/>
    <path id="Trazado_6188" data-name="Trazado 6188" d="M535.716,332.395h29.318a8.563,8.563,0,0,0,6.149-2.6L582.61,318H552.938a7.433,7.433,0,0,0-5.31,2.232Z" transform="translate(-110.466 -45.135)"/>
    <path id="Trazado_6189" data-name="Trazado 6189" d="M443.6,470.665l9,9.563H422.178a9.439,9.439,0,0,1-6.793-2.886L406,467.614l9.077-9.644A9.438,9.438,0,0,1,421.95,455H452.6l-9,9.563A4.452,4.452,0,0,0,443.6,470.665Z" transform="translate(0 -161.804)" fill="#ffda1a"/>
  </g>
</svg>
