<svg xmlns="http://www.w3.org/2000/svg" width="13" height="16" viewBox="0 0 13 16">
  <g id="medal" transform="translate(-3.5 -2.125)">
    <path id="Icon_color" data-name="Icon color" d="M9.345,16H9.135a.824.824,0,0,1-.365-.088L6.685,14.889a.4.4,0,0,0-.357,0L4.244,15.912A.824.824,0,0,1,3.879,16H3.668a.4.4,0,0,1-.406-.4V11.505a2.019,2.019,0,0,1-1.784-1.2,1.845,1.845,0,0,1-.154-.7v-.28a1.83,1.83,0,0,0-.154-.7,1.845,1.845,0,0,0-.4-.6L.569,7.8a1.928,1.928,0,0,1-.4-.6A1.974,1.974,0,0,1,.561,5.018L.772,4.8a1.984,1.984,0,0,0,.559-1.3V3.2a2.006,2.006,0,0,1,1.93-1.911h.309A2,2,0,0,0,4.885.747L5.152.539a2.032,2.032,0,0,1,2.757,0l.219.208A2.039,2.039,0,0,0,9.451,1.3h.3a2,2,0,0,1,1.784,1.2,1.851,1.851,0,0,1,.154.7v.3a1.922,1.922,0,0,0,.154.7,1.9,1.9,0,0,0,.4.592l.2.24a1.928,1.928,0,0,1,.4.6,1.98,1.98,0,0,1-.389,2.144L12.241,8a1.984,1.984,0,0,0-.559,1.3v.3a2.008,2.008,0,0,1-1.93,1.9V15.6A.4.4,0,0,1,9.345,16ZM6.507,11.2h0l.037,0a.393.393,0,0,0,.239-.082l.235-.216a3.579,3.579,0,0,1,2.376-.96h.284a.386.386,0,0,0,.39-.368v-.3a3.608,3.608,0,0,1,.989-2.4l.219-.224a.362.362,0,0,0,.065-.432.459.459,0,0,0-.073-.119l-.219-.233A3.372,3.372,0,0,1,10.343,4.8a3.415,3.415,0,0,1-.276-1.247V3.283a.3.3,0,0,0,0-.16.362.362,0,0,0-.341-.232h-.3a3.711,3.711,0,0,1-2.433-.976L6.766,1.7a.368.368,0,0,0-.248-.1H6.507a.393.393,0,0,0-.268.1L6,1.923A3.629,3.629,0,0,1,3.619,2.9H3.335a.387.387,0,0,0-.39.368v.3a3.61,3.61,0,0,1-1.022,2.36L1.7,6.146a.366.366,0,0,0-.064.4.486.486,0,0,0,.105.152l.219.232A3.369,3.369,0,0,1,2.67,8a3.414,3.414,0,0,1,.317,1.247v.272a.3.3,0,0,0,0,.16.362.362,0,0,0,.341.232h.26a3.718,3.718,0,0,1,2.433.976l.227.216a.365.365,0,0,0,.248.1Z" transform="translate(3.5 2.125)"/>
  </g>
</svg>
