<svg xmlns="http://www.w3.org/2000/svg" width="12" height="15" viewBox="0 0 12 15">
  <g id="notifications" transform="translate(-2.6 -0.5)">
    <path id="Icon_color" data-name="Icon color" d="M6,15a1.5,1.5,0,0,1-1.5-1.5h3A1.5,1.5,0,0,1,6,15Zm5.25-3H.75A.751.751,0,0,1,0,11.25v-.443a.756.756,0,0,1,.217-.525L.84,9.66A2.263,2.263,0,0,0,1.5,8.07V6a4.526,4.526,0,0,1,.9-2.7l.675-.9a2.259,2.259,0,0,1,1.8-.9H5.25V.375A.375.375,0,0,1,5.625,0h.75A.376.376,0,0,1,6.75.375V1.5h.375a2.259,2.259,0,0,1,1.8.9l.675.9A4.526,4.526,0,0,1,10.5,6V8.07a2.262,2.262,0,0,0,.659,1.59l.623.622a.756.756,0,0,1,.217.525v.443A.751.751,0,0,1,11.25,12Z" transform="translate(2.6 0.5)"/>
  </g>
</svg>
