<svg xmlns="http://www.w3.org/2000/svg" width="13" height="13" viewBox="0 0 13 13">
  <g id="sign_out" transform="translate(16 16) rotate(180)">
    <path id="Icon_color" data-name="Icon color" d="M5.416,13H1.444A1.446,1.446,0,0,1,0,11.556V1.444A1.446,1.446,0,0,1,1.444,0H5.416a.362.362,0,0,1,.361.361v.722a.361.361,0,0,1-.361.361H1.444V11.556H5.416a.361.361,0,0,1,.361.361v.722A.362.362,0,0,1,5.416,13Zm3.456-2.168a.363.363,0,0,1-.256-.107L8.1,10.219a.36.36,0,0,1,0-.513L10.6,7.222H3.25a.361.361,0,0,1-.361-.361V6.139a.361.361,0,0,1,.361-.361H10.6L8.1,3.294a.353.353,0,0,1,0-.506l.513-.513a.361.361,0,0,1,.512,0l3.713,3.7A.555.555,0,0,1,13,6.363v.274a.545.545,0,0,1-.159.383L9.129,10.725A.363.363,0,0,1,8.872,10.832Z" transform="translate(3 3)"/>
  </g>
</svg>
