<svg xmlns="http://www.w3.org/2000/svg" width="30" height="30" viewBox="0 0 30 30">
  <g id="Stockholm-icons-_-Navigation-_-Up-down" data-name="Stockholm-icons-/-Navigation-/-Up-down" transform="translate(30) rotate(90)">
    <path id="Shape" d="M0,0H30V30H0Z" fill="none" fill-rule="evenodd"/>
    <rect id="Rectangle" width="2.5" height="15" rx="1.25" transform="translate(8.75 21.25) rotate(180)" fill="#ffda1a" opacity="0.3"/>
    <path id="Path-104" d="M11.866,28.366a1.25,1.25,0,0,1,1.768,1.768l-3.75,3.75a1.25,1.25,0,0,1-1.768,0l-3.75-3.75a1.25,1.25,0,0,1,1.768-1.768L9,31.232Z" transform="translate(-1.5 -10.5)" fill="#ffda1a"/>
    <rect id="Rectangle-Copy" width="2.5" height="15" rx="1.25" transform="translate(23.75 23.75) rotate(180)" fill="#ffda1a" opacity="0.3"/>
    <path id="Path-104-Copy" d="M35.866-14.116a1.25,1.25,0,0,0,1.768,0,1.25,1.25,0,0,0,0-1.768l-3.75-3.75a1.25,1.25,0,0,0-1.768,0l-3.75,3.75a1.25,1.25,0,0,0,0,1.768,1.25,1.25,0,0,0,1.768,0L33-16.982Z" transform="translate(-10.5 26.25)" fill="#ffda1a"/>
  </g>
</svg>
