<svg xmlns="http://www.w3.org/2000/svg" width="23.998" height="23" viewBox="0 0 23.998 23">
  <g id="Grupo_2255" data-name="Grupo 2255" transform="translate(-326.001 -821)">
    <path id="Path" d="M0,5.75A5.88,5.88,0,0,1,6,0a5.88,5.88,0,0,1,6,5.75A5.88,5.88,0,0,1,6,11.5,5.88,5.88,0,0,1,0,5.75Z" transform="translate(331.999 821)" fill="#fff" opacity="0.3"/>
    <path id="Path-2" data-name="Path" d="M23.869,7.533,21.6,3.174A6.034,6.034,0,0,0,16.236,0H7.762A6.034,6.034,0,0,0,2.4,3.174L.128,7.533A1.108,1.108,0,0,0,.177,8.652,1.212,1.212,0,0,0,1.2,9.2H22.8a1.212,1.212,0,0,0,1.019-.548A1.108,1.108,0,0,0,23.869,7.533Z" transform="translate(326.001 834.8)" fill="#fff"/>
  </g>
</svg>
